<svg width="91" height="12" viewBox="0 0 91 12" fill="none" xmlns="http://www.w3.org/2000/svg">
<g opacity="0.3">
<path d="M19.6009 3.5112L20.1978 2.78169L21.0268 3.42277L20.3747 4.18544C20.8168 4.70125 21.0378 5.26496 21.0378 5.87657C21.0378 6.37027 20.9163 6.80134 20.6731 7.16978C20.4299 7.53822 20.0688 7.81455 19.5899 7.99877C20.5478 8.32299 21.0268 8.91617 21.0268 9.77832C21.0268 10.4783 20.7357 11.0236 20.1536 11.4142C19.5788 11.8047 18.8972 12 18.1088 12C17.2098 12 16.4987 11.7826 15.9755 11.3479C15.4597 10.9205 15.2128 10.331 15.235 9.57936H16.3734C16.3587 9.98464 16.5208 10.3015 16.8598 10.5299C17.2061 10.7657 17.6224 10.8873 18.1088 10.8947C18.573 10.8947 18.9783 10.7989 19.3246 10.6073C19.6709 10.4157 19.8441 10.1394 19.8441 9.77832C19.8441 9.40251 19.6857 9.11145 19.3688 8.90512C19.0593 8.6988 18.6467 8.59563 18.1309 8.59563C17.2393 8.59563 16.5245 8.35247 15.9866 7.86613C15.4486 7.37979 15.1797 6.7166 15.1797 5.87657C15.1797 5.01442 15.4708 4.34387 16.0529 3.8649C16.635 3.37856 17.3277 3.13539 18.1309 3.13539C18.7425 3.13539 19.2325 3.26066 19.6009 3.5112ZM18.1309 4.19649C17.6298 4.19649 17.2024 4.34387 16.8487 4.63862C16.5024 4.926 16.3292 5.33865 16.3292 5.87657C16.3292 6.39975 16.4987 6.80871 16.8377 7.10346C17.184 7.39821 17.6151 7.54559 18.1309 7.54559C18.6393 7.54559 19.0593 7.39084 19.3909 7.08136C19.7299 6.7645 19.8994 6.3629 19.8994 5.87657C19.8994 5.36075 19.7262 4.95179 19.3799 4.64967C19.0409 4.34755 18.6246 4.19649 18.1309 4.19649Z" fill="#161616"/>
<path d="M27.5731 6.45133H23.1518C23.2034 6.86398 23.3876 7.19557 23.7045 7.44611C24.0287 7.69665 24.4377 7.82192 24.9314 7.82192C25.2261 7.82192 25.5209 7.77033 25.8156 7.66717C26.1178 7.55664 26.3499 7.41295 26.512 7.2361L27.2525 7.95455C26.9799 8.2493 26.6299 8.47773 26.2025 8.63985C25.7825 8.80196 25.3514 8.88302 24.9093 8.88302C24.0177 8.88302 23.3029 8.62142 22.765 8.09824C22.2344 7.57506 21.9692 6.87503 21.9692 5.99815C21.9692 5.16548 22.2344 4.48387 22.765 3.95332C23.2955 3.42277 23.9845 3.1575 24.8319 3.1575C25.7456 3.1575 26.4567 3.43751 26.9652 3.99754C27.4736 4.55756 27.6762 5.37549 27.5731 6.45133ZM23.1739 5.48971H26.4788C26.4493 5.06969 26.2872 4.74546 25.9925 4.51703C25.7051 4.2886 25.3293 4.17439 24.8651 4.17439C24.4377 4.17439 24.0692 4.2886 23.7598 4.51703C23.4576 4.74546 23.2624 5.06969 23.1739 5.48971Z" fill="#161616"/>
<path d="M29.3419 1.85323L30.4914 1.73165V3.31224H32.0831V4.29597H30.4804V6.89345C30.4804 7.49032 30.742 7.78876 31.2652 7.78876C31.4789 7.78876 31.711 7.72612 31.9615 7.60085L32.2931 8.57353C31.9247 8.73564 31.5599 8.8167 31.1988 8.8167C30.602 8.83143 30.1414 8.67669 29.8172 8.35247C29.5004 8.02087 29.3419 7.53453 29.3419 6.89345V4.29597H28.2919V3.31224H29.3419V1.85323Z" fill="#161616"/>
<path d="M33.843 1.85323L34.9926 1.73165V3.31224H36.5842V4.29597H34.9815V6.89345C34.9815 7.49032 35.2431 7.78876 35.7663 7.78876C35.98 7.78876 36.2121 7.72612 36.4626 7.60085L36.7942 8.57353C36.4258 8.73564 36.061 8.8167 35.7 8.8167C35.1031 8.83143 34.6426 8.67669 34.3183 8.35247C34.0015 8.02087 33.843 7.53453 33.843 6.89345V4.29597H32.793V3.31224H33.843V1.85323Z" fill="#161616"/>
<path d="M37.7362 3.30119H38.7973L38.8747 4.01964C39.1916 3.45962 39.7258 3.17961 40.4774 3.17961C41.0301 3.17961 41.4796 3.33435 41.8259 3.64384L41.3064 4.63862C41.0338 4.41756 40.7132 4.30702 40.3448 4.30702C39.9248 4.30702 39.5747 4.43598 39.2947 4.69388C39.0147 4.95179 38.8747 5.32023 38.8747 5.79919V8.75038H37.7362V3.30119Z" fill="#161616"/>
<path d="M46.7971 4.16333L46.8303 3.30119H47.9356V8.75038H46.8524L46.7971 7.86613C46.6276 8.19772 46.3624 8.45194 46.0013 8.62879C45.6476 8.80564 45.2865 8.89407 44.9181 8.89407C44.1002 8.90144 43.4296 8.6509 42.9064 8.14246C42.3832 7.63401 42.1217 6.92661 42.1217 6.02026C42.1217 5.13601 42.3869 4.44335 42.9175 3.94227C43.4554 3.43383 44.1296 3.17961 44.9402 3.17961C45.3307 3.17961 45.6955 3.26803 46.0345 3.44488C46.3734 3.62173 46.6276 3.86121 46.7971 4.16333ZM45.0286 4.2186C44.5276 4.2186 44.1075 4.3844 43.7686 4.71599C43.4296 5.04021 43.2601 5.47497 43.2601 6.02026C43.2601 6.56554 43.4296 7.00398 43.7686 7.33558C44.1075 7.66717 44.5276 7.83297 45.0286 7.83297C45.3529 7.83297 45.6402 7.76665 45.8908 7.63401C46.1487 7.50138 46.3403 7.32821 46.4655 7.11452C46.5982 6.90082 46.694 6.66871 46.7529 6.41817C46.8192 6.16026 46.8192 5.90236 46.7529 5.64445C46.694 5.38655 46.5982 5.15075 46.4655 4.93705C46.3403 4.72336 46.1487 4.55019 45.8908 4.41756C45.6402 4.28492 45.3529 4.2186 45.0286 4.2186Z" fill="#161616"/>
<path d="M54.7636 8.75038H53.614V5.83235C53.614 5.35339 53.4851 4.9739 53.2272 4.69388C52.9693 4.4065 52.6082 4.26281 52.144 4.26281C51.7019 4.26281 51.3371 4.42124 51.0497 4.7381C50.7623 5.05495 50.6187 5.44181 50.6187 5.89867V8.75038H49.4802V3.29014H50.5192L50.5855 4.08596C51.1013 3.50383 51.7129 3.21277 52.4203 3.21277C53.1056 3.21277 53.6656 3.44488 54.1004 3.90911C54.5425 4.37334 54.7636 5.01074 54.7636 5.8213V8.75038Z" fill="#161616"/>
<path d="M60.3493 3.88701L59.7082 4.63862C59.3398 4.29966 58.8608 4.13017 58.2713 4.13017C57.9176 4.12281 57.6339 4.17807 57.4202 4.29597C57.2139 4.4065 57.1107 4.56861 57.1107 4.78231C57.1181 5.17285 57.5123 5.40497 58.2934 5.47865C58.6029 5.50813 58.8682 5.54866 59.0892 5.60024C59.3177 5.64445 59.5571 5.72551 59.8077 5.84341C60.0656 5.95394 60.2609 6.12342 60.3935 6.35185C60.5335 6.58028 60.6035 6.86029 60.6035 7.19189C60.5961 7.7077 60.3824 8.12403 59.9624 8.44089C59.5424 8.75775 58.9824 8.91617 58.2823 8.91617C57.2212 8.91617 56.3923 8.5809 55.7954 7.91034L56.3923 7.10346C56.8639 7.62664 57.5013 7.8956 58.3045 7.91034C58.6139 7.91034 58.8829 7.85139 59.1113 7.73349C59.3398 7.61559 59.4577 7.43874 59.465 7.20294C59.4724 6.96714 59.3692 6.79398 59.1555 6.68344C58.9492 6.57291 58.6324 6.49554 58.205 6.45133C56.7312 6.31132 55.9907 5.76604 55.9833 4.81547C55.9833 4.26281 56.2117 3.85016 56.6686 3.57752C57.1328 3.29751 57.6597 3.1575 58.2492 3.1575C59.104 3.1575 59.804 3.40067 60.3493 3.88701Z" fill="#161616"/>
<path d="M61.7864 1.02425H62.9249V8.75038H61.7864V1.02425Z" fill="#161616"/>
<path d="M68.8602 4.16333L68.8933 3.30119H69.9987V8.75038H68.9154L68.8602 7.86613C68.6907 8.19772 68.4254 8.45194 68.0644 8.62879C67.7107 8.80564 67.3496 8.89407 66.9812 8.89407C66.1632 8.90144 65.4927 8.6509 64.9695 8.14246C64.4463 7.63401 64.1847 6.92661 64.1847 6.02026C64.1847 5.13601 64.45 4.44335 64.9805 3.94227C65.5185 3.43383 66.1927 3.17961 67.0033 3.17961C67.3938 3.17961 67.7586 3.26803 68.0975 3.44488C68.4365 3.62173 68.6907 3.86121 68.8602 4.16333ZM67.0917 4.2186C66.5906 4.2186 66.1706 4.3844 65.8316 4.71599C65.4927 5.04021 65.3232 5.47497 65.3232 6.02026C65.3232 6.56554 65.4927 7.00398 65.8316 7.33558C66.1706 7.66717 66.5906 7.83297 67.0917 7.83297C67.4159 7.83297 67.7033 7.76665 67.9538 7.63401C68.2117 7.50138 68.4033 7.32821 68.5286 7.11452C68.6612 6.90082 68.757 6.66871 68.816 6.41817C68.8823 6.16026 68.8823 5.90236 68.816 5.64445C68.757 5.38655 68.6612 5.15075 68.5286 4.93705C68.4033 4.72336 68.2117 4.55019 67.9538 4.41756C67.7033 4.28492 67.4159 4.2186 67.0917 4.2186Z" fill="#161616"/>
<path d="M72.1512 1.85323L73.3007 1.73165V3.31224H74.8923V4.29597H73.2896V6.89345C73.2896 7.49032 73.5512 7.78876 74.0744 7.78876C74.2881 7.78876 74.5202 7.72612 74.7707 7.60085L75.1023 8.57353C74.7339 8.73564 74.3692 8.8167 74.0081 8.8167C73.4112 8.83143 72.9507 8.67669 72.6264 8.35247C72.3096 8.02087 72.1512 7.53453 72.1512 6.89345V4.29597H71.1011V3.31224H72.1512V1.85323Z" fill="#161616"/>
<path d="M77.1828 3.27908H76.0444V8.75038H77.1828V3.27908ZM76.2654 2.32852C76.0296 2.20325 75.9117 1.99324 75.9117 1.69849C75.9117 1.40374 76.0296 1.19741 76.2654 1.07951C76.5012 0.961614 76.737 0.961614 76.9728 1.07951C77.2086 1.19741 77.3265 1.40374 77.3265 1.69849C77.3265 1.99324 77.2086 2.20325 76.9728 2.32852C76.737 2.44642 76.5012 2.44642 76.2654 2.32852Z" fill="#161616"/>
<path d="M79.1631 3.99754C79.6863 3.45962 80.3643 3.19066 81.1969 3.19066C82.0296 3.19066 82.7075 3.4633 83.2307 4.00859C83.7612 4.54651 84.0265 5.22075 84.0265 6.03131C84.0265 6.84924 83.7649 7.52717 83.2418 8.06508C82.7259 8.59563 82.0443 8.86091 81.1969 8.86091C80.3569 8.86091 79.679 8.59563 79.1631 8.06508C78.6473 7.52717 78.3894 6.84924 78.3894 6.03131C78.3894 5.21338 78.6473 4.53546 79.1631 3.99754ZM81.1969 4.24071C80.6958 4.24071 80.2906 4.41387 79.9811 4.7602C79.679 5.10653 79.5279 5.53024 79.5279 6.03131C79.5279 6.53239 79.679 6.9524 79.9811 7.29137C80.2832 7.63033 80.6885 7.79981 81.1969 7.79981C81.7054 7.79981 82.1106 7.63033 82.4128 7.29137C82.7223 6.9524 82.877 6.53239 82.877 6.03131C82.877 5.5376 82.7186 5.11759 82.4017 4.77126C82.0849 4.41756 81.6833 4.24071 81.1969 4.24071Z" fill="#161616"/>
<path d="M90.5135 8.75038H89.364V5.83235C89.364 5.35339 89.235 4.9739 88.9771 4.69388C88.7192 4.4065 88.3581 4.26281 87.8939 4.26281C87.4518 4.26281 87.087 4.42124 86.7996 4.7381C86.5123 5.05495 86.3686 5.44181 86.3686 5.89867V8.75038H85.2301V3.29014H86.2691L86.3354 4.08596C86.8512 3.50383 87.4628 3.21277 88.1702 3.21277C88.8555 3.21277 89.4156 3.44488 89.8503 3.90911C90.2924 4.37334 90.5135 5.01074 90.5135 5.8213V8.75038Z" fill="#161616"/>
<path d="M3.50915 3.36736V4.4543H2.73047V5.35294H3.50915V7.17591C3.50915 8.22861 4.10163 8.75068 5.00727 8.71644C5.32044 8.70788 5.5659 8.65653 5.86213 8.53671L5.57436 7.64663C5.42201 7.72365 5.2358 7.77501 5.07499 7.77501C4.75336 7.77501 4.53329 7.57816 4.53329 7.17591V5.35294H5.69285V4.4543H4.54176V3.2561L3.50915 3.36736Z" fill="#161616"/>
<path d="M6.88978 3.36736V4.4543H6.11109V5.35294H6.88978V7.17591C6.88978 8.22861 7.48225 8.75068 8.3879 8.71644C8.70107 8.70788 8.94652 8.65653 9.24276 8.53671L8.95498 7.64663C8.80263 7.72365 8.61643 7.77501 8.45561 7.77501C8.13398 7.77501 7.91392 7.57816 7.91392 7.17591V5.35294H9.07348V4.4543H7.92238V3.2561L6.88978 3.36736Z" fill="#161616"/>
<path fill-rule="evenodd" clip-rule="evenodd" d="M5.9871 11.0531C8.78499 11.0531 11.0531 8.78499 11.0531 5.9871C11.0531 3.18922 8.78499 0.921093 5.9871 0.921093C3.18922 0.921093 0.921093 3.18922 0.921093 5.9871C0.921093 8.78499 3.18922 11.0531 5.9871 11.0531ZM5.9871 11.9742C9.29369 11.9742 11.9742 9.29369 11.9742 5.9871C11.9742 2.68052 9.29369 0 5.9871 0C2.68052 0 0 2.68052 0 5.9871C0 9.29369 2.68052 11.9742 5.9871 11.9742Z" fill="#161616"/>
</g>
</svg>
