<svg width="72" height="72" viewBox="0 0 72 72" fill="none" xmlns="http://www.w3.org/2000/svg">
<circle cx="36" cy="36" r="36" fill="#FBCB21" fill-opacity="0.1"/>
<path d="M53.8585 34.6993L53.7146 34.5554L52.3987 33.2395L51.9391 32.7799L52.3987 32.3203L56.4917 28.2273L52.3987 24.1343L51.9391 23.6747L52.3987 23.215L53.7146 21.8992L53.8585 21.7554L54.0586 21.7192L54.4555 21.6475C55.1627 21.5195 55.8055 21.1829 56.3168 20.6715L56.3169 20.6714C56.984 20.0043 57.35 19.1207 57.35 18.1773C57.35 17.234 56.9839 16.3503 56.3169 15.6832L56.3168 15.6832C55.6498 15.0161 54.7661 14.65 53.8228 14.65C52.8794 14.65 51.9958 15.0161 51.3286 15.6831C50.8172 16.1945 50.4807 16.8372 50.3526 17.5445C50.3526 17.5445 50.3526 17.5446 50.3526 17.5446L50.2809 17.9414L50.2447 18.1415L50.1008 18.2854L48.7849 19.6013L48.3253 20.0609L47.8657 19.6013L43.7727 15.5083L39.6797 19.6013L39.2201 20.0609L38.7604 19.6012L37.4446 18.2853L37.3009 18.1416L37.2647 17.9415L37.1928 17.5446L37.1928 17.5445C37.0649 16.8374 36.7282 16.1947 36.2167 15.6831C35.5497 15.0161 34.666 14.65 33.7226 14.65C32.7793 14.65 31.8956 15.0161 31.2285 15.6831C30.5614 16.3503 30.1954 17.2339 30.1954 18.1773C30.1954 19.1207 30.5614 20.0044 31.2285 20.6714L31.2286 20.6715C31.74 21.1829 32.3827 21.5195 33.0899 21.6475L33.4869 21.7192L33.6872 21.7554L33.831 21.8993L35.1466 23.2154L35.606 23.675L35.1465 24.1345L31.0537 28.2274L32.2481 29.4218C32.4843 29.0909 32.7489 28.7779 33.0407 28.486C34.4386 27.0882 36.3005 26.317 38.2774 26.317C40.2543 26.317 42.1161 27.0882 43.514 28.4861C44.9119 29.884 45.6832 31.7459 45.6832 33.7228C45.6832 35.6997 44.912 37.5615 43.5141 38.9594L53.8585 34.6993ZM53.8585 34.6993L54.0586 34.7354L54.4556 34.8072C54.4556 34.8072 54.4556 34.8072 54.4556 34.8072C55.1627 34.9351 55.8055 35.2717 56.3169 35.7832L56.7766 35.3236L56.3169 35.7832C56.984 36.4503 57.35 37.334 57.35 38.2775C57.35 39.2209 56.984 40.1045 56.3169 40.7716L56.3168 40.7717C55.6498 41.4388 54.7662 41.8048 53.8228 41.8048C52.8794 41.8048 51.9958 41.4388 51.3286 40.7716L51.3286 40.7716C50.8172 40.2603 50.4806 39.6175 50.3526 38.9104C50.3526 38.9103 50.3526 38.9103 50.3526 38.9103L50.2809 38.5134L50.2447 38.3133L50.1008 38.1695L48.7849 36.8536L48.3253 36.394L47.8657 36.8536L43.7727 40.9466M53.8585 34.6993L43.7727 40.9466M43.7727 40.9466L42.5783 39.7522C42.9092 39.516 43.2222 39.2513 43.514 38.9594L43.7727 40.9466Z" stroke="#FBCB21" stroke-width="1.3"/>
<path d="M37.3128 39.2199L38.629 37.9042L39.0258 37.8324C39.8639 37.6808 40.6265 37.281 41.2312 36.6764C42.0201 35.8873 42.4547 34.8384 42.4547 33.7226C42.4547 32.6069 42.0201 31.5579 41.2312 30.7689C40.4421 29.9799 39.3932 29.5454 38.2774 29.5454C37.1616 29.5454 36.1126 29.9799 35.3236 30.7689C34.7189 31.3736 34.3192 32.1361 34.1677 32.9741L34.0958 33.3712L32.7797 34.6869L28.2273 30.1344L23.6747 34.6871L22.3589 33.3712L22.2871 32.9743C22.1355 32.1363 21.7357 31.3737 21.131 30.769C20.3421 29.9801 19.2931 29.5455 18.1773 29.5455C17.0616 29.5455 16.0125 29.9801 15.2236 30.769C14.4345 31.5579 14 32.6069 14 33.7226C14 34.8384 14.4345 35.8874 15.2235 36.6764C15.8282 37.281 16.5908 37.6808 17.4288 37.8324L17.8257 37.9042L19.1418 39.2199L14.589 43.7727L19.1416 48.3253L17.8257 49.6412L17.4287 49.7131C16.5907 49.8646 15.8282 50.2644 15.2235 50.869C14.4346 51.658 14 52.707 14 53.8227C14 54.9385 14.4346 55.9875 15.2235 56.7765C16.0125 57.5654 17.0615 58 18.1773 58C19.293 58 20.342 57.5654 21.131 56.7765C21.7357 56.1718 22.1354 55.4093 22.2869 54.5712L22.3588 54.1741L23.6748 52.8585L28.2273 57.411L32.7799 52.8583L34.0957 54.1742L34.1675 54.5712C34.3191 55.4093 34.7189 56.1718 35.3235 56.7764C36.1126 57.5654 37.1615 57.9999 38.2773 57.9999C39.393 57.9999 40.442 57.5654 41.231 56.7764C42.02 55.9874 42.4545 54.9384 42.4545 53.8226C42.4545 52.7068 42.02 51.6579 41.231 50.8689H41.2309C40.6262 50.2642 39.8637 49.8644 39.0257 49.7129L38.6287 49.6411L37.3128 48.3252L41.8654 43.7726L37.3128 39.2199Z" fill="#FBCB21"/>
<path d="M24.6892 40.4997V41.9521H23.6487V43.1529H24.6892V45.5887C24.6892 46.9954 25.4808 47.693 26.691 47.6472C27.1094 47.6358 27.4374 47.5672 27.8332 47.4071L27.4487 46.2177C27.2451 46.3206 26.9963 46.3893 26.7814 46.3893C26.3517 46.3893 26.0576 46.1262 26.0576 45.5887V43.1529H27.607V41.9521H26.0689V40.3511L24.6892 40.4997Z" fill="white"/>
<path d="M29.2065 40.4997V41.9521H28.166V43.1529H29.2065V45.5887C29.2065 46.9954 29.9982 47.693 31.2083 47.6472C31.6267 47.6358 31.9547 47.5672 32.3506 47.4071L31.966 46.2177C31.7625 46.3206 31.5137 46.3893 31.2988 46.3893C30.869 46.3893 30.575 46.1262 30.575 45.5887V43.1529H32.1244V41.9521H30.5863V40.3511L29.2065 40.4997Z" fill="white"/>
<path fill-rule="evenodd" clip-rule="evenodd" d="M28 37.3333C24.3181 37.3333 21.3333 40.3181 21.3333 44C21.3333 47.6819 24.3181 50.6667 28 50.6667C31.6819 50.6667 34.6667 47.6819 34.6667 44C34.6667 40.3181 31.6819 37.3333 28 37.3333ZM20 44C20 39.5817 23.5817 36 28 36C32.4183 36 36 39.5817 36 44C36 48.4183 32.4183 52 28 52C23.5817 52 20 48.4183 20 44Z" fill="white"/>
</svg>
