<svg width="72" height="72" viewBox="0 0 72 72" fill="none" xmlns="http://www.w3.org/2000/svg">
<circle cx="36" cy="36" r="36" fill="#4247E5" fill-opacity="0.05"/>
<g clip-path="url(#clip0_300_33672)">
<path d="M38.0212 44.194L38.0177 44.1194L37.9925 44.049L34.6491 34.7243L35.2593 30.4025L36.9144 24H53.4272C54.5717 24 55.5 24.9283 55.5001 26.0728V53.1011C55.5001 54.2456 54.5717 55.1739 53.4273 55.1739H38.5422L38.0212 44.194Z" stroke="#4247E5"/>
<path d="M44.8043 48.5L38.0652 55.6739L35.6782 48.5L36.6521 45.8845L44.8043 48.5Z" fill="#4247E5"/>
<path d="M52.6847 35.0761V33.4456H46.489V31.163H44.8586V33.4456H39.2749V35.0761H48.3288C47.8252 36.1364 46.9522 37.8272 45.7524 39.6101C44.6483 38.2312 43.9507 37.2717 43.9424 37.2603L43.4636 36.6005L42.1439 37.5579L42.6226 38.2177C42.6598 38.2691 43.4722 39.3867 44.7583 40.9755C43.8816 42.0497 42.2733 43.7963 41.4259 44.6437L42.5787 45.7965C43.3101 45.0651 44.8267 43.436 45.8151 42.2553C47.101 43.7829 48.356 45.1611 49.5537 46.3589L50.1301 46.9353L51.2831 45.7826L50.7067 45.2061C49.4693 43.9687 48.1662 42.5293 46.828 40.925C48.5572 38.4388 49.678 36.0847 50.1249 35.0761H52.6847V35.0761Z" fill="#4247E5"/>
<path d="M43.2913 43.9315L44.8044 48.5H35.6783H18.5728C17.1511 48.5 16 47.3478 16 45.9272V18.8989C16 17.4783 17.1511 16.3261 18.5728 16.3261H34.1522L36.5272 23.5L40.0902 34.2609L43.2913 43.9315Z" fill="#4247E5"/>
<g clip-path="url(#clip1_300_33672)">
<path d="M24.1892 30.4997V31.9521H23.1487V33.1529H24.1892V35.5887C24.1892 36.9954 24.9808 37.693 26.191 37.6472C26.6094 37.6358 26.9374 37.5672 27.3332 37.4071L26.9487 36.2177C26.7451 36.3206 26.4963 36.3893 26.2814 36.3893C25.8517 36.3893 25.5576 36.1262 25.5576 35.5887V33.1529H27.107V31.9521H25.5689V30.3511L24.1892 30.4997Z" fill="white"/>
<path d="M28.7065 30.4997V31.9521H27.666V33.1529H28.7065V35.5887C28.7065 36.9954 29.4982 37.693 30.7083 37.6472C31.1267 37.6358 31.4547 37.5672 31.8506 37.4071L31.466 36.2177C31.2625 36.3206 31.0137 36.3893 30.7988 36.3893C30.369 36.3893 30.075 36.1262 30.075 35.5887V33.1529H31.6244V31.9521H30.0863V30.3511L28.7065 30.4997Z" fill="white"/>
<path fill-rule="evenodd" clip-rule="evenodd" d="M27.5 27.3333C23.8181 27.3333 20.8333 30.3181 20.8333 34C20.8333 37.6819 23.8181 40.6667 27.5 40.6667C31.1819 40.6667 34.1667 37.6819 34.1667 34C34.1667 30.3181 31.1819 27.3333 27.5 27.3333ZM19.5 34C19.5 29.5817 23.0817 26 27.5 26C31.9183 26 35.5 29.5817 35.5 34C35.5 38.4183 31.9183 42 27.5 42C23.0817 42 19.5 38.4183 19.5 34Z" fill="white"/>
</g>
</g>
<defs>
<clipPath id="clip0_300_33672">
<rect width="40" height="40" fill="white" transform="translate(16 16)"/>
</clipPath>
<clipPath id="clip1_300_33672">
<rect width="16" height="16" fill="white" transform="translate(19.5 26)"/>
</clipPath>
</defs>
</svg>
