<svg width="60" height="60" viewBox="0 0 60 60" fill="none" xmlns="http://www.w3.org/2000/svg">
<path d="M0.520815 44.3218H5.42498V23.4449H0.520815V44.3218ZM2.96307 20.7071C4.49932 20.7071 5.70073 19.5253 5.70073 18.0482C5.70073 16.5513 4.49932 15.3696 2.96307 15.3696C1.44653 15.3696 0.245117 16.5514 0.245117 18.0482C0.245117 19.5254 1.44653 20.7071 2.96307 20.7071ZM21.7532 15.4286C13.4616 15.4286 8.26172 21.0812 8.26172 30.1215C8.26172 39.1618 13.4611 44.7948 21.7532 44.7948C30.0251 44.7948 35.2249 39.1618 35.2249 30.1215C35.2249 21.0812 30.0256 15.4286 21.7532 15.4286ZM21.7532 19.7616C26.8148 19.7616 30.0447 23.7795 30.0447 30.1214C30.0447 36.4436 26.8147 40.4616 21.7532 40.4616C16.6718 40.4616 13.4616 36.4437 13.4616 30.1214C13.4616 23.7796 16.6719 19.7616 21.7532 19.7616ZM37.2937 36.3256C37.5103 41.5648 41.8039 44.7947 48.3427 44.7947C55.2165 44.7947 59.5496 41.4071 59.5496 36.0105C59.5496 31.776 57.1074 29.3928 51.3367 28.0733L48.0672 27.3249C44.5811 26.4977 43.1434 25.3948 43.1434 23.504C43.1434 21.1406 45.3099 19.5649 48.5202 19.5649C51.7699 19.5649 53.9953 21.1603 54.2318 23.8191H59.0769C58.9587 18.8165 54.8227 15.4287 48.5597 15.4287C42.3752 15.4287 37.9831 18.836 37.9831 23.8781C37.9831 27.9354 40.4647 30.4565 45.7034 31.658L49.3865 32.5246C52.9711 33.3715 54.4285 34.5532 54.4285 36.6015C54.4285 38.965 52.0453 40.6588 48.6186 40.6588C45.1522 40.6588 42.5329 38.9453 42.2177 36.3258H37.2939L37.2937 36.3256Z" fill="black"/>
</svg>
