<svg width="60" height="60" viewBox="0 0 60 60" fill="none" xmlns="http://www.w3.org/2000/svg">
<path d="M50.1058 11.8125C50.0707 11.4967 49.79 11.3564 49.5795 11.3213C49.369 11.2862 44.7725 10.9704 44.7725 10.9704C44.7725 10.9704 41.5795 7.81252 41.2637 7.46164C40.9128 7.11077 40.2462 7.21603 39.9655 7.28621C39.9304 7.28621 39.2637 7.49673 38.176 7.84761C37.1584 4.79498 35.2637 1.98796 31.9655 1.98796H31.6848C30.7374 0.75989 29.5795 0.198486 28.597 0.198486C20.9128 0.233574 17.2637 9.81252 16.1058 14.6897C13.1234 15.602 11.0181 16.2687 10.7374 16.3388C9.08827 16.8652 9.01809 16.9002 8.80757 18.4792C8.63213 19.7073 4.28125 53.3915 4.28125 53.3915L38.2111 59.7423L56.597 55.7774C56.597 55.7423 50.1409 12.1283 50.1058 11.8125ZM36.3163 8.4441C35.4742 8.7248 34.4918 9.0055 33.4391 9.32129V8.68971C33.4391 6.79498 33.1584 5.25112 32.7374 4.05814C34.4567 4.30375 35.6146 6.23357 36.3163 8.4441ZM30.6672 4.4441C31.1234 5.63708 31.4391 7.32129 31.4391 9.602V9.91778C29.5795 10.4792 27.5444 11.1108 25.5093 11.7423C26.6672 7.39147 28.8076 5.25112 30.6672 4.4441ZM28.3865 2.30375C28.7023 2.30375 29.0532 2.40901 29.369 2.61954C26.9128 3.77743 24.2812 6.68971 23.1584 12.5143C21.5444 13.0055 19.9304 13.4967 18.4567 13.9529C19.79 9.53182 22.8777 2.30375 28.3865 2.30375Z" fill="#95BF47"/>
<path fill-rule="evenodd" clip-rule="evenodd" d="M49.5794 11.3214C49.3688 11.2863 44.7723 10.9705 44.7723 10.9705C44.7723 10.9705 41.5794 7.81262 41.2636 7.46175C41.1232 7.3214 40.9478 7.25122 40.7723 7.25122L38.2109 59.7425L56.5969 55.7775C56.5969 55.7775 50.1408 12.1284 50.1057 11.8477C50.0706 11.5319 49.7899 11.3565 49.5794 11.3214Z" fill="#5E8E3E"/>
<path fill-rule="evenodd" clip-rule="evenodd" d="M31.9655 21.4968L29.6848 28.2336C29.6848 28.2336 27.6848 27.181 25.2637 27.181C21.6848 27.181 21.5093 29.4266 21.5093 29.988C21.5093 33.0757 29.5444 34.2336 29.5444 41.4617C29.5444 47.1459 25.9304 50.795 21.0883 50.795C15.2637 50.795 12.2812 47.181 12.2812 47.181L13.8251 42.0231C13.8251 42.0231 16.8777 44.6546 19.4742 44.6546C21.1584 44.6546 21.8602 43.3213 21.8602 42.3389C21.8602 38.3038 15.2637 38.1283 15.2637 31.5318C15.2637 25.988 19.2637 20.5845 27.2988 20.5845C30.4567 20.6196 31.9655 21.4968 31.9655 21.4968Z" fill="white"/>
</svg>
