<svg width="60" height="60" viewBox="0 0 60 60" fill="none" xmlns="http://www.w3.org/2000/svg">
<path fill-rule="evenodd" clip-rule="evenodd" d="M30.2391 1.99414C14.7793 1.99414 2.2417 14.5301 2.2417 29.995C2.2417 42.3659 10.2638 52.8598 21.3902 56.5623C22.7911 56.8201 23.3016 55.9555 23.3016 55.213C23.3016 54.5495 23.2776 52.7876 23.2638 50.4516C15.4755 52.143 13.8322 46.6975 13.8322 46.6975C12.5585 43.4626 10.7227 42.6014 10.7227 42.6014C8.18049 40.8653 10.9153 40.8997 10.9153 40.8997C13.7257 41.0974 15.2039 43.7857 15.2039 43.7857C17.7015 48.0641 21.7581 46.8282 23.3532 46.1114C23.6076 44.3031 24.3313 43.0689 25.1306 42.3694C18.9133 41.6629 12.3763 39.2599 12.3763 28.5305C12.3763 25.4743 13.4678 22.9733 15.2589 21.0172C14.9701 20.309 14.0093 17.4608 15.5339 13.607C15.5339 13.607 17.8837 12.8541 23.2329 16.4776C25.4657 15.8553 27.8619 15.5459 30.2426 15.5339C32.6215 15.5459 35.0159 15.8553 37.2522 16.4776C42.598 12.8541 44.9443 13.607 44.9443 13.607C46.4724 17.4608 45.5115 20.309 45.2245 21.0172C47.019 22.9733 48.1019 25.4743 48.1019 28.5305C48.1019 39.2874 41.5546 41.6543 35.3185 42.347C36.3223 43.2116 37.2178 44.9202 37.2178 47.5329C37.2178 51.275 37.1835 54.2951 37.1835 55.213C37.1835 55.9624 37.6888 56.8339 39.1086 56.5606C50.2265 52.8495 58.2417 42.3625 58.2417 29.995C58.2417 14.5301 45.7041 1.99414 30.2391 1.99414Z" fill="#161514"/>
</svg>
