<svg width="60" height="60" viewBox="0 0 60 60" fill="none" xmlns="http://www.w3.org/2000/svg">
<path fill-rule="evenodd" clip-rule="evenodd" d="M21.1643 9.80705C21.704 8.39018 22.4462 7.08576 23.5482 6.02873C27.9562 1.73315 35.243 2.81267 38.2342 8.21026C40.4832 12.3034 42.8671 16.3066 45.1836 20.3548C49.0518 27.0793 52.9651 33.8038 56.7884 40.5508C60.0044 46.1958 56.5185 53.3251 50.1313 54.2922C46.2181 54.8769 42.5522 53.0777 40.5281 49.5693C37.1322 43.6544 33.7137 37.7396 30.3177 31.8472C30.2502 31.7123 30.1603 31.5998 30.0703 31.4874C29.7105 31.195 29.553 30.7677 29.3281 30.3854C27.8213 27.7315 26.2695 25.1002 24.7627 22.4689C23.7956 20.7597 22.7836 19.0729 21.8165 17.3637C20.9394 15.8344 20.5346 14.1701 20.5795 12.4159C20.647 11.5163 20.7595 10.6167 21.1643 9.80705Z" fill="#3C8BD9"/>
<path fill-rule="evenodd" clip-rule="evenodd" d="M21.1642 9.80713C20.9618 10.6168 20.7819 11.4264 20.7369 12.281C20.6694 14.1702 21.1417 15.9244 22.0863 17.5662C24.5602 21.8168 27.0341 26.0899 29.4855 30.363C29.7104 30.7453 29.8903 31.1276 30.1152 31.4874C28.7658 33.8264 27.4164 36.1429 26.0445 38.4818C24.1554 41.7429 22.2662 45.0264 20.3546 48.2874C20.2646 48.2874 20.2421 48.2425 20.2196 48.175C20.1971 47.9951 20.2646 47.8377 20.3096 47.6577C21.2317 44.2842 20.467 41.2931 18.1505 38.7292C16.7337 37.1774 14.9345 36.3003 12.8654 36.0079C10.1666 35.6256 7.78267 36.3228 5.64613 38.0095C5.2638 38.3019 5.01641 38.7292 4.56661 38.9541C4.47665 38.9541 4.43167 38.9091 4.40918 38.8417C5.4887 36.975 6.54573 35.1083 7.62524 33.2417C12.0783 25.5051 16.5313 17.7686 21.0068 10.0545C21.0518 9.96456 21.1192 9.89709 21.1642 9.80713Z" fill="#FABC04"/>
<path fill-rule="evenodd" clip-rule="evenodd" d="M4.4991 38.9091C4.92641 38.5267 5.33123 38.1219 5.78103 37.7621C11.2461 33.444 19.4549 36.5701 20.6469 43.4071C20.9393 45.0488 20.7818 46.6231 20.2871 48.1974C20.2646 48.3324 20.2421 48.4448 20.1971 48.5798C19.9947 48.9396 19.8148 49.3219 19.5899 49.6818C17.5883 52.9878 14.6421 54.6296 10.7738 54.3822C6.34328 54.0673 2.85734 50.7388 2.25011 46.3308C1.95774 44.1942 2.38505 42.1926 3.48705 40.3484C3.71195 39.9436 3.98183 39.5838 4.22922 39.179C4.34167 39.089 4.29669 38.9091 4.4991 38.9091Z" fill="#34A852"/>
<path fill-rule="evenodd" clip-rule="evenodd" d="M4.49893 38.9091C4.40897 38.999 4.40897 39.1564 4.25154 39.1789C4.22905 39.0215 4.31901 38.9315 4.40897 38.8191L4.49893 38.9091Z" fill="#FABC04"/>
<path fill-rule="evenodd" clip-rule="evenodd" d="M20.1969 48.5798C20.107 48.4224 20.1969 48.31 20.2869 48.1975L20.3769 48.2875L20.1969 48.5798Z" fill="#E1C025"/>
</svg>
