<svg width="60" height="60" viewBox="0 0 60 60" fill="none" xmlns="http://www.w3.org/2000/svg">
<path fill-rule="evenodd" clip-rule="evenodd" d="M53.7478 38.1155V19.4334C53.7478 17.004 52.4611 14.7564 50.3666 13.5257C45.8713 10.8846 37.9296 6.21844 33.0659 3.36053C30.4971 1.85196 27.3063 1.88588 24.7712 3.44916C20.4664 6.10353 13.7503 10.2448 9.41496 12.9185C6.80032 14.5307 5.20801 17.3822 5.20801 20.4538V39.5817C5.20801 42.6285 6.82477 45.4461 9.45469 46.9835L25.4573 56.3375C27.5845 57.5814 30.2113 57.6085 32.3645 56.4093C37.0375 53.806 45.3139 49.1972 50.0816 46.5414C52.3433 45.2807 53.7446 42.8953 53.7446 40.3067V38.1153L53.7478 38.1155Z" fill="#FF4088"/>
<path fill-rule="evenodd" clip-rule="evenodd" d="M29.0133 0.189697H29.0556L29.0934 0.190156H29.3094L29.3472 0.191684H29.3518L29.3895 0.193212H29.3936L29.4318 0.19474H29.4349L29.4731 0.196268H29.4777L29.5144 0.197796H29.5189L29.5556 0.199324H29.5587L29.5969 0.200853H29.6015L29.6397 0.203909H29.6443L29.6809 0.206965H29.684L29.7207 0.210021H29.7252L29.7634 0.213078H29.7665L29.8032 0.216134H29.8078L29.846 0.21919H29.8505L29.8888 0.222246H29.8933L29.9315 0.225303H29.9361L29.9728 0.228359H29.9774L30.0141 0.231415H30.0186L30.0568 0.234472H30.0614L30.0996 0.239056H30.1042L30.1424 0.24364H30.1455L30.1822 0.248225H30.1867L30.2234 0.252809H30.228L30.2662 0.257394H30.2708L30.309 0.261978H30.312L30.3487 0.266562H30.3533L30.3915 0.271147H30.3961L30.4328 0.277259L30.4374 0.278787L30.4756 0.2849H30.4801L30.5168 0.291012H30.5199L30.5581 0.297125H30.5627L30.5993 0.303238H30.6039L30.6406 0.30935H30.6437L30.6819 0.315463H30.6864L30.7231 0.321575L30.7277 0.323103L30.7644 0.329216L30.769 0.330744L30.8056 0.338385H30.8102L30.8469 0.344497H30.8515L30.8882 0.352138H30.8927L30.9309 0.359778H30.934L30.9707 0.367419H30.9753L31.0119 0.37506H31.015L31.0532 0.3827L31.0578 0.384229L31.096 0.391869H31.099L31.1357 0.401038L31.1403 0.402566L31.177 0.411735H31.1816L31.2198 0.420904L31.2228 0.422432L31.2595 0.430073L31.2641 0.431601L31.3007 0.439241L31.3038 0.440769L31.3405 0.449938H31.3451L31.3817 0.459107L31.3863 0.460635L31.423 0.469804L31.4261 0.471332L31.4643 0.480501L31.4673 0.482029L31.504 0.491198L31.5086 0.492726L31.5452 0.501895H31.5483L31.585 0.512592H31.5896L31.6278 0.52176L31.6324 0.523289L31.669 0.532457H31.6736L31.7103 0.543154L31.7149 0.544682L31.7515 0.555379L31.7561 0.556908L31.7928 0.567604L31.7974 0.569133L31.8341 0.57983L31.8371 0.581358L31.8738 0.592055L31.8784 0.593583L31.9151 0.60428L31.9196 0.605808L31.9563 0.616505L31.9609 0.618033L31.9976 0.630258L32.0006 0.631786L32.0373 0.644011H32.0419L32.0786 0.656236H32.0832L32.1198 0.668461L32.1244 0.669989L32.1611 0.682214L32.1657 0.683743L32.2023 0.695968L32.2054 0.697496L32.2421 0.709721L32.2467 0.711249L32.2833 0.723474L32.2864 0.725002L32.3231 0.737227L32.3261 0.738755L32.3613 0.75098L32.3659 0.752508L32.401 0.764734L32.4056 0.766262L32.4407 0.780015L32.4453 0.781543L32.482 0.795296L32.4866 0.796824L32.5217 0.810578L32.5248 0.812106L32.5615 0.824331L32.5645 0.825859L32.6012 0.839612L32.6058 0.84114L32.6424 0.854893L32.647 0.856422L32.6822 0.870175L32.6868 0.871703L32.7219 0.886984L32.725 0.888512L32.7616 0.902265L32.7662 0.903794L32.8014 0.919075L32.806 0.920603L32.8426 0.935884L32.8472 0.937413L32.8839 0.952694L32.8869 0.954222L32.9236 0.969503L32.9267 0.971031L32.9618 0.986313L32.9649 0.987841L33 1.00312L33.0031 1.00465L33.0398 1.01993L33.0428 1.02146L33.078 1.03674L33.0826 1.03827L33.1177 1.05355L33.1223 1.05508L33.1574 1.07036L33.1605 1.07189L33.1956 1.0887L33.2002 1.09023L33.2354 1.10704L33.2399 1.10856L33.2751 1.12537L33.2782 1.1269L33.3133 1.14371L33.3164 1.14524L33.3515 1.16205L33.3561 1.16358L33.3912 1.18039L33.3958 1.18191L33.431 1.19872L33.4355 1.20025L33.4707 1.21706L33.4738 1.21859L33.5089 1.23693L33.512 1.23998L33.5471 1.25679L33.5502 1.25832L33.5838 1.27666L33.5884 1.27819L33.6235 1.295L33.6266 1.29652L33.6617 1.31486L33.6663 1.31639L33.6999 1.33473L33.7045 1.33778L33.7396 1.35612L33.7442 1.35765L33.7794 1.37599L33.7824 1.37751L33.8161 1.39585L33.8206 1.39891L33.8558 1.41725L33.8588 1.4203L33.8925 1.44017L33.8955 1.44322L33.9291 1.46309L33.9337 1.46462L33.9673 1.48448L33.9704 1.48601L34.004 1.50588L34.0071 1.50893L34.0407 1.5288L34.0453 1.53186L34.0774 1.55172H34.0804L51.3942 11.7245L51.4232 11.7413L51.4263 11.7444L51.4553 11.7612L51.4599 11.7627L51.4874 11.781L51.4904 11.7841L51.5179 11.8009L51.521 11.804L51.5485 11.8208L51.5516 11.8223L51.5791 11.8391L51.5821 11.8406L51.6096 11.8574L51.6127 11.859L51.6402 11.8758L51.6448 11.8773L51.6723 11.8957L51.6753 11.8972L51.7028 11.9155L51.7074 11.917L51.7349 11.9339L51.738 11.9354L51.7655 11.9537L51.7686 11.9568L51.7961 11.9751L51.7991 11.9782L51.8251 11.995L51.8297 11.9965L51.8572 12.0148L51.8602 12.0164L51.8877 12.0347L51.8908 12.0362L51.9168 12.0546L51.9198 12.0561L51.9458 12.0744L51.9489 12.076L51.9749 12.0943L51.9779 12.0974L52.0039 12.1157L52.0069 12.1172L52.0329 12.1371L52.0375 12.1402L52.0635 12.1585L52.0665 12.16L52.0925 12.1784L52.0956 12.1799L52.1216 12.1982L52.1246 12.2013L52.1506 12.2196L52.1536 12.2211L52.1796 12.2395L52.1827 12.2425L52.2087 12.2609L52.2117 12.2639L52.2377 12.2838L52.2423 12.2869L52.2667 12.3067L52.2713 12.3098L52.2973 12.3296L52.3019 12.3312L52.3279 12.351L52.3309 12.3541L52.3569 12.374L52.3599 12.377L52.3844 12.3969L52.389 12.3999L52.415 12.4213L52.4195 12.4259L52.4684 12.4656L52.4746 12.4702L52.5235 12.5115L52.5296 12.5161L52.58 12.5573L52.5861 12.5619L52.6365 12.6032L52.6426 12.6078L52.6915 12.649L52.6977 12.6551L52.7466 12.6964L52.7527 12.701L52.8 12.7438L52.8062 12.7483L52.8535 12.7911L52.8596 12.7957L52.907 12.84L52.9131 12.8446L52.959 12.8874L52.9651 12.892L53.0125 12.9363L53.0186 12.9424L53.0644 12.9867L53.0705 12.9929L53.1164 13.0372L53.1225 13.0433L53.1668 13.0876L53.1729 13.0937L53.2172 13.1396L53.2233 13.1457L53.2677 13.1915L53.2722 13.1976L53.3166 13.2435L53.3227 13.2496L53.3655 13.2954L53.3716 13.3015L53.4144 13.3474L53.4205 13.3535L53.4633 13.3993L53.4694 13.4054L53.5122 13.4528L53.5183 13.4589L53.5595 13.5078L53.5641 13.5139L53.6069 13.5613L53.613 13.5674L53.6543 13.6163L53.6604 13.6224L53.7016 13.6713L53.7062 13.6775L53.7475 13.7264L53.7536 13.7325L53.7933 13.7814L53.7979 13.7875L53.8376 13.8364L53.8438 13.8425L53.8835 13.8929L53.8881 13.899L53.9263 13.9495L53.9309 13.9556L53.9691 14.006L53.9736 14.0121L54.0119 14.0625L54.0164 14.0702L54.0546 14.1221L54.0592 14.1283L54.0974 14.1787L54.102 14.1863L54.1387 14.2383L54.1433 14.2444L54.1799 14.2963L54.1845 14.3025L54.2212 14.3544L54.2258 14.3621L54.2609 14.414L54.2655 14.4217L54.3007 14.4751L54.3053 14.4828L54.3389 14.5347L54.3435 14.5408L54.3771 14.5928L54.3817 14.5989L54.4168 14.6524L54.4214 14.6585L54.455 14.712L54.4596 14.7196L54.4917 14.7731L54.4963 14.7808L54.5299 14.8343L54.5345 14.8419L54.5666 14.8954L54.5711 14.903L54.6032 14.958L54.6078 14.9641L54.6384 15.0192L54.643 15.0268L54.6735 15.0818L54.6781 15.0894L54.7087 15.1445L54.7133 15.1521L54.7438 15.2071L54.7469 15.2148L54.7774 15.2713L54.7805 15.2789L54.8095 15.3355L54.8126 15.3431L54.8416 15.3997L54.8462 15.4058L54.8737 15.4638L54.8768 15.4715L54.9058 15.528L54.9089 15.5357L54.9364 15.5922L54.941 15.5998L54.9669 15.6579L54.97 15.6656L54.996 15.7236L54.999 15.7313L55.025 15.7893L55.0281 15.797L55.054 15.855L55.0571 15.8627L55.0815 15.9208L55.0846 15.9284L55.1091 15.9865L55.1121 15.9941L55.135 16.0537L55.1381 16.0613L55.161 16.1194L55.1641 16.1271L55.187 16.1866L55.19 16.1943L55.213 16.2539L55.216 16.2615L55.2389 16.3211L55.242 16.3288L55.2634 16.3884L55.2664 16.396L55.2863 16.4556L55.2894 16.4632L55.3092 16.5228L55.3123 16.5305L55.3322 16.5901L55.3352 16.5977L55.3551 16.6588L55.3566 16.6665L55.3749 16.7261L55.378 16.7337L55.3963 16.7948L55.3979 16.8025L55.4162 16.8636L55.4193 16.8713L55.4376 16.9324L55.4407 16.94L55.4575 17.0011L55.4605 17.0088L55.4773 17.0699L55.4789 17.0775L55.4941 17.1387L55.4972 17.1478L55.514 17.2105L55.5155 17.2181L55.5308 17.2808L55.5339 17.2884L55.5476 17.3511L55.5507 17.3587L55.566 17.4214L55.5675 17.4305L55.5812 17.4932L55.5828 17.5008L55.5965 17.5635L55.5981 17.5711L55.6103 17.6338L55.6118 17.6414L55.624 17.7041L55.6256 17.7117L55.6378 17.7744L55.6393 17.782L55.65 17.8462L55.6515 17.8538L55.6622 17.9165L55.6638 17.9257L55.6745 17.9898L55.676 17.999L55.6852 18.0632L55.6867 18.0724L55.6959 18.135V18.1411L55.7004 18.1747V18.1778L55.7035 18.2099V18.2145L55.7081 18.2466V18.2496L55.7127 18.2817V18.2863L55.7172 18.3184L55.7188 18.323L55.7234 18.3551V18.3597L55.7264 18.3917L55.7279 18.3948L55.731 18.4269L55.7325 18.4315L55.7356 18.4636V18.4681L55.7386 18.5002L55.7402 18.5048L55.7432 18.5369L55.7448 18.5415L55.7478 18.5736V18.5782L55.7509 18.6103V18.6149L55.7539 18.6469V18.6515L55.757 18.6836V18.6882L55.76 18.7203V18.7249L55.7616 18.757V18.7616L55.7631 18.7952V18.7998L55.7661 18.8334V18.8364L55.7677 18.8685V18.8731L55.7692 18.9052V18.9098L55.7707 18.9419V18.9465L55.7723 18.9785V18.9831L55.7738 19.0168V19.0213L55.7753 19.0534V19.058L55.7768 19.0901V19.0932L55.7784 19.1252V40.458L55.7768 40.4931V40.5374L55.7753 40.5726V40.5772L55.7738 40.6108V40.6138L55.7723 40.649V40.6536L55.7707 40.6872V40.6903L55.7692 40.7239V40.7285L55.7677 40.7621L55.7661 40.7667L55.7646 40.8003V40.8049L55.7631 40.8385V40.8415L55.7616 40.8767V40.8813L55.7585 40.9164V40.9195L55.7555 40.9546V40.9592L55.7524 40.9928V40.9974L55.7509 41.031V41.0356L55.7478 41.0692V41.0738L55.7448 41.1074V41.112L55.7417 41.1456V41.1502L55.7386 41.1838L55.7371 41.1869L55.7341 41.222L55.7325 41.2266L55.7295 41.2602V41.2648L55.7264 41.2985L55.7249 41.303L55.7203 41.3367V41.3412L55.7157 41.3749V41.3779L55.7111 41.4115V41.4161L55.7066 41.4497L55.705 41.4543L55.7004 41.4895L55.6989 41.4941L55.6943 41.5277L55.6928 41.5323L55.6882 41.5659V41.5705L55.6836 41.6041V41.6087L55.679 41.6423L55.6775 41.6469L55.6729 41.6805L55.6714 41.6851L55.6653 41.7187V41.7217L55.6607 41.7554V41.7584L55.6546 41.792L55.6531 41.7966L55.6485 41.8302L55.647 41.8348L55.6424 41.8684V41.8715L55.6363 41.9051V41.9082L55.6301 41.9418V41.9449L55.624 41.9785V41.9831L55.6179 42.0151L55.6164 42.0197L55.6103 42.0518L55.6087 42.0564L55.6026 42.09L55.6011 42.0946L55.5935 42.1282V42.1313L55.5858 42.1649V42.168L55.5797 42.2001V42.2046L55.5721 42.2383V42.2413L55.566 42.2749L55.5644 42.278L55.5568 42.3101V42.3131L55.5492 42.3452V42.3498L55.5415 42.3819L55.54 42.3865L55.5323 42.4186L55.5308 42.4232L55.5232 42.4552L55.5216 42.4583L55.514 42.4904L55.5125 42.4935L55.5048 42.5255L55.5033 42.5301L55.4941 42.5622L55.4926 42.5668L55.485 42.5989L55.4834 42.6035L55.4743 42.6356V42.6402L55.4651 42.6738L55.4636 42.6784L55.4544 42.7104V42.715L55.4452 42.7471L55.4437 42.7517L55.4345 42.7838L55.433 42.7884L55.4238 42.822L55.4223 42.8251L55.4132 42.8571L55.4116 42.8602L55.4025 42.8923L55.4009 42.8969L55.3902 42.929L55.3887 42.9336L55.3795 42.9656L55.378 42.9687L55.3688 43.0008L55.3673 43.0054L55.3581 43.0375L55.3566 43.0405L55.3459 43.0726L55.3444 43.0772L55.3337 43.1093L55.3322 43.1139L55.3215 43.146L55.3199 43.1505L55.3092 43.1826L55.3077 43.1872L55.297 43.2193L55.2955 43.2224L55.2848 43.2545L55.2833 43.259L55.2726 43.2911L55.271 43.2957L55.2603 43.3278L55.2588 43.3309L55.2481 43.363L55.2466 43.3675L55.2359 43.3996L55.2344 43.4042L55.2221 43.4348L55.2206 43.4394L55.2099 43.4699L55.2084 43.4745L55.1977 43.5051L55.1962 43.5097L55.1855 43.5418L55.1839 43.5463L55.1717 43.5784L55.1702 43.583L55.158 43.6136L55.1564 43.6182L55.1442 43.6487L55.1427 43.6533L55.1304 43.6839L55.1289 43.6884L55.1167 43.719L55.1152 43.7236L55.1029 43.7542L55.1014 43.7587L55.0892 43.7893L55.0877 43.7924L55.0739 43.8229L55.0724 43.8275L55.0586 43.8596L55.0571 43.8642L55.0449 43.8947L55.0433 43.8993L55.0296 43.9299L55.0281 43.9345L55.0143 43.965L55.0128 43.9696L54.999 44.0002L54.9975 44.0032L54.9837 44.0338L54.9822 44.0384L54.9685 44.069L54.9669 44.072L54.9532 44.1026L54.9517 44.1056L54.9379 44.1362L54.9364 44.1393L54.9226 44.1698L54.9211 44.1729L54.9058 44.2034L54.9043 44.2065L54.889 44.2355L54.8875 44.2401L54.8737 44.2707L54.8722 44.2737L54.8569 44.3028L54.8554 44.3073L54.8416 44.3379L54.8401 44.341L54.8248 44.3715L54.8233 44.3761L54.808 44.4067L54.8065 44.4097L54.7912 44.4388L54.7897 44.4418L54.7744 44.4724L54.7729 44.477L54.7576 44.5075L54.7561 44.5121L54.7408 44.5427L54.7377 44.5473L54.7224 44.5763L54.7209 44.5794L54.7056 44.6099L54.7041 44.6145L54.6888 44.6451L54.6873 44.6496L54.6705 44.6787L54.6674 44.6817L54.6506 44.7108L54.6491 44.7138L54.6323 44.7429L54.6307 44.7459L54.6139 44.775L54.6124 44.778L54.5956 44.807L54.5941 44.8101L54.5773 44.8391L54.5757 44.8437L54.5589 44.8728L54.5574 44.8758L54.5406 44.9048L54.5391 44.9094L54.5222 44.9385L54.5192 44.9415L54.5024 44.9706L54.4993 44.9736L54.4825 45.0026L54.481 45.0057L54.4642 45.0347L54.4627 45.0393L54.4443 45.0684L54.4428 45.0714L54.426 45.0989L54.4244 45.1035L54.4076 45.131L54.4046 45.1341L54.3862 45.1631L54.3847 45.1677L54.3664 45.1952L54.3633 45.1982L54.345 45.2258L54.3435 45.2288L54.3251 45.2578L54.3221 45.2624L54.3037 45.2899L54.3007 45.293L54.2823 45.3205L54.2808 45.3236L54.2625 45.3526L54.2609 45.3556L54.2426 45.3831L54.2395 45.3862L54.2197 45.4137L54.2182 45.4168L54.1998 45.4443L54.1983 45.4473L54.1784 45.4748L54.1769 45.4779L54.1586 45.5054L54.1555 45.5085L54.1372 45.536L54.1341 45.539L54.1142 45.5665L54.1112 45.5696L54.0928 45.5971L54.0913 45.6001L54.0714 45.6277L54.0684 45.6322L54.0501 45.6597L54.047 45.6628L54.0271 45.6903L54.0241 45.6934L54.0042 45.7209L54.0012 45.7239L53.9813 45.7514L53.9782 45.7545L53.9584 45.782L53.9568 45.785L53.937 45.811L53.9339 45.8141L53.9141 45.8401L53.9125 45.8431L53.8911 45.8691L53.8881 45.8722L53.8682 45.8981L53.8667 45.9012L53.8468 45.9287L53.8438 45.9318L53.8224 45.9593L53.8193 45.9623L53.7979 45.9883L53.7949 45.9913L53.7735 46.0173L53.7719 46.0204L53.7505 46.0464L53.7475 46.0494L53.7261 46.0754L53.723 46.0784L53.7016 46.1044L53.6986 46.1075L53.6772 46.1335L53.6741 46.1365L53.6527 46.1625L53.6512 46.1656L53.6298 46.1915L53.6268 46.1946L53.6038 46.2206L53.6008 46.2236L53.5794 46.2496L53.5763 46.2527L53.5549 46.2786L53.5519 46.2817L53.5305 46.3077L53.5274 46.3107L53.506 46.3367L53.503 46.3398L53.4816 46.3642L53.4785 46.3673L53.4556 46.3932L53.4526 46.3963L53.4312 46.4223L53.4281 46.4253L53.4052 46.4513L53.4021 46.4544L53.3807 46.4804L53.3777 46.4834L53.3548 46.5079L53.3517 46.5109L53.3288 46.5354L53.3257 46.5384L53.3028 46.5629L53.2997 46.5659L53.2768 46.5904L53.2738 46.5934L53.2508 46.6179L53.2478 46.6209L53.2249 46.6454L53.2218 46.6484L53.1989 46.6729L53.1958 46.6759L53.1729 46.7004L53.1699 46.7035L53.1454 46.7279L53.1423 46.731L53.1194 46.7554L53.1164 46.7585L53.0934 46.7814L53.0904 46.7844L53.0659 46.8089L53.0614 46.812L53.0369 46.8364L53.0338 46.8395L53.0094 46.8624L53.0063 46.8654L52.9819 46.8899L52.9788 46.8929L52.9544 46.9159L52.9513 46.9189L52.9269 46.9418L52.9238 46.9449L52.8994 46.9678L52.8963 46.9709L52.8719 46.9938L52.8688 46.9969L52.8444 47.0198L52.8413 47.0228L52.8169 47.0458L52.8138 47.0488L52.7878 47.0717L52.7848 47.0733L52.7603 47.0962L52.7573 47.0992L52.7313 47.1222L52.7282 47.1252L52.7022 47.1481L52.6992 47.1497L52.6732 47.1726L52.6702 47.1756L52.6442 47.197L52.6396 47.2001L52.6136 47.2215L52.6106 47.2245L52.5846 47.2475L52.5815 47.2505L52.5555 47.2734L52.5525 47.2765L52.5265 47.2994L52.5235 47.3025L52.4975 47.3239L52.4944 47.3269L52.4669 47.3483L52.4639 47.3499L52.4379 47.3713L52.4348 47.3743L52.4088 47.3957L52.4043 47.3988L52.3783 47.4202L52.3752 47.4232L52.3492 47.4446L52.3462 47.4477L52.3202 47.4691L52.3172 47.4721L52.2896 47.4935L52.2866 47.4966L52.2606 47.5164L52.2576 47.5195L52.23 47.5409L52.227 47.5439L52.1995 47.5653L52.1964 47.5684L52.1689 47.5898L52.1659 47.5928L52.1384 47.6142L52.1353 47.6158L52.1078 47.6356L52.1047 47.6371L52.0772 47.657L52.0742 47.6585L52.0467 47.6784L52.0421 47.6799L52.0146 47.6998L52.0115 47.7029L51.984 47.7227L51.981 47.7258L51.9535 47.7456L51.9504 47.7487L51.9229 47.7686L51.9183 47.7716L51.8908 47.7915L51.8877 47.793L51.8587 47.8129L51.8541 47.8144L51.8251 47.8343L51.822 47.8373L51.793 47.8572L51.7899 47.8603L51.7609 47.8786L51.7579 47.8816L51.7288 47.9015L51.7258 47.9046L51.6983 47.9244L51.6937 47.9275L51.6646 47.9458L51.6616 47.9474L51.6325 47.9657L51.628 47.9672L51.5989 47.9856L51.5959 47.9886L51.5668 48.007L51.5638 48.01L51.5347 48.0283L51.5317 48.0299L51.5027 48.0482L51.4981 48.0497L51.469 48.0681L51.466 48.0711L51.437 48.0895L51.4324 48.091L51.4033 48.1093L51.3987 48.1124L51.3697 48.1307L51.3651 48.1338L51.3346 48.1521L51.3315 48.1552L51.3025 48.172L51.2979 48.1735L51.2689 48.1903L51.2658 48.1934L51.2352 48.2117L51.2307 48.2148L51.2001 48.2316L51.197 48.2346L51.168 48.2515L51.1634 48.253L51.1329 48.2698L51.1283 48.2713L51.0977 48.2881L51.0946 48.2897L51.0656 48.3065L51.0641 48.308L33.3484 58.1797H33.3469L33.3194 58.1965L33.3148 58.1981L33.2858 58.2149L33.2812 58.2179L33.2522 58.2332L33.2476 58.2347L33.2186 58.25L33.2155 58.2516L33.1865 58.2668L33.1819 58.2684L33.1528 58.2836L33.1483 58.2852L33.1192 58.3005L33.1146 58.302L33.0856 58.3173L33.0826 58.3188L33.0535 58.3341L33.0505 58.3356L33.0214 58.3494L33.0184 58.3509L32.9878 58.3662L32.9847 58.3692L32.9557 58.3845L32.9527 58.386L32.9236 58.3998L32.9206 58.4013L32.8915 58.4151L32.8885 58.4166L32.8594 58.4319L32.8564 58.4334L32.8258 58.4472L32.8228 58.4487L32.7937 58.4624L32.7907 58.464L32.7601 58.4777L32.7571 58.4792L32.728 58.493L32.725 58.4945L32.6959 58.5083L32.6913 58.5113L32.6608 58.5251L32.6577 58.5266L32.6272 58.5388L32.6241 58.5404L32.5935 58.5541L32.5905 58.5572L32.5599 58.5709L32.5553 58.5725L32.5263 58.5847L32.5233 58.5862L32.4927 58.6L32.4896 58.6015L32.4591 58.6137L32.456 58.6152L32.4255 58.6275L32.4224 58.629L32.3918 58.6412L32.3872 58.6428L32.3567 58.655L32.3521 58.6565L32.3215 58.6687L32.317 58.6703L32.2879 58.6825L32.2849 58.684L32.2543 58.6947L32.2512 58.6962L32.2207 58.7085L32.2161 58.71L32.1855 58.7222L32.181 58.7237L32.1504 58.736L32.1458 58.7375L32.1152 58.7482L32.1107 58.7497L32.0801 58.762L32.0755 58.7635L32.0449 58.7742L32.0419 58.7757L32.0113 58.7864L32.0067 58.7879L31.9762 58.7986L31.9716 58.8002L31.941 58.8109L31.9365 58.8124L31.9059 58.8231L31.9028 58.8246L31.8723 58.8353L31.8417 58.846L31.8371 58.8475L31.805 58.8567L31.8004 58.8582L31.7699 58.8674L31.7668 58.8689L31.7363 58.8796L31.7332 58.8811L31.7011 58.8903L31.6965 58.8918L31.666 58.901L31.6614 58.9025L31.6308 58.9117L31.6262 58.9132L31.5941 58.9239L31.588 58.9255L31.5269 58.9438L31.5193 58.9469L31.4566 58.9652L31.449 58.9667L31.3863 58.9851L31.3787 58.9866L31.316 59.0034L31.3084 59.0065L31.2457 59.0233L31.2381 59.0248L31.1754 59.0416L31.1663 59.0431L31.1036 59.0584L31.096 59.0599L31.0333 59.0752L31.0242 59.0767L30.9615 59.092L30.9539 59.0936L30.8912 59.1073L30.8836 59.1088L30.8194 59.1226L30.8102 59.1241L30.746 59.1379L30.7384 59.1394L30.6742 59.1516L30.6666 59.1532L30.6039 59.1638L30.5963 59.1654L30.5336 59.1776L30.526 59.1791L30.4618 59.1898L30.4542 59.1914L30.39 59.2021L30.3823 59.2036L30.3182 59.2127L30.3105 59.2143L30.2463 59.2234L30.2387 59.225L30.1745 59.2341L30.1669 59.2357L30.1027 59.2448L30.0935 59.2464L30.0293 59.254L30.0217 59.2555L29.9575 59.2632L29.9499 59.2647L29.8857 59.2723L29.8215 59.2785H29.8139L29.7497 59.283L29.7421 59.2846L29.6779 59.2892H29.6702L29.606 59.2937H29.5984L29.5342 59.2983L29.5251 59.2999L29.4609 59.3044H29.4532L29.3891 59.3075H29.3814L29.3172 59.3106H29.3081L29.2439 59.3121H29.2362L29.1721 59.3136H29.1644L29.1002 59.3151H28.8741L28.8099 59.3136L28.7457 59.3121H28.7365L28.6724 59.3106H28.671L28.6068 59.3075L28.5992 59.306L28.535 59.3029H28.5273L28.4632 59.2999L28.4555 59.2983L28.3913 59.2953H28.3837L28.3195 59.2907L28.3119 59.2892L28.2477 59.283L28.2385 59.2815L28.1743 59.2754L28.1652 59.2739L28.101 59.2678L28.0933 59.2662L28.0292 59.2601H28.0215L27.9573 59.254L27.9497 59.2525L27.8855 59.2448H27.8764L27.8122 59.2372L27.803 59.2357L27.7388 59.2265L27.7312 59.225L27.667 59.2158L27.6594 59.2143L27.5952 59.2051L27.5875 59.2036L27.5234 59.1944L27.5157 59.1929L27.4531 59.1822H27.4485L27.3843 59.17L27.376 59.1684L27.3134 59.1562L27.3057 59.1547L27.2431 59.1425L27.2355 59.1409L27.1728 59.1287L27.1636 59.1272L27.1001 59.1149L27.0924 59.1134L27.0298 59.0997L27.0206 59.0966L26.9579 59.0829L26.9503 59.0813L26.8877 59.0661L26.8791 59.063L26.8164 59.0477L26.8088 59.0447L26.7461 59.0278L26.7385 59.0263L26.6759 59.0095L26.6682 59.0065L26.6056 58.9896L26.5979 58.9866L26.5353 58.9698L26.5276 58.9667L26.465 58.9484L26.4558 58.9453L26.3932 58.927L26.3855 58.9239L26.3229 58.9056L26.3152 58.9025L26.2526 58.8842L26.2449 58.8827L26.1841 58.8628L26.178 58.8613L26.1459 58.8506H26.1418L26.1112 58.8414L26.1066 58.8399L26.0761 58.8292L26.0715 58.8277L26.0409 58.817L26.0363 58.8154L26.0058 58.8047L26.0012 58.8032L25.9706 58.7925L25.966 58.791L25.9355 58.7803L25.9324 58.7788L25.9019 58.7681L25.8988 58.7665L25.8682 58.7558L25.8652 58.7543L25.8346 58.7421L25.83 58.7406L25.7995 58.7283L25.7949 58.7268L25.7643 58.7146L25.7613 58.7131L25.7307 58.7008L25.7261 58.6993L25.6956 58.6871L25.6925 58.6855L25.6619 58.6733L25.6574 58.6718L25.6268 58.6596L25.6237 58.658L25.5932 58.6458L25.5901 58.6443L25.5596 58.6321L25.555 58.6305L25.5244 58.6183L25.5198 58.6168L25.4893 58.6046L25.4847 58.603L25.4541 58.5908L25.4495 58.5893L25.419 58.577L25.4159 58.5755L25.3853 58.5618L25.3808 58.5602L25.3517 58.5465L25.3487 58.545L25.3181 58.5312L25.3151 58.5297L25.2845 58.5159L25.2814 58.5144L25.2509 58.5022L25.2463 58.5006L25.2173 58.4869L25.2127 58.4854L25.1821 58.4716L25.1775 58.4701L25.1485 58.4563L25.1454 58.4533L25.1164 58.4395L25.1133 58.438L25.0843 58.4242L25.0812 58.4227L25.0507 58.409L25.0476 58.4059L25.0171 58.3906L25.014 58.3876L24.985 58.3738L24.9804 58.3723L24.9498 58.3585L24.9468 58.3555L24.9177 58.3402L24.9132 58.3387L24.8826 58.3234L24.8795 58.3218L24.8505 58.3066L24.8459 58.305L24.8169 58.2898L24.8138 58.2882L24.7848 58.2729L24.7802 58.2699L24.7512 58.2546L24.7481 58.2531L24.7191 58.2378L24.716 58.2363L24.687 58.221L24.6824 58.2179L24.6534 58.2027L24.6503 58.2011L24.6213 58.1843L24.6167 58.1813L24.5877 58.166L24.5831 58.1645L24.554 58.1492L24.5495 58.1476L24.5204 58.1324L24.5158 58.1308L24.4868 58.114L24.4822 58.1125L24.4547 58.0957L24.4501 58.0942L24.4226 58.0773L24.4211 58.0758L8.40626 48.7282L8.40474 48.7267L8.37112 48.7068L8.36806 48.7053L8.33444 48.6854L8.32986 48.6839L8.29471 48.6641L8.29013 48.6625L8.25651 48.6411L8.25345 48.6396L8.21983 48.6182L8.21677 48.6152L8.18316 48.5938L8.1801 48.5907L8.14648 48.5693L8.1419 48.5678L8.10828 48.5479L8.10369 48.5449L8.07007 48.5235L8.06702 48.5204L8.0334 48.499H8.04119L8.00757 48.4776L8.00299 48.4746L7.96937 48.4532L7.96631 48.4501L7.93269 48.4287L7.92842 48.4257L7.8948 48.4027L7.89021 48.3997L7.85659 48.3768L7.85354 48.3737L7.81992 48.3523L7.81686 48.3493L7.78324 48.3263L7.78019 48.3233L7.74657 48.3004L7.74351 48.2973L7.71142 48.2744L7.70684 48.2713L7.67398 48.2484L7.67093 48.2453L7.63883 48.2224L7.63502 48.2194L7.60292 48.1964L7.5988 48.1934L7.56671 48.1705L7.56365 48.1689L7.53156 48.146L7.5285 48.143L7.49687 48.12L7.49382 48.117L7.46234 48.0941L7.45775 48.0925L7.42566 48.0696L7.4226 48.0666L7.39051 48.0421L7.38746 48.039L7.35537 48.0161L7.35139 48.0131L7.3193 47.9886L7.31533 47.9856L7.28477 47.9611L7.28171 47.9581L7.25115 47.9336L7.24809 47.9321L7.21753 47.9076L7.21447 47.9046L7.18391 47.8801L7.18085 47.8771L7.15029 47.8526L7.14723 47.8496L7.11667 47.8251L7.11362 47.822L7.08305 47.7976L7.08 47.7945L7.04943 47.7701L7.04638 47.767L7.01582 47.7411L7.01276 47.7395L6.9822 47.7151L6.97914 47.712L6.94949 47.6876L6.94644 47.6845L6.91588 47.6585L6.91282 47.6555L6.88226 47.631L6.8792 47.628L6.84864 47.602L6.84558 47.6005L6.81563 47.576L6.81257 47.573L6.78354 47.5485L6.78048 47.5455L6.75145 47.5195L6.74839 47.5164L6.71936 47.4904L6.7163 47.4874L6.68727 47.4614L6.68421 47.4584L6.65518 47.4324L6.65212 47.4293L6.62309 47.4033L6.62003 47.4003L6.59099 47.3728L6.58794 47.3713L6.5589 47.3453L6.55432 47.3422L6.52605 47.3147L6.52299 47.3117L6.49396 47.2857L6.4909 47.2826L6.46248 47.2551L6.45942 47.2521L6.43192 47.2245L6.42886 47.2215L6.40135 47.194L6.3983 47.1909L6.36926 47.1634L6.36621 47.1604L6.33717 47.1329L6.33412 47.1313L6.30661 47.1038L6.30355 47.1008L6.27605 47.0733L6.27299 47.0702L6.24548 47.0427L6.24243 47.0396L6.21492 47.0121L6.21186 47.0091L6.18436 46.9816L6.1813 46.9785L6.1538 46.951L6.15074 46.948L6.12476 46.9205L6.12171 46.9174L6.0942 46.8899L6.09114 46.8868L6.06364 46.8578L6.06058 46.8547L6.0346 46.8257L6.03155 46.8227L6.00557 46.7936L6.00251 46.7906L5.975 46.7615L5.97195 46.7585L5.94597 46.7294L5.94291 46.7264L5.91694 46.6973L5.91388 46.6943L5.8879 46.6653L5.88484 46.6622L5.85887 46.6332L5.85581 46.6301L5.82983 46.6011L5.8283 46.598L5.80385 46.569L5.8008 46.5659L5.77482 46.5369L5.77176 46.5338L5.74426 46.5033L5.7412 46.5002L5.71522 46.4712L5.71217 46.4681L5.68619 46.4376L5.68313 46.4345L5.65868 46.4055L5.65715 46.4024L5.6327 46.3734L5.62965 46.3703L5.6052 46.3398L5.60214 46.3367L5.57616 46.3061L5.57311 46.3031L5.54866 46.2741L5.5456 46.271L5.51962 46.242L5.51656 46.2389L5.49211 46.2099L5.48906 46.2068L5.46461 46.1763L5.46155 46.1732L5.4371 46.1426L5.43405 46.1396L5.4096 46.109L5.40654 46.106L5.38209 46.0754L5.37903 46.0723L5.35458 46.0418L5.35305 46.0387L5.33013 46.0082L5.32708 46.0051L5.30415 45.9745L5.30263 45.9715L5.2797 45.9409L5.27665 45.9379L5.25373 45.9058L5.25067 45.9027L5.22775 45.8722L5.22469 45.8691L5.20177 45.8385L5.20024 45.8355L5.17732 45.8034L5.17579 45.8003L5.15287 45.7682L5.15134 45.7652L5.12842 45.7346L5.12689 45.7316L5.10397 45.701L5.10091 45.6979L5.07799 45.6659L5.07493 45.6628L5.05201 45.6307L5.04896 45.6261L5.02756 45.594L5.02451 45.591L5.00311 45.5589L5.00006 45.5558L4.97866 45.5237L4.97561 45.5207L4.95421 45.4886L4.95268 45.4855L4.93129 45.4534L4.92823 45.4489L4.90684 45.4168L4.90378 45.4137L4.88239 45.3816L4.87933 45.3786L4.85794 45.3465L4.85488 45.3434L4.83349 45.3113L4.83043 45.3083L4.81057 45.2762L4.80904 45.2731L4.78917 45.241L4.78612 45.2365L4.76472 45.2044L4.76167 45.1998L4.74027 45.1677L4.73875 45.1646L4.71735 45.131L4.71582 45.1264L4.69596 45.0943L4.6929 45.0913L4.67304 45.0592L4.66998 45.0561L4.65011 45.0225L4.64706 45.0179L4.62719 44.9858L4.62566 44.9828L4.6058 44.9492L4.60427 44.9461L4.5844 44.914L4.58135 44.9094L4.56148 44.8758L4.55843 44.8712L4.53856 44.8376L4.5355 44.833L4.51717 44.7994L4.51411 44.7963L4.49424 44.7627L4.49272 44.7597L4.47438 44.7261L4.47285 44.723L4.45451 44.6894L4.45298 44.6848L4.43465 44.6512L4.43159 44.6466L4.41325 44.613L4.41172 44.6084L4.39339 44.5732L4.39186 44.5702L4.37352 44.5366L4.37199 44.532L4.35366 44.4984L4.35213 44.4938L4.33379 44.4602L4.33226 44.4556L4.31545 44.4204L4.31392 44.4174L4.29559 44.3822L4.29406 44.3776L4.27572 44.3425L4.27266 44.3394L4.25586 44.3043L4.25433 44.3012L4.23752 44.2676L4.23599 44.263L4.21918 44.2279V44.2294L4.20237 44.1943L4.19931 44.1897L4.1825 44.1545L4.18098 44.1499L4.16417 44.1163L4.16264 44.1117L4.14583 44.0766L4.1443 44.0735L4.12749 44.0384L4.12596 44.0353L4.11068 44.0002L4.10915 43.9971L4.09234 43.962L4.09082 43.9589L4.07401 43.9238L4.07248 43.9207L4.05567 43.8856L4.05414 43.881L4.03886 43.8458L4.03733 43.8428L4.02052 43.8076L4.01899 43.8031L4.00219 43.7679L4.00066 43.7649L3.98538 43.7297L3.98385 43.7267L3.96857 43.6915L3.96704 43.6869L3.95176 43.6518L3.95023 43.6487L3.93648 43.6136L3.93495 43.6105L3.91967 43.5754L3.91814 43.5708L3.90438 43.5341L3.90286 43.5311L3.88758 43.4959L3.88605 43.4913L3.87229 43.4577L3.87077 43.4531L3.85548 43.4164L3.85396 43.4134L3.8402 43.3767L3.83867 43.3721L3.82492 43.3355L3.82339 43.3324L3.80964 43.2957L3.80811 43.2911L3.79436 43.2545L3.79283 43.2514L3.77908 43.2147L3.77755 43.2117L3.76532 43.175L3.7638 43.1704L3.75004 43.1337L3.74852 43.1307L3.73629 43.094L3.73476 43.0894L3.72254 43.0527L3.72101 43.0482L3.70726 43.0115L3.70573 43.0069L3.6935 42.9702L3.69197 42.9672L3.67975 42.9305L3.67822 42.9274L3.666 42.8908L3.66447 42.8862L3.65224 42.8495L3.65071 42.8449L3.63849 42.8082L3.63696 42.8037L3.62474 42.767L3.62321 42.7624L3.61098 42.7257L3.60961 42.7213L3.59891 42.6846L3.59738 42.6816L3.58516 42.6434L3.58363 42.6388L3.57293 42.6006L3.5714 42.596L3.56071 42.5593L3.55918 42.5547L3.54848 42.5181L3.54695 42.5135L3.53626 42.4753L3.53473 42.4707L3.52403 42.4325L3.5225 42.4294L3.51181 42.3912L3.51028 42.3897L3.49958 42.3515L3.49805 42.3484L3.48889 42.3118L3.48736 42.3087L3.47819 42.272V42.269L3.46749 42.2308V42.2262L3.45832 42.1895L3.45679 42.1849L3.44763 42.1482L3.4461 42.1437L3.43693 42.1055H3.43846L3.42929 42.0673L3.42776 42.0642L3.41859 42.026L3.41706 42.0229L3.40789 41.9847L3.40637 41.9817L3.3972 41.9435L3.39873 41.9419L3.38956 41.9037L3.38803 41.8992L3.37886 41.861L3.37733 41.8564L3.36969 41.8182L3.36816 41.8136L3.35899 41.7754L3.35747 41.7723L3.34983 41.7341L3.3483 41.7295L3.34066 41.6913L3.33913 41.6867L3.33149 41.6485L3.32385 41.6103V41.6058L3.31621 41.566V41.5614L3.30857 41.5232L3.30704 41.5187L3.29787 41.482V41.4774L3.29023 41.4361L3.2887 41.4316L3.28106 41.3918L3.27953 41.3872L3.27342 41.349L3.27189 41.3444L3.26578 41.3062V41.3017L3.25967 41.2635V41.2589L3.25355 41.2207L3.25202 41.2161L3.24591 41.1779V41.1794L3.2398 41.1412V41.1381L3.23369 41.0999V41.0954L3.22757 41.0572V41.0526L3.22146 41.0144V41.0113L3.21688 40.9716V40.967L3.21229 40.9288V40.9257L3.20618 40.886L3.20465 40.8814L3.20007 40.8432V40.8386L3.19548 40.7989L3.19396 40.7943L3.18937 40.7546V40.75L3.18479 40.7103L3.18326 40.7057L3.17867 40.666V40.6614L3.17409 40.6216L3.17256 40.6186L3.16798 40.5789L3.16492 40.5391V40.5345L3.16034 40.4948L3.15881 40.4902L3.15422 40.4505V40.4459L3.15117 40.4062L3.14964 40.4016L3.14658 40.3619V40.3573L3.14353 40.3175V40.313L3.14047 40.2732L3.13741 40.2335V40.2289L3.13436 40.1892V40.1846L3.1313 40.1449V40.0955L3.12977 40.0558V40.0512L3.12825 40.0115V40.0069L3.12672 39.9671L3.12519 39.9626L3.12366 39.9228V39.88L3.12213 39.8403V39.8357L3.12061 39.796V20.4498L3.12213 20.4116V20.3627L3.12366 20.323V20.1824L3.12519 20.1427V20.1396L3.12672 20.0999V20.0953L3.12825 20.0556V20.051L3.12977 20.0113V20.0082L3.1313 19.9685V19.9639L3.13283 19.9242V19.9196L3.13589 19.8783V19.8737L3.13894 19.834V19.8309L3.14047 19.7912V19.7866L3.14353 19.7469V19.7423L3.14506 19.7026V19.698L3.14658 19.6583V19.6537L3.14964 19.6139V19.6094L3.1527 19.5696V19.565L3.15728 19.5253V19.5207L3.16034 19.481L3.16187 19.4779L3.16492 19.4382V19.4352L3.16951 19.3954V19.3924L3.17409 19.3526L3.17562 19.348L3.1802 19.3083V19.3037L3.18479 19.264V19.2609L3.18937 19.2212V19.2182L3.19396 19.1784L3.19548 19.1738L3.20007 19.1341V19.1295L3.20465 19.0913V19.0867L3.20924 19.047V19.0424L3.21382 19.0027L3.21535 18.9981L3.21993 18.9599V18.9553L3.22605 18.9156V18.911L3.23063 18.8713L3.23216 18.8667L3.23674 18.8285L3.23827 18.8239L3.24438 18.7842L3.24591 18.7811L3.25202 18.7414V18.7383L3.25814 18.6986V18.6955L3.26425 18.6573L3.26578 18.6527L3.27189 18.6145V18.61L3.28259 18.5702L3.28412 18.5656L3.29023 18.5274V18.5229L3.29787 18.4847V18.4816L3.30551 18.4434V18.4403L3.31315 18.4006L3.31468 18.3976L3.32232 18.3593L3.32385 18.3563L3.33149 18.3181L3.33302 18.3135L3.34066 18.2753L3.34218 18.2707L3.34983 18.2325V18.2279L3.35747 18.1897V18.1867L3.36511 18.1485L3.36663 18.1454L3.37428 18.1072L3.3758 18.1041L3.38497 18.0659V18.0614L3.39414 18.0232L3.39567 18.0186L3.40331 17.9804L3.40484 17.9758L3.41401 17.9376V17.933L3.42318 17.8948L3.4247 17.8902L3.43387 17.852V17.8474L3.44304 17.8092L3.44457 17.8062L3.45374 17.768V17.7649L3.46291 17.7267L3.46444 17.7221L3.47513 17.6839V17.6809L3.48583 17.6427V17.6396L3.49653 17.6014L3.49805 17.5968L3.50875 17.5586V17.554L3.51945 17.5158L3.52098 17.5112L3.53167 17.4746L3.5332 17.4715L3.5439 17.4333L3.54543 17.4295L3.55612 17.3913L3.55765 17.3867L3.56835 17.3494L3.56988 17.3463L3.5821 17.3081L3.58363 17.3051L3.59433 17.2684L3.59585 17.2654L3.60655 17.2282L3.60808 17.2252L3.61878 17.1873L3.6203 17.1827L3.63253 17.1454L3.63406 17.1408L3.64628 17.1041V17.1011L3.65851 17.0644V17.0598L3.67073 17.0231L3.67226 17.0201L3.68449 16.9834L3.68601 16.9788L3.69824 16.9422L3.69977 16.9376L3.71199 16.9009L3.71352 16.8963L3.72575 16.8596L3.72727 16.8566L3.74103 16.8199L3.74256 16.8169L3.75478 16.7802L3.75631 16.7764L3.76853 16.7397L3.77006 16.7366L3.78382 16.6999L3.78534 16.6969L3.7991 16.6602V16.6572L3.81285 16.6205L3.81438 16.6174L3.82813 16.5808L3.82966 16.5762L3.84341 16.5395L3.84494 16.5364L3.85869 16.4998L3.86022 16.4952L3.8755 16.46L3.87703 16.457L3.89231 16.4203L3.89384 16.4172L3.90912 16.3806L3.91065 16.376L3.92593 16.3393L3.92746 16.3347L3.94274 16.298L3.94427 16.2935L3.95955 16.2568L3.96108 16.2522L3.97636 16.2155L3.97789 16.2109L3.99317 16.1743L3.9947 16.1705L4.00998 16.1353L4.01151 16.1307L4.02679 16.0956L4.02832 16.091L4.0436 16.0543L4.04513 16.0513L4.06194 16.0146L4.06346 16.0115L4.08027 15.9764L4.0818 15.9733L4.09708 15.9382L4.09861 15.9336L4.11542 15.8984L4.11695 15.8954L4.13376 15.8602L4.13529 15.8572L4.1521 15.822L4.15362 15.819L4.17043 15.7838L4.17196 15.7792L4.18877 15.7441L4.1903 15.741L4.20711 15.7059L4.20864 15.7013L4.22545 15.6662L4.22697 15.6631L4.24378 15.628L4.24531 15.6249L4.26212 15.5898L4.26365 15.5867L4.28046 15.5516L4.28199 15.5485L4.30032 15.5149L4.30185 15.5118L4.32019 15.4767L4.32325 15.4721L4.34158 15.4369L4.34311 15.4339L4.36145 15.3987L4.36298 15.3942L4.38131 15.3605L4.38284 15.3575L4.40118 15.3239L4.40271 15.3208L4.42105 15.2872L4.42257 15.2826L4.44091 15.249L4.44397 15.2459L4.46231 15.2123L4.46383 15.2077L4.48217 15.1741L4.48523 15.1711L4.50357 15.1374L4.50509 15.1344L4.52343 15.1008L4.52649 15.0962L4.54635 15.0626L4.54788 15.0595L4.56622 15.0259L4.56775 15.0228L4.58761 14.9892L4.58914 14.9861L4.60901 14.9525L4.61053 14.9495L4.6304 14.9159L4.63346 14.9128L4.65332 14.8792L4.65485 14.8761L4.67472 14.8425L4.67777 14.8394L4.69764 14.8058L4.69917 14.8028L4.71903 14.7692L4.72209 14.7661L4.74195 14.7325L4.74348 14.7294L4.76488 14.6958L4.76793 14.6912L4.78933 14.6576L4.79085 14.6545L4.81072 14.6225L4.81378 14.6194L4.83517 14.5873L4.83823 14.5842L4.85809 14.5506L4.85962 14.5476L4.88101 14.5155L4.88254 14.5124L4.90394 14.4803L4.90699 14.4773L4.92839 14.4437L4.93144 14.4406L4.95284 14.4085L4.95436 14.4039L4.97576 14.3718L4.97729 14.3688L4.99868 14.3367L5.00021 14.3336L5.02313 14.3015L5.02619 14.2985L5.04758 14.2664L5.05064 14.2633L5.07356 14.2312L5.07509 14.2282L5.09801 14.1961L5.09954 14.193L5.12246 14.161L5.12399 14.1579L5.14691 14.1258L5.14997 14.1228L5.17289 14.0907L5.17442 14.0876L5.19734 14.0555L5.20039 14.0525L5.22332 14.0219L5.22484 14.0188L5.24777 13.9867L5.25082 13.9837L5.27374 13.9531L5.2768 13.9501L5.29972 13.9195L5.30278 13.9165L5.3257 13.8859L5.32876 13.8828L5.35168 13.8523L5.35321 13.8492L5.37613 13.8187L5.37919 13.8156L5.40364 13.785L5.40669 13.782L5.43114 13.7514L5.4342 13.7484L5.45865 13.7178L5.4617 13.7147L5.48615 13.6842L5.48921 13.6811L5.51366 13.6506L5.51672 13.646L5.54117 13.6154L5.5427 13.6124L5.56715 13.5818L5.5702 13.5787L5.59465 13.5482L5.59771 13.5451L5.62216 13.5161L5.62521 13.513L5.64966 13.4825L5.65272 13.4794L5.67717 13.4488L5.68023 13.4458L5.70621 13.4168L5.70926 13.4137L5.73371 13.3831L5.73677 13.3801L5.76122 13.351L5.76427 13.348L5.78872 13.3174L5.79178 13.3144L5.81776 13.2838L5.81929 13.2808L5.84527 13.2517L5.84832 13.2487L5.8743 13.2196L5.87736 13.2166L5.90333 13.1875L5.90639 13.1845L5.93237 13.1554L5.9339 13.1524L5.95988 13.1234L5.96293 13.1203L5.98891 13.0913L5.99197 13.0882L6.01794 13.0592L6.01947 13.0561L6.04545 13.0271L6.04851 13.024L6.07601 12.995L6.07754 12.9919L6.10505 12.9629L6.1081 12.9598L6.13714 12.9323L6.1402 12.9293L6.1677 12.9002L6.17076 12.8972L6.19826 12.8682L6.20132 12.8651L6.22883 12.8376L6.23188 12.8345L6.25939 12.807L6.26245 12.804L6.28995 12.7765L6.29301 12.7734L6.32204 12.7459L6.3251 12.7428L6.35261 12.7153L6.35566 12.7123L6.38317 12.6848L6.38622 12.6817L6.41373 12.6542L6.41679 12.6512L6.44429 12.6237L6.44735 12.6206L6.47486 12.5931L6.47791 12.59L6.50542 12.5625L6.50848 12.5595L6.53598 12.532L6.53904 12.5289L6.56807 12.5029L6.57113 12.4999L6.60016 12.4739L6.60322 12.4708L6.63225 12.4433L6.63531 12.4403L6.66435 12.4128L6.6674 12.4112L6.69644 12.3853L6.69949 12.3837L6.72853 12.3578L6.73158 12.3547L6.76062 12.3287L6.76367 12.3257L6.79271 12.2997L6.79576 12.2966L6.8248 12.2707L6.82786 12.2691L6.85842 12.2431L6.86147 12.2401L6.89204 12.2141L6.89509 12.2111L6.92566 12.1851L6.92871 12.182L6.95927 12.1576L6.96233 12.1545L6.99289 12.1301L6.99595 12.127L7.02498 12.1026L7.02804 12.0995L7.0586 12.0751L7.06166 12.072L7.09222 12.0475L7.09528 12.046L7.12584 12.0216L7.1289 12.0185L7.15946 11.9941L7.16252 11.991L7.19308 11.9666L7.19614 11.9635L7.22823 11.9391L7.23128 11.936L7.26184 11.9115L7.2649 11.9085L7.29699 11.884L7.30005 11.881L7.33214 11.8565L7.3352 11.8535L7.36576 11.829L7.36881 11.8275L7.4009 11.803L7.40396 11.8L7.43452 11.7755L7.43758 11.7725L7.46967 11.7496L7.47273 11.7465L7.50482 11.7221L7.50787 11.719L7.53997 11.6961L7.54302 11.6945L7.57511 11.6716L7.5797 11.6686L7.61179 11.6456L7.61484 11.6441L7.64693 11.6212L7.64999 11.6181L7.68208 11.5937L7.68514 11.5922L7.71876 11.5692L7.72181 11.5662L7.7539 11.5433L7.75849 11.5417L7.79058 11.5188L7.79363 11.5173L7.82573 11.4944L7.82878 11.4928L7.8624 11.4699L7.86546 11.4669L7.89755 11.4439L7.9006 11.4424L7.93422 11.421L7.93728 11.4195L7.96937 11.3966L7.97395 11.3935L8.00757 11.3721L8.01063 11.3691L8.04425 11.3461L8.04731 11.3431L8.08092 11.3217L8.08551 11.3202L8.11913 11.2988L8.12218 11.2957L8.1558 11.2743L8.15886 11.2728L8.19248 11.2514L8.19553 11.2499L8.22915 11.2285L8.23221 11.2269L8.26583 11.2055L8.27041 11.204L8.30403 11.1842H8.30556L23.6648 1.70973L23.6663 1.7082L23.6984 1.68834L23.7015 1.68681L23.7351 1.66541L23.7397 1.66236L23.7733 1.64249L23.7779 1.63944L23.8115 1.61957L23.8161 1.61651L23.8497 1.59665L23.8543 1.59512L23.8895 1.57526L23.8925 1.5722L23.9261 1.55233L23.9307 1.5508L23.9643 1.53094L23.9674 1.52941L24.0025 1.51107L24.0056 1.50802L24.0407 1.48968L24.0438 1.48662L24.0774 1.46829L24.082 1.46676L24.1171 1.44842L24.1202 1.44536L24.1538 1.42703L24.1584 1.42397L24.192 1.40563L24.1966 1.40258L24.2302 1.38424L24.2333 1.38118L24.2684 1.36284L24.2715 1.36132L24.3051 1.34298L24.3097 1.34145L24.3433 1.32311L24.3479 1.32159L24.383 1.30325L24.3876 1.30172L24.4228 1.28338L24.4258 1.28185L24.461 1.26504L24.4656 1.26352L24.5007 1.24671L24.5053 1.24518L24.5389 1.22837L24.5435 1.22684L24.5786 1.21003L24.5817 1.2085L24.6168 1.19169L24.6214 1.19017L24.6566 1.17336L24.6612 1.1703L24.6963 1.15349L24.7009 1.15196L24.736 1.13515L24.7406 1.13362L24.7758 1.11834L24.7804 1.11682L24.8155 1.10153L24.8186 1.09848L24.8537 1.0832L24.8568 1.08167L24.8919 1.06639L24.8965 1.06333L24.9316 1.04805L24.9362 1.04652L24.9714 1.03124L24.976 1.02971L25.0111 1.01443L25.0157 1.0129L25.0508 0.997621L25.0554 0.996093L25.0906 0.980811L25.0952 0.979283L25.1303 0.96553L25.1349 0.964002L25.17 0.948721L25.1746 0.947193L25.2113 0.931911L25.2159 0.930383L25.2526 0.915102L25.2571 0.912046L25.2923 0.898292L25.2953 0.896764L25.332 0.883011L25.3366 0.881483L25.3717 0.86773L25.3748 0.866202L25.4115 0.852448L25.4161 0.85092L25.4527 0.838695L25.4573 0.837167L25.494 0.823414L25.4986 0.821886L25.5353 0.808133L25.5398 0.806604L25.5765 0.794379L25.5811 0.792851L25.6178 0.780626L25.6224 0.779098L25.6575 0.766873L25.6621 0.765345L25.6988 0.75312L25.7034 0.751592L25.7385 0.739367L25.7431 0.737838L25.7798 0.725613L25.7828 0.724085L25.8195 0.71186L25.8241 0.710332L25.8607 0.698107L25.8653 0.696579L25.902 0.684354L25.9066 0.682826L25.9433 0.672129L25.9463 0.670601L25.983 0.659904L25.9876 0.658376L26.0243 0.647679H26.0288L26.0655 0.636982L26.0701 0.635454L26.1068 0.624757L26.1098 0.623228L26.1465 0.612532L26.1496 0.611003L26.1862 0.600306L26.1908 0.598778L26.2275 0.588081L26.2321 0.586553L26.2688 0.575856L26.2733 0.574328L26.31 0.565159L26.3146 0.563631L26.3513 0.554462L26.3543 0.552934L26.391 0.542237L26.3947 0.540709L26.4329 0.531541H26.4359L26.4726 0.520844H26.4772L26.5149 0.511675L26.5195 0.510147L26.5577 0.500978L26.5623 0.49945L26.599 0.490281H26.6036L26.6418 0.481112H26.6464L26.683 0.471943L26.6876 0.470415L26.7243 0.462775L26.7289 0.461246L26.7656 0.452078L26.7701 0.450549L26.8068 0.442909H26.8114L26.8481 0.435268L26.8527 0.43374L26.8893 0.426099H26.8924L26.9291 0.418459L26.9336 0.416931L26.9719 0.40929H26.9749L27.0131 0.401649L27.0162 0.400121L27.0544 0.39248L27.059 0.390952L27.0972 0.383312L27.1017 0.381784L27.1399 0.375671H27.1445L27.1812 0.369558L27.1858 0.36803L27.224 0.36039L27.2286 0.358862L27.2668 0.352749H27.2714L27.308 0.346636L27.3126 0.345108L27.3508 0.338996L27.3554 0.337468L27.3921 0.331355H27.3951L27.4318 0.325243H27.4364L27.4746 0.31913L27.4792 0.317602L27.5174 0.311489H27.522L27.5602 0.305377H27.5648L27.603 0.299264H27.6076L27.6458 0.29468H27.6503L27.687 0.290096H27.6916L27.7298 0.285511L27.7344 0.283983L27.7726 0.279399L27.7757 0.277871L27.8139 0.274814H27.8184L27.8551 0.27023H27.8597L27.8964 0.265645H27.901L27.9392 0.261061H27.9437L27.9819 0.256477H27.9865L28.0232 0.25342H28.0278L28.066 0.248836L28.0706 0.247308L28.1088 0.244252L28.1134 0.242723L28.1516 0.239667H28.1562L28.1937 0.236611H28.1983L28.2365 0.233555H28.2411L28.2793 0.232027L28.2839 0.230498L28.3221 0.227442L28.3252 0.225914L28.3634 0.224386H28.368L28.4062 0.22133H28.4092L28.4474 0.219801H28.452L28.4902 0.218273H28.4948L28.533 0.216745H28.5376L28.5758 0.215217L28.5804 0.213689L28.6186 0.212161H28.6232L28.6614 0.210633H28.6659L28.7041 0.209105H28.7087L28.7469 0.207576H28.7515L28.7897 0.206048H28.7928L28.831 0.20452H28.8784L28.9166 0.202992H29.0052L29.0133 0.189697ZM28.9781 4.31566H28.9531L28.928 4.31596H28.9031L28.8771 4.31657L28.8512 4.31718L28.8252 4.31795L28.7992 4.31948L28.7732 4.321L28.7472 4.32253L28.7228 4.32406L28.6968 4.32559L28.6724 4.32712L28.6479 4.32864L28.6235 4.33017L28.5975 4.3317L28.573 4.33323L28.5471 4.33629L28.5211 4.33934L28.4966 4.3424L28.4706 4.34545L28.4447 4.34851L28.4187 4.35157L28.3942 4.35462L28.3683 4.35768L28.3438 4.36073L28.3194 4.36379L28.2934 4.36685L28.2689 4.3699L28.2445 4.37296L28.22 4.37602L28.1956 4.37907L28.1696 4.38213L28.1452 4.38671L28.1207 4.38977L28.0947 4.39435L28.0703 4.39894L28.0458 4.40352L28.0214 4.40811L27.9969 4.41269L27.9725 4.41728L27.948 4.42186L27.9236 4.42492L27.8976 4.4295L27.8731 4.43409L27.8472 4.43867L27.8227 4.44325L27.7983 4.44784L27.7738 4.45242L27.7494 4.45854L27.7249 4.46465L27.7005 4.47076L27.676 4.47535L27.6516 4.47993L27.6271 4.48604L27.6027 4.49215L27.5782 4.49827L27.5538 4.50438L27.5293 4.51049L27.5049 4.5166L27.4804 4.52272L27.456 4.52883L27.4315 4.53494L27.4071 4.54105L27.3826 4.5487L27.3582 4.55481L27.3337 4.56245L27.3108 4.57009L27.2863 4.57773L27.2619 4.58537L27.2374 4.59301L27.213 4.60065L27.1885 4.60829L27.1656 4.61593L27.1412 4.62357L27.1167 4.63274L27.0923 4.64038L27.0678 4.64802L27.0434 4.65719L27.0189 4.66483L26.9945 4.67247L26.9715 4.68011L26.9471 4.68928L26.9226 4.69845L26.8982 4.70762L26.8753 4.71679L26.8508 4.72596L26.8279 4.73513L26.805 4.7443L26.7805 4.75499L26.7561 4.76416L26.7316 4.77333L26.7072 4.7825L26.6843 4.7932L26.6613 4.80237L26.6369 4.81306L26.614 4.82376L26.591 4.83446L26.5681 4.84515L26.5437 4.85585L26.5207 4.86655L26.4963 4.87724L26.4734 4.88794L26.4505 4.89864L26.4275 4.90933L26.4031 4.92003L26.3802 4.93073L26.3572 4.94143L26.3343 4.95365L26.3114 4.96588L26.2885 4.97657L26.2656 4.9888L26.2426 4.99949L26.2197 5.01172L26.1968 5.02394L26.1739 5.03617L26.1509 5.04839L26.128 5.06062L26.1051 5.07437L26.0837 5.0866L26.0608 5.09882L26.0394 5.11105L26.0165 5.1248L25.9935 5.13855L25.9706 5.15231L25.9492 5.16453L25.9263 5.17829L25.9049 5.19204L25.882 5.20579L25.8591 5.21955L25.8346 5.23483L10.4922 14.6909L10.4662 14.7077L10.4417 14.723L10.4188 14.7383L10.3959 14.7536L10.373 14.7688L10.35 14.7841L10.3271 14.7994L10.3042 14.8147L10.2813 14.83L10.2584 14.8453L10.2354 14.8605L10.2125 14.8758L10.1896 14.8926L10.1682 14.9079L10.1468 14.9232L10.1239 14.9385L10.1025 14.9538L10.0811 14.969L10.0597 14.9843L10.0383 14.9996L10.0169 15.0149L9.99552 15.0302L9.97413 15.047L9.95273 15.0622L9.93134 15.0791L9.90995 15.0959L9.88855 15.1127L9.86716 15.1295L9.84576 15.1463L9.82437 15.1631L9.8045 15.1799L9.78311 15.1967L9.76172 15.2135L9.74185 15.2303L9.72046 15.2472L9.69906 15.264L9.6792 15.2808L9.6578 15.2976L9.63794 15.3144L9.61807 15.3312L9.59821 15.3495L9.57834 15.3679L9.55848 15.3847L9.53861 15.4015L9.51874 15.4198L9.49888 15.4382L9.47901 15.4565L9.45915 15.4748L9.43928 15.4932L9.41942 15.5115L9.39955 15.5299L9.37968 15.5482L9.35982 15.5665L9.33995 15.5849L9.32009 15.6032L9.30175 15.6215L9.28188 15.6399L9.26355 15.6597L9.24368 15.6781L9.22534 15.698L9.20701 15.7163L9.18867 15.7362L9.17033 15.7545L9.15199 15.7744L9.13365 15.7942L9.11379 15.8141L9.09545 15.8324L9.07711 15.8523L9.05878 15.8722L9.04044 15.892L9.02363 15.9119L9.00529 15.9318L8.98695 15.9516L8.96862 15.9715L8.95028 15.9929L8.93194 16.0127L8.91513 16.0326L8.89832 16.0525L8.87998 16.0739L8.86317 16.0937L8.84484 16.1136L8.82803 16.135L8.81122 16.1549L8.79441 16.1763L8.7776 16.1977L8.76079 16.219L8.74398 16.2404L8.72717 16.2618L8.71036 16.2832L8.69508 16.3046L8.67827 16.326L8.66146 16.3474L8.64465 16.3688L8.62784 16.3902L8.61256 16.4116L8.59728 16.433L8.582 16.4544L8.56672 16.4773L8.55144 16.4987L8.53615 16.5201L8.52087 16.543L8.50559 16.5644L8.49031 16.5858L8.47503 16.6072L8.45975 16.6286L8.44599 16.6515L8.43071 16.6744L8.41543 16.6958L8.40015 16.7187L8.3864 16.7417L8.37264 16.7631L8.35889 16.786L8.34514 16.8089L8.33138 16.8318L8.31763 16.8547L8.30235 16.8777L8.28707 16.9006L8.27332 16.9235L8.25956 16.9464L8.24581 16.9694L8.23206 16.9923L8.2183 17.0152L8.20455 17.0381L8.1908 17.061L8.17704 17.084L8.16329 17.1069L8.14954 17.1298L8.13578 17.1543L8.12203 17.1772L8.10828 17.2001L8.09452 17.2246L8.0823 17.2475L8.07007 17.2719L8.05785 17.2964L8.04562 17.3208L8.0334 17.3438L8.02117 17.3667L8.00895 17.3911L7.99672 17.414L7.9845 17.4385L7.9738 17.4614L7.96158 17.4859L7.94935 17.5103L7.93713 17.5348L7.9249 17.5592L7.91268 17.5837L7.90198 17.6081L7.89128 17.6326L7.88059 17.657L7.86989 17.6815L7.85919 17.7059L7.8485 17.7304L7.8378 17.7548L7.8271 17.7793L7.8164 17.8037L7.80724 17.8282L7.79654 17.8526L7.78584 17.8786L7.77514 17.903L7.76445 17.9275L7.75375 17.9519L7.74458 17.9764L7.73388 18.0024L7.72319 18.0268L7.71402 18.0513L7.70485 18.0773L7.69568 18.1017L7.68651 18.1277L7.67734 18.1521L7.66818 18.1781L7.65901 18.2041L7.64984 18.2301L7.6422 18.256L7.63303 18.2805L7.62386 18.3065L7.61622 18.3325L7.60858 18.3569L7.60094 18.3829L7.59177 18.4089L7.58413 18.4333L7.57649 18.4578L7.56885 18.4837L7.55968 18.5097L7.55204 18.5357L7.5444 18.5601L7.53676 18.5861L7.52912 18.6121L7.52147 18.6381L7.51383 18.6641L7.50619 18.69L7.50008 18.716L7.49397 18.742L7.48633 18.768L7.48022 18.7939L7.47257 18.8199L7.46646 18.8459L7.46035 18.8719L7.45424 18.8994L7.44812 18.9254L7.44201 18.9513L7.4359 18.9773L7.42979 19.0033L7.42367 19.0293L7.41756 19.0553L7.41298 19.0812L7.40686 19.1072L7.40228 19.1332L7.3977 19.1607L7.39311 19.1882L7.38853 19.2157L7.38394 19.2432L7.37936 19.2692L7.37477 19.2952L7.37019 19.3227L7.3656 19.3502L7.36102 19.3762L7.35644 19.4021L7.35185 19.4281L7.34727 19.4556L7.34421 19.4831L7.34116 19.5106L7.3381 19.5366L7.33351 19.5641L7.32893 19.5901L7.32587 19.6176L7.32282 19.6451L7.31976 19.6726L7.3167 19.7001L7.31365 19.7276L7.31059 19.7551L7.30754 19.7811L7.30448 19.8086L7.30142 19.8361L7.2999 19.8636L7.29684 19.8911L7.29378 19.9187L7.29225 19.9462L7.29073 19.9737L7.2892 20.0012L7.28767 20.0287L7.28614 20.0562L7.28461 20.0837L7.28309 20.1112L7.28156 20.1387L7.28003 20.1662L7.2785 20.1937V20.2212L7.27697 20.2487L7.27544 20.2762V20.3037L7.27392 20.3312V39.708L7.27544 39.7355V39.818L7.27697 39.844L7.2785 39.8715L7.28003 39.899L7.28156 39.9265L7.28309 39.954L7.28461 39.9815L7.28614 40.009L7.28767 40.0365L7.2892 40.064L7.29225 40.0915L7.29378 40.119L7.29531 40.1465L7.29684 40.1741L7.2999 40.2L7.30295 40.2275L7.30601 40.2535L7.30754 40.281L7.31059 40.307L7.31365 40.333L7.3167 40.359L7.31976 40.3849L7.32282 40.4124L7.32587 40.4384L7.32893 40.4644L7.33199 40.4919L7.33504 40.5194L7.3381 40.5454L7.34116 40.5729L7.34574 40.5989L7.35032 40.6249L7.35491 40.6508L7.35949 40.6768L7.36408 40.7043L7.36866 40.7303L7.37325 40.7563L7.37783 40.7822L7.38241 40.8082L7.38853 40.8342L7.39311 40.8602L7.3977 40.8862L7.40228 40.9121L7.40839 40.9381L7.41451 40.9641L7.41909 40.9901L7.4252 41.0161L7.43131 41.042L7.43743 41.068L7.44354 41.094L7.44965 41.12L7.45576 41.1459L7.46188 41.1719L7.46799 41.1964L7.47563 41.2208L7.48174 41.2468L7.48786 41.2728L7.49397 41.2988L7.50161 41.3247L7.50772 41.3492L7.51383 41.3752L7.51995 41.3996L7.52759 41.4256L7.5337 41.45L7.54134 41.476L7.54898 41.502L7.55662 41.5264L7.56426 41.5524L7.5719 41.5784L7.57954 41.6029L7.58718 41.6288L7.59635 41.6533L7.60552 41.6777L7.61469 41.7022L7.62386 41.7266L7.6315 41.7511L7.64067 41.7771L7.64984 41.8015L7.65901 41.826L7.66818 41.8504L7.67734 41.8749L7.68651 41.8993L7.69568 41.9238L7.70485 41.9482L7.71402 41.9727L7.72319 41.9971L7.73388 42.0216L7.74458 42.046L7.75375 42.0705L7.76292 42.0949L7.77209 42.1194L7.78126 42.1438L7.79043 42.1683L7.80112 42.1927L7.81182 42.2172L7.82252 42.2416L7.83321 42.2661L7.84391 42.2905L7.85461 42.315L7.8653 42.3394L7.876 42.3639L7.8867 42.3883L7.8974 42.4128L7.90809 42.4372L7.91879 42.4601L7.93101 42.4846L7.94324 42.5075L7.95546 42.532L7.96769 42.5549L7.97991 42.5778L7.99214 42.6007L8.00436 42.6236L8.01659 42.6466L8.02881 42.6695L8.04257 42.6924L8.05479 42.7153L8.06702 42.7383L8.07924 42.7612L8.093 42.7841L8.10675 42.807L8.11897 42.8299L8.1312 42.8529L8.14342 42.8758L8.15718 42.8987L8.1694 42.9216L8.18316 42.943L8.19691 42.966L8.21066 42.9873L8.22442 43.0103L8.23817 43.0332L8.25192 43.0546L8.26568 43.076L8.27943 43.0974L8.29318 43.1188L8.30693 43.1417L8.32069 43.1646L8.33597 43.186L8.34972 43.2074L8.36348 43.2303L8.37723 43.2517L8.39098 43.2731L8.40626 43.2945L8.42154 43.3159L8.43683 43.3388L8.45211 43.3602L8.46739 43.3816L8.48267 43.403L8.49795 43.4244L8.51323 43.4458L8.52851 43.4672L8.5438 43.4886L8.5606 43.51L8.57741 43.5314L8.5927 43.5528L8.60798 43.5741L8.62326 43.5955L8.63854 43.6169L8.65535 43.6368L8.67216 43.6567L8.68897 43.6781L8.70578 43.6979L8.72259 43.7193L8.7394 43.7392L8.75621 43.7591L8.77302 43.7789L8.78982 43.7988L8.80663 43.8186L8.82344 43.8385L8.84025 43.8584L8.85706 43.8782L8.87387 43.8981L8.89068 43.918L8.90749 43.9378L8.92583 43.9577L8.94417 43.9776L8.96098 43.9974L8.97931 44.0158L8.99765 44.0356L9.01599 44.054L9.03433 44.0738L9.05114 44.0937L9.06947 44.1136L9.08781 44.1319L9.10615 44.1503L9.12449 44.1686L9.14282 44.1869L9.16116 44.2068L9.1795 44.2251L9.19784 44.2435L9.21617 44.2618L9.23451 44.2801L9.25285 44.2985L9.27271 44.3168L9.29105 44.3352L9.30939 44.3535L9.32926 44.3718L9.34759 44.3902L9.36593 44.4085L9.3858 44.4268L9.40566 44.4437L9.42553 44.4605L9.44539 44.4788L9.46526 44.4971L9.48513 44.5139L9.50499 44.5308L9.52486 44.5491L9.54472 44.5674L9.56459 44.5842L9.58598 44.6011L9.60738 44.6179L9.62877 44.6347L9.64864 44.6515L9.6685 44.6683L9.68989 44.6851L9.70976 44.7019L9.73115 44.7172L9.75102 44.734L9.77241 44.7508L9.79381 44.7676L9.8152 44.7844L9.83507 44.7997L9.85646 44.8165L9.87786 44.8318L9.89925 44.8486L9.92064 44.8654L9.94204 44.8807L9.96343 44.896L9.98635 44.9113L10.0077 44.9265L10.0291 44.9418L10.0505 44.9571L10.0719 44.9724L10.0933 44.9877L10.1147 45.0029L10.1376 45.0182L10.1606 45.032L10.1835 45.0473L10.2049 45.0625L10.2278 45.0778L10.2507 45.0931L10.2721 45.1069L10.295 45.1206L10.318 45.1344L10.3409 45.1481L10.3638 45.1619L10.3867 45.1756L10.4112 45.1894L10.4341 45.2031L10.457 45.2169L10.483 45.2322L26.4795 54.5843L26.4994 54.5966L26.5162 54.6057L26.5345 54.6149L26.5528 54.6241L26.5712 54.6332L26.588 54.6439L26.6063 54.6531L26.6247 54.6623L26.643 54.6714L26.6613 54.6821L26.6797 54.6913L26.698 54.7005L26.7163 54.7096L26.7347 54.7188L26.753 54.728L26.7714 54.7372L26.7897 54.7463L26.808 54.7555L26.8248 54.7647L26.8432 54.7738L26.8615 54.783L26.8799 54.7906L26.8982 54.7998L26.9165 54.8074L26.9349 54.8151L26.9532 54.8227L26.9715 54.8319L26.9899 54.8411L27.0082 54.8487L27.0266 54.8579L27.0449 54.8655L27.0632 54.8732L27.0816 54.8808L27.0999 54.8884L27.1182 54.8961L27.1366 54.9037L27.1549 54.9114L27.1733 54.919L27.1916 54.9266L27.2099 54.9328L27.2298 54.9404L27.2481 54.948L27.2665 54.9557L27.2848 54.9633L27.3032 54.971L27.3215 54.9771L27.3398 54.9847L27.3582 54.9908L27.3765 54.9969L27.3964 55.0031L27.4147 55.0092L27.4315 55.0153L27.4712 55.0275L27.5095 55.0397L27.5477 55.0504L27.5859 55.0611L27.6241 55.0718L27.6623 55.0825L27.7005 55.0932L27.7387 55.1039L27.7769 55.1146L27.8151 55.1238L27.8533 55.1329L27.8915 55.1421L27.9297 55.1497L27.9679 55.1589L28.0061 55.1666L28.0443 55.1742L28.0825 55.1818L28.1207 55.188L28.1589 55.1956L28.1971 55.2017L28.2353 55.2078L28.275 55.2139L28.3132 55.22L28.353 55.2246L28.3927 55.2292L28.4324 55.2338L28.4722 55.2369L28.5104 55.2399L28.5501 55.243L28.5883 55.246L28.628 55.2491L28.6678 55.2521L28.706 55.2552L28.7442 55.2567L28.7824 55.2582L28.8221 55.2598H29.0177L29.0574 55.2582H29.0972L29.1369 55.2567L29.1766 55.2552L29.2164 55.2521L29.2561 55.2491L29.2958 55.2476L29.3356 55.2445L29.3753 55.2414L29.415 55.2384L29.4532 55.2353L29.493 55.2307L29.5327 55.2262L29.5709 55.2216L29.6106 55.217L29.6488 55.2109L29.6886 55.2048L29.7268 55.1987L29.7665 55.1925L29.8047 55.1864L29.8429 55.1788L29.8811 55.1727L29.9208 55.165L29.959 55.1574L29.9972 55.1482L30.0355 55.1406L30.0737 55.1314L30.1119 55.1222L30.1501 55.1131L30.1883 55.1039L30.2265 55.0932L30.2647 55.0825L30.3029 55.0718L30.3411 55.0611L30.3808 55.0489L30.3991 55.0428L30.4175 55.0367L30.4358 55.0306L30.4557 55.0244L30.474 55.0183L30.4939 55.0122L30.5122 55.0061L30.5306 55L30.5504 54.9939L30.5688 54.9878L30.5871 54.9817L30.607 54.974L30.6253 54.9679L30.6452 54.9618L30.6635 54.9542L30.6819 54.948L30.7002 54.9419L30.7185 54.9358L30.7384 54.9282L30.7567 54.9221L30.7751 54.9144L30.7934 54.9068L30.8117 54.8991L30.8301 54.8915L30.8484 54.8839L30.8668 54.8762L30.8851 54.8686L30.9034 54.8609L30.9218 54.8533L30.9401 54.8457L30.9584 54.8365L30.9768 54.8273L30.9951 54.8197L31.0135 54.8105L31.0318 54.8013L31.0501 54.7937L31.0685 54.7845L31.0868 54.7754L31.1051 54.7662L31.122 54.757L31.1403 54.7479L31.1586 54.7387L31.177 54.7295L31.1953 54.7203L31.2136 54.7112L31.232 54.702L31.2503 54.6928L31.2687 54.6837L31.2855 54.6745L31.3038 54.6653L31.3221 54.6562L31.342 54.6455L49.0638 44.7691L49.0852 44.7584L49.105 44.7478L49.1234 44.7371L49.1417 44.7264L49.16 44.7157L49.1784 44.7034L49.1982 44.6927L49.2166 44.682L49.2349 44.6713L49.2532 44.6606L49.2716 44.6484L49.2899 44.6362L49.3083 44.6255L49.3266 44.6148L49.3449 44.6041L49.3633 44.5919L49.3816 44.5797L49.3999 44.569L49.4183 44.5567L49.4366 44.546L49.4534 44.5338L49.4702 44.5216L49.4871 44.5094L49.5039 44.4971L49.5207 44.4849L49.539 44.4727L49.5558 44.4605L49.5742 44.4482L49.591 44.436L49.6078 44.4238L49.6246 44.4116L49.6414 44.3993L49.6582 44.3871L49.6765 44.3749L49.6934 44.3611L49.7102 44.3489L49.727 44.3352L49.7438 44.3229L49.7606 44.3092L49.7774 44.2954L49.7942 44.2817L49.811 44.2694L49.8278 44.2572L49.8446 44.2435L49.8599 44.2297L49.8767 44.216L49.8935 44.2022L49.9088 44.19L49.9256 44.1762L49.9424 44.1609L49.9577 44.1472L49.9745 44.1334L49.9898 44.1197L50.0051 44.1059L50.0204 44.0907L50.0372 44.0769L50.0525 44.0616L50.0677 44.0479L50.083 44.0326L50.0983 44.0173L50.1136 44.0036L50.1289 43.9883L50.1441 43.9745L50.1594 43.9592L50.1747 43.944L50.19 43.9287L50.2053 43.9134L50.219 43.8981L50.2343 43.8828L50.2481 43.8675L50.2633 43.8523L50.2786 43.837L50.2939 43.8217L50.3077 43.8064L50.3214 43.7911L50.3352 43.7759L50.3489 43.7606L50.3642 43.7453L50.378 43.73L50.3917 43.7147L50.4055 43.6995L50.4192 43.6842L50.433 43.6689L50.4467 43.6536L50.4605 43.6383L50.4742 43.6215L50.488 43.6047L50.5017 43.5879L50.5155 43.5726L50.5292 43.5573L50.543 43.5421L50.5567 43.5252L50.5705 43.51L50.5843 43.4932L50.5965 43.4779L50.6087 43.4611L50.6209 43.4443L50.6332 43.429L50.6469 43.4122L50.6591 43.3954L50.6714 43.3785L50.6836 43.3617L50.6958 43.3449L50.708 43.3281L50.7203 43.3113L50.7325 43.2945L50.7447 43.2777L50.7569 43.2609L50.7692 43.2441L50.7814 43.2273L50.7936 43.2104L50.8043 43.1936L50.815 43.1753L50.8272 43.157L50.8395 43.1402L50.8501 43.1233L50.8608 43.1065L50.8731 43.0882L50.8853 43.0714L50.896 43.0546L50.9067 43.0362L50.9174 43.0179L50.9281 42.9996L50.9388 42.9812L50.9495 42.9644L50.9602 42.9461L50.9709 42.9277L50.9816 42.9109L50.9923 42.8926L51.003 42.8743L51.0137 42.8559L51.0228 42.8376L51.032 42.8192L51.0427 42.8009L51.0534 42.7826L51.0626 42.7642L51.0733 42.7459L51.084 42.7276L51.0931 42.7092L51.1023 42.6909L51.1115 42.671L51.1206 42.6527L51.1313 42.6343L51.142 42.616L51.1512 42.5977L51.1604 42.5793L51.1695 42.561L51.1787 42.5411L51.1879 42.5228L51.197 42.5045L51.2062 42.4846L51.2154 42.4663L51.2245 42.4479L51.2337 42.428L51.2429 42.4082L51.252 42.3883L51.2612 42.37L51.2689 42.3516L51.2765 42.3318L51.2841 42.3119L51.2918 42.292L51.2994 42.2737L51.3071 42.2538L51.3147 42.234L51.3223 42.2141L51.33 42.1958L51.3376 42.1759L51.3453 42.156L51.3529 42.1362L51.3605 42.1163L51.3682 42.0964L51.3743 42.0766L51.3804 42.0567L51.3865 42.0368L51.3926 42.017L51.4003 41.9971L51.4079 41.9772L51.4156 41.9574L51.4232 41.9375L51.4293 41.9177L51.437 41.8978L51.4431 41.8779L51.4492 41.8581L51.4568 41.8382L51.4629 41.8183L51.469 41.7985L51.4752 41.7786L51.4813 41.7587L51.4858 41.7389L51.492 41.719L51.4981 41.6991L51.5042 41.6793L51.5103 41.6594L51.5149 41.6395L51.5195 41.6181L51.5256 41.5983L51.5302 41.5784L51.5347 41.557L51.5409 41.5371L51.5454 41.5173L51.55 41.4974L51.5546 41.4776L51.5592 41.4562L51.5638 41.4363L51.5684 41.4164L51.5714 41.395L51.576 41.3736L51.5806 41.3538L51.5836 41.3324L51.5882 41.3125L51.5928 41.2911L51.5974 41.2697L51.602 41.2499L51.6066 41.2285L51.6096 41.2071L51.6142 41.1857L51.6173 41.1658L51.6219 41.1459L51.6249 41.1245L51.628 41.1032L51.631 41.0818L51.6341 41.0604L51.6371 41.039L51.6402 41.0176L51.6432 40.9962L51.6448 40.9748L51.6478 40.9549L51.6494 40.9335L51.6524 40.9121L51.6555 40.8923L51.6585 40.8709L51.6601 40.8495L51.6616 40.8281L51.6631 40.8067L51.6646 40.7853L51.6677 40.7639L51.6692 40.7425L51.6708 40.7211L51.6723 40.6997L51.6738 40.6783L51.6753 40.6569L51.6769 40.6355L51.6784 40.6142L51.6799 40.5928L51.6814 40.5714L51.683 40.55L51.6845 40.5286V40.4858L51.686 40.4644V19.3103L51.6845 19.2915L51.683 19.2716V19.2518L51.6814 19.2319V19.212L51.6799 19.1922V19.1723L51.6784 19.1524L51.6769 19.1341L51.6753 19.1142L51.6738 19.0944L51.6723 19.0745L51.6708 19.0562L51.6692 19.0363L51.6677 19.018L51.6662 18.9981L51.6631 18.9782L51.6616 18.9599L51.6601 18.9416L51.657 18.9232L51.6555 18.9049L51.6524 18.885L51.6509 18.8667L51.6478 18.8483L51.6448 18.8285L51.6432 18.8086L51.6417 18.7903L51.6387 18.7735L51.6325 18.7333L51.628 18.6943L51.6219 18.6546L51.6157 18.6164L51.6081 18.5782L51.6005 18.54L51.5943 18.5018L51.5867 18.4636L51.5775 18.4254L51.5684 18.3872L51.5592 18.349L51.55 18.3108L51.5409 18.2725L51.5317 18.2343L51.5225 18.1961L51.5118 18.1579L51.5011 18.1197L51.4904 18.0815L51.4782 18.0433L51.4675 18.0067L51.4553 17.97L51.4431 17.9333L51.4308 17.8966L51.4186 17.86L51.4049 17.8233L51.3911 17.7866L51.3774 17.7515L51.3636 17.7148L51.3498 17.6781L51.3361 17.6414L51.3208 17.6063L51.3071 17.5696L51.2918 17.5345L51.2765 17.4993L51.2612 17.4642L51.2444 17.429L51.2291 17.3939L51.2123 17.3587L51.1955 17.3236L51.1787 17.29L51.1604 17.2548L51.1435 17.2197L51.1252 17.1845L51.1069 17.1509L51.0885 17.1173L51.0702 17.0837L51.0519 17.05L51.0335 17.0164L51.0137 16.9828L50.9938 16.9492L50.9739 16.9156L50.9525 16.8819L50.9327 16.8499L50.9128 16.8178L50.8914 16.7857L50.87 16.7536L50.8486 16.7215L50.8272 16.6894L50.8058 16.6573L50.7844 16.6252L50.7615 16.5947L50.7386 16.5641L50.7157 16.5335L50.6927 16.503L50.6698 16.4724L50.6454 16.4418L50.6209 16.4113L50.5965 16.3807L50.572 16.3502L50.5476 16.3211L50.5216 16.2921L50.4971 16.2631L50.4712 16.234L50.4452 16.205L50.4192 16.176L50.3932 16.1469L50.3673 16.1179L50.3397 16.0904L50.3122 16.0629L50.2847 16.0354L50.2572 16.0079L50.2297 15.9804L50.2007 15.9528L50.1717 15.9253L50.1426 15.8994L50.1136 15.8734L50.0846 15.8474L50.0555 15.8214L50.0265 15.7954L49.9959 15.7695L49.9654 15.745L49.9348 15.7206L49.9058 15.6961L49.8737 15.6701L49.8599 15.6594L49.8446 15.6472L49.8294 15.635L49.8141 15.6228L49.7988 15.6105L49.7835 15.5998L49.7682 15.5876L49.7529 15.5754L49.7361 15.5632L49.7193 15.5509L49.704 15.5387L49.6888 15.5265L49.6735 15.5143L49.6582 15.5036L49.6429 15.4913L49.6261 15.4791L49.6108 15.4684L49.5956 15.4577L49.5787 15.4455L49.5619 15.4348L49.5451 15.4241L49.5298 15.4134L49.513 15.4027L49.4962 15.392L49.4794 15.3813L49.4626 15.3706L49.4458 15.3599L49.429 15.3492L49.4122 15.3385L49.3954 15.3278L49.3786 15.3171L49.3617 15.308L49.3449 15.2988L49.3251 15.2881L32.0329 5.14299L32.0084 5.12801L31.9863 5.11579L31.9633 5.10203L31.9404 5.08828L31.918 5.0756L31.895 5.06337L31.8729 5.05115L31.85 5.03892L31.827 5.0267L31.8041 5.01447L31.7817 5.00225L31.7587 4.99002L31.7358 4.9778L31.7129 4.96557L31.69 4.95334L31.667 4.94112L31.6441 4.92889L31.6207 4.9182L31.5978 4.90597L31.5749 4.89528L31.552 4.88458L31.5291 4.87235L31.5054 4.86166L31.4824 4.85096L31.4595 4.84026L31.4357 4.82957L31.4128 4.81887L31.3898 4.8097L31.3662 4.799L31.3429 4.78831L31.32 4.77761L31.2963 4.76844L31.2734 4.75927L31.2489 4.7501L31.2254 4.73941L31.2013 4.73024L31.1768 4.71954L31.1524 4.71037L31.1287 4.7012L31.105 4.69203L31.081 4.68287L31.0566 4.6737L31.0321 4.66453L31.0092 4.65536L30.9863 4.64772L30.9633 4.64008L30.9389 4.63091L30.9144 4.62327L30.8915 4.61563L30.8671 4.60799L30.8426 4.60035L30.8197 4.59271L30.7952 4.58506L30.7708 4.57742L30.7463 4.56978L30.7234 4.56214L30.699 4.5545L30.6745 4.54686L30.6501 4.53922L30.6256 4.53311L30.6012 4.52547L30.5767 4.51936L30.5523 4.51171L30.5278 4.5056L30.5034 4.49949L30.4789 4.49338L30.4545 4.48574L30.43 4.47962L30.4056 4.47351L30.3811 4.46893L30.3567 4.46281L30.3322 4.4567L30.3078 4.45059L30.2833 4.446L30.2589 4.43989L30.2344 4.43531L30.21 4.43072L30.1855 4.42461L30.1611 4.42003L30.1366 4.41544L30.1122 4.41086L30.0877 4.40627L30.0633 4.40169L30.0388 4.3971L30.0128 4.39252L29.9884 4.38946L29.9639 4.38641L29.9395 4.38335L29.915 4.3803L29.8906 4.37571L29.8661 4.37113L29.8417 4.36807L29.8157 4.36349L29.7913 4.36043L29.7668 4.35584L29.7424 4.35279L29.7179 4.34973L29.6935 4.34668L29.669 4.34362L29.6446 4.34056L29.6186 4.33751L29.5941 4.33598L29.5697 4.33292L29.5452 4.32987L29.5208 4.32834L29.4963 4.32681L29.4719 4.32528L29.4474 4.32375L29.423 4.32223L29.397 4.3207L29.371 4.31917L29.3466 4.31764L29.3221 4.31611H29.2977L29.2732 4.31459L29.2488 4.31306H29.2228L29.1983 4.31153L29.1739 4.31L29.151 4.30847L29.1265 4.30694H29.0761L29.0516 4.30542H29.0027L28.9781 4.31566Z" fill="#C9177E"/>
<path fill-rule="evenodd" clip-rule="evenodd" d="M19.4136 42.3073V17.0757H24.6925V26.2663H33.4491V17.0757H38.7434V42.3073H33.4491V31.2749H24.6925V42.3073H19.4136Z" fill="white"/>
</svg>
