<svg width="60" height="60" viewBox="0 0 60 60" fill="none" xmlns="http://www.w3.org/2000/svg">
<g clip-path="url(#clip0_496_7747)">
<path d="M9.22011 19.3643C7.15878 19.3643 5.51855 21.0045 5.51855 23.0658V38.4842C5.51855 40.5456 7.15878 42.1858 9.22011 42.1858C11.2814 42.1858 12.9217 40.5456 12.9217 38.4842V23.0658C12.9217 21.0045 11.2814 19.3643 9.22011 19.3643ZM52.3917 19.3643C50.3303 19.3643 48.6901 21.0045 48.6901 23.0658V38.4842C48.6901 40.5456 50.3303 42.1858 52.3917 42.1858C54.453 42.1858 56.0932 40.5456 56.0932 38.4842V23.0658C56.0932 21.0045 54.453 19.3643 52.3917 19.3643Z" fill="#A4C639"/>
<path d="M24.6386 36.9595C22.5772 36.9595 20.937 38.5997 20.937 40.661V56.0794C20.937 58.1408 22.5772 59.781 24.6386 59.781C26.6999 59.781 28.3401 58.1408 28.3401 56.0794V40.661C28.3401 38.5997 26.6999 36.9595 24.6386 36.9595ZM36.9733 36.9595C34.912 36.9595 33.2717 38.5997 33.2717 40.661V56.0794C33.2717 58.1408 34.912 59.781 36.9733 59.781C39.0346 59.781 40.6748 58.1408 40.6748 56.0794V40.661C40.6748 38.5997 39.0346 36.9595 36.9733 36.9595Z" fill="#A4C639"/>
<path d="M20.5569 -0.0617419C20.4694 -0.060847 20.3879 -0.0382716 20.3075 0.0062796C20.0435 0.15259 19.9567 0.455899 20.1034 0.720517L22.7109 5.43107C17.6942 8.04143 14.3056 13.0022 14.2988 18.6954H47.3124C47.3056 13.0022 43.917 8.04143 38.9003 5.43107L41.5078 0.720517C41.6545 0.455899 41.5677 0.15259 41.3037 0.0062796C41.2233 -0.0382716 41.1418 -0.0609079 41.0543 -0.0617419C40.867 -0.0635495 40.6894 0.0300452 40.5895 0.210348L37.948 4.97192C35.7871 4.01342 33.3633 3.47543 30.8056 3.47543C28.2479 3.47543 25.8241 4.01342 23.6632 4.97192L21.0217 0.210348C20.9218 0.0300452 20.7442 -0.0635387 20.5569 -0.0617419ZM14.2988 19.9992V43.9261C14.2988 46.1369 16.0787 47.9167 18.2895 47.9167H43.3217C45.5325 47.9167 47.3124 46.1369 47.3124 43.9261V19.9992H14.2988Z" fill="#A4C639"/>
<path d="M23.187 9.89795C22.4334 9.89795 21.8096 10.5218 21.8096 11.2754C21.8096 12.029 22.4334 12.6529 23.187 12.6529C23.9407 12.6529 24.5645 12.029 24.5645 11.2754C24.5645 10.5218 23.9407 9.89795 23.187 9.89795ZM38.424 9.89795C37.6704 9.89795 37.0466 10.5218 37.0466 11.2754C37.0466 12.029 37.6704 12.6529 38.424 12.6529C39.1777 12.6529 39.8015 12.029 39.8015 11.2754C39.8015 10.5218 39.1777 9.89795 38.424 9.89795Z" fill="white"/>
</g>
<defs>
<clipPath id="clip0_496_7747">
<rect width="60" height="60" fill="white"/>
</clipPath>
</defs>
</svg>
