<svg width="60" height="60" viewBox="0 0 60 60" fill="none" xmlns="http://www.w3.org/2000/svg">
<path fill-rule="evenodd" clip-rule="evenodd" d="M25.2179 14.7303C27.13 12.738 29.792 11.5024 32.7362 11.5024C36.6498 11.5024 40.0644 13.6847 41.8827 16.9244C43.4629 16.2184 45.2119 15.8257 47.0522 15.8257C54.111 15.8257 59.8337 21.5982 59.8337 28.7186C59.8337 35.8399 54.111 41.6125 47.0522 41.6125C46.1908 41.6125 45.3488 41.5263 44.5346 41.3616C42.9333 44.2179 39.8819 46.1477 36.3796 46.1477C34.9134 46.1477 33.5267 45.8091 32.2919 45.2069C30.6687 49.0251 26.8868 51.7024 22.479 51.7024C17.8889 51.7024 13.9769 48.798 12.4753 44.7247C11.819 44.864 11.1392 44.9367 10.4416 44.9367C4.97644 44.9367 0.545898 40.4605 0.545898 34.938C0.545898 31.2371 2.53652 28.0058 5.49415 26.277C4.88523 24.8759 4.54656 23.3295 4.54656 21.7038C4.54656 15.3527 9.70258 10.2043 16.0621 10.2043C19.7959 10.2043 23.1141 11.9795 25.2179 14.7303Z" fill="#00A1E0"/>
<path fill-rule="evenodd" clip-rule="evenodd" d="M9.13303 31.7242C9.09587 31.8213 9.14654 31.8416 9.15836 31.8585C9.26985 31.9396 9.38302 31.9978 9.49703 32.0629C10.1017 32.3838 10.6727 32.4775 11.2698 32.4775C12.4859 32.4775 13.2409 31.8306 13.2409 30.7893V30.769C13.2409 29.8062 12.3888 29.4566 11.589 29.204L11.4851 29.1703C10.8821 28.9743 10.3619 28.8054 10.3619 28.4085V28.3874C10.3619 28.0478 10.6659 27.7979 11.1372 27.7979C11.6608 27.7979 12.2824 27.9718 12.6827 28.1931C12.6827 28.1931 12.8001 28.2691 12.8432 28.1551C12.8668 28.0943 13.0695 27.5487 13.0906 27.4896C13.1134 27.4254 13.0729 27.3781 13.0315 27.3528C12.5746 27.0749 11.9429 26.8849 11.2892 26.8849L11.1676 26.8857C10.0544 26.8857 9.27745 27.558 9.27745 28.5216V28.5419C9.27745 29.5579 10.1347 29.8873 10.9378 30.117L11.0671 30.1567C11.6523 30.3366 12.1565 30.4911 12.1565 30.9033V30.9236C12.1565 31.3002 11.8289 31.5806 11.3002 31.5806C11.0949 31.5806 10.4404 31.5764 9.73351 31.1296C9.64821 31.0798 9.59838 31.0435 9.5325 31.0038C9.49788 30.9818 9.41089 30.9438 9.37288 31.0587L9.13303 31.7242Z" fill="white"/>
<path fill-rule="evenodd" clip-rule="evenodd" d="M26.9372 31.7242C26.9001 31.8213 26.9507 31.8416 26.9626 31.8585C27.074 31.9396 27.1872 31.9978 27.3012 32.0629C27.9059 32.3838 28.4769 32.4775 29.074 32.4775C30.2901 32.4775 31.0451 31.8306 31.0451 30.7893V30.769C31.0451 29.8062 30.193 29.4566 29.3932 29.204L29.2893 29.1703C28.6863 28.9743 28.1661 28.8054 28.1661 28.4085V28.3874C28.1661 28.0478 28.4701 27.7979 28.9414 27.7979C29.465 27.7979 30.0866 27.9718 30.4869 28.1931C30.4869 28.1931 30.6043 28.2691 30.6474 28.1551C30.671 28.0943 30.8737 27.5487 30.8948 27.4896C30.9176 27.4254 30.8771 27.3781 30.8357 27.3528C30.3788 27.0749 29.7471 26.8849 29.0934 26.8849L28.9718 26.8857C27.8586 26.8857 27.0816 27.558 27.0816 28.5216V28.5419C27.0816 29.5579 27.9389 29.8873 28.742 30.117L28.8713 30.1567C29.4565 30.3366 29.9616 30.4911 29.9616 30.9033V30.9236C29.9616 31.3002 29.633 31.5806 29.1044 31.5806C28.8991 31.5806 28.2446 31.5764 27.5377 31.1296C27.4524 31.0798 27.4017 31.0452 27.3375 31.0038C27.3156 30.9894 27.2126 30.9497 27.1771 31.0587L26.9372 31.7242Z" fill="white"/>
<path d="M39.0916 29.6845C39.0916 30.2731 38.9818 30.7368 38.7656 31.0645C38.5519 31.3888 38.2285 31.5467 37.7775 31.5467C37.3256 31.5467 37.0039 31.3896 36.7936 31.0645C36.5807 30.7376 36.4726 30.2731 36.4726 29.6845C36.4726 29.0967 36.5807 28.6339 36.7936 28.3095C37.0039 27.9886 37.3256 27.8324 37.7775 27.8324C38.2285 27.8324 38.5519 27.9886 38.7664 28.3095C38.9818 28.6339 39.0916 29.0967 39.0916 29.6845ZM40.1068 28.5933C40.0071 28.2563 39.8517 27.9591 39.6448 27.7116C39.4379 27.4633 39.1761 27.264 38.8653 27.1187C38.5553 26.9743 38.1888 26.9008 37.7775 26.9008C37.3653 26.9008 36.9988 26.9743 36.6888 27.1187C36.378 27.264 36.1162 27.4633 35.9085 27.7116C35.7024 27.9599 35.547 28.2572 35.4465 28.5933C35.3477 28.9286 35.2979 29.2951 35.2979 29.6845C35.2979 30.0738 35.3477 30.4412 35.4465 30.7757C35.547 31.1118 35.7015 31.4091 35.9093 31.6574C36.1162 31.9057 36.3789 32.1041 36.6888 32.2452C36.9996 32.3862 37.3653 32.458 37.7775 32.458C38.1888 32.458 38.5545 32.3862 38.8653 32.2452C39.1752 32.1041 39.4379 31.9057 39.6448 31.6574C39.8517 31.4099 40.0071 31.1126 40.1068 30.7757C40.2064 30.4404 40.2562 30.073 40.2562 29.6845C40.2562 29.296 40.2064 28.9286 40.1068 28.5933Z" fill="white"/>
<path fill-rule="evenodd" clip-rule="evenodd" d="M48.4431 31.3895C48.4094 31.2907 48.3139 31.3278 48.3139 31.3278C48.1661 31.3844 48.009 31.4368 47.8418 31.463C47.6721 31.4892 47.4854 31.5027 47.2853 31.5027C46.7937 31.5027 46.4035 31.3566 46.124 31.0677C45.8436 30.7789 45.6865 30.3118 45.6882 29.6801C45.6899 29.105 45.8284 28.6726 46.0775 28.3432C46.325 28.0155 46.7017 27.8474 47.2042 27.8474C47.6231 27.8474 47.9423 27.8956 48.2768 28.0011C48.2768 28.0011 48.357 28.0358 48.395 27.931C48.4837 27.6844 48.5496 27.5079 48.6441 27.2368C48.6712 27.16 48.6053 27.127 48.5816 27.1177C48.4499 27.0662 48.1391 26.9826 47.9043 26.9471C47.6847 26.9133 47.428 26.8956 47.1425 26.8956C46.716 26.8956 46.336 26.9682 46.0108 27.1135C45.6865 27.2579 45.4112 27.4572 45.1933 27.7055C44.9754 27.9538 44.8099 28.2511 44.6992 28.5873C44.5894 28.9225 44.5337 29.2908 44.5337 29.6801C44.5337 30.5221 44.7609 31.2028 45.2093 31.7011C45.6586 32.2011 46.3334 32.4553 47.2135 32.4553C47.7337 32.4553 48.2675 32.3498 48.6509 32.1986C48.6509 32.1986 48.7244 32.1631 48.6923 32.0778L48.4431 31.3895Z" fill="white"/>
<path fill-rule="evenodd" clip-rule="evenodd" d="M50.219 29.1207C50.2672 28.7938 50.3575 28.5219 50.4969 28.3099C50.7072 27.9881 51.0281 27.8116 51.4791 27.8116C51.9301 27.8116 52.2282 27.989 52.4419 28.3099C52.5838 28.5219 52.6454 28.8057 52.6699 29.1207H50.219ZM53.6369 28.402C53.5508 28.0768 53.3371 27.7483 53.1969 27.598C52.9757 27.3598 52.7594 27.1934 52.5449 27.1005C52.2645 26.9806 51.9284 26.9012 51.5602 26.9012C51.1311 26.9012 50.7418 26.973 50.4259 27.1216C50.1092 27.2703 49.8432 27.473 49.6346 27.7255C49.426 27.9772 49.2689 28.277 49.1692 28.6173C49.0687 28.956 49.0181 29.3251 49.0181 29.7144C49.0181 30.1105 49.0704 30.4796 49.1743 30.8115C49.279 31.1459 49.4463 31.4407 49.6726 31.6848C49.8981 31.9305 50.1886 32.1231 50.5366 32.2574C50.882 32.3908 51.3017 32.4601 51.784 32.4592C52.7763 32.4558 53.2991 32.2346 53.5145 32.1155C53.5525 32.0944 53.5888 32.0572 53.5432 31.9508L53.3185 31.3216C53.2848 31.2279 53.1893 31.2625 53.1893 31.2625C52.9436 31.3537 52.5939 31.5175 51.7789 31.5159C51.246 31.515 50.8508 31.3579 50.6033 31.1122C50.3491 30.8605 50.2249 30.4906 50.203 29.9686L53.6395 29.972C53.6395 29.972 53.7298 29.9703 53.7391 29.8825C53.7425 29.8453 53.8574 29.1764 53.6369 28.402Z" fill="white"/>
<path fill-rule="evenodd" clip-rule="evenodd" d="M22.6975 29.1207C22.7465 28.7938 22.836 28.5219 22.9754 28.3099C23.1857 27.9881 23.5066 27.8116 23.9576 27.8116C24.4086 27.8116 24.7067 27.989 24.9213 28.3099C25.0623 28.5219 25.124 28.8057 25.1484 29.1207H22.6975ZM26.1146 28.402C26.0285 28.0768 25.8156 27.7483 25.6754 27.598C25.4542 27.3598 25.238 27.1934 25.0234 27.1005C24.7431 26.9806 24.4069 26.9012 24.0387 26.9012C23.6105 26.9012 23.2203 26.973 22.9045 27.1216C22.5877 27.2703 22.3217 27.473 22.1131 27.7255C21.9045 27.9772 21.7474 28.277 21.6478 28.6173C21.5481 28.956 21.4966 29.3251 21.4966 29.7144C21.4966 30.1105 21.5489 30.4796 21.6528 30.8115C21.7575 31.1459 21.9248 31.4407 22.1511 31.6848C22.3766 31.9305 22.6671 32.1231 23.0151 32.2574C23.3605 32.3908 23.7803 32.4601 24.2625 32.4592C25.2549 32.4558 25.7776 32.2346 25.993 32.1155C26.031 32.0944 26.0673 32.0572 26.0217 31.9508L25.7979 31.3216C25.7633 31.2279 25.6678 31.2625 25.6678 31.2625C25.4221 31.3537 25.0733 31.5175 24.2566 31.5159C23.7245 31.515 23.3293 31.3579 23.0818 31.1122C22.8276 30.8605 22.7035 30.4906 22.6815 29.9686L26.118 29.972C26.118 29.972 26.2084 29.9703 26.2176 29.8825C26.221 29.8453 26.3359 29.1764 26.1146 28.402Z" fill="white"/>
<path d="M15.2696 31.3707C15.1353 31.2634 15.1167 31.2364 15.0711 31.1672C15.0036 31.0616 14.9689 30.9113 14.9689 30.7204C14.9689 30.418 15.0686 30.201 15.2755 30.0549C15.273 30.0557 15.5711 29.7973 16.2721 29.8066C16.7645 29.8133 17.2045 29.886 17.2045 29.886V31.4484H17.2053C17.2053 31.4484 16.7687 31.5422 16.2772 31.5717C15.5779 31.6139 15.2671 31.3699 15.2696 31.3707ZM16.6369 28.9561C16.4976 28.946 16.3169 28.9401 16.1007 28.9401C15.8059 28.9401 15.5213 28.9772 15.2544 29.049C14.9858 29.1208 14.7443 29.2331 14.5365 29.3818C14.3279 29.5313 14.1599 29.7221 14.0382 29.9485C13.9166 30.1748 13.855 30.4417 13.855 30.7407C13.855 31.0447 13.9073 31.3091 14.0121 31.5253C14.1168 31.7423 14.268 31.923 14.4605 32.0624C14.6514 32.2018 14.887 32.3039 15.1607 32.3656C15.4301 32.4272 15.7358 32.4585 16.0703 32.4585C16.4224 32.4585 16.7738 32.4298 17.1141 32.3715C17.4511 32.3141 17.8649 32.2305 17.9798 32.2043C18.0938 32.1773 18.2205 32.1426 18.2205 32.1426C18.3058 32.1215 18.299 32.0303 18.299 32.0303L18.2973 28.8877C18.2973 28.1986 18.1132 27.6876 17.7509 27.3709C17.3903 27.055 16.8591 26.8954 16.1724 26.8954C15.9149 26.8954 15.5002 26.9309 15.2519 26.9807C15.2519 26.9807 14.5011 27.126 14.192 27.3675C14.192 27.3675 14.1244 27.4097 14.1616 27.5043L14.4048 28.158C14.4352 28.2425 14.5171 28.2138 14.5171 28.2138C14.5171 28.2138 14.5433 28.2036 14.5737 28.1859C15.235 27.8261 16.0711 27.8371 16.0711 27.8371C16.4427 27.8371 16.7282 27.9114 16.9207 28.0592C17.1082 28.2028 17.2036 28.4198 17.2036 28.8776V29.0228C16.9081 28.9806 16.6369 28.9561 16.6369 28.9561Z" fill="white"/>
<path fill-rule="evenodd" clip-rule="evenodd" d="M44.3541 27.1854C44.3803 27.1077 44.3254 27.0705 44.3026 27.062C44.2444 27.0392 43.9521 26.9776 43.7266 26.9632C43.2951 26.9371 43.0552 27.0097 42.8407 27.106C42.6279 27.2022 42.3914 27.3576 42.2597 27.5342V27.1161C42.2597 27.0578 42.2183 27.0114 42.1608 27.0114H41.28C41.2225 27.0114 41.1812 27.0578 41.1812 27.1161V32.2417C41.1812 32.2991 41.2284 32.3464 41.2859 32.3464H42.1887C42.2461 32.3464 42.2926 32.2991 42.2926 32.2417V29.681C42.2926 29.3373 42.3306 28.9944 42.4066 28.779C42.4809 28.5662 42.5823 28.3956 42.7073 28.2731C42.8331 28.1515 42.9758 28.0662 43.1321 28.0181C43.2917 27.9691 43.4682 27.9531 43.5932 27.9531C43.7731 27.9531 43.9707 27.9995 43.9707 27.9995C44.0366 28.0071 44.0738 27.9666 44.0957 27.9066C44.1548 27.7495 44.3221 27.2791 44.3541 27.1854Z" fill="white"/>
<path fill-rule="evenodd" clip-rule="evenodd" d="M35.8795 24.81C35.7697 24.7762 35.6701 24.7534 35.54 24.7289C35.4083 24.7053 35.2512 24.6935 35.073 24.6935C34.4514 24.6935 33.9615 24.8691 33.6178 25.2154C33.2758 25.56 33.0435 26.0845 32.927 26.7745L32.8847 27.0067H32.1044C32.1044 27.0067 32.0098 27.0033 31.9895 27.1064L31.862 27.8217C31.8527 27.8893 31.8822 27.9324 31.9735 27.9324H32.7327L31.9625 32.2328C31.9025 32.5791 31.8333 32.8637 31.7564 33.0799C31.6812 33.2927 31.6078 33.4524 31.5165 33.5689C31.4287 33.6804 31.3459 33.7632 31.2024 33.8113C31.0841 33.851 30.9473 33.8696 30.7978 33.8696C30.7151 33.8696 30.6044 33.8561 30.5225 33.8392C30.4414 33.8231 30.3984 33.8054 30.3367 33.7792C30.3367 33.7792 30.248 33.7454 30.2126 33.8341C30.1847 33.9076 29.982 34.4641 29.9575 34.5326C29.9338 34.601 29.9676 34.6542 30.0107 34.6702C30.1121 34.7057 30.1872 34.7293 30.3249 34.7623C30.5157 34.807 30.6771 34.8096 30.8282 34.8096C31.1441 34.8096 31.4329 34.7648 31.6719 34.6787C31.9118 34.5917 32.1212 34.4405 32.3071 34.2361C32.5072 34.0148 32.633 33.7834 32.753 33.4667C32.8721 33.1542 32.9743 32.7657 33.0553 32.3131L33.8298 27.9324H34.9615C34.9615 27.9324 35.0569 27.9357 35.0764 27.8318L35.2047 27.1174C35.2132 27.0489 35.1845 27.0067 35.0924 27.0067H33.9936C33.9995 26.9822 34.0494 26.5954 34.1752 26.2314C34.2293 26.0769 34.3306 25.951 34.4159 25.8649C34.5004 25.7804 34.5975 25.7205 34.7039 25.6858C34.8128 25.6504 34.937 25.6335 35.073 25.6335C35.176 25.6335 35.2782 25.6453 35.3551 25.6613C35.4615 25.6841 35.5029 25.696 35.5307 25.7044C35.643 25.7382 35.6582 25.7053 35.6802 25.6512L35.9429 24.93C35.9699 24.8523 35.9032 24.8193 35.8795 24.81Z" fill="white"/>
<path fill-rule="evenodd" clip-rule="evenodd" d="M20.5275 32.2421C20.5275 32.2995 20.4861 32.3459 20.4287 32.3459H19.5174C19.46 32.3459 19.4194 32.2995 19.4194 32.2421V24.9079C19.4194 24.8505 19.46 24.8041 19.5174 24.8041H20.4287C20.4861 24.8041 20.5275 24.8505 20.5275 24.9079V32.2421Z" fill="white"/>
</svg>
