<svg width="60" height="60" viewBox="0 0 60 60" fill="none" xmlns="http://www.w3.org/2000/svg">
<g clip-path="url(#clip0_496_7700)">
<path d="M26.0187 30.4574H29.9833L27.887 27.0846L24.0394 33.1827H22.2883L26.9682 25.8576C27.1717 25.5616 27.5108 25.3828 27.887 25.3828C28.2507 25.3828 28.5898 25.5555 28.7872 25.8453L33.4856 33.1827H31.7345L30.9082 31.82H26.8942L26.0187 30.4574ZM44.2081 31.82V25.4568H42.7222V32.4428C42.7222 32.6339 42.7962 32.8189 42.938 32.9607C43.0798 33.1026 43.2709 33.1827 43.4806 33.1827H50.2569L51.1325 31.82H44.2081ZM19.6246 30.6793C21.0674 30.6793 22.239 29.514 22.239 28.0712C22.239 26.6283 21.0674 25.4568 19.6246 25.4568H13.1238V33.1827H14.6092V26.8195H19.5259C20.2165 26.8195 20.7715 27.3806 20.7715 28.0712C20.7715 28.7617 20.2165 29.3228 19.5259 29.3228L15.3368 29.3167L19.7726 33.1827H21.9307L18.9464 30.6793H19.6246ZM3.97981 33.1827C1.847 33.1827 0.116211 31.4562 0.116211 29.3228C0.116211 27.1894 1.847 25.4568 3.97981 25.4568H8.47042C10.6038 25.4568 12.3334 27.1894 12.3334 29.3228C12.3334 31.4562 10.6038 33.1827 8.47042 33.1827H3.97981ZM8.37053 31.82C9.75234 31.82 10.8715 30.704 10.8715 29.3228C10.8715 27.9417 9.75234 26.8195 8.37053 26.8195H4.07906C2.6979 26.8195 1.57814 27.9417 1.57814 29.3228C1.57814 30.704 2.6979 31.82 4.07906 31.82H8.37053ZM36.587 33.1827C34.4536 33.1827 32.721 31.4562 32.721 29.3228C32.721 27.1894 34.4536 25.4568 36.587 25.4568H41.9206L41.0512 26.8195H36.6857C35.3045 26.8195 34.1824 27.9417 34.1824 29.3228C34.1824 30.704 35.3045 31.82 36.6857 31.82H42.0439L41.1683 33.1827H36.587ZM54.758 31.82C53.6173 31.82 52.6493 31.0555 52.3533 30.0011H58.7042L59.5798 28.6384H52.3533C52.6493 27.5902 53.6173 26.8195 54.758 26.8195H59.1174L59.9991 25.4568H54.6594C52.526 25.4568 50.7934 27.1894 50.7934 29.3228C50.7934 31.4562 52.526 33.1827 54.6594 33.1827H59.2407L60.1162 31.82H54.758Z" fill="#F80000"/>
</g>
<defs>
<clipPath id="clip0_496_7700">
<rect width="60" height="60" fill="white"/>
</clipPath>
</defs>
</svg>
