<svg width="60" height="60" viewBox="0 0 60 60" fill="none" xmlns="http://www.w3.org/2000/svg">
<mask id="mask0_496_7719" style="mask-type:alpha" maskUnits="userSpaceOnUse" x="0" y="0" width="58" height="58">
<path fill-rule="evenodd" clip-rule="evenodd" d="M0.0136719 0.0146484H57.9854V57.9999H0.0136719V0.0146484Z" fill="white"/>
</mask>
<g mask="url(#mask0_496_7719)">
<path fill-rule="evenodd" clip-rule="evenodd" d="M0.833984 58.6601H58.8057V0.674805H0.833984V58.6601Z" fill="#5A2967"/>
<path fill-rule="evenodd" clip-rule="evenodd" d="M38.1361 22.8321C38.4336 22.5697 38.582 22.2417 38.582 21.8443C38.582 21.4834 38.4624 21.1868 38.2256 20.9543C38.0437 20.7697 37.7446 20.5898 37.3305 20.4172C36.9618 20.2602 36.7172 20.1249 36.6018 20.0141C36.4729 19.8949 36.4072 19.7277 36.4072 19.5132C36.4072 19.314 36.4854 19.1518 36.6406 19.0243C36.7944 18.8992 37.0015 18.836 37.2584 18.836C37.6735 18.836 38.0396 18.9504 38.3588 19.1817V18.3994C38.0525 18.2478 37.7079 18.1726 37.3219 18.1726C36.8189 18.1726 36.4093 18.3056 36.0894 18.5743C35.7719 18.841 35.6111 19.1763 35.6111 19.5782C35.6111 19.9378 35.7139 20.2302 35.9192 20.4548C36.0894 20.6442 36.3791 20.8266 36.7856 21.0049C37.1796 21.178 37.4453 21.3264 37.5815 21.4501C37.7183 21.5722 37.7859 21.729 37.7859 21.9186C37.7859 22.3697 37.478 22.5962 36.8626 22.5962C36.402 22.5962 35.9824 22.4408 35.6016 22.1316V22.9664C35.9437 23.162 36.3458 23.2585 36.8057 23.2585C37.3656 23.2585 37.8115 23.1164 38.1361 22.8321Z" fill="#FFFFFE"/>
<path fill-rule="evenodd" clip-rule="evenodd" d="M45.4402 23.1423H46.2168V18.9489H47.3541V18.2909H46.2168V17.5433C46.2168 16.8579 46.4871 16.5154 47.0304 16.5154C47.2234 16.5154 47.3938 16.5584 47.5465 16.6431V15.9417C47.4106 15.8862 47.2234 15.8574 46.9839 15.8574C46.5696 15.8574 46.2213 15.9879 45.9361 16.2505C45.6033 16.5525 45.4402 16.9712 45.4402 17.5045V18.2909H44.6152V18.9489H45.4402V23.1423Z" fill="#FFFFFE"/>
<path fill-rule="evenodd" clip-rule="evenodd" d="M20.6847 17.0595C20.8269 17.0595 20.9479 17.0107 21.0463 16.9122C21.1453 16.8148 21.1956 16.6951 21.1956 16.5524C21.1956 16.4122 21.1453 16.2925 21.0463 16.1951C20.9479 16.0986 20.8269 16.051 20.6847 16.051C20.546 16.051 20.4259 16.0986 20.3267 16.1951C20.2286 16.2925 20.1792 16.4122 20.1792 16.5524C20.1792 16.7015 20.2286 16.8225 20.3267 16.9172C20.4259 17.0119 20.546 17.0595 20.6847 17.0595Z" fill="#FFFFFE"/>
<path fill-rule="evenodd" clip-rule="evenodd" d="M24.5741 23.2585C25.0868 23.2585 25.5309 23.1457 25.9029 22.9173V22.1791C25.5309 22.4578 25.1342 22.5962 24.7094 22.5962C24.2073 22.5962 23.8088 22.4324 23.5097 22.1039C23.2113 21.774 23.0611 21.3284 23.0611 20.7631C23.0611 20.1759 23.2263 19.7044 23.5503 19.3528C23.8616 19.0086 24.2635 18.836 24.7574 18.836C25.1684 18.836 25.5519 18.9615 25.9135 19.2159V18.4189C25.5871 18.2558 25.2132 18.1726 24.7909 18.1726C24.0206 18.1726 23.4069 18.4173 22.9515 18.9067C22.4936 19.3958 22.2661 20.039 22.2661 20.8329C22.2661 21.5416 22.475 22.1198 22.891 22.5672C23.3185 23.0281 23.8783 23.2585 24.5741 23.2585Z" fill="#FFFFFE"/>
<path fill-rule="evenodd" clip-rule="evenodd" d="M52.1864 17.9224H52.3908C52.5331 17.9224 52.6339 17.9469 52.6935 17.9945C52.7465 18.0391 52.7726 18.1057 52.7726 18.2004C52.7726 18.3885 52.6602 18.4823 52.4327 18.4823H52.1864V17.9224ZM52.1864 18.6789H52.3373C52.4436 18.6789 52.5408 18.777 52.6314 18.9755L52.8102 19.3695H53.0902L52.8745 18.9318C52.785 18.751 52.6935 18.6499 52.6024 18.6279V18.6216C52.734 18.5939 52.8376 18.5405 52.9096 18.4603C52.9833 18.3817 53.02 18.2858 53.02 18.1728C53.02 18.045 52.9744 17.9426 52.8849 17.8626C52.7789 17.7699 52.6242 17.7249 52.418 17.7249H51.9556V19.3695H52.1864V18.6789Z" fill="#FFFFFE"/>
<path fill-rule="evenodd" clip-rule="evenodd" d="M48.6117 21.8188C48.6117 22.7724 49.0346 23.2502 49.8818 23.2502C50.1835 23.2502 50.4271 23.1983 50.6108 23.093V22.4305C50.4686 22.5349 50.3018 22.5875 50.1088 22.5875C49.8498 22.5875 49.6663 22.5189 49.5542 22.3795C49.4427 22.2447 49.3892 22.0116 49.3892 21.6862V18.9489H50.6108V18.291H49.3892V16.8555C49.1171 16.9438 48.8591 17.029 48.6117 17.1067V18.291H47.7788V18.9489H48.6117V21.8188Z" fill="#FFFFFE"/>
<path fill-rule="evenodd" clip-rule="evenodd" d="M51.6456 17.7521C51.8627 17.5335 52.1357 17.4248 52.4638 17.4248C52.7814 17.4248 53.0517 17.5335 53.2721 17.7501C53.4921 17.9669 53.6027 18.2399 53.6027 18.5639C53.6027 18.8895 53.4921 19.1632 53.2701 19.3798C53.0483 19.6009 52.7789 19.7101 52.4638 19.7101C52.1459 19.7101 51.8765 19.6022 51.6563 19.3843C51.4336 19.1659 51.321 18.8911 51.321 18.5639C51.321 18.2424 51.429 17.9714 51.6456 17.7521ZM52.4574 19.8406C52.8242 19.8406 53.1323 19.7167 53.3825 19.4704C53.6335 19.2248 53.7581 18.9203 53.7581 18.5567C53.7581 18.1865 53.6326 17.8801 53.38 17.6379C53.1342 17.4021 52.8303 17.2825 52.4681 17.2825C52.0985 17.2825 51.7895 17.4071 51.5412 17.6545C51.2931 17.9037 51.1689 18.2066 51.1689 18.5671C51.1689 18.9357 51.2904 19.2395 51.5351 19.4808C51.7793 19.7196 52.0872 19.8406 52.4574 19.8406Z" fill="#FFFFFE"/>
<path fill-rule="evenodd" clip-rule="evenodd" d="M20.2871 23.1424H21.0617V18.291H20.2871V23.1424Z" fill="#FFFFFE"/>
<path fill-rule="evenodd" clip-rule="evenodd" d="M31.2129 19.3095C31.5024 18.9939 31.8896 18.836 32.3724 18.836C32.862 18.836 33.2426 18.9921 33.515 19.3043C33.7945 19.6299 33.935 20.1038 33.935 20.7251C33.935 21.3182 33.8045 21.7756 33.5412 22.0996C33.2735 22.4304 32.8829 22.5962 32.3724 22.5962C31.879 22.5962 31.4859 22.4329 31.1936 22.1055C30.8995 21.7799 30.7536 21.3245 30.7536 20.7436C30.7536 20.1249 30.9066 19.6475 31.2129 19.3095ZM32.3151 23.2585C33.053 23.2585 33.6412 23.0247 34.0784 22.5575C34.5125 22.0917 34.7309 21.4711 34.7309 20.6979C34.7309 19.9117 34.5275 19.2939 34.1237 18.8444C33.7164 18.3978 33.1513 18.1726 32.4284 18.1726C31.693 18.1726 31.1068 18.3883 30.6678 18.816C30.1933 19.2782 29.957 19.9294 29.957 20.7729C29.957 21.5124 30.1659 22.1073 30.5819 22.5575C31.0076 23.0247 31.5867 23.2585 32.3151 23.2585Z" fill="#FFFFFE"/>
<path fill-rule="evenodd" clip-rule="evenodd" d="M40.1457 20.7436C40.1457 20.1249 40.2973 19.6475 40.6027 19.3095C40.8942 18.9939 41.2814 18.836 41.7638 18.836C42.2527 18.836 42.6342 18.9921 42.9057 19.3043C43.1864 19.6299 43.3268 20.1038 43.3268 20.7251C43.3268 21.3182 43.1961 21.7756 42.9331 22.0996C42.6653 22.4304 42.2754 22.5962 41.7638 22.5962C41.2717 22.5962 40.8784 22.4329 40.5827 22.1055C40.2914 21.7799 40.1457 21.3245 40.1457 20.7436ZM43.4689 22.5575C43.9044 22.0917 44.1248 21.4711 44.1248 20.6979C44.1248 19.9117 43.9193 19.2939 43.5147 18.8444C43.1082 18.3978 42.5441 18.1726 41.8211 18.1726C41.0846 18.1726 40.4966 18.3883 40.0589 18.816C39.5868 19.2782 39.3486 19.9294 39.3486 20.7729C39.3486 21.5124 39.5578 22.1073 39.9737 22.5575C40.3992 23.0247 40.9785 23.2585 41.7078 23.2585C42.4466 23.2585 43.0339 23.0247 43.4689 22.5575Z" fill="#FFFFFE"/>
<path fill-rule="evenodd" clip-rule="evenodd" d="M32.052 35.0805H38.4852V33.193H32.052V27.2684H38.9952V25.3809H29.9658V43.1914H39.4051V41.3039H32.052V35.0805Z" fill="#FFFFFE"/>
<path fill-rule="evenodd" clip-rule="evenodd" d="M41.3657 27.2684H46.506V43.1914H48.5928V27.2684H53.7229V25.3809H41.3657V27.2684Z" fill="#FFFFFE"/>
<path fill-rule="evenodd" clip-rule="evenodd" d="M7.23317 40.6707C6.85322 40.6707 6.53014 40.8057 6.26529 41.0803C5.99931 41.3533 5.86768 41.6836 5.86768 42.074C5.86768 42.4542 5.99931 42.7831 6.26529 43.0607C6.53014 43.3377 6.85322 43.4773 7.23317 43.4773C7.62286 43.4773 7.95454 43.3377 8.22755 43.0607C8.50124 42.7831 8.6374 42.4542 8.6374 42.074C8.6374 41.6934 8.50124 41.363 8.22755 41.0859C7.95454 40.8075 7.62286 40.6707 7.23317 40.6707Z" fill="#FFFFFE"/>
<path fill-rule="evenodd" clip-rule="evenodd" d="M28.3992 18.4714C28.1634 18.6644 27.9878 18.9365 27.8738 19.2913H27.8544V18.2908H27.0786V23.1422H27.8544V20.6681C27.8544 20.1054 27.9756 19.6658 28.2194 19.3473C28.4344 19.0634 28.6994 18.9218 29.0146 18.9218C29.2742 18.9218 29.4709 18.9728 29.6077 19.0777V18.2722C29.5026 18.2285 29.349 18.2065 29.1428 18.2065C28.868 18.2065 28.6197 18.2949 28.3992 18.4714Z" fill="#FFFFFE"/>
<path fill-rule="evenodd" clip-rule="evenodd" d="M12.4128 17.264H12.4298L14.9532 23.1424H15.342L17.8618 17.264H17.8802L17.8136 23.1424H18.6101V16.3496H17.6126L15.1587 21.8997H15.1254L12.7331 16.3496H11.6816V23.1424H12.4497L12.4128 17.264Z" fill="#FFFFFE"/>
<path fill-rule="evenodd" clip-rule="evenodd" d="M23.9476 40.4232L14.3855 25.3809H11.6763V43.1914H13.764V27.9145L23.4895 43.1914H26.022V25.3809H23.9476V40.4232Z" fill="#FFFFFE"/>
</g>
</svg>
