<svg width="60" height="60" viewBox="0 0 60 60" fill="none" xmlns="http://www.w3.org/2000/svg">
<mask id="mask0_496_7689" style="mask-type:alpha" maskUnits="userSpaceOnUse" x="0" y="0" width="53" height="56">
<path fill-rule="evenodd" clip-rule="evenodd" d="M0 0.0126953H52.6891V55.9328H0V0.0126953Z" fill="white"/>
</mask>
<g mask="url(#mask0_496_7689)">
<path fill-rule="evenodd" clip-rule="evenodd" d="M39.6331 28.3577C40.0413 28.309 40.4323 28.3069 40.7916 28.3577C40.9996 27.8807 41.0353 27.0585 40.8483 26.1632C40.5703 24.8324 40.1939 24.0271 39.4163 24.1524C38.6386 24.2778 38.6099 25.2419 38.8879 26.5727C39.0443 27.3214 39.323 27.9612 39.6331 28.3577Z" fill="#1A1919"/>
<path fill-rule="evenodd" clip-rule="evenodd" d="M32.9574 29.4108C33.5138 29.6549 33.8557 29.8167 33.9896 29.6753C34.0756 29.587 34.0498 29.4187 33.9169 29.2017C33.6425 28.7535 33.0776 28.2989 32.4782 28.0435C31.2526 27.516 29.791 27.6915 28.6634 28.5017C28.2911 28.7745 27.9381 29.1522 27.9887 29.3817C28.0052 29.4559 28.0608 29.5118 28.1915 29.5301C28.4984 29.5652 29.5709 29.023 30.8062 28.9473C31.6786 28.8939 32.4009 29.1666 32.9574 29.4108Z" fill="#1A1919"/>
<path fill-rule="evenodd" clip-rule="evenodd" d="M31.8381 30.0492C31.1135 30.1636 30.7137 30.4026 30.4572 30.6247C30.2382 30.8162 30.1028 31.0277 30.104 31.1765C30.1046 31.2473 30.1351 31.2881 30.1595 31.3085C30.1925 31.3377 30.2316 31.3539 30.2786 31.3539C30.4423 31.3539 30.8089 31.2068 30.8089 31.2068C31.8174 30.8459 32.4827 30.8895 33.142 30.9647C33.5063 31.0055 33.6785 31.0283 33.7583 30.9033C33.782 30.8675 33.8106 30.7899 33.7377 30.6715C33.5678 30.3961 32.8362 29.9307 31.8381 30.0492Z" fill="#1A1919"/>
<path fill-rule="evenodd" clip-rule="evenodd" d="M37.3789 32.3937C37.8709 32.6355 38.4129 32.5405 38.5892 32.1818C38.7654 31.8229 38.5094 31.336 38.0175 31.0942C37.5252 30.8525 36.9835 30.9474 36.8072 31.3063C36.6309 31.665 36.8869 32.1519 37.3789 32.3937Z" fill="#1A1919"/>
<path fill-rule="evenodd" clip-rule="evenodd" d="M40.5426 29.6295C40.1429 29.6227 39.8112 30.0617 39.802 30.6097C39.7927 31.1579 40.1093 31.6078 40.509 31.6146C40.9088 31.6214 41.2402 31.1824 41.2496 30.6344C41.2589 30.0861 40.9424 29.6362 40.5426 29.6295Z" fill="#1A1919"/>
<path fill-rule="evenodd" clip-rule="evenodd" d="M13.6925 39.5139C13.5931 39.3893 13.4296 39.4273 13.2715 39.4641C13.1611 39.4899 13.0359 39.5191 12.8987 39.5166C12.6046 39.511 12.3557 39.3852 12.2158 39.1706C12.0337 38.8909 12.0443 38.474 12.2453 37.9965C12.2723 37.9323 12.3044 37.8608 12.3391 37.7828C12.6596 37.0636 13.1963 35.8597 12.5938 34.7125C12.1404 33.8491 11.401 33.3115 10.5117 33.1984C9.65811 33.0903 8.77934 33.4069 8.21894 34.0252C7.33452 35.0009 7.1964 36.3283 7.36736 36.7975C7.43009 36.9692 7.52809 37.0167 7.5993 37.0264C7.74967 37.0468 7.97219 36.9372 8.11152 36.5624C8.12161 36.5354 8.13494 36.4935 8.1515 36.4405C8.21355 36.2422 8.32919 35.8732 8.51859 35.5773C8.74704 35.2204 9.10269 34.9748 9.52027 34.8854C9.94552 34.7943 10.3803 34.8753 10.7443 35.1136C11.3637 35.5192 11.6024 36.2781 11.3378 37.0025C11.2011 37.377 10.9791 38.0933 11.028 38.6817C11.127 39.8729 11.8597 40.3512 12.5179 40.4021C13.158 40.4262 13.6052 40.067 13.7184 39.8042C13.7852 39.649 13.7289 39.5544 13.6925 39.5139Z" fill="#1A1919"/>
<path fill-rule="evenodd" clip-rule="evenodd" d="M19.7768 17.6368C21.864 15.2246 24.4338 13.1276 26.7356 11.9501C26.8151 11.9093 26.8997 11.9957 26.8564 12.0741C26.6738 12.4051 26.3218 13.1137 26.2103 13.6514C26.1928 13.7351 26.2841 13.7982 26.3547 13.7501C27.7869 12.7738 30.278 11.728 32.4629 11.5935C32.5569 11.5877 32.6022 11.7081 32.5275 11.7654C32.1953 12.0202 31.8318 12.3729 31.5664 12.7298C31.5213 12.7905 31.5637 12.8779 31.6393 12.8784C33.1738 12.8893 35.3367 13.4263 36.7464 14.2169C36.8419 14.2705 36.774 14.4553 36.6672 14.4308C34.5342 13.9419 31.0426 13.571 27.4158 14.4556C24.1779 15.2454 21.7065 16.4647 19.9036 17.776C19.8124 17.8424 19.703 17.722 19.7768 17.6368ZM38.7807 42.0228C38.8425 41.9968 38.8851 41.926 38.878 41.856C38.8693 41.7697 38.7923 41.707 38.7061 41.7159C38.7061 41.7159 34.2515 42.3752 30.0433 40.8347C30.5016 39.3449 31.7205 39.8829 33.5627 40.0316C36.8831 40.2294 39.8592 39.7444 42.0586 39.1132C43.9643 38.5661 46.4676 37.4879 48.4117 35.9534C49.0676 37.3938 49.2991 38.9791 49.2991 38.9791C49.2991 38.9791 49.8068 38.8883 50.2311 39.1494C50.6318 39.396 50.9258 39.9089 50.7251 41.2347C50.3163 43.7117 49.2633 45.7222 47.4938 47.5715C46.4169 48.7309 45.1091 49.7389 43.6128 50.4721C42.8183 50.8894 41.9721 51.2505 41.0786 51.5424C34.4078 53.721 27.5797 51.3258 25.3786 46.1821C25.203 45.7955 25.0545 45.3907 24.9372 44.9672C23.9992 41.5776 24.7956 37.511 27.2849 34.9513C27.2851 34.9512 27.2845 34.9504 27.2847 34.9501C27.4381 34.7871 27.5947 34.5951 27.5947 34.3535C27.5947 34.1516 27.4664 33.9383 27.3549 33.7873C26.4842 32.5242 23.4676 30.3717 24.0731 26.2062C24.5079 23.2138 27.125 21.1062 29.565 21.2312C29.7711 21.2418 29.9776 21.2545 30.1833 21.2667C31.2409 21.3292 32.1633 21.4649 33.0338 21.5013C34.4906 21.5642 35.8008 21.3525 37.3524 20.0596C37.8759 19.6233 38.2954 19.2452 39.0056 19.1248C39.0801 19.1122 39.2658 19.0457 39.637 19.0631C40.0158 19.0832 40.3763 19.1873 40.7004 19.403C41.9443 20.2308 42.1208 22.2357 42.1852 23.7023C42.222 24.5395 42.3232 26.5649 42.3578 27.1463C42.437 28.4759 42.7864 28.6634 43.4936 28.8962C43.8911 29.027 44.2603 29.1246 44.8043 29.2773C46.4509 29.7397 47.4272 30.2087 48.0426 30.8112C48.4096 31.1877 48.5803 31.5878 48.6329 31.9693C48.8272 33.3857 47.5332 35.1356 44.1081 36.7254C40.3638 38.4633 35.8216 38.9032 32.6831 38.5537C32.4423 38.527 31.5866 38.4299 31.5836 38.4295C29.0732 38.0913 27.6411 41.3358 29.1477 43.5585C30.1187 44.9909 32.7636 45.9234 35.4099 45.9238C41.4773 45.9246 46.1409 43.3335 47.8756 41.0958C47.9275 41.0289 47.9326 41.0217 48.0145 40.8981C48.0997 40.7694 48.0294 40.6986 47.9231 40.7713C46.5057 41.741 40.2104 45.5912 33.4767 44.4329C33.4767 44.4329 32.6584 44.2983 31.9115 44.0077C31.3179 43.7768 30.0758 43.2055 29.9247 41.9308C35.359 43.6115 38.7807 42.0228 38.7807 42.0228ZM8.93254 29.1082C7.04268 29.4757 5.37695 30.5467 4.35831 32.0264C3.74958 31.5186 2.61531 30.5357 2.41501 30.1527C0.788852 27.0647 4.18978 21.0613 6.56547 17.671C12.437 9.29213 21.633 2.95013 25.89 4.10069C26.582 4.29655 28.8741 6.95413 28.8741 6.95413C28.8741 6.95413 24.6187 9.31515 20.6725 12.6062C15.3553 16.7004 11.3388 22.6511 8.93254 29.1082ZM12.1083 43.2775C11.8223 43.3264 11.5304 43.3458 11.2362 43.3388C8.3926 43.2625 5.32095 40.7025 5.01578 37.6665C4.67829 34.3107 6.39302 31.7281 9.42887 31.1158C9.79179 31.0426 10.2305 31.0005 10.7034 31.025C12.4044 31.1181 14.9109 32.4243 15.4836 36.1297C15.9908 39.4115 15.1853 42.7529 12.1083 43.2775ZM50.6289 37.3355C50.6044 37.2493 50.4459 36.6693 50.2278 35.9702C50.0096 35.2712 49.784 34.7791 49.784 34.7791C50.6585 33.4697 50.6741 32.2987 50.5579 31.6356C50.4337 30.8135 50.0915 30.113 49.4017 29.3887C48.7118 28.6645 47.301 27.9229 45.3183 27.3663C45.0914 27.3026 44.3437 27.0974 44.2778 27.0774C44.2729 27.0343 44.2233 24.6247 44.1781 23.5903C44.1452 22.8427 44.081 21.6753 43.7189 20.5252C43.2872 18.969 42.5351 17.6071 41.5962 16.7357C44.1871 14.05 45.8044 11.0917 45.8005 8.5535C45.7931 3.67275 39.7988 2.19588 32.4119 5.25461C32.4041 5.25798 30.8579 5.91355 30.8467 5.91907C30.8399 5.91234 28.0172 3.1429 27.9748 3.10588C19.5528 -4.24008 -6.77976 25.0292 1.63922 32.1378L3.47914 33.6964C3.00179 34.9327 2.81441 36.3492 2.96747 37.8725C3.16414 39.8287 4.17335 41.7043 5.80906 43.1534C7.36172 44.5289 9.40329 45.3997 11.3844 45.398C14.6607 52.9479 22.1463 57.5796 30.9233 57.8402C40.3383 58.1198 48.2417 53.7022 51.5533 45.7663C51.7699 45.2091 52.6891 42.6996 52.6891 40.4844C52.6891 38.2581 51.4305 37.3355 50.6289 37.3355Z" fill="#1A1919"/>
</g>
</svg>
