<svg width="60" height="60" viewBox="0 0 60 60" fill="none" xmlns="http://www.w3.org/2000/svg">
<g clip-path="url(#clip0_496_7763)">
<path fill-rule="evenodd" clip-rule="evenodd" d="M28.2069 37.887C22.9949 37.887 18.7681 42.1138 18.7681 47.3258C18.7681 52.5377 22.9949 56.7646 28.2069 56.7646C33.4188 56.7646 37.6457 52.5377 37.6457 47.3258C37.6457 42.1138 33.4188 37.887 28.2069 37.887Z" fill="#2BA9E0"/>
<path fill-rule="evenodd" clip-rule="evenodd" d="M39.9562 36.078C42.7502 38.9974 44.4696 42.9556 44.4696 47.3258C44.4696 52.8601 41.7114 57.7317 37.5024 60.669C45.2935 58.269 51.7412 52.4123 54.6248 45.3198C58.6189 35.5049 54.8935 28.1258 48.6606 21.4272C48.8577 22.2869 48.9651 23.2004 48.9651 24.1138C48.9472 29.8093 45.1502 34.5914 39.9562 36.078Z" fill="#2BA9E0"/>
<path fill-rule="evenodd" clip-rule="evenodd" d="M29.2817 24.1317C29.2817 28.1258 32.5235 31.3496 36.4996 31.3496C40.4758 31.3496 43.7355 28.1078 43.7355 24.1317C43.7355 20.1377 40.4937 16.9138 36.5176 16.9138C32.5414 16.9138 29.2817 20.1377 29.2817 24.1317Z" fill="#2BA9E0"/>
<path fill-rule="evenodd" clip-rule="evenodd" d="M15.7593 57.8034C13.3772 54.9735 11.9444 51.3198 11.9444 47.3258C11.9444 38.9974 18.1951 32.1377 26.2727 31.1884C24.8936 29.1825 24.0697 26.7467 24.0697 24.1317C24.0697 17.2541 29.6399 11.7019 36.5175 11.7019C37.0906 11.7019 37.6459 11.7377 38.1832 11.8093C34.1175 8.29889 30.0518 4.73471 26.8459 0.848145C28.4757 17.8989 11.3175 11.7019 4.9593 27.4272C0.714522 37.9586 4.54736 50.9795 15.7593 57.8034Z" fill="#2BA9E0"/>
</g>
<defs>
<clipPath id="clip0_496_7763">
<rect width="60" height="60" fill="white"/>
</clipPath>
</defs>
</svg>
