<svg width="60" height="60" viewBox="0 0 60 60" fill="none" xmlns="http://www.w3.org/2000/svg">
<path fill-rule="evenodd" clip-rule="evenodd" d="M43.4094 38.2573C49.979 34.6504 55.0027 31.9024 55.4321 31.6877C56.8061 30.9577 58.2231 29.0255 55.4321 27.5227C54.5304 27.0504 49.6784 24.3882 43.4094 20.9531L34.7788 29.6267L43.4094 38.2573Z" fill="#FFD900"/>
<path fill-rule="evenodd" clip-rule="evenodd" d="M34.7788 29.6267L7.2124 57.4078C7.85648 57.4937 8.58643 57.3219 9.44519 56.8496C11.2486 55.862 30.3991 45.3851 43.4094 38.2573L34.7788 29.6267Z" fill="#F43249"/>
<path fill-rule="evenodd" clip-rule="evenodd" d="M34.7788 29.6267L43.4093 20.9532C43.4093 20.9532 11.3774 3.47728 9.44516 2.44676C8.71521 2.01738 7.89938 1.88857 7.16943 2.01738L34.7788 29.6267Z" fill="#00EE76"/>
<path fill-rule="evenodd" clip-rule="evenodd" d="M34.7788 29.6267L7.16944 2.01733C6.05304 2.27496 5.1084 3.26254 5.1084 5.28064V54.1444C5.1084 55.9908 5.83835 57.3218 7.21237 57.4507L34.7788 29.6267Z" fill="#00D3FF"/>
</svg>
