<svg width="60" height="60" viewBox="0 0 60 60" fill="none" xmlns="http://www.w3.org/2000/svg">
<path fill-rule="evenodd" clip-rule="evenodd" d="M58.7642 30.4867C57.4401 38.9061 54.8639 41.3671 50.3017 47.0232C45.7394 51.8158 39.1766 59.8178 29.8793 59.3716C21.46 58.0475 18.9989 55.4714 13.3428 50.9091C8.55029 46.3468 0.548301 39.784 0.994455 30.4867C2.31852 22.0674 4.8947 19.6063 9.45699 13.9503C14.0193 9.15771 20.582 1.15572 29.8793 1.60188C38.2987 2.92595 40.7597 5.50212 46.4158 10.0644C51.2084 14.6267 59.2103 21.1895 58.7642 30.4867Z" fill="#3765AF"/>
<path d="M18.1499 30.0406C17.1137 29.7384 16.4085 29.9974 16.1063 30.7026L14.0338 35.3657L12.0045 30.7026C11.7023 29.9974 10.9971 29.7384 9.96086 30.0406C9.51471 30.1845 9.29883 30.4148 9.29883 30.9617V36.3731H10.6661V30.9617L12.8105 35.6679C13.0408 36.2292 13.4006 36.4451 14.077 36.4451C14.7534 36.4451 15.07 36.2292 15.3291 35.6679L17.4447 30.9617V36.3731H18.812V30.9617C18.812 30.4436 18.5961 30.1845 18.1499 30.0406ZM25.1157 35.4952H22.1222C21.3594 35.4808 21.3162 35.0922 21.3162 34.9339V31.9691H19.949C19.9921 31.9835 19.949 34.9483 19.9633 35.0203C19.9633 35.6967 20.8269 36.3155 22.1941 36.3155H25.1157V36.6754C25.1157 36.8049 25.2164 37.251 24.3385 37.3518H20.0065V38.2729H24.3097C25.0006 38.2729 26.4829 38.0138 26.4829 36.8193V31.9404H25.1157V35.4952ZM50.5177 31.5806C50.4169 31.4798 50.3018 31.3935 50.2155 31.2783C49.9132 30.8754 49.539 30.5012 49.136 30.2133C48.805 29.983 48.0566 29.6664 47.9415 29.2778L47.9127 29.2491C48.143 29.2203 48.4021 29.1483 48.6467 29.0907C49.0065 28.99 49.3231 29.0188 49.7117 28.9324C49.87 28.8892 50.0427 28.8317 50.2011 28.7885V28.6878C50.014 28.5007 49.87 28.2416 49.6829 28.0689C49.136 27.594 48.546 27.1478 47.9415 26.7736C47.6105 26.5577 47.1931 26.4138 46.8621 26.2555C46.747 26.1835 46.5311 26.1548 46.4591 26.0684C46.272 25.8381 46.1569 25.5215 46.0418 25.2625C45.7395 24.6724 45.4517 24.0391 45.1638 23.4203C44.9767 23.0173 44.8616 22.5999 44.6169 22.2257C43.5375 20.4411 42.3574 19.3473 40.544 18.2967C40.141 18.0808 39.6949 17.9945 39.2055 17.8793C38.9465 17.8793 38.6874 17.8505 38.4284 17.8361C38.27 17.7642 38.0973 17.5483 37.939 17.462C37.349 17.0878 35.7946 16.2674 35.3485 17.3468C35.0606 18.0232 35.7658 18.7141 36.0105 19.0451C36.1976 19.2754 36.4135 19.5632 36.5574 19.8223C36.6293 20.0093 36.6581 20.1964 36.7157 20.3835C36.874 20.8585 37.0467 21.3478 37.2626 21.794C37.3777 22.0098 37.4929 22.2401 37.6656 22.456C37.7663 22.5711 37.8958 22.6143 37.9246 22.8158C37.7807 23.0317 37.7663 23.3339 37.6944 23.593C37.3202 24.7731 37.4641 26.2555 37.9966 27.119C38.1549 27.3781 38.5579 27.9682 39.1048 27.7379C39.5797 27.5508 39.479 26.9607 39.5941 26.4138C39.6229 26.2987 39.5941 26.1979 39.6661 26.126V26.1548C39.81 26.4426 39.9539 26.7448 40.0834 27.0327C40.4145 27.5508 40.9757 28.0977 41.4507 28.4431C41.7097 28.6302 41.8968 28.9612 42.2279 29.0763V29.0476H42.1991C42.1271 28.9468 42.0408 28.9036 41.9688 28.8317C41.7817 28.6446 41.5658 28.4143 41.4219 28.1984C40.9758 27.6084 40.6016 26.9463 40.2418 26.2843C40.0834 25.9533 39.9395 25.6079 39.7956 25.2768C39.7236 25.1617 39.7236 24.9746 39.6373 24.9026C39.479 25.1329 39.2343 25.32 39.148 25.6079C38.9609 26.054 38.9321 26.6153 38.8601 27.191C38.8169 27.191 38.8313 27.191 38.8169 27.2198C38.4859 27.119 38.3708 26.8024 38.2269 26.4858C37.9246 25.7374 37.8527 24.5285 38.1261 23.6793C38.1981 23.4634 38.5291 22.7582 38.3852 22.5423C38.3132 22.3553 38.0973 22.2401 37.9822 22.0674C37.8383 21.8803 37.6944 21.6213 37.608 21.391C37.349 20.8009 37.2338 20.1389 36.946 19.5488C36.8308 19.261 36.5862 18.9875 36.4279 18.7428C36.2408 18.455 36.0105 18.2535 35.8378 17.9225C35.7946 17.8074 35.7226 17.6203 35.7946 17.5051C35.8234 17.4044 35.8666 17.39 35.9385 17.3612C36.0825 17.2461 36.4566 17.39 36.6006 17.462C37.0035 17.6203 37.3058 17.7642 37.6368 17.9801C37.7807 18.0808 37.939 18.2823 38.1261 18.3399H38.342C38.673 18.4118 39.0472 18.3687 39.3782 18.455C39.9395 18.6421 40.4432 18.9012 40.8894 19.189C42.2566 20.0669 43.408 21.3046 44.1564 22.787C44.2715 23.0173 44.3435 23.262 44.4442 23.4922C44.6601 24.0103 44.9336 24.5285 45.1494 25.0466C45.3653 25.5359 45.5668 26.0396 45.8978 26.457C46.0561 26.6729 46.675 26.788 46.9772 26.9031C47.1931 27.0039 47.5241 27.0902 47.7112 27.191C48.071 27.4069 48.4164 27.6659 48.7762 27.8962C48.9058 28.0257 49.4527 28.2848 49.4815 28.5007C48.6323 28.4719 47.9991 28.5726 47.4378 28.7885C47.2795 28.8605 47.0348 28.8605 47.0204 29.0476C47.1212 29.1483 47.1212 29.2634 47.1787 29.3786C47.2939 29.5945 47.5385 29.8679 47.7256 30.0118C47.9415 30.1701 48.1718 30.3428 48.4021 30.5012C48.805 30.7602 49.28 30.9041 49.6686 31.1632C49.8988 31.3071 50.1435 31.4942 50.345 31.6525C50.4601 31.7533 50.5321 31.8684 50.676 31.9404V31.9116C50.604 31.8108 50.5753 31.6813 50.5177 31.5806Z" fill="white"/>
<path d="M38.3419 19.4336V19.4623H38.3707C38.4714 19.6207 38.6009 19.7502 38.7017 19.8797C38.8024 20.038 38.86 20.2107 38.9319 20.369L38.9607 20.3403C39.1047 20.2395 39.1766 20.0524 39.1766 19.8221C39.1047 19.7502 39.1047 19.6782 39.0615 19.6063C38.9751 19.5055 38.8312 19.4623 38.7592 19.3904C38.5721 19.3904 38.457 19.4192 38.3419 19.4336ZM28.728 30.17C27.922 30.4291 27.5478 30.8321 27.5478 31.5373V32.2857C27.5478 32.9045 28.2243 33.437 29.4044 33.5522H31.3617C31.7791 33.5953 31.9806 33.6673 32.1101 33.84C32.2109 33.9408 32.2109 33.9983 32.2109 34.0991V34.905C32.2109 35.0058 32.1389 35.1209 32.0238 35.236C31.9086 35.3512 31.6927 35.4231 31.4337 35.4231H27.519V36.373H31.4913C31.9662 36.373 32.3836 36.2723 32.7578 36.114C33.3478 35.8261 33.6357 35.4807 33.6357 34.977V33.9695C33.6357 33.5666 33.3047 33.2212 32.6714 32.9621C32.3404 32.847 31.923 32.775 31.4913 32.775H29.8362C29.2749 32.775 29.0158 32.6167 28.9439 32.2281V31.379C29.0158 31.0911 29.1597 31.0192 29.6491 30.976H33.6788V30.0549H29.8362C29.2749 30.0549 28.987 30.0837 28.728 30.17ZM43.5662 34.7467V30.0405H42.1989L42.1702 34.7611C42.1702 35.6966 42.8754 36.2147 44.2858 36.3154C44.4297 36.3154 44.5448 36.3442 44.6888 36.3442H48.2724V35.4231H44.6744C43.8684 35.4231 43.5662 35.236 43.5662 34.7467ZM41.3498 34.8187V31.5661C41.3498 30.7457 40.7885 30.242 39.6372 30.0837C39.4932 30.0549 39.3781 30.0549 39.2342 30.0549H36.6148C36.4997 30.0549 36.3558 30.0837 36.2406 30.0837C35.0893 30.2276 34.4992 30.7457 34.4992 31.5661V34.8187C34.4992 35.5671 34.9166 36.042 35.852 36.2867C36.1399 36.3586 36.4277 36.3874 36.658 36.3874H38.1116L39.2198 36.3154L40.2992 37.3085H41.8823L40.5439 36.0852C41.1195 35.8549 41.3498 35.4951 41.3498 34.8187ZM40.0257 31.638V34.8906C39.9682 35.0777 39.853 35.236 39.6659 35.3368L38.6729 34.4445H37.0898L38.2267 35.4807H36.9746C36.4277 35.4807 36.0823 35.2648 36.0104 34.8906C36.0104 34.8475 35.9816 34.7899 35.9816 34.7467V31.638C35.9816 31.2207 36.3702 30.9616 36.989 30.9616H39.0615C39.6084 30.9616 39.9538 31.1631 40.0257 31.5229V31.638ZM50.0858 36.0852L49.8267 35.4519H49.5389V36.373H49.726V35.6678L49.985 36.373H50.129L50.388 35.6678L50.4168 36.373H50.6039V35.4519H50.3161L50.0858 36.0852ZM48.6034 35.5958H48.8913V36.373H49.0783V35.5958H49.3374V35.4375H48.6034V35.5958Z" fill="white"/>
</svg>
