<svg width="60" height="60" viewBox="0 0 60 60" fill="none" xmlns="http://www.w3.org/2000/svg">
<g clip-path="url(#clip0_496_7678)">
<path d="M35.3922 28.8289L23.4035 32.7436L12.9735 37.3469L10.0556 38.1172C9.31244 38.8241 8.53324 39.54 7.69048 40.265C6.76619 41.0623 5.90534 41.7874 5.24372 42.3129C4.50978 42.8929 3.42235 43.9802 2.86963 44.6688C2.04497 45.7018 1.39255 46.7983 1.11161 47.6411C0.613177 49.1636 0.857966 50.704 1.81848 52.1268C3.05087 53.9391 5.50665 55.7876 8.37006 57.0472C9.8291 57.6907 12.2848 58.5152 14.1333 58.9773C17.2052 59.7567 23.1498 60.5994 26.421 60.7264C27.0824 60.7536 27.9705 60.7536 28.0067 60.7264C28.0792 60.6809 28.5867 59.7114 29.1758 58.5063C31.1875 54.4012 32.6374 50.55 33.4257 47.2606C33.8969 45.2671 34.2684 42.612 34.5129 39.4677C34.5765 38.5886 34.6036 35.6436 34.5492 34.6467C34.4676 33.0156 34.3226 31.6927 34.0962 30.3968C34.06 30.2065 34.0508 30.0343 34.069 30.0253C34.1051 29.9981 34.2139 29.9619 35.691 29.5359L35.3921 28.8291V28.8289H35.3922V28.8289ZM32.6556 30.4329C32.7643 30.4329 33.0542 33.2148 33.1267 34.9729C33.1449 35.3444 33.1357 35.589 33.1176 35.589C33.0452 35.589 31.5862 34.7283 30.5443 34.0758C29.638 33.5049 27.9164 32.3631 27.6445 32.1456C27.5537 32.0822 27.5628 32.0732 28.3059 31.8194C29.5654 31.3934 32.5559 30.4329 32.6556 30.4329ZM26.548 32.4446C26.6296 32.4446 26.8378 32.5623 27.3363 32.8705C29.2029 34.0394 31.7403 35.4531 32.8277 35.9244C33.1629 36.0694 33.1991 36.0149 32.429 36.5406C30.7797 37.6642 28.7226 38.7697 26.2034 39.8843C25.7595 40.0837 25.388 40.2377 25.379 40.2377C25.3609 40.2377 25.4151 40.0113 25.4875 39.7394C26.0947 37.4828 26.4391 35.1993 26.4573 33.3689C26.4664 32.4626 26.4664 32.4626 26.548 32.4356C26.5297 32.4446 26.5388 32.4446 26.548 32.4446ZM25.2884 32.9249C25.3426 32.9791 25.3065 35.0091 25.2339 35.5618C25.0708 36.8849 24.8171 38.1172 24.4004 39.5038C24.3007 39.8388 24.2099 40.1199 24.192 40.138C24.1556 40.1832 22.9141 38.969 22.5064 38.4978C21.7995 37.6822 21.2469 36.8666 20.8391 36.0693C20.6306 35.6615 20.3045 34.8641 20.3316 34.8369C20.4766 34.7372 25.2521 32.8887 25.2884 32.9249ZM19.3619 35.2537C19.371 35.2537 19.38 35.2537 19.3892 35.2627C19.4072 35.2809 19.4708 35.4259 19.5252 35.589C19.815 36.3773 20.4674 37.5372 21.0294 38.2803C21.6455 39.0959 22.4521 39.9658 23.1225 40.5367C23.3401 40.7179 23.5393 40.89 23.5665 40.9173C23.6209 40.9717 23.639 40.9625 22.1619 41.5244C20.4494 42.1768 18.5826 42.8293 16.444 43.5179C15.9331 43.6826 15.4227 43.8488 14.9128 44.0163C14.8311 44.0436 14.8583 43.9982 15.0939 43.6268C16.1541 41.9684 17.767 38.7153 18.6733 36.4136C18.8273 36.0148 18.9814 35.6162 19.0086 35.5256C19.0449 35.3986 19.0901 35.3534 19.2079 35.2899C19.2713 35.2719 19.3348 35.2537 19.3619 35.2537ZM17.5498 36.0058C17.5769 36.024 17.1147 36.9935 16.6616 37.8816C15.7826 39.5942 14.8221 41.2798 13.5353 43.3277C13.3179 43.6811 13.1095 44.0074 13.0823 44.0436C13.037 44.1071 13.0188 44.0889 12.8738 43.808C12.5657 43.2009 12.3119 42.4215 12.176 41.7056C12.04 40.9987 12.0673 39.7664 12.2214 39.0053C12.3391 38.4435 12.3301 38.4526 12.602 38.3166C13.7618 37.7276 17.5135 35.9696 17.5498 36.0058ZM33.1811 36.6402V37.0208C33.1811 39.0416 32.9637 41.8144 32.6464 43.8353C32.592 44.1886 32.5466 44.4785 32.5377 44.4877C32.5377 44.4877 32.2749 44.4153 31.9668 44.3245C30.6076 43.8986 29.1305 43.2733 27.7984 42.5395C26.9193 42.0592 25.6417 41.2707 25.678 41.2344C25.6869 41.2254 26.0676 41.0261 26.5115 40.7904C28.2878 39.8662 29.9913 38.8694 31.4684 37.8817C32.0212 37.5101 32.8547 36.9121 33.0361 36.749L33.1811 36.6402ZM10.708 39.3223C10.7442 39.3223 10.7352 39.3948 10.6808 39.7211C10.6445 39.9567 10.5993 40.3917 10.5813 40.6906C10.5086 42.0137 10.7262 42.9924 11.3786 44.3335C11.5599 44.705 11.705 45.0131 11.6958 45.0221C11.6323 45.0766 5.63355 46.8346 3.74858 47.3511C3.1868 47.5051 2.69756 47.641 2.66112 47.65C2.59781 47.6682 2.5887 47.6592 2.61586 47.505C2.82425 46.173 3.83922 44.4331 5.25279 42.9651C6.19526 41.9865 6.94742 41.4156 8.23417 40.6815C9.15846 40.156 10.5811 39.3678 10.6899 39.3314C10.69 39.3223 10.699 39.3223 10.708 39.3223ZM24.8443 41.8506C24.8534 41.8415 25.0708 41.9594 25.3336 42.1134C27.2728 43.2371 29.9732 44.2792 32.2747 44.8138L32.4833 44.8592L32.1933 45.0221C30.9881 45.6928 27.0281 47.3419 22.9776 48.8553C22.3885 49.0727 21.8086 49.2903 21.6997 49.3355C21.591 49.3808 21.4913 49.408 21.4913 49.399C21.4913 49.3898 21.6545 49.0727 21.8628 48.6831C22.9955 46.5627 24.1374 43.9801 24.7173 42.1859C24.79 42.0137 24.8352 41.8597 24.8443 41.8506ZM23.4035 42.3218C23.4127 42.3311 23.3401 42.5212 23.2495 42.7387C22.4611 44.6507 21.428 46.735 20.105 49.0729C19.7698 49.671 19.4888 50.1513 19.4796 50.1513C19.4707 50.1513 19.1988 49.9881 18.8726 49.7888C16.9514 48.6107 15.2479 47.1609 14.1334 45.7563L13.9702 45.5569L14.7947 45.3303C17.7489 44.5239 20.2589 43.654 22.751 42.5848C23.1045 42.4397 23.3945 42.3218 23.4035 42.3218ZM32.3565 45.4481C32.3565 45.4481 32.3656 45.4572 32.3565 45.4481C32.3655 45.6566 31.9034 47.5233 31.5227 48.8734C31.2056 50.0061 30.9336 50.8942 30.4354 52.4618C30.2179 53.1507 30.0277 53.7214 30.0185 53.7214C30.0095 53.7214 29.9551 53.7124 29.9008 53.6944C27.2095 53.2049 24.799 52.5253 22.5336 51.6192C21.8992 51.3654 20.9931 50.9576 20.9387 50.9123C20.9207 50.894 21.4644 50.6404 22.1531 50.3414C26.2761 48.5381 30.5532 46.4901 32.0212 45.6112C32.1933 45.5025 32.3293 45.4481 32.3565 45.4481ZM11.6867 46.155C11.7049 46.1731 10.554 47.8314 8.94096 50.0878C8.37917 50.8761 7.72675 51.8004 7.48213 52.1447C7.23742 52.4891 6.86594 53.0328 6.6575 53.3591L6.27674 53.9481L5.86894 53.6038C5.38864 53.2049 4.55507 52.3532 4.18354 51.882C3.40417 50.9125 2.8787 49.8885 2.67027 48.9552C2.57056 48.5202 2.57056 48.3026 2.66108 48.2755C2.79697 48.2393 5.21648 47.6684 7.48205 47.1427C8.74163 46.8528 10.2005 46.5085 10.7261 46.3816C11.2517 46.2545 11.6777 46.155 11.6867 46.155ZM12.8466 46.599L13.1365 46.9252C14.4415 48.3842 15.7736 49.4627 17.3865 50.4049C17.6766 50.5681 17.894 50.713 17.8758 50.7222C17.8125 50.7675 12.2756 52.7337 9.71122 53.6218C8.27048 54.1292 7.08331 54.537 7.07437 54.537C7.06534 54.537 6.98374 54.4827 6.89297 54.4192L6.72996 54.3014L6.99272 53.9209C7.84446 52.6885 8.91392 51.3383 11.2428 48.5292L12.8466 46.599ZM20.0779 51.7732C20.0869 51.7642 20.4856 51.9091 20.9749 52.0905C22.1531 52.5345 23.0862 52.8153 24.3369 53.1325C25.8774 53.5222 28.1065 53.9028 29.4206 54.0115C29.6199 54.0296 29.7287 54.0478 29.6924 54.075C29.6288 54.1113 28.2969 54.5553 27.3182 54.8634C25.7595 55.3526 21.0022 56.7572 17.1238 57.8718C16.4079 58.0802 15.7916 58.2524 15.7554 58.2614C15.6649 58.2796 15.3658 58.198 15.3658 58.1617C15.3658 58.1437 15.5832 57.8628 15.8461 57.5547C17.1509 55.996 18.4468 54.2562 19.5252 52.607C19.8241 52.1537 20.0779 51.7823 20.0779 51.7732ZM18.4829 51.8186C18.492 51.8276 17.8487 52.8606 16.7251 54.6367C16.2447 55.3888 15.7101 56.2406 15.5197 56.5397C15.3385 56.8296 15.0667 57.2828 14.9127 57.5365L14.6499 57.9987L14.514 57.9624C14.1877 57.8718 11.8951 57.0652 11.2879 56.8206C10.5358 56.5215 9.75647 56.1591 9.17647 55.851C8.45163 55.4613 7.54552 54.8813 7.61794 54.8633C7.63603 54.8543 8.87752 54.5189 10.3726 54.1112C14.3417 53.0327 16.5436 52.4075 17.9846 51.9545C18.2474 51.8729 18.4739 51.8094 18.4829 51.8186ZM29.7648 54.4645H29.7738C29.8101 54.5552 28.3422 58.633 27.8073 59.9197C27.6897 60.2096 27.6445 60.2822 27.581 60.273C27.4269 60.2641 25.2975 59.965 24.0015 59.7747C21.7453 59.4304 17.9574 58.7688 17.006 58.5514L16.7885 58.5061L18.1385 58.1978C21.0384 57.5454 22.4339 57.1921 23.8474 56.7571C25.6327 56.2134 27.3998 55.5337 29.1848 54.7001C29.4657 54.5732 29.7014 54.4736 29.7648 54.4645Z" fill="url(#paint0_linear_496_7678)"/>
<path d="M23.0319 0.882544C22.8326 0.855508 19.6155 2.01539 17.5405 2.85803C14.7403 3.99994 12.5657 5.08741 11.2245 6.02962C10.7261 6.38318 10.1008 7.00835 10.0012 7.25298C9.965 7.34361 9.94678 7.45234 9.94678 7.56107L11.1611 8.71193L14.0517 9.63622L20.9296 10.8686L28.7951 12.2189L28.8767 11.5392C28.8496 11.5392 28.8314 11.5302 28.8044 11.5302L27.7711 11.367L27.5629 10.9955C26.4935 9.11066 25.3155 6.77272 24.6269 5.19597C24.0923 3.97261 23.5848 2.55912 23.3038 1.54416C23.1497 0.927967 23.1317 0.891737 23.0321 0.882711V0.882502H23.0319V0.882544ZM22.8868 1.34483H22.8961C22.905 1.35378 22.9412 1.60767 22.9776 1.90654C23.1315 3.17536 23.4126 4.3985 23.8565 5.72157C24.1918 6.71839 24.1918 6.66407 23.8022 6.54619C22.8779 6.29254 18.7367 5.57665 15.7373 5.15982C15.257 5.09635 14.8492 5.03296 14.8492 5.02393C14.813 4.9877 17.0149 3.83676 17.9845 3.38379C19.226 2.81277 22.6332 1.39009 22.8868 1.34483ZM14.1513 5.40444L14.5049 5.52212C16.4258 6.17466 21.2556 7.09899 23.9199 7.31645C24.2188 7.34365 24.4727 7.3709 24.4816 7.3709C24.4906 7.37993 24.2371 7.51586 23.9107 7.66984C22.6241 8.31324 21.2104 9.10163 20.2317 9.7088C19.9419 9.88995 19.6789 10.035 19.6428 10.035C19.6065 10.035 19.4163 9.99876 19.2169 9.97156L18.8545 9.91711L17.9484 9.02901C16.3535 7.47955 15.103 6.28343 14.6227 5.83025L14.1513 5.40444ZM13.789 5.68529L15.0666 7.28022C15.7643 8.15921 16.4712 9.02002 16.6253 9.21024C16.7792 9.40066 16.9062 9.55477 16.8972 9.5638C16.8609 9.59096 15.0487 9.23748 14.088 9.02011C13.1003 8.7935 12.6925 8.68477 12.0854 8.49455L11.587 8.33137V8.20442C11.596 7.59726 12.3663 6.69115 13.6712 5.76695L13.789 5.68529ZM24.6449 7.86014C24.6812 7.86014 24.7263 7.94167 24.8351 8.18633C25.1432 8.86591 26.1039 10.6965 26.3393 11.0498C26.412 11.1678 26.5387 11.1768 25.2611 10.9683C22.1892 10.4698 21.2014 10.3069 21.2014 10.2888C21.2014 10.2797 21.292 10.2163 21.4098 10.1528C22.3614 9.62731 23.3218 8.95667 24.1737 8.24078C24.3821 8.06857 24.5724 7.90548 24.6086 7.87824C24.6176 7.86014 24.6358 7.85112 24.6449 7.86014Z" fill="url(#paint1_linear_496_7678)"/>
<path d="M10.0646 7.12622C10.0646 7.12622 9.86537 7.44351 10.0556 7.91474C10.1735 8.20462 10.5178 8.55797 10.9074 8.92051C10.9074 8.92051 14.9399 12.8533 15.4292 13.4152C17.6583 15.9886 18.628 18.5259 18.7186 22.0238C18.773 24.2711 18.347 26.2465 17.2868 28.5392C15.402 32.6532 11.4238 37.1932 5.28906 42.2315L6.18631 41.9325C6.76623 41.4974 7.55463 41.0354 9.40316 40.0205C13.6712 37.6824 18.4739 35.5348 24.3641 33.3238C32.8456 30.1339 46.7918 26.4004 54.7297 25.1863L55.5545 25.0594L55.4275 24.86C54.7027 23.7363 54.2042 23.0386 53.606 22.2956C51.8663 20.1389 49.7551 18.39 47.1723 16.9401C43.6201 14.9557 39.0257 13.4061 33.2082 12.2553C32.1118 12.0377 29.7013 11.6209 27.744 11.3219C23.5937 10.6787 20.9114 10.2345 17.9574 9.72709C16.8972 9.54577 15.3113 9.27399 14.2602 9.0475C13.7165 8.92958 12.6745 8.68496 11.8589 8.40407C11.2065 8.15021 10.264 7.89648 10.0646 7.12622ZM12.4027 9.39175C12.4116 9.3828 12.5566 9.437 12.747 9.50048C13.0913 9.61815 13.5353 9.75412 14.061 9.89921C14.4588 10.0086 14.8575 10.1143 15.2571 10.2163C15.8008 10.3522 16.2539 10.4791 16.2629 10.4791C16.3264 10.5426 17.2417 13.4693 17.5498 14.593C17.6674 15.019 17.7582 15.3814 17.7492 15.3814C17.7398 15.3906 17.6403 15.2364 17.5225 15.028C16.4623 13.1613 14.7859 11.2674 12.8466 9.74497C12.593 9.56391 12.4027 9.40077 12.4027 9.39175ZM16.861 10.6241C16.9064 10.6241 17.1057 10.6513 17.3503 10.7057C18.8908 11.05 21.6547 11.5756 23.4216 11.8746C23.7207 11.9199 23.9564 11.9744 23.9564 11.9924C23.9564 12.0106 23.8475 12.0739 23.7115 12.1465C23.4126 12.3005 22.2073 13.0163 21.8087 13.2882C20.8028 13.9588 19.8967 14.6837 19.2442 15.3361C18.9815 15.599 18.7548 15.8164 18.7548 15.8164C18.7548 15.8164 18.7006 15.6624 18.6551 15.472C18.3291 14.2124 17.6493 12.3457 17.0331 11.0318C16.9334 10.8235 16.8518 10.6331 16.8518 10.6151C16.8518 10.6332 16.8518 10.6241 16.861 10.6241ZM24.7084 12.1193C24.7628 12.1374 24.8534 12.4455 25.0346 13.1251C25.3699 14.4391 25.524 15.9071 25.4696 17.2754C25.4514 17.656 25.4334 18.0094 25.4152 18.0548L25.388 18.1453L24.9168 17.9913C23.9472 17.6832 22.3706 17.221 21.0204 16.8405C20.25 16.632 19.6249 16.4417 19.6249 16.4236C19.6249 16.3692 20.7486 15.2456 21.2288 14.8197C22.1439 14.0131 24.6268 12.0921 24.7084 12.1193ZM25.3337 12.2098C25.3609 12.1828 29.0853 12.826 30.7798 13.1523C32.0395 13.3969 33.8699 13.7775 33.9786 13.8229C34.0329 13.841 33.8426 13.9497 33.2354 14.2215C30.8432 15.3 29.067 16.2694 27.3002 17.4476C26.838 17.7557 26.4483 18.0094 26.4393 18.0094C26.4302 18.0094 26.4212 17.7466 26.4212 17.4294C26.4212 15.7078 26.0768 13.9679 25.4424 12.4999C25.379 12.3549 25.3246 12.219 25.3337 12.2098ZM34.9662 14.1129C34.9935 14.14 34.8756 14.8741 34.7669 15.309C34.4407 16.6592 33.5617 18.662 32.4835 20.5467C32.293 20.882 32.1209 21.1539 32.1027 21.1629C32.0847 21.1719 31.84 21.036 31.5591 20.8729C30.5079 20.2567 29.3118 19.6767 28.0069 19.133C27.6445 18.979 27.3273 18.852 27.3182 18.8341C27.2547 18.7796 30.1726 16.8495 31.7131 15.9252C32.9365 15.1822 34.93 14.0766 34.9662 14.1129ZM35.6549 14.2216C35.7365 14.2216 37.3858 14.6747 38.2465 14.9284C40.3761 15.5628 42.8227 16.4599 44.4176 17.1848L45.079 17.4839L44.617 17.5926C40.7205 18.4896 37.3858 19.5228 34.1688 20.8276C33.906 20.9364 33.6704 21.027 33.6524 21.027C33.6342 21.027 33.7248 20.8186 33.8426 20.5648C34.8123 18.5078 35.4375 16.3602 35.5914 14.5296C35.6007 14.3574 35.6277 14.2216 35.6549 14.2216ZM19.2352 17.9913C19.2623 17.9641 20.5219 18.2632 21.2016 18.4533C22.2346 18.7434 24.4274 19.4773 24.4274 19.5317C24.4274 19.5408 24.1829 19.7492 23.893 20.003C22.7059 20.9907 21.564 22.0327 20.1956 23.3558C19.7878 23.7455 19.4436 24.0627 19.4255 24.0627C19.4073 24.0627 19.3984 24.0082 19.4073 23.9357C19.6157 22.4133 19.5705 20.456 19.2805 18.4715C19.2532 18.2177 19.2261 18.0003 19.2352 17.9913ZM45.7045 18.0186C45.7224 18.0366 45.1244 18.979 44.7439 19.5136C44.2003 20.2929 43.4026 21.3261 41.5993 23.5915C40.648 24.7875 39.5786 26.1378 39.2253 26.5909C38.8627 27.0439 38.5638 27.4244 38.5546 27.4244C38.5456 27.4244 38.4279 27.2614 38.301 27.0621C37.286 25.5397 36.0717 24.2076 34.6309 23.0115C34.359 22.7849 34.0601 22.5402 33.9604 22.4677C33.8607 22.3952 33.7791 22.3227 33.7791 22.3137C33.7791 22.2866 35.3195 21.6249 36.4886 21.1538C38.5366 20.3201 41.3273 19.3234 43.4208 18.6799C44.5173 18.3356 45.6863 18.0003 45.7045 18.0186ZM46.4021 18.1997C46.4383 18.1907 46.6559 18.2994 46.9187 18.4533C49.1207 19.7129 51.2773 21.335 52.981 23.0024C53.4612 23.4737 54.6483 24.7061 54.6301 24.7151C54.6301 24.7151 54.2133 24.7513 53.724 24.7875C49.909 25.0776 45.0249 25.884 40.3308 27.0166C40.0137 27.0891 39.7329 27.1525 39.7146 27.1525C39.6967 27.1525 40.05 26.7992 40.4941 26.3733C43.2488 23.7183 44.5084 22.0418 45.9944 19.0514C46.2028 18.6075 46.3841 18.2269 46.4021 18.1997C46.3931 18.1997 46.3931 18.1997 46.4021 18.1997ZM26.2217 20.2659C26.3486 20.2929 27.5267 20.8459 28.4147 21.2898C29.2302 21.6974 30.4536 22.35 30.517 22.4043C30.526 22.4133 30.091 22.6399 29.5566 22.9027C27.8528 23.7545 26.394 24.5609 24.8715 25.4852C24.4366 25.7481 24.0741 25.9657 24.0651 25.9657C24.0288 25.9657 24.0379 25.9292 24.2826 25.4852C25.0982 23.9992 25.7505 22.2231 26.1222 20.4923C26.1583 20.3564 26.1946 20.2659 26.2217 20.2659ZM25.0436 20.4832C25.0709 20.5105 24.7628 21.625 24.5726 22.2321C24.2009 23.383 23.5757 24.8238 22.9687 25.9112C22.8235 26.1648 22.6061 26.5364 22.4883 26.7448L22.2618 27.1072L21.7543 26.618C21.1654 26.0471 20.685 25.6937 20.0689 25.3765C19.8241 25.2497 19.6339 25.1409 19.6339 25.1228C19.6339 25.0503 21.1834 23.6458 22.3705 22.6309C23.2223 21.8968 25.0165 20.4561 25.0436 20.4832ZM32.2479 23.4465L32.6919 23.7364C33.7066 24.398 34.9027 25.2769 35.8182 26.0471C36.3345 26.4729 37.3313 27.3702 37.5308 27.5876L37.6394 27.7055L36.9055 27.9139C32.7552 29.0646 29.5474 30.0886 25.8049 31.4661C25.388 31.6201 25.0346 31.7469 25.0074 31.7469C24.9532 31.7469 24.9077 31.7922 25.8412 30.9313C28.2335 28.7295 30.3538 26.3008 31.9306 23.9357L32.2479 23.4465ZM30.3539 23.9177C30.372 23.9357 29.1306 25.6846 28.3874 26.6724C27.4994 27.8504 25.9226 29.8258 24.8352 31.1125C24.3823 31.6472 23.9927 32.0912 23.9745 32.1003C23.9472 32.1093 23.9382 31.9735 23.9382 31.765C23.9382 30.6684 23.6573 29.4995 23.1679 28.5028C22.9595 28.086 22.9232 27.9863 22.9687 27.941C23.1408 27.7869 25.7777 26.2826 27.445 25.3856C28.5687 24.7875 30.3265 23.8995 30.3539 23.9177ZM18.8998 26.7268C18.9271 26.7268 19.1355 26.8354 19.3711 26.9624C19.951 27.2795 20.4676 27.6329 20.9297 28.0136C20.9477 28.0316 20.7122 28.222 20.4041 28.4484C19.5432 29.0646 18.2384 30.0524 17.4773 30.6596C16.6797 31.2939 16.6527 31.312 16.7432 31.1761C17.3414 30.2609 17.6403 29.7443 17.9576 29.0829C18.2384 28.4939 18.5193 27.7961 18.7186 27.189C18.7911 26.9262 18.8818 26.7268 18.8998 26.7268ZM21.9537 29.119C21.9989 29.1101 22.0534 29.1915 22.298 29.5541C22.8145 30.3242 23.2132 31.3573 23.3131 32.191L23.331 32.3723L22.0897 32.8526C19.8694 33.7134 17.8216 34.5653 16.435 35.1995C16.0455 35.3808 15.3658 35.7069 14.9219 35.9245C14.4778 36.1509 14.1153 36.3231 14.1153 36.3141C14.1153 36.3051 14.3962 36.0967 14.7405 35.8428C17.4501 33.8766 19.797 31.7198 21.555 29.5631C21.7453 29.3365 21.9175 29.1281 21.9355 29.1191L21.9537 29.119ZM20.5492 29.4634C20.5855 29.4997 19.5524 30.6686 18.8456 31.3844C17.0967 33.1697 15.3659 34.5653 13.2182 35.9245C12.9464 36.0967 12.7017 36.2507 12.6745 36.2689C12.611 36.3051 12.6926 36.2144 13.635 35.1904C14.2332 34.547 14.6862 34.0033 15.2027 33.3329C15.547 32.8889 15.6105 32.8254 16.109 32.4719C17.4411 31.5113 20.5129 29.4271 20.5492 29.4634Z" fill="url(#paint2_radial_496_7678)"/>
</g>
<defs>
<linearGradient id="paint0_linear_496_7678" x1="9.87941" y1="54.8249" x2="13.9844" y2="51.9364" gradientUnits="userSpaceOnUse">
<stop stop-color="#909CA9"/>
<stop offset="1" stop-color="#EDEDEE"/>
</linearGradient>
<linearGradient id="paint1_linear_496_7678" x1="9.97857" y1="6.53298" x2="13.4667" y2="6.53298" gradientUnits="userSpaceOnUse">
<stop stop-color="#939FAB"/>
<stop offset="1" stop-color="#DCDEE1"/>
</linearGradient>
<radialGradient id="paint2_radial_496_7678" cx="0" cy="0" r="1" gradientUnits="userSpaceOnUse" gradientTransform="translate(-14.7564 -23.7131) rotate(-167.862) scale(4.54898 4.44595)">
<stop stop-color="#EE352C"/>
<stop offset="1" stop-color="#A91D22"/>
</radialGradient>
<clipPath id="clip0_496_7678">
<rect width="60" height="60" fill="white"/>
</clipPath>
</defs>
</svg>
