<svg width="60" height="60" viewBox="0 0 60 60" fill="none" xmlns="http://www.w3.org/2000/svg">
<path fill-rule="evenodd" clip-rule="evenodd" d="M57.4543 35.7027C57.1171 34.6813 56.2337 33.9699 55.0912 33.7992C54.5525 33.7188 53.9356 33.7531 53.2056 33.9036C51.9331 34.1661 50.9891 34.2661 50.3001 34.2854C52.9006 29.8948 55.0152 24.8879 56.2326 20.1747C58.201 12.5537 57.1491 9.0818 55.9199 7.5114C52.6669 3.35474 47.9208 1.12174 42.195 1.05341C39.1406 1.01606 36.4592 1.61913 35.0604 2.05281C33.758 1.82301 32.3577 1.69471 30.8883 1.67098C28.134 1.62704 25.7004 2.22747 23.621 3.46151C22.4697 3.07221 20.6221 2.5234 18.4884 2.17321C13.4701 1.34934 9.42546 1.9913 6.46702 4.08128C2.88464 6.61175 1.22396 11.0083 1.53109 17.1489C1.62864 19.0984 2.71921 25.0303 4.43636 30.6558C5.42324 33.8893 6.47559 36.5745 7.56419 38.6374C9.108 41.5627 10.7599 43.2853 12.6144 43.904C13.6538 44.2502 15.5423 44.4928 17.5285 42.8385C17.7803 43.1434 18.1162 43.4464 18.562 43.7278C19.1282 44.0848 19.8204 44.3766 20.5118 44.5495C23.0034 45.1723 25.3372 45.0165 27.3284 44.1435C27.3407 44.4976 27.3501 44.8359 27.358 45.1281C27.3712 45.602 27.3844 46.0667 27.4017 46.5012C27.5197 49.4395 27.7196 51.7241 28.3119 53.3226C28.3444 53.4105 28.3882 53.5445 28.4343 53.6867C28.7298 54.5914 29.2239 56.106 30.481 57.2921C31.7827 58.5209 33.3573 58.8976 34.7994 58.8976C35.5226 58.8976 36.2127 58.8027 36.8179 58.6731C38.9754 58.2107 41.4256 57.5063 43.1982 54.9824C44.874 52.5965 45.6886 49.0029 45.8361 43.3407C45.8552 43.1805 45.8728 43.0276 45.8897 42.882L45.9248 42.5827L46.3196 42.6174L46.4213 42.6243C48.6187 42.7244 51.3056 42.2585 52.9558 41.4919C54.2597 40.8869 58.4381 38.6809 57.4543 35.7027Z" fill="black"/>
<path fill-rule="evenodd" clip-rule="evenodd" d="M53.6973 36.2817C47.1635 37.6296 46.7142 35.4174 46.7142 35.4174C53.6127 25.1811 56.4966 12.1876 54.0081 9.00744C47.2186 0.332707 35.4659 4.43533 35.2697 4.54166L35.2067 4.55309C33.9158 4.28506 32.4712 4.12556 30.8475 4.09897C27.8912 4.05064 25.6486 4.87406 23.9468 6.16456C23.9468 6.16456 2.9811 -2.4726 3.95634 17.0273C4.16373 21.1756 9.90222 48.416 16.7467 40.1882C19.2483 37.1794 21.6657 34.6355 21.6657 34.6355C22.8661 35.433 24.3034 35.8399 25.81 35.6938L25.9271 35.5945C25.8907 35.968 25.9074 36.3334 25.9739 36.7659C24.2106 38.736 24.7289 39.0818 21.2041 39.8074C17.6373 40.5425 19.7326 41.851 21.1006 42.1933C22.7591 42.6079 26.5959 43.1954 29.1883 39.5662L29.0851 39.9803C29.7758 40.5337 30.2609 43.5796 30.1796 46.341C30.0983 49.1021 30.044 50.9979 30.5882 52.4787C31.1329 53.9594 31.6753 57.2911 36.3091 56.2983C40.1809 55.4685 42.1873 53.3183 42.4666 49.7316C42.6645 47.1818 43.1129 47.5588 43.141 45.279L43.5007 44.1998C43.9153 40.7433 43.5666 39.6282 45.9519 40.1469L46.5319 40.1978C48.2872 40.2776 50.5853 39.9153 51.934 39.2885C54.8379 37.9409 56.5604 35.6905 53.6968 36.2817H53.6973Z" fill="#336791"/>
<path d="M25.1739 18.8827C24.5851 18.8007 24.0519 18.8765 23.7821 19.0809C23.6305 19.1958 23.5835 19.3289 23.5708 19.4205C23.537 19.6633 23.707 19.9317 23.8116 20.0701C24.1073 20.4621 24.5392 20.7314 24.9667 20.7908C25.0287 20.7995 25.0904 20.8035 25.1517 20.8035C25.8646 20.8035 26.513 20.2483 26.5701 19.8386C26.6415 19.3254 25.8965 18.9833 25.1739 18.8829M44.6795 18.8989C44.6232 18.4967 43.9075 18.382 43.2282 18.4765C42.5497 18.5709 41.892 18.8772 41.9469 19.2803C41.9908 19.5938 42.557 20.129 43.2271 20.129C43.2838 20.129 43.3409 20.1253 43.3984 20.1172C43.8457 20.0552 44.174 19.7711 44.33 19.6075C44.5672 19.3579 44.7048 19.0798 44.6795 18.8989Z" fill="white"/>
<path d="M55.8713 36.1288C55.6222 35.3755 54.8203 35.1331 53.488 35.4082C49.5324 36.2246 48.1158 35.6591 47.6507 35.3166C50.7253 30.6326 53.2547 24.9706 54.6192 19.688C55.2656 17.1857 55.6226 14.8617 55.6518 12.9675C55.6841 10.8885 55.33 9.36071 54.5997 8.42743C51.6553 4.66512 47.3339 2.64699 42.1029 2.59162C38.5067 2.5512 35.4683 3.47151 34.8792 3.73031C33.6388 3.42186 32.2866 3.23248 30.8144 3.20831C28.1148 3.16459 25.7812 3.81094 23.8491 5.12846C23.0099 4.81606 20.841 4.0715 18.1886 3.64419C13.6031 2.90601 9.95924 3.46536 7.3589 5.30752C4.25612 7.50581 2.8237 11.4353 3.10118 16.9866C3.19455 18.8543 4.25876 24.5998 5.93812 30.1021C8.14871 37.3442 10.5518 41.4439 13.08 42.2873C13.376 42.386 13.7172 42.455 14.0935 42.455C15.0158 42.455 16.1466 42.0393 17.323 40.6249C18.758 38.9035 20.2424 37.2239 21.7743 35.5881C22.7682 36.1216 23.8601 36.4195 24.9768 36.4493C24.979 36.4786 24.9819 36.5078 24.9845 36.5368C24.7923 36.766 24.6041 36.9986 24.4199 37.2343C23.6461 38.2166 23.4851 38.4211 20.9944 38.9339C20.2859 39.0802 18.4042 39.468 18.3765 40.787C18.3466 42.2283 20.6009 42.8335 20.8577 42.8977C21.7528 43.1218 22.6151 43.2323 23.4374 43.2323C25.4373 43.2323 27.1973 42.5749 28.6038 41.3031C28.5605 46.4409 28.7747 51.5036 29.3917 53.0461C29.897 54.3089 31.1312 57.395 35.03 57.3948C35.602 57.3948 36.2317 57.3282 36.9244 57.1797C40.9934 56.3075 42.7604 54.5091 43.4439 50.5442C43.8097 48.4252 44.4374 43.3654 44.7327 40.6513C45.3557 40.8457 46.1578 40.9347 47.025 40.9345C48.8335 40.9345 50.9204 40.5502 52.2292 39.9427C53.6994 39.2599 56.3524 37.5845 55.8713 36.1288ZM46.1813 17.7885C46.1679 18.5897 46.0576 19.3172 45.9408 20.0764C45.8149 20.893 45.6848 21.7373 45.6521 22.7622C45.6198 23.7596 45.7444 24.7966 45.8647 25.7995C46.1082 27.8251 46.358 29.9105 45.3911 31.9682C45.2305 31.6836 45.0874 31.3895 44.9627 31.0874C44.8425 30.7961 44.5815 30.3281 44.2201 29.6805C42.8143 27.1592 39.5221 21.2551 41.2074 18.8459C41.7094 18.1288 42.9834 17.3915 46.1813 17.7885ZM42.305 4.21409C46.992 4.31756 50.6996 6.07096 53.3246 9.4253C55.3379 11.9982 53.1209 23.7052 46.7029 33.8049C46.6383 33.7228 46.5735 33.641 46.5082 33.5594L46.427 33.458C48.0854 30.719 47.7612 28.009 47.4725 25.6064C47.3539 24.6204 47.2418 23.6891 47.2704 22.8143C47.2998 21.8872 47.4224 21.0919 47.541 20.3229C47.6867 19.3754 47.835 18.3949 47.7941 17.239C47.8247 17.1178 47.837 16.9745 47.8209 16.8045C47.7166 15.6961 46.4511 12.3789 43.8719 9.37652C42.461 7.73429 40.4035 5.89652 37.5943 4.65699C38.8026 4.40654 40.4549 4.173 42.305 4.21409ZM16.078 39.5897C14.7818 41.1482 13.8868 40.8494 13.5924 40.7514C11.6744 40.1117 9.44888 36.0578 7.48677 29.6295C5.78895 24.0672 4.7968 18.474 4.71814 16.9055C4.47033 11.9452 5.67273 8.48829 8.29218 6.63053C12.5552 3.6075 19.5639 5.41693 22.3802 6.3346C22.3398 6.37459 22.2976 6.41193 22.2577 6.45258C17.6361 11.1198 17.7457 19.0939 17.7572 19.5814C17.7567 19.7695 17.7725 20.0358 17.7941 20.402C17.8736 21.7433 18.0217 24.2395 17.6262 27.0663C17.2589 29.6932 18.0687 32.2643 19.8476 34.1206C20.0301 34.3107 20.222 34.4917 20.4225 34.6628C19.6307 35.5108 17.9098 37.3861 16.078 39.5897ZM21.0166 33.0003C19.5828 31.5042 18.9317 29.4232 19.2298 27.2904C19.6472 24.3043 19.4932 21.7035 19.4104 20.3062C19.3987 20.1107 19.3884 19.9393 19.3825 19.8042C20.0576 19.2055 23.1863 17.5293 25.4176 18.0405C26.4356 18.2736 27.0561 18.967 27.314 20.1595C28.6489 26.3336 27.4906 28.9069 26.56 30.9749C26.3682 31.4009 26.1869 31.8036 26.0323 32.2202L25.9123 32.5423C25.6087 33.3564 25.3262 34.1135 25.1511 34.8324C23.6268 34.828 22.1441 34.1768 21.0166 33.0001V33.0003ZM21.2506 41.3268C20.8055 41.2157 20.4052 41.0226 20.1703 40.8624C20.3665 40.7701 20.7156 40.6445 21.3211 40.5197C24.2512 39.9166 24.7038 39.4908 25.692 38.2361C25.9185 37.9483 26.1753 37.6223 26.531 37.2251L26.5314 37.2247C27.0611 36.6315 27.3034 36.7321 27.7428 36.9144C28.099 37.0616 28.4459 37.5081 28.5865 37.9993C28.653 38.2313 28.7277 38.6716 28.4832 39.0143C26.4189 41.9046 23.4108 41.8675 21.2506 41.3268ZM36.5852 55.5966C33.0006 56.3647 31.7314 54.5357 30.895 52.4448C30.3552 51.095 30.0898 45.0081 30.2781 38.286C30.2805 38.1966 30.2678 38.1103 30.2432 38.029C30.2212 37.8684 30.1877 37.7097 30.143 37.554C29.8631 36.5759 29.181 35.7577 28.3626 35.4185C28.0374 35.2839 27.4407 35.0367 26.7237 35.2201C26.8766 34.59 27.1417 33.8784 27.4293 33.108L27.5499 32.7839C27.6857 32.4186 27.8562 32.04 28.0363 31.6393C29.0103 29.4757 30.344 26.5122 28.8965 19.8174C28.3542 17.3098 26.5435 16.0852 23.7986 16.3697C22.1531 16.54 20.6475 17.2039 19.8966 17.5846C19.7351 17.6664 19.5875 17.7454 19.4495 17.8223C19.6591 15.2958 20.4509 10.5741 23.4128 7.58665C25.2778 5.70605 27.7615 4.77717 30.7876 4.82726C36.7502 4.9248 40.5738 7.98475 42.7317 10.5348C44.5912 12.732 45.598 14.9454 45.9999 16.1392C42.9779 15.8319 40.9227 16.4284 39.8809 17.9179C37.6143 21.158 41.1208 27.4466 42.8061 30.469C43.1152 31.0228 43.382 31.5015 43.4659 31.705C44.0147 33.035 44.7252 33.923 45.2439 34.5712C45.4029 34.7698 45.5572 34.9624 45.6745 35.1307C44.7592 35.3946 43.1152 36.0042 43.2651 39.0517C43.1442 40.5807 42.285 47.7398 41.8485 50.2692C41.2722 53.6108 40.0426 54.8553 36.5852 55.5968V55.5966ZM51.5474 38.4743C50.6115 38.9086 49.0453 39.2344 47.5575 39.3045C45.9142 39.3814 45.0776 39.1204 44.8807 38.9598C44.7885 37.0608 45.4952 36.8624 46.2433 36.6523C46.3608 36.6194 46.4755 36.5871 46.5862 36.5484C46.655 36.6045 46.7304 36.66 46.813 36.7145C48.1338 37.5863 50.4896 37.6803 53.8156 36.9938L53.8521 36.9865C53.4034 37.4059 52.6358 37.9688 51.5474 38.4743Z" fill="white"/>
</svg>
