<svg width="60" height="60" viewBox="0 0 60 60" fill="none" xmlns="http://www.w3.org/2000/svg">
<g clip-path="url(#clip0_496_7663)">
<path fill-rule="evenodd" clip-rule="evenodd" d="M31.2763 60.2342L29.6816 59.6892C29.6816 59.6892 29.8764 51.5594 26.9585 50.976C25.0139 48.7195 27.2704 -44.7185 34.2722 50.6645C34.2722 50.6645 31.8601 51.8701 31.4323 53.9323C30.9652 55.9552 31.2763 60.2342 31.2763 60.2342Z" fill="white"/>
<path fill-rule="evenodd" clip-rule="evenodd" d="M31.2763 60.2342L29.6816 59.6892C29.6816 59.6892 29.8764 51.5594 26.9585 50.976C25.0139 48.7195 27.2704 -44.7185 34.2722 50.6645C34.2722 50.6645 31.8601 51.8701 31.4323 53.9323C30.9652 55.9552 31.2763 60.2342 31.2763 60.2342Z" fill="#A6A385"/>
<path fill-rule="evenodd" clip-rule="evenodd" d="M32.1325 52.3764C32.1325 52.3764 46.098 43.1958 42.8298 24.0955C39.6793 10.2088 32.2492 5.65742 31.4323 3.90677C30.5378 2.66197 29.6816 0.483887 29.6816 0.483887L30.2655 39.1111C30.2655 39.1503 29.0595 50.9369 32.1329 52.3769" fill="white"/>
<path fill-rule="evenodd" clip-rule="evenodd" d="M32.1325 52.3764C32.1325 52.3764 46.098 43.1958 42.8298 24.0955C39.6793 10.2088 32.2492 5.65742 31.4323 3.90677C30.5378 2.66197 29.6816 0.483887 29.6816 0.483887L30.2655 39.1111C30.2655 39.1503 29.0595 50.9369 32.1329 52.3769" fill="#499D4A"/>
<path fill-rule="evenodd" clip-rule="evenodd" d="M28.865 52.8818C28.865 52.8818 15.7552 43.9347 16.5333 28.1806C17.2723 12.426 26.5305 4.6849 28.3199 3.28455C29.4872 2.03975 29.526 1.57268 29.6039 0.327881C30.4209 2.07853 30.2653 26.5079 30.3817 29.3862C30.7316 40.4726 29.7595 50.7817 28.865 52.8818Z" fill="white"/>
<path fill-rule="evenodd" clip-rule="evenodd" d="M28.865 52.8818C28.865 52.8818 15.7552 43.9347 16.5333 28.1806C17.2723 12.426 26.5305 4.6849 28.3199 3.28455C29.4872 2.03975 29.526 1.57268 29.6039 0.327881C30.4209 2.07853 30.2653 26.5079 30.3817 29.3862C30.7316 40.4726 29.7595 50.7817 28.865 52.8818Z" fill="#58AA50"/>
</g>
<defs>
<clipPath id="clip0_496_7663">
<rect width="60" height="60" fill="white"/>
</clipPath>
</defs>
</svg>
