<svg width="60" height="60" viewBox="0 0 60 60" fill="none" xmlns="http://www.w3.org/2000/svg">
<g clip-path="url(#clip0_496_7656)">
<path d="M21.8242 45.0099C21.8242 45.0099 19.5599 46.3274 23.4373 46.7725C28.136 47.309 30.536 47.2318 35.7122 46.2526C35.7122 46.2526 37.075 47.1059 38.9773 47.8441C27.3702 52.8177 12.7086 47.5564 21.8242 45.0099ZM20.4053 38.5195C20.4053 38.5195 17.8652 40.3997 21.746 40.801C26.7653 41.3194 30.7273 41.3617 37.5875 40.0417C37.5875 40.0417 38.5347 41.0031 40.0253 41.5284C25.9937 45.6325 10.3661 41.8515 20.4053 38.5195Z" fill="#3174B9"/>
<path fill-rule="evenodd" clip-rule="evenodd" d="M32.3608 27.5086C35.2221 30.8022 31.6108 33.7643 31.6108 33.7643C31.6108 33.7643 38.8728 30.0163 35.5374 25.3211C32.4233 20.9445 30.0346 18.7702 42.9646 11.2722C42.9641 11.2717 22.6679 16.3393 32.3608 27.5086Z" fill="#CA3132"/>
<path d="M47.7116 49.811C47.7116 49.811 49.3877 51.193 45.8654 52.2617C39.1675 54.2904 17.9831 54.9022 12.0987 52.3423C9.98492 51.4217 13.9508 50.1455 15.1985 49.876C16.4998 49.5946 17.2425 49.6458 17.2425 49.6458C14.8902 47.9894 2.03788 52.8991 10.7153 54.3076C34.3769 58.1442 53.8484 52.5804 47.7116 49.811ZM22.9134 31.7943C22.9134 31.7943 12.139 34.3541 19.0985 35.2846C22.038 35.6776 27.8934 35.5871 33.352 35.1292C37.8116 34.755 42.288 33.9543 42.288 33.9543C42.288 33.9543 40.7167 34.6286 39.5782 35.4046C28.6351 38.2832 7.49837 36.9425 13.5839 34.0001C18.7292 31.511 22.9134 31.7943 22.9134 31.7943ZM42.2433 42.5978C53.3664 36.8191 48.2236 31.2646 44.633 32.0132C43.7551 32.1966 43.3612 32.355 43.3612 32.355C43.3612 32.355 43.6887 31.8425 44.3113 31.6222C51.4135 29.1263 56.8744 38.9855 42.0215 42.8899C42.021 42.8899 42.1921 42.7355 42.2433 42.5978Z" fill="#3174B9"/>
<path fill-rule="evenodd" clip-rule="evenodd" d="M35.5376 -0.838379C35.5376 -0.838379 41.6964 5.32441 29.6945 14.798C20.0694 22.4003 27.5 26.7336 29.6915 31.6865C24.0722 26.6175 19.9504 22.1544 22.7153 18.0016C26.7746 11.9057 38.0227 8.94949 35.5376 -0.838379Z" fill="#CA3132"/>
<path fill-rule="evenodd" clip-rule="evenodd" d="M24.0078 58.2616C34.6829 58.9442 51.0791 57.8824 51.4681 52.8301C51.4681 52.8301 50.7215 54.7452 42.6447 56.2643C33.532 57.9797 22.2909 57.7801 15.626 56.6799C15.626 56.6799 16.9917 57.8101 24.0078 58.2616Z" fill="#3174B9"/>
</g>
<defs>
<clipPath id="clip0_496_7656">
<rect width="60" height="60" fill="white"/>
</clipPath>
</defs>
</svg>
