<svg width="60" height="60" viewBox="0 0 60 60" fill="none" xmlns="http://www.w3.org/2000/svg">
<path fill-rule="evenodd" clip-rule="evenodd" d="M52.9262 17.2877C54.9614 21.0012 56.1195 25.2629 56.1195 29.7961C56.1195 39.4153 50.9066 47.8133 43.1551 52.3328L51.1186 29.3076C52.6061 25.5879 53.1014 22.6136 53.1014 19.9689C53.1014 19.009 53.0382 18.1181 52.9262 17.2877ZM33.64 17.5715C35.2097 17.489 36.6241 17.3239 36.6241 17.3239C38.029 17.1576 37.8633 15.0929 36.4577 15.1751C36.4577 15.1751 32.2345 15.5066 29.5081 15.5066C26.9463 15.5066 22.6414 15.1751 22.6414 15.1751C21.2353 15.0929 21.0705 17.2407 22.476 17.3239C22.476 17.3239 23.806 17.489 25.2109 17.5715L29.2728 28.7018L23.566 45.8143L14.0718 17.5715C15.6427 17.489 17.0556 17.3239 17.0556 17.3239C18.4596 17.1576 18.2938 15.0929 16.8889 15.1751C16.8889 15.1751 12.6666 15.5066 9.93995 15.5066C9.45078 15.5066 8.87415 15.4946 8.26193 15.4749C12.924 8.39706 20.9373 3.72298 30.0467 3.72298C36.8343 3.72298 43.0149 6.31826 47.6533 10.5685C47.541 10.5618 47.4315 10.5477 47.3158 10.5477C44.7546 10.5477 42.9372 12.7787 42.9372 15.1751C42.9372 17.3239 44.177 19.1419 45.4984 21.2903C46.49 23.027 47.6481 25.2577 47.6481 28.4811C47.6481 30.7125 46.7898 33.3022 45.6641 36.9099L43.0627 45.5992L33.64 17.5715ZM30.0467 55.8714C27.4873 55.8714 25.0173 55.4961 22.6807 54.809L30.5046 32.0768L38.5184 54.0338C38.5712 54.1627 38.636 54.2814 38.705 54.3931C35.995 55.3472 33.083 55.8714 30.0467 55.8714ZM3.97359 29.7961C3.97359 26.016 4.78437 22.4276 6.2313 19.1851L18.6688 53.2617C9.97033 49.0359 3.97359 40.1165 3.97359 29.7961ZM30.0467 0.796875C14.0561 0.796875 1.04688 13.8058 1.04688 29.7961C1.04688 45.787 14.0561 58.7975 30.0467 58.7975C46.037 58.7975 59.0469 45.787 59.0469 29.7961C59.0469 13.8058 46.037 0.796875 30.0467 0.796875Z" fill="#3E3D3A"/>
</svg>
