<svg width="60" height="60" viewBox="0 0 60 60" fill="none" xmlns="http://www.w3.org/2000/svg">
<g clip-path="url(#clip0_496_7650)">
<path d="M29.9526 44.7948C46.5212 44.7948 59.9526 37.8031 59.9526 29.1784C59.9526 20.5537 46.5212 13.562 29.9526 13.562C13.3841 13.562 -0.0473633 20.5537 -0.0473633 29.1784C-0.0473633 37.8031 13.3841 44.7948 29.9526 44.7948Z" fill="#8993BE"/>
<path d="M8.37744 38.4251L11.6653 21.7812H19.2677C22.5553 21.9867 24.1992 23.6304 24.1992 26.5073C24.1992 31.4388 20.2952 34.3155 16.8018 34.11H13.1036L12.2817 38.4251H8.37744ZM13.9253 31.0279H13.9256H16.3912C18.2404 30.8224 19.8843 30.206 20.0896 26.7126C20.0896 25.4798 19.0624 24.8634 17.624 24.8634H14.9528L13.9253 31.0279ZM23.4353 34.11L26.7229 17.4663H30.6271L29.8052 21.7812H33.5036C36.7914 21.9867 38.0242 23.6304 37.6134 25.6854L36.175 34.11H32.0655L33.5038 26.5073C33.7092 25.4798 33.7092 24.8634 32.271 24.8634H29.1888L27.3396 34.11H23.4353ZM35.9118 38.4251L39.1994 21.7812H46.8021C50.0899 21.9867 51.7338 23.6304 51.7338 26.5073C51.7338 31.4388 47.8296 34.3155 44.3364 34.11H40.6378L39.8158 38.4251H35.9118ZM41.4595 31.0279H41.4597H43.9256C45.7748 30.8224 47.4187 30.206 47.624 26.7126C47.624 25.4798 46.5967 24.8634 45.1584 24.8634H42.487L41.4595 31.0279Z" fill="#232531"/>
</g>
<defs>
<clipPath id="clip0_496_7650">
<rect width="60" height="60" fill="white"/>
</clipPath>
</defs>
</svg>
