<svg width="60" height="60" viewBox="0 0 60 60" fill="none" xmlns="http://www.w3.org/2000/svg">
<path fill-rule="evenodd" clip-rule="evenodd" d="M39.2025 36.4465L34.2119 31.4475L29.3394 36.3298L24.3474 41.3289L23.3706 42.3098C21.7544 43.9274 19.1207 43.9317 17.4932 42.3014C15.8798 40.6852 15.8728 38.0711 17.4735 36.4465L12.4773 31.4475V31.446C9.59201 34.351 8.61947 38.4436 9.56109 42.1426C6.57741 42.8467 4.35547 45.531 4.35547 48.7367C4.35547 52.4779 7.38552 55.5136 11.1239 55.5136C14.3409 55.5094 17.0322 53.2692 17.7223 50.2574C21.4115 51.1751 25.4787 50.1928 28.3626 47.306L29.3408 46.3251L34.3328 41.3218L39.2025 36.4465Z" fill="#1565C0"/>
<path fill-rule="evenodd" clip-rule="evenodd" d="M54.8937 11.7002C54.8951 7.95761 51.8651 4.92334 48.1253 4.92334C44.7031 4.92334 41.8754 7.46572 41.4187 10.7656C37.6114 9.64831 33.3264 10.5942 30.3216 13.6017L29.3462 14.5743L24.35 19.5775L19.4648 24.4613L19.4662 24.4627L24.4611 29.4617L29.3434 24.5779L34.3368 19.5803L35.3122 18.6036C36.9411 16.9775 39.5621 16.9775 41.177 18.5965C42.7932 20.2099 42.796 22.8324 41.1882 24.4557L41.1924 24.4599L46.1844 29.4575C49.1568 26.4668 50.1083 22.2169 49.0177 18.4223C52.3331 17.9852 54.8937 15.1434 54.8937 11.7002Z" fill="#FF9800"/>
<path fill-rule="evenodd" clip-rule="evenodd" d="M49.1375 42.033C50.0327 38.355 49.0419 34.3075 46.1706 31.4348L45.1911 30.451L40.1977 25.452L35.3322 20.571L35.3307 20.5739L30.3373 25.5715L30.3359 25.5729L35.2043 30.4525L40.1977 35.4543L41.1744 36.431C42.8019 38.0627 42.7991 40.6866 41.1829 42.307C39.5695 43.9219 36.954 43.9247 35.3322 42.3183L30.3402 47.3215L30.3387 47.3229C33.3786 50.3516 37.7185 51.2763 41.5525 50.0986C42.1765 53.1919 44.9114 55.5179 48.1846 55.5179C51.9202 55.5179 54.953 52.4864 54.953 48.7424C54.9558 45.3244 52.4275 42.4954 49.1375 42.033Z" fill="#F44336"/>
<path fill-rule="evenodd" clip-rule="evenodd" d="M23.3537 40.3353L28.3457 35.3363L28.3471 35.3349L23.4661 30.4525L18.4713 25.4535L17.4931 24.4767C15.8769 22.8591 15.8741 20.2198 17.5001 18.5937C19.1178 16.9775 21.7346 16.9733 23.3565 18.5783L28.3513 13.5778C25.5053 10.7375 21.5154 9.74248 17.8698 10.5998C17.347 7.38139 14.5544 4.92615 11.1899 4.92334C7.4515 4.92334 4.42285 7.95761 4.42285 11.7002C4.42285 14.9298 6.67572 17.6282 9.69312 18.3126C8.54912 22.1396 9.48231 26.4556 12.5011 29.4772L13.4751 30.4525L18.4713 35.4516L23.3537 40.3353Z" fill="#4CAF50"/>
</svg>
