<svg width="60" height="60" viewBox="0 0 60 60" fill="none" xmlns="http://www.w3.org/2000/svg">
<path d="M30.046 0.732422C14.0457 0.732422 1.07422 13.7039 1.07422 29.7042C1.07422 45.7059 14.0457 58.6761 30.046 58.6761C46.0464 58.6761 59.0179 45.7046 59.0179 29.7042C59.0179 13.7039 46.0464 0.732422 30.046 0.732422ZM30.046 51.1184C17.4499 51.1184 8.63191 41.4049 8.63191 29.7042C8.63191 18.0049 18.3454 8.29012 30.046 8.29012C41.7454 8.29012 51.5128 17.8403 51.5128 29.541C51.5128 41.2403 42.6422 51.1184 30.046 51.1184Z" fill="#C62828"/>
<path fill-rule="evenodd" clip-rule="evenodd" d="M11.6094 36.2888C11.6094 36.2888 13.8547 48.0132 27.4122 49.4578C40.9697 50.9025 47.1657 40.2395 47.1657 40.2395L43.215 37.6057C43.215 37.6057 39.2643 45.5071 28.7291 45.5071C18.6364 45.5071 14.4341 41.5051 11.6094 36.2888Z" fill="#C62828"/>
<path fill-rule="evenodd" clip-rule="evenodd" d="M28.7291 44.1903C37.9474 44.1903 43.215 36.2889 43.215 36.2889L48.4826 38.9227C51.1164 34.972 49.7995 27.0706 49.7995 27.0706H43.215C43.215 27.0706 44.2264 37.3226 32.6798 41.5565C27.5267 43.4462 20.5985 43.9611 15.5601 38.9227C15.5601 38.9227 18.1939 44.1903 28.7291 44.1903Z" fill="#C62828"/>
<path fill-rule="evenodd" clip-rule="evenodd" d="M41.8981 25.7535H49.7995C49.5045 20.6531 43.2149 15.2183 43.2149 15.2183L36.6304 20.4859C36.6304 20.4859 41.898 25.7535 37.9473 33.6549C36.4948 36.5613 33.9966 38.9225 28.729 40.2394C26.0386 40.9268 22.1445 40.2394 22.1445 40.2394C22.508 40.3829 27.5267 42.2437 32.6797 40.2394C42.4801 36.4283 41.8981 25.7535 41.8981 25.7535Z" fill="#C62828"/>
</svg>
