<svg width="60" height="60" viewBox="0 0 60 60" fill="none" xmlns="http://www.w3.org/2000/svg">
<path d="M29.841 2.34399C15.659 2.34399 16.5445 8.49415 16.5445 8.49415L16.5603 14.8659H30.0939V16.7789H11.1849C11.1849 16.7789 2.10986 15.7497 2.10986 30.0592C2.10986 44.3691 10.0308 43.8616 10.0308 43.8616H14.758V37.2213C14.758 37.2213 14.5031 29.3003 22.5525 29.3003H35.9754C35.9754 29.3003 43.5168 29.4222 43.5168 22.0118V9.75918C43.5168 9.75918 44.6622 2.34399 29.841 2.34399ZM22.3786 6.62887C23.0245 6.62829 23.6441 6.88461 24.1008 7.34133C24.5575 7.79805 24.8139 8.41766 24.8133 9.06356C24.8139 9.70945 24.5575 10.3291 24.1008 10.7858C23.6441 11.2425 23.0245 11.4988 22.3786 11.4982C21.7327 11.4988 21.1131 11.2425 20.6564 10.7858C20.1996 10.3291 19.9433 9.70945 19.9439 9.06356C19.9433 8.41766 20.1996 7.79805 20.6564 7.34133C21.1131 6.88461 21.7327 6.62829 22.3786 6.62887Z" fill="url(#paint0_linear_496_7634)"/>
<path d="M30.2439 57.9183C44.4259 57.9183 43.5404 51.7682 43.5404 51.7682L43.5247 45.3966H29.9908V43.4837H48.8998C48.8998 43.4837 57.9748 44.5129 57.9748 30.2029C57.9748 15.8932 50.0539 16.4007 50.0539 16.4007H45.3267V23.0408C45.3267 23.0408 45.5816 30.9618 37.5322 30.9618H24.1093C24.1093 30.9618 16.5679 30.8399 16.5679 38.2505V50.5034C16.5679 50.5034 15.4227 57.9183 30.2437 57.9183H30.2439ZM37.7064 53.6339C37.0605 53.6345 36.4408 53.3781 35.9841 52.9214C35.5274 52.4647 35.2711 51.8451 35.2717 51.1992C35.271 50.5533 35.5273 49.9336 35.984 49.4768C36.4408 49.0201 37.0604 48.7637 37.7064 48.7643C38.3522 48.7637 38.9719 49.02 39.4286 49.4768C39.8853 49.9335 40.1416 50.5531 40.141 51.199C40.1416 51.8449 39.8853 52.4645 39.4286 52.9212C38.9719 53.3779 38.3522 53.6342 37.7064 53.6337V53.6339Z" fill="url(#paint1_linear_496_7634)"/>
<defs>
<linearGradient id="paint0_linear_496_7634" x1="7.47845" y1="7.34257" x2="35.1634" y2="34.7513" gradientUnits="userSpaceOnUse">
<stop stop-color="#387EB8"/>
<stop offset="1" stop-color="#366994"/>
</linearGradient>
<linearGradient id="paint1_linear_496_7634" x1="24.4716" y1="24.9428" x2="54.202" y2="53.0479" gradientUnits="userSpaceOnUse">
<stop stop-color="#FFE052"/>
<stop offset="1" stop-color="#FFC331"/>
</linearGradient>
</defs>
</svg>
