<svg width="15" height="14" viewBox="0 0 15 14" fill="none" xmlns="http://www.w3.org/2000/svg">
<g clip-path="url(#clip0_415_10197)">
<path d="M11.4022 5.078C11.3433 5.03381 11.2716 5.00994 11.198 5.00994H8.59088L11.1707 0.510522C11.2647 0.347729 11.209 0.139596 11.0462 0.045596C10.995 0.0160814 10.9371 0.000350984 10.878 0H7.25672C7.12504 0.000989135 7.00571 0.0778864 6.95041 0.197412L3.49249 7.44682C3.41355 7.6174 3.48783 7.81969 3.65841 7.89863C3.70244 7.91902 3.7503 7.92974 3.7988 7.93009H6.39905L4.52713 13.5799C4.49439 13.7377 4.57681 13.8967 4.72454 13.9611C4.8716 14.0382 5.0528 13.9979 5.15338 13.8658L11.4702 5.55447C11.583 5.40409 11.5525 5.19076 11.4022 5.078ZM5.84769 11.8509L7.22268 7.67142C7.28283 7.49334 7.18723 7.3002 7.00915 7.24006C6.97485 7.22847 6.93896 7.22244 6.90274 7.22216H4.36376L7.46773 0.646639H10.2994L7.71278 5.18007C7.61878 5.34286 7.67456 5.551 7.83735 5.645C7.8885 5.67451 7.94644 5.69024 8.00547 5.69059H10.5172L5.84769 11.8509Z" fill="#161616"/>
</g>
<defs>
<clipPath id="clip0_415_10197">
<rect width="14" height="14" fill="white" transform="translate(0.5)"/>
</clipPath>
</defs>
</svg>
