<svg width="15" height="15" viewBox="0 0 15 15" fill="none" xmlns="http://www.w3.org/2000/svg">
<g clip-path="url(#clip0_415_10201)">
<path d="M9.08322 6.19952L6.97971 8.18633L5.97018 7.14774C5.85827 7.03252 5.67398 7.02989 5.55887 7.14181C5.44365 7.25384 5.44103 7.43801 5.55295 7.55323L6.76374 8.79617C6.87623 8.90934 7.05801 8.91321 7.17517 8.80483L9.48883 6.62257C9.54502 6.56958 9.57784 6.49641 9.58 6.41925C9.58217 6.3421 9.55356 6.26722 9.50045 6.21115C9.38785 6.0941 9.2022 6.08898 9.08322 6.19952Z" fill="#161616"/>
<path d="M13.5217 5.89607L13.6181 4.16592C13.6248 4.04979 13.5616 3.94072 13.4576 3.88875L11.9171 3.10978L11.1381 1.56928C11.0851 1.46613 10.9767 1.40334 10.8609 1.40881L9.12783 1.50226L7.68363 0.548123C7.5863 0.483959 7.46014 0.483959 7.3627 0.548123L5.91849 1.50226L4.18846 1.40596C4.07221 1.39912 3.96326 1.46226 3.91129 1.56643L3.13221 3.10693L1.59182 3.8859C1.48856 3.93878 1.42588 4.04717 1.43135 4.16307L1.52754 5.89322L0.573514 7.33742C0.50935 7.43475 0.50935 7.56091 0.573514 7.65835L1.52469 9.1054L1.42839 10.8356C1.42166 10.9517 1.48469 11.0608 1.58885 11.1127L3.12936 11.8917L3.90833 13.4322C3.96121 13.5355 4.06959 13.5981 4.1855 13.5927L5.91565 13.4964L7.35985 14.4504C7.45661 14.5166 7.58402 14.5166 7.68078 14.4504L9.12498 13.4964L10.8551 13.5927C10.9713 13.5994 11.0802 13.5362 11.1323 13.4322L11.9113 11.8917L13.4518 11.1127C13.5549 11.0597 13.6177 10.9515 13.6122 10.8356L13.5159 9.1054L14.47 7.6612C14.5341 7.56387 14.5341 7.4376 14.47 7.34027L13.5217 5.89607ZM12.979 8.86619C12.9435 8.91838 12.927 8.98118 12.9324 9.0442L13.0228 10.6809L11.567 11.4161C11.5115 11.4439 11.4665 11.489 11.4386 11.5445L10.7033 13.0004L9.06663 12.91C9.00395 12.9077 8.94206 12.9239 8.88861 12.9566L7.52316 13.8582L6.15783 12.9566C6.11042 12.9246 6.05457 12.9073 5.99736 12.907H5.98277L4.34597 12.9975L3.61076 11.5416C3.58295 11.4861 3.53793 11.4411 3.48232 11.4133L2.02353 10.6809L2.11402 9.0442C2.1163 8.98152 2.1 8.91964 2.06729 8.86619L1.1658 7.50074L2.06729 6.13529C2.10296 6.0832 2.11949 6.02029 2.11402 5.95738L2.02353 4.32057L3.47947 3.58537C3.53497 3.55756 3.57999 3.51254 3.6078 3.45704L4.343 2.0011L5.97981 2.09159C6.04238 2.09376 6.10426 2.07757 6.15783 2.04486L7.52316 1.14338L8.88861 2.04486C8.94081 2.08054 9.00372 2.09706 9.06663 2.09159L10.7033 2.0011L11.4386 3.45704C11.4665 3.51254 11.5115 3.55756 11.567 3.58537L13.0228 4.32057L12.9324 5.95738C12.9301 6.01995 12.9464 6.08184 12.979 6.13529L13.8806 7.50074L12.979 8.86619Z" fill="#161616"/>
</g>
<defs>
<clipPath id="clip0_415_10201">
<rect width="14" height="14" fill="white" transform="translate(0.5 0.5)"/>
</clipPath>
</defs>
</svg>
