<svg width="283" height="155" viewBox="0 0 283 155" fill="none" xmlns="http://www.w3.org/2000/svg">
<mask id="path-1-inside-1_366_10002" fill="white">
<path fill-rule="evenodd" clip-rule="evenodd" d="M20.5 0C9.45431 0 0.5 8.95431 0.5 20V124C0.5 135.046 9.4543 144 20.5 144H139.149L145.5 155L151.851 144H262.5C273.546 144 282.5 135.046 282.5 124V20C282.5 8.95431 273.546 0 262.5 0H20.5Z"/>
</mask>
<path fill-rule="evenodd" clip-rule="evenodd" d="M20.5 0C9.45431 0 0.5 8.95431 0.5 20V124C0.5 135.046 9.4543 144 20.5 144H139.149L145.5 155L151.851 144H262.5C273.546 144 282.5 135.046 282.5 124V20C282.5 8.95431 273.546 0 262.5 0H20.5Z" fill="white"/>
<path d="M139.149 144L140.015 143.5L139.726 143H139.149V144ZM145.5 155L144.634 155.5L145.5 157L146.366 155.5L145.5 155ZM151.851 144V143H151.274L150.985 143.5L151.851 144ZM1.5 20C1.5 9.50659 10.0066 1 20.5 1V-1C8.90202 -1 -0.5 8.40202 -0.5 20H1.5ZM1.5 124V20H-0.5V124H1.5ZM20.5 143C10.0066 143 1.5 134.493 1.5 124H-0.5C-0.5 135.598 8.90201 145 20.5 145V143ZM139.149 143H20.5V145H139.149V143ZM138.283 144.5L144.634 155.5L146.366 154.5L140.015 143.5L138.283 144.5ZM146.366 155.5L152.717 144.5L150.985 143.5L144.634 154.5L146.366 155.5ZM262.5 143H151.851V145H262.5V143ZM281.5 124C281.5 134.493 272.993 143 262.5 143V145C274.098 145 283.5 135.598 283.5 124H281.5ZM281.5 20V124H283.5V20H281.5ZM262.5 1C272.993 1 281.5 9.50659 281.5 20H283.5C283.5 8.40202 274.098 -1 262.5 -1V1ZM20.5 1H262.5V-1H20.5V1Z" fill="url(#paint0_linear_366_10002)" mask="url(#path-1-inside-1_366_10002)"/>
<defs>
<linearGradient id="paint0_linear_366_10002" x1="0.5" y1="77.4995" x2="282.5" y2="77.4995" gradientUnits="userSpaceOnUse">
<stop offset="0.43" stop-color="#CCD1F6"/>
<stop offset="0.58" stop-color="#B9BEE4"/>
</linearGradient>
</defs>
</svg>
