<svg width="14" height="14" viewBox="0 0 14 14" fill="none" xmlns="http://www.w3.org/2000/svg">
<path d="M6.70964 7.72921C6.04627 7.72921 5.39775 7.53251 4.84616 7.16396C4.29457 6.79535 3.86466 6.27152 3.61079 5.65863C3.35692 5.04573 3.2905 4.37132 3.41992 3.72068C3.54934 3.07003 3.8688 2.47238 4.33788 2.00329C4.80697 1.5342 5.40463 1.21475 6.05525 1.08533C6.7059 0.955903 7.38035 1.02233 7.9932 1.2762C8.60611 1.53007 9.12994 1.95998 9.49855 2.51157C9.8671 3.06316 10.0638 3.71165 10.0638 4.37504C10.0623 5.26415 9.70838 6.11641 9.07966 6.74507C8.451 7.37378 7.59875 7.72769 6.70964 7.72921ZM6.70964 1.89587C6.21929 1.89587 5.73998 2.04128 5.33229 2.31369C4.92459 2.5861 4.60683 2.9733 4.41918 3.42631C4.23154 3.87931 4.18245 4.37779 4.27811 4.85871C4.37376 5.33962 4.60989 5.78136 4.9566 6.12807C5.30332 6.47481 5.74507 6.71094 6.22599 6.80655C6.70689 6.90222 7.20535 6.85316 7.65837 6.6655C8.11139 6.47784 8.4986 6.1601 8.77096 5.7524C9.04338 5.3447 9.1888 4.86537 9.1888 4.37504C9.18729 3.718 8.92554 3.08831 8.46098 2.62371C7.99635 2.15911 7.3667 1.89741 6.70964 1.89587Z" fill="#161616"/>
<path d="M1.45898 12.3959C1.34342 12.3944 1.23302 12.3478 1.15129 12.2661C1.06957 12.1844 1.023 12.074 1.02148 11.9584C1.02456 10.6057 1.56331 9.30921 2.51986 8.35266C3.47641 7.39611 4.77289 6.85734 6.12565 6.85425H7.29232C7.40834 6.85425 7.51964 6.90033 7.60166 6.98241C7.68373 7.06442 7.72982 7.17572 7.72982 7.29175C7.72982 7.40777 7.68373 7.51907 7.60166 7.60109C7.51964 7.68316 7.40834 7.72925 7.29232 7.72925H6.12565C5.00448 7.73076 3.92967 8.17684 3.13688 8.96965C2.34409 9.76246 1.89803 10.8372 1.89648 11.9584C1.89497 12.074 1.84839 12.1844 1.76668 12.2661C1.68495 12.3478 1.57455 12.3944 1.45898 12.3959Z" fill="#161616"/>
<path d="M8.45872 12.9792C8.34637 12.97 8.24184 12.9178 8.16706 12.8334L5.83372 10.5C5.79474 10.4184 5.78202 10.3267 5.79732 10.2375C5.81262 10.1484 5.85519 10.0661 5.91918 10.0021C5.98312 9.93818 6.06537 9.8956 6.15456 9.88031C6.24369 9.86503 6.33545 9.87775 6.41706 9.91671L8.41789 11.9175L12.2154 7.58338C12.2537 7.54051 12.3001 7.50556 12.3519 7.4806C12.4037 7.45557 12.4599 7.44105 12.5173 7.43784C12.5747 7.43457 12.6322 7.44268 12.6865 7.46164C12.7408 7.4806 12.7908 7.51006 12.8337 7.54838C12.8767 7.58671 12.9115 7.63308 12.9366 7.68488C12.9615 7.73668 12.9761 7.79286 12.9793 7.85031C12.9825 7.90771 12.9744 7.96523 12.9555 8.01948C12.9365 8.07379 12.907 8.12384 12.8687 8.16671L8.78539 12.8334C8.74724 12.8788 8.70005 12.9157 8.64685 12.9419C8.59359 12.968 8.53549 12.9827 8.47622 12.985L8.45872 12.9792Z" fill="#161616"/>
</svg>
