<svg width="14" height="14" viewBox="0 0 14 14" fill="none" xmlns="http://www.w3.org/2000/svg">
<path d="M6.89938 6.74385C7.82586 6.74385 8.62801 6.41156 9.28362 5.75596C9.93901 5.10045 10.2714 4.29841 10.2714 3.37182C10.2714 2.44555 9.93912 1.6434 9.28351 0.987684C8.6279 0.33229 7.82575 0 6.89938 0C5.97279 0 5.17074 0.33229 4.51524 0.987791C3.85974 1.64329 3.52734 2.44545 3.52734 3.37182C3.52734 4.29841 3.85974 5.10056 4.51524 5.75606C5.17096 6.41146 5.97311 6.74385 6.89938 6.74385ZM5.09544 1.56788C5.59842 1.06491 6.18844 0.820418 6.89938 0.820418C7.61021 0.820418 8.20034 1.06491 8.70342 1.56788C9.20639 2.07096 9.45099 2.6611 9.45099 3.37182C9.45099 4.08276 9.20639 4.67278 8.70342 5.17586C8.20034 5.67894 7.61021 5.92344 6.89938 5.92344C6.18865 5.92344 5.59863 5.67884 5.09544 5.17586C4.59236 4.67289 4.34776 4.08276 4.34776 3.37182C4.34776 2.6611 4.59236 2.07096 5.09544 1.56788Z" fill="#161616"/>
<path d="M12.8004 10.7653C12.7815 10.4925 12.7432 10.195 12.6869 9.88072C12.6301 9.56413 12.557 9.26484 12.4694 8.9913C12.3788 8.70857 12.2559 8.42936 12.1036 8.1618C11.9459 7.88409 11.7605 7.64227 11.5524 7.44328C11.3348 7.23511 11.0684 7.06773 10.7604 6.94565C10.4534 6.8242 10.1132 6.76268 9.74931 6.76268C9.6064 6.76268 9.46818 6.82132 9.20126 6.9951C9.03699 7.10223 8.84483 7.22613 8.63036 7.36317C8.44696 7.48002 8.19852 7.58951 7.89165 7.68863C7.59226 7.78551 7.28827 7.83464 6.98813 7.83464C6.68821 7.83464 6.38422 7.78551 6.08462 7.68863C5.77807 7.58961 5.52952 7.48013 5.34644 7.36328C5.134 7.22752 4.94173 7.10362 4.775 6.99499C4.50829 6.82121 4.37008 6.76257 4.22717 6.76257C3.86315 6.76257 3.52307 6.8242 3.2162 6.94575C2.90837 7.06763 2.64187 7.235 2.42409 7.44339C2.21602 7.64248 2.03059 7.8842 1.87294 8.1618C1.72095 8.42936 1.5979 8.70846 1.50732 8.99141C1.41985 9.26495 1.34668 9.56413 1.28986 9.88072C1.23346 10.1945 1.19533 10.4922 1.17642 10.7656C1.15784 11.033 1.14844 11.3112 1.14844 11.5924C1.14844 12.3232 1.38075 12.9148 1.83887 13.3511C2.29132 13.7817 2.88989 14 3.61802 14H10.3591C11.087 14 11.6856 13.7817 12.1381 13.3511C12.5964 12.9151 12.8287 12.3233 12.8287 11.5923C12.8286 11.3102 12.8191 11.0319 12.8004 10.7653ZM11.5725 12.7567C11.2735 13.0413 10.8766 13.1796 10.359 13.1796H3.61802C3.10031 13.1796 2.7034 13.0413 2.40454 12.7568C2.11134 12.4777 1.96886 12.0967 1.96886 11.5924C1.96886 11.33 1.97751 11.071 1.99481 10.8224C2.01169 10.5784 2.04619 10.3104 2.09735 10.0257C2.14787 9.74442 2.21217 9.48049 2.28865 9.24156C2.36203 9.01245 2.46211 8.78558 2.58622 8.56704C2.70468 8.35876 2.84097 8.18007 2.99136 8.03608C3.13203 7.9014 3.30934 7.79117 3.51826 7.70849C3.71148 7.63202 3.92863 7.59015 4.16436 7.58385C4.19309 7.59912 4.24426 7.62828 4.32714 7.68233C4.4958 7.79223 4.69019 7.91763 4.9051 8.05488C5.14735 8.20933 5.45945 8.34883 5.83233 8.4692C6.21354 8.59246 6.60233 8.65506 6.98824 8.65506C7.37415 8.65506 7.76305 8.59246 8.14404 8.46931C8.51724 8.34872 8.82924 8.20933 9.07181 8.05467C9.29173 7.91411 9.48068 7.79234 9.64934 7.68233C9.73222 7.62839 9.78339 7.59912 9.81212 7.58385C10.048 7.59015 10.2651 7.63202 10.4584 7.70849C10.6672 7.79117 10.8446 7.9015 10.9852 8.03608C11.1356 8.17996 11.2719 8.35865 11.3904 8.56715C11.5146 8.78558 11.6148 9.01255 11.688 9.24145C11.7646 9.48071 11.829 9.74453 11.8795 10.0256C11.9305 10.3108 11.9651 10.5789 11.982 10.8225V10.8227C11.9994 11.0704 12.0082 11.3293 12.0083 11.5924C12.0082 12.0968 11.8657 12.4777 11.5725 12.7567Z" fill="#161616"/>
</svg>
