<svg width="28" height="28" viewBox="0 0 28 28" fill="none" xmlns="http://www.w3.org/2000/svg">
<g clip-path="url(#clip0_439_4125)">
<path d="M1 24.9999V17.6224L2.34773 17.1225C2.55849 17.0443 2.78109 17.0029 3.00582 17H7.00001L7.00003 17V26.9999L7.00001 26.9999H3C1.89543 26.9999 1 26.1045 1 24.9999ZM27 13.9999C27 13.99 27 13.9801 26.9999 13.9702L27 14.0011V25C27 26.1046 26.1046 27 25 27H21L21 27V17L21 17H24.9941C25.2189 17.0029 25.4414 17.0443 25.6522 17.1225L27 17.6224V16.1849V13.9999Z" stroke="#4247E5" stroke-width="2"/>
</g>
<defs>
<clipPath id="clip0_439_4125">
<rect width="28" height="28" fill="white"/>
</clipPath>
</defs>
</svg>
