<svg width="72" height="72" viewBox="0 0 72 72" fill="none" xmlns="http://www.w3.org/2000/svg">
<circle cx="36" cy="36" r="36" fill="#4247E5" fill-opacity="0.1"/>
<g clip-path="url(#clip0_300_41224)">
<path d="M50.2577 41.4231L40.8223 25.0805C38.6952 21.3961 33.2954 21.4125 31.1776 25.0805L21.7422 41.4231C19.6206 45.0978 22.3087 49.6766 26.497 49.6766C28.3785 49.6766 30.2375 48.7118 31.2698 46.9238L35.9999 38.7309L40.7301 46.9238C41.7608 48.709 43.6185 49.6766 45.5029 49.6766C49.6884 49.6766 52.3805 45.0998 50.2577 41.4231V41.4231ZM29.6 45.9598C28.7672 47.4024 27.0741 48.0554 25.5152 47.6072C23.2765 46.9567 22.2593 44.3835 23.4119 42.3871C24.3991 40.6772 26.5819 40.092 28.2923 41.0794C30.0023 42.0667 30.5874 44.2496 29.6 45.9598V45.9598ZM31.6905 42.339C30.7924 39.7882 28.1636 38.2681 25.5025 38.7664L30.8296 29.5396C31.0669 30.2653 30.9002 29.8978 34.8868 36.8029L31.6905 42.339ZM47.2802 47.2675C45.5705 48.2548 43.3873 47.67 42.3999 45.9598L32.9645 29.6172C31.1641 26.4987 34.6349 22.951 37.7277 24.7369C38.8851 25.4051 38.5666 25.0297 48.588 42.3871C49.5729 44.0932 48.9863 46.2825 47.2802 47.2675Z" fill="#4247E5"/>
</g>
<defs>
<clipPath id="clip0_300_41224">
<rect width="30" height="30" fill="white" transform="translate(21 21)"/>
</clipPath>
</defs>
</svg>
