<svg width="72" height="72" viewBox="0 0 72 72" fill="none" xmlns="http://www.w3.org/2000/svg">
<circle cx="36" cy="36" r="36" fill="#4247E5" fill-opacity="0.1"/>
<g clip-path="url(#clip0_300_41269)">
<path d="M51.0625 35.0625H49.8163C49.5941 31.7164 48.1854 28.6012 45.7922 26.2078C43.3988 23.8145 40.2836 22.4059 36.9375 22.1837V20.9375C36.9375 20.4197 36.5178 20 36 20C35.4822 20 35.0625 20.4197 35.0625 20.9375V22.1837C31.7164 22.4059 28.6012 23.8145 26.2078 26.2079C23.8145 28.6012 22.4059 31.7164 22.1837 35.0625H20.9375C20.4197 35.0625 20 35.4822 20 36C20 36.5178 20.4197 36.9375 20.9375 36.9375H22.1837C22.4059 40.2836 23.8146 43.3988 26.2078 45.7921C28.6012 48.1855 31.7164 49.5941 35.0625 49.8163V51.0625C35.0625 51.5803 35.4822 52 36 52C36.5178 52 36.9375 51.5803 36.9375 51.0625V49.8163C40.2836 49.5941 43.3988 48.1855 45.7922 45.7921C48.1855 43.3988 49.5941 40.2835 49.8163 36.9375H51.0625C51.5803 36.9375 52 36.5178 52 36C52 35.4822 51.5803 35.0625 51.0625 35.0625V35.0625ZM36.9375 47.9366V46.7589C36.9375 46.2411 36.5178 45.8214 36 45.8214C35.4822 45.8214 35.0625 46.2411 35.0625 46.7589V47.9366C29.2064 47.4809 24.5191 42.7936 24.0634 36.9375H25.2411C25.7589 36.9375 26.1786 36.5178 26.1786 36C26.1786 35.4822 25.7589 35.0625 25.2411 35.0625H24.0634C24.5191 29.2064 29.2064 24.5191 35.0625 24.0634V25.2411C35.0625 25.7588 35.4822 26.1786 36 26.1786C36.5178 26.1786 36.9375 25.7588 36.9375 25.2411V24.0634C42.7936 24.5191 47.4809 29.2064 47.9366 35.0625H46.7589C46.2411 35.0625 45.8214 35.4822 45.8214 36C45.8214 36.5178 46.2411 36.9375 46.7589 36.9375H47.9366C47.4809 42.7936 42.7936 47.4809 36.9375 47.9366Z" fill="#4247E5"/>
</g>
<defs>
<clipPath id="clip0_300_41269">
<rect width="32" height="32" fill="white" transform="translate(20 20)"/>
</clipPath>
</defs>
</svg>
