<svg width="72" height="72" viewBox="0 0 72 72" fill="none" xmlns="http://www.w3.org/2000/svg">
<circle cx="36" cy="36" r="36" fill="#4247E5" fill-opacity="0.1"/>
<path d="M48.1938 32.0386V29.4714C48.1938 28.1326 47.1047 27.0435 45.7659 27.0435H44.4824L39.8641 22.4251C39.8631 22.4241 39.862 22.4232 39.861 22.4222C39.7176 22.2799 39.5183 22.1914 39.3038 22.1881C39.2996 22.188 39.2955 22.1875 39.2913 22.1875H27.8528C27.4058 22.1875 27.0435 22.5499 27.0435 22.9968V27.0435H26.2341C24.8953 27.0435 23.8062 28.1326 23.8062 29.4714V32.0386C22.8642 32.3727 22.1875 33.2723 22.1875 34.3274V44.1472C22.1875 45.486 23.2767 46.5752 24.6155 46.5752H27.0435V49.0032C27.0435 49.4501 27.4058 49.8125 27.8528 49.8125H44.1472C44.5942 49.8125 44.9565 49.4501 44.9565 49.0032V46.5752H47.3845C48.7233 46.5752 49.8125 45.486 49.8125 44.1472V34.3274C49.8125 33.2723 49.1358 32.3727 48.1938 32.0386ZM44.9565 28.6621H45.7659C46.2121 28.6621 46.5752 29.0252 46.5752 29.4714V31.8994H44.9565V28.6621ZM40.1006 24.9507L42.1933 27.0435H40.1006V24.9507ZM28.6621 23.8062H38.4819V27.8528C38.4819 28.2997 38.8443 28.6621 39.2913 28.6621H43.3379V31.8994H28.6621V23.8062ZM25.4248 29.4714C25.4248 29.0252 25.7879 28.6621 26.2341 28.6621H27.0435V31.8994H25.4248V29.4714ZM43.3379 48.1938H28.6621V40.1006H43.3379V48.1938ZM48.1938 44.1472C48.1938 44.5935 47.8308 44.9565 47.3845 44.9565H44.9565V40.1006H45.7659C46.2128 40.1006 46.5752 39.7382 46.5752 39.2913C46.5752 38.8443 46.2128 38.4819 45.7659 38.4819C45.1051 38.4819 27.1637 38.4819 26.2341 38.4819C25.7872 38.4819 25.4248 38.8443 25.4248 39.2913C25.4248 39.7382 25.7872 40.1006 26.2341 40.1006H27.0435V44.9565H24.6155C24.1692 44.9565 23.8062 44.5935 23.8062 44.1472V34.3274C23.8062 33.8811 24.1692 33.5181 24.6155 33.5181C25.5943 33.5181 46.2693 33.5181 47.3845 33.5181C47.8308 33.5181 48.1938 33.8811 48.1938 34.3274V44.1472Z" fill="#4247E5"/>
</svg>
