<svg width="72" height="72" viewBox="0 0 72 72" fill="none" xmlns="http://www.w3.org/2000/svg">
<circle cx="36" cy="36" r="36" fill="#4247E5" fill-opacity="0.1"/>
<path d="M23 46.9999V39.6224L24.3477 39.1225C24.5585 39.0443 24.7811 39.0029 25.0058 39H29L29 39V48.9999L29 48.9999H25C23.8954 48.9999 23 48.1045 23 46.9999ZM49 35.9999C49 35.99 49 35.9801 48.9999 35.9702L49 36.0011V47C49 48.1046 48.1046 49 47 49H43L43 49V39L43 39H46.9941C47.2189 39.0029 47.4414 39.0443 47.6522 39.1225L49 39.6224V38.1849V35.9999Z" stroke="#4247E5" stroke-width="2"/>
</svg>
