<svg width="72" height="72" viewBox="0 0 72 72" fill="none" xmlns="http://www.w3.org/2000/svg">
<circle cx="36" cy="36" r="36" fill="#4247E5" fill-opacity="0.1"/>
<path d="M35.9999 20C29.0438 20 23.3845 25.6592 23.3845 32.6154C23.3845 36.9506 25.5828 40.7817 28.923 43.0536V51.0769C28.923 51.3901 29.0818 51.682 29.3448 51.852C29.6078 52.0221 29.9391 52.0471 30.2248 51.9186L35.9999 49.3199L41.775 51.9187C41.8959 51.9731 42.025 52 42.1536 52C42.3289 52 42.5033 51.9501 42.655 51.8521C42.918 51.682 43.0768 51.3901 43.0768 51.0769V43.0536C46.417 40.7818 48.6153 36.9506 48.6153 32.6154C48.6153 25.6592 42.956 20 35.9999 20ZM41.2306 49.6494L36.3786 47.466C36.2582 47.4117 36.129 47.3846 35.9999 47.3846C35.8708 47.3846 35.7416 47.4117 35.6211 47.4659L30.7691 49.6493V44.0971C31.2331 44.3086 31.7093 44.4904 32.1945 44.6437C32.222 44.6524 32.2494 44.6614 32.277 44.6699C32.339 44.6889 32.4011 44.7073 32.4633 44.7254C32.5093 44.7389 32.5554 44.7522 32.6016 44.7652C32.6518 44.7792 32.7021 44.7928 32.7525 44.8062C32.8113 44.8219 32.8701 44.8372 32.9292 44.8521C32.971 44.8625 33.0128 44.8727 33.0546 44.8827C33.1226 44.899 33.1907 44.9147 33.2591 44.9299C33.2945 44.9378 33.33 44.9456 33.3655 44.9532C33.4404 44.9692 33.5155 44.9843 33.591 44.999C33.6216 45.0049 33.6523 45.011 33.6831 45.0168C33.763 45.0316 33.8431 45.0456 33.9235 45.0589C33.9511 45.0636 33.9786 45.0683 34.0063 45.0727C34.0892 45.0859 34.1725 45.0981 34.2561 45.1097C34.282 45.1133 34.3078 45.1171 34.3336 45.1206C34.4182 45.1317 34.5031 45.1418 34.5881 45.1513C34.6135 45.1541 34.6388 45.1573 34.6641 45.1601C34.749 45.1691 34.8341 45.1768 34.9194 45.184C34.9453 45.1862 34.971 45.1889 34.997 45.1909C35.081 45.1975 35.1655 45.2028 35.25 45.2078C35.2771 45.2094 35.3041 45.2116 35.3314 45.213C35.4168 45.2175 35.5026 45.2206 35.5885 45.2233C35.6143 45.2242 35.64 45.2256 35.6659 45.2262C35.7769 45.2291 35.8883 45.2307 36 45.2307C36.1117 45.2307 36.2231 45.2291 36.3341 45.2262C36.36 45.2256 36.3856 45.2242 36.4115 45.2233C36.4974 45.2206 36.5831 45.2174 36.6686 45.213C36.6957 45.2116 36.7228 45.2094 36.75 45.2078C36.8345 45.2028 36.919 45.1976 37.003 45.1909C37.029 45.1889 37.0547 45.1862 37.0806 45.184C37.1659 45.1768 37.251 45.169 37.3358 45.1601C37.3612 45.1574 37.3865 45.1542 37.4118 45.1513C37.4969 45.1417 37.5818 45.1317 37.6663 45.1206C37.6923 45.1171 37.718 45.1133 37.7439 45.1097C37.8274 45.0981 37.9107 45.0859 37.9937 45.0727C38.0213 45.0682 38.0488 45.0635 38.0765 45.0589C38.1568 45.0456 38.237 45.0316 38.3169 45.0168C38.3476 45.011 38.3783 45.005 38.409 44.999C38.4844 44.9844 38.5595 44.9691 38.6345 44.9532C38.67 44.9456 38.7055 44.9378 38.7409 44.9299C38.8093 44.9147 38.8774 44.899 38.9453 44.8827C38.9871 44.8727 39.029 44.8624 39.0708 44.8521C39.1298 44.8372 39.1886 44.8219 39.2475 44.8062C39.2978 44.7927 39.3482 44.7793 39.3984 44.7652C39.4446 44.7522 39.4907 44.7389 39.5367 44.7254C39.5989 44.7072 39.6611 44.6889 39.723 44.6699C39.7506 44.6613 39.778 44.6524 39.8055 44.6437C40.2907 44.4904 40.7669 44.3087 41.2308 44.0972V49.6494H41.2306ZM39.5142 42.7952C39.4774 42.8079 39.4406 42.8207 39.4036 42.833C39.3475 42.8518 39.2911 42.8702 39.2346 42.888C39.1688 42.9087 39.1028 42.9286 39.0366 42.948C38.9899 42.9617 38.9431 42.9754 38.8962 42.9886C38.8086 43.013 38.7208 43.0364 38.6326 43.0586C38.5997 43.0669 38.5667 43.0748 38.5338 43.0828C38.4475 43.1036 38.3608 43.1235 38.2739 43.1423C38.252 43.147 38.2303 43.152 38.2085 43.1565C38.0963 43.1799 37.9838 43.2018 37.8709 43.2216C37.8594 43.2236 37.8478 43.2253 37.8363 43.2274C37.7345 43.2449 37.6325 43.2609 37.5302 43.2754C37.5071 43.2788 37.4841 43.282 37.4609 43.2852C37.3518 43.3 37.2426 43.3136 37.133 43.3251C37.1288 43.3256 37.1247 43.3261 37.1206 43.3266C37.0058 43.3385 36.8906 43.3483 36.7753 43.3565C36.7503 43.3583 36.7252 43.3596 36.7001 43.3613C36.6105 43.3671 36.5208 43.3717 36.4308 43.3753C36.4003 43.3766 36.3697 43.3778 36.3391 43.3788C36.2262 43.3823 36.1131 43.3846 35.9999 43.3846C35.8866 43.3846 35.7736 43.3823 35.6606 43.3787C35.63 43.3777 35.5995 43.3764 35.569 43.3752C35.479 43.3716 35.3893 43.367 35.2996 43.3612C35.2746 43.3596 35.2495 43.3582 35.2245 43.3564C35.1091 43.3481 34.994 43.3383 34.8792 43.3264C34.8751 43.326 34.871 43.3254 34.8668 43.325C34.7572 43.3135 34.648 43.2999 34.5389 43.2851C34.5158 43.2819 34.4928 43.2787 34.4696 43.2753C34.3673 43.2607 34.2653 43.2448 34.1635 43.2272C34.152 43.2253 34.1405 43.2235 34.1289 43.2214C34.016 43.2016 33.9034 43.1798 33.7913 43.1564C33.7695 43.1518 33.7478 43.1467 33.7259 43.1421C33.639 43.1234 33.5523 43.1035 33.466 43.0826C33.433 43.0746 33.4 43.0667 33.3672 43.0584C33.279 43.0363 33.1911 43.0128 33.1036 42.9884C33.0566 42.9753 33.0099 42.9616 32.9632 42.9479C32.8971 42.9284 32.831 42.9086 32.7651 42.8879C32.7086 42.87 32.6523 42.8516 32.5961 42.8329C32.5591 42.8206 32.5223 42.8078 32.4855 42.7951C28.2678 41.3351 25.2306 37.3234 25.2306 32.6154C25.2306 26.6772 30.0617 21.8461 35.9999 21.8461C41.9381 21.8461 46.7691 26.6772 46.7691 32.6154C46.7691 37.3234 43.732 41.3351 39.5142 42.7952Z" fill="#4247E5"/>
</svg>
