<svg width="72" height="72" viewBox="0 0 72 72" fill="none" xmlns="http://www.w3.org/2000/svg">
<circle cx="36" cy="36" r="36" fill="#4247E5" fill-opacity="0.1"/>
<path d="M40.9884 38.4724L37.0844 35.5444V29.5801C37.0844 28.9804 36.5997 28.4956 36 28.4956C35.4003 28.4956 34.9155 28.9804 34.9155 29.5801V36.0867C34.9155 36.4282 35.076 36.7504 35.3493 36.9542L39.687 40.2075C39.8822 40.3539 40.11 40.4244 40.3366 40.4244C40.6673 40.4244 40.9927 40.2758 41.2052 39.9896C41.5654 39.5113 41.4677 38.8313 40.9884 38.4724Z" fill="#4247E5"/>
<path d="M36 22C28.2799 22 22 28.2799 22 36C22 43.7201 28.2799 50 36 50C43.7201 50 50 43.7201 50 36C50 28.2799 43.7201 22 36 22ZM36 47.8311C29.4771 47.8311 24.1689 42.5229 24.1689 36C24.1689 29.4771 29.4771 24.1689 36 24.1689C42.5239 24.1689 47.8311 29.4771 47.8311 36C47.8311 42.5229 42.5229 47.8311 36 47.8311Z" fill="#4247E5"/>
</svg>
