<svg width="72" height="72" viewBox="0 0 72 72" fill="none" xmlns="http://www.w3.org/2000/svg">
<circle cx="36" cy="36" r="36" fill="#4247E5" fill-opacity="0.1"/>
<g clip-path="url(#clip0_300_41303)">
<path d="M46.4237 28.8027L39.8614 22.2404C39.7082 22.0871 39.4991 22 39.2812 22H27.7969C26.4399 22 25.3359 23.104 25.3359 24.4609V47.5391C25.3359 48.896 26.4399 50 27.7969 50H44.2031C45.5601 50 46.6641 48.896 46.6641 47.5391V29.3828C46.6641 29.1591 46.5702 28.9491 46.4237 28.8027ZM40.1016 24.8007L43.8634 28.5625H40.9219C40.4696 28.5625 40.1016 28.1945 40.1016 27.7422V24.8007ZM44.2031 48.3594H27.7969C27.3446 48.3594 26.9766 47.9914 26.9766 47.5391V24.4609C26.9766 24.0086 27.3446 23.6406 27.7969 23.6406H38.4609V27.7422C38.4609 29.0991 39.5649 30.2031 40.9219 30.2031H45.0234V47.5391C45.0234 47.9914 44.6554 48.3594 44.2031 48.3594Z" fill="#4247E5"/>
</g>
<defs>
<clipPath id="clip0_300_41303">
<rect width="28" height="28" fill="white" transform="translate(22 22)"/>
</clipPath>
</defs>
</svg>
