<svg width="48" height="48" viewBox="0 0 48 48" fill="none" xmlns="http://www.w3.org/2000/svg">
<g clip-path="url(#clip0_249_31407)">
<path d="M24 0V48C37.2553 48 48.0004 37.2549 48.0004 24.0004C48.0004 10.7447 37.2552 0 24 0Z" fill="#214391"/>
<path d="M23.9996 0C10.7451 0 0 10.7447 0 24.0004C0 37.2549 10.7451 48 23.9996 48C37.2549 48 37.2549 0 23.9996 0Z" fill="#2B479D"/>
<path d="M23.9568 4.16232L24.5422 5.96385H26.437L24.9042 7.07722L25.4896 8.87875L23.9568 7.76468L22.4243 8.87875L23.0099 7.07722L21.4766 5.96385H23.3713L23.9568 4.16232Z" fill="#F8D12E"/>
<path d="M23.9568 38.1715L24.5422 39.9738H26.437L24.9042 41.0872L25.4896 42.8886L23.9568 41.7754L22.4243 42.8886L23.0099 41.0872L21.4766 39.9738H23.3713L23.9568 38.1715Z" fill="#F8D12E"/>
<path d="M33.2924 7.17651L33.8775 8.97845H35.7722L34.2393 10.0925L34.8249 11.8941L33.2924 10.78L31.7596 11.8941L32.345 10.0925L30.8125 8.97845H32.7073L33.2924 7.17651Z" fill="#F8D12E"/>
<path d="M39.66 13.4595L40.2451 15.261H42.1398L40.6069 16.3748L41.1924 18.1763L39.66 17.063L38.1271 18.1763L38.7126 16.3748L37.1797 15.261H39.074L39.66 13.4595Z" fill="#F8D12E"/>
<path d="M39.8123 29.3337L40.3974 31.136H42.2921L40.7593 32.2493L41.3451 34.0504L39.8123 32.9375L38.2794 34.0504L38.8649 32.2493L37.332 31.136H39.2268L39.8123 29.3337Z" fill="#F8D12E"/>
<path d="M8.48768 13.4595L9.07279 15.261H10.9671L9.43465 16.3748L10.0198 18.1763L8.48768 17.063L6.95489 18.1763L7.5403 16.3748L6.00781 15.261H7.90257L8.48768 13.4595Z" fill="#F8D12E"/>
<path d="M41.1364 21.0301L41.7215 22.8317H43.6163L42.0835 23.945L42.6689 25.747L41.1364 24.634L39.6036 25.747L40.1894 23.945L38.6562 22.8317H40.5506L41.1364 21.0301Z" fill="#F8D12E"/>
<path d="M7.03877 21.0301L7.62387 22.8317H9.51823L7.98544 23.945L8.57125 25.747L7.03877 24.634L5.50587 25.747L6.09139 23.945L4.55859 22.8317H6.45325L7.03877 21.0301Z" fill="#F8D12E"/>
<path d="M8.28095 29.3337L8.86606 31.136H10.7604L9.22803 32.2493L9.81303 34.0504L8.28095 32.9375L6.74816 34.0504L7.33357 32.2493L5.80078 31.136H7.69554L8.28095 29.3337Z" fill="#F8D12E"/>
<path d="M33.5661 35.8846L34.1512 37.6861H36.046L34.5128 38.8002L35.0986 40.6017L33.5661 39.4884L32.0329 40.6017L32.6188 38.8002L31.0859 37.6861H32.9807L33.5661 35.8846Z" fill="#F8D12E"/>
<path d="M14.9252 7.17651L15.5102 8.97845H17.4049L15.8722 10.0925L16.458 11.8941L14.9252 10.78L13.3927 11.8941L13.9781 10.0925L12.4453 8.97845H14.3397L14.9252 7.17651Z" fill="#F8D12E"/>
<path d="M14.2338 35.7694L14.8192 37.5717H16.7139L15.1812 38.6847L15.7666 40.4862L14.2338 39.3736L12.7013 40.4862L13.2867 38.6847L11.7539 37.5717H13.6483L14.2338 35.7694Z" fill="#F8D12E"/>
</g>
<defs>
<clipPath id="clip0_249_31407">
<rect width="48" height="48" fill="white"/>
</clipPath>
</defs>
</svg>
