<svg width="48" height="48" viewBox="0 0 48 48" fill="none" xmlns="http://www.w3.org/2000/svg">
<g clip-path="url(#clip0_249_31399)">
<path d="M11.25 24C11.25 21.6218 11.9052 19.394 13.0435 17.4865V9.39514H4.95216C1.74075 13.5659 0 18.6489 0 24C0 29.351 1.74075 34.4341 4.95216 38.6048H13.0435V30.5135C11.9052 28.6059 11.25 26.3781 11.25 24Z" fill="#FBBD00"/>
<path d="M24 36.75L18.375 42.375L24 48C29.3512 48 34.4341 46.2592 38.6048 43.0478V34.9651H30.5221C28.5979 36.1075 26.3607 36.75 24 36.75Z" fill="#0F9D58"/>
<path d="M13.0445 30.5135L4.95312 38.6048C5.58894 39.4306 6.28128 40.2214 7.03044 40.9706C11.5634 45.5035 17.5903 48 24.001 48V36.75C19.3487 36.75 15.2712 34.245 13.0445 30.5135Z" fill="#31AA52"/>
<path d="M48 24C48 22.5398 47.8678 21.077 47.607 19.6521L47.396 18.4991H24V29.7491H35.3861C34.2804 31.9486 32.5804 33.7431 30.522 34.9652L38.6047 43.0479C39.4305 42.4121 40.2213 41.7198 40.9705 40.9706C45.5035 36.4375 48 30.4106 48 24Z" fill="#3C79E6"/>
<path d="M33.0157 14.9843L34.01 15.9787L41.9649 8.02378L40.9706 7.02947C36.4376 2.49647 30.4107 0 24 0L18.375 5.625L24 11.25C27.4056 11.25 30.6074 12.5762 33.0157 14.9843Z" fill="#CF2D48"/>
<path d="M24.0011 11.25V0C17.5904 0 11.5635 2.49647 7.03044 7.02938C6.28128 7.77853 5.58894 8.56931 4.95312 9.39516L13.0445 17.4865C15.2713 13.755 19.3488 11.25 24.0011 11.25Z" fill="#EB4132"/>
</g>
<defs>
<clipPath id="clip0_249_31399">
<rect width="48" height="48" fill="white"/>
</clipPath>
</defs>
</svg>
