<svg width="25" height="24" viewBox="0 0 25 24" fill="none" xmlns="http://www.w3.org/2000/svg">
<g clip-path="url(#clip0_64_16177)">
<path d="M19.2528 20.7315H15.3737H14.3292H14.1036V15.5284H15.8053C16.2368 15.5284 16.4918 15.038 16.2368 14.6849L12.9266 10.1046C12.7158 9.81038 12.2793 9.81038 12.0685 10.1046L8.75828 14.6849C8.50327 15.038 8.75337 15.5284 9.18982 15.5284H10.8915V20.7315H10.6659H9.62137H5.12444C2.54986 20.5893 0.5 18.1814 0.5 15.5725C0.5 13.7728 1.47589 12.2035 2.92256 11.3551C2.79015 10.9971 2.7215 10.6146 2.7215 10.2125C2.7215 8.37352 4.2074 6.88762 6.04638 6.88762C6.4436 6.88762 6.82611 6.95627 7.1841 7.08868C8.24826 4.83286 10.5433 3.26849 13.2111 3.26849C16.6635 3.2734 19.5078 5.91663 19.8314 9.28566C22.4845 9.74173 24.5 12.1986 24.5 14.9792C24.5 17.951 22.1853 20.5255 19.2528 20.7315Z" fill="#4247E5" fill-opacity="0.2"/>
</g>
<defs>
<clipPath id="clip0_64_16177">
<rect width="24" height="24" fill="white" transform="translate(0.5)"/>
</clipPath>
</defs>
</svg>
