<svg width="14" height="14" viewBox="0 0 14 14" fill="none" xmlns="http://www.w3.org/2000/svg">
<path d="M6.99968 0C4.42653 0 2.33301 2.09352 2.33301 4.66668C2.33301 5.43914 2.52614 6.20504 2.89328 6.88436L6.74448 13.8496C6.79575 13.9425 6.89345 14 6.99968 14C7.10591 14 7.20361 13.9425 7.25488 13.8496L11.1075 6.88207C11.4732 6.20504 11.6664 5.43911 11.6664 4.66665C11.6664 2.09352 9.57284 0 6.99968 0ZM6.99968 7C5.71311 7 4.66636 5.95325 4.66636 4.66668C4.66636 3.3801 5.71311 2.33335 6.99968 2.33335C8.28626 2.33335 9.33301 3.3801 9.33301 4.66668C9.33301 5.95325 8.28626 7 6.99968 7Z" fill="#4247E5"/>
</svg>
