<svg width="18" height="18" viewBox="0 0 18 18" fill="none" xmlns="http://www.w3.org/2000/svg">
<g clip-path="url(#clip0_869_14713)">
<path d="M13.5 7H13V5C13 2.79395 11.2061 1 9 1C6.79395 1 5 2.79395 5 5V7H4.5C3.67334 7 3 7.67261 3 8.5V15.5C3 16.3274 3.67334 17 4.5 17H13.5C14.3267 17 15 16.3274 15 15.5V8.5C15 7.67261 14.3267 7 13.5 7ZM6.33337 5C6.33337 3.5293 7.5293 2.33337 9 2.33337C10.4707 2.33337 11.6666 3.5293 11.6666 5V7H6.33337V5Z" fill="#4247E5"/>
</g>
<defs>
<clipPath id="clip0_869_14713">
<rect width="16" height="16" fill="white" transform="translate(1 1)"/>
</clipPath>
</defs>
</svg>
