<svg width="124" height="28" viewBox="0 0 124 28" fill="none" xmlns="http://www.w3.org/2000/svg">
<path opacity="0.2" d="M41.7 8.8H42.82V15.632C42.82 17.0827 42.404 18.192 41.572 18.96C40.74 19.728 39.684 20.112 38.404 20.112C37.1133 20.112 36.0413 19.728 35.188 18.96C34.3453 18.1813 33.924 17.072 33.924 15.632V8.8H35.044V15.632C35.044 16.6773 35.3587 17.5147 35.988 18.144C36.628 18.7627 37.4333 19.072 38.404 19.072C39.3213 19.072 40.1 18.7787 40.74 18.192C41.38 17.5947 41.7 16.7413 41.7 15.632V8.8ZM49.5163 19.12C50.3803 19.12 51.0896 18.848 51.6443 18.304C52.2096 17.76 52.4923 17.008 52.4923 16.048C52.4923 15.088 52.2149 14.3413 51.6603 13.808C51.1056 13.2747 50.3909 13.008 49.5163 13.008C48.6523 13.008 47.9429 13.296 47.3883 13.872C46.8336 14.448 46.5563 15.1787 46.5563 16.064C46.5563 16.9387 46.8336 17.6693 47.3883 18.256C47.9536 18.832 48.6629 19.12 49.5163 19.12ZM46.4603 23.776H45.4043V12.096H46.4443L46.4763 13.776C46.7856 13.2107 47.2229 12.768 47.7883 12.448C48.3643 12.128 48.9936 11.968 49.6763 11.968C50.8176 12 51.7509 12.384 52.4763 13.12C53.2016 13.856 53.5642 14.832 53.5642 16.048C53.5642 17.3067 53.1909 18.3093 52.4443 19.056C51.6976 19.792 50.7376 20.16 49.5643 20.16C48.9243 20.16 48.3216 20.0107 47.7563 19.712C47.2016 19.4133 46.7696 18.976 46.4603 18.4V23.776ZM55.6725 8.8H56.7445V20H55.6725V8.8ZM62.9094 11.952C64.072 11.952 65.0374 12.336 65.8054 13.104C66.584 13.872 66.9734 14.8587 66.9734 16.064C66.9734 17.28 66.5894 18.2613 65.8214 19.008C65.064 19.7547 64.0934 20.128 62.9094 20.128C61.736 20.128 60.7654 19.7547 59.9974 19.008C59.2294 18.2507 58.8454 17.2693 58.8454 16.064C58.8454 14.848 59.224 13.8613 59.9814 13.104C60.7387 12.336 61.7147 11.952 62.9094 11.952ZM65.0534 13.808C64.4987 13.2213 63.784 12.928 62.9094 12.928C62.0347 12.928 61.3147 13.2213 60.7494 13.808C60.1947 14.3947 59.9174 15.1467 59.9174 16.064C59.9174 16.9813 60.1947 17.7227 60.7494 18.288C61.3147 18.8427 62.0347 19.12 62.9094 19.12C63.8054 19.12 64.5254 18.8427 65.0694 18.288C65.624 17.7227 65.9014 16.9813 65.9014 16.064C65.9014 15.1467 65.6187 14.3947 65.0534 13.808ZM75.5911 13.664V12.096H76.5991V20H75.6071V18.432C75.2765 18.9973 74.8231 19.4293 74.2471 19.728C73.6818 20.016 73.0898 20.16 72.4711 20.16C71.3191 20.16 70.3591 19.7813 69.5911 19.024C68.8231 18.2667 68.4391 17.2747 68.4391 16.048C68.4391 14.832 68.8231 13.8507 69.5911 13.104C70.3698 12.3573 71.3351 11.984 72.4871 11.984C73.1271 11.984 73.7298 12.1333 74.2951 12.432C74.8711 12.72 75.3031 13.1307 75.5911 13.664ZM72.5191 12.96C71.6658 12.96 70.9511 13.248 70.3751 13.824C69.7991 14.4 69.5111 15.1413 69.5111 16.048C69.5111 16.9653 69.7991 17.712 70.3751 18.288C70.9511 18.864 71.6658 19.152 72.5191 19.152C73.0738 19.152 73.5698 19.04 74.0071 18.816C74.4551 18.5813 74.7911 18.2827 75.0151 17.92C75.2391 17.5573 75.4045 17.1573 75.5111 16.72C75.6178 16.2827 75.6178 15.8453 75.5111 15.408C75.4045 14.96 75.2391 14.5547 75.0151 14.192C74.7911 13.8293 74.4551 13.536 74.0071 13.312C73.5698 13.0773 73.0738 12.96 72.5191 12.96ZM82.6438 12.976C81.7798 12.976 81.0651 13.248 80.4998 13.792C79.9451 14.3253 79.6678 15.0773 79.6678 16.048C79.6678 17.008 79.9504 17.76 80.5158 18.304C81.0811 18.848 81.7904 19.12 82.6438 19.12C83.4971 19.12 84.2064 18.832 84.7718 18.256C85.3478 17.68 85.6358 16.9387 85.6358 16.032C85.6358 15.136 85.3478 14.4053 84.7718 13.84C84.2064 13.264 83.4971 12.976 82.6438 12.976ZM85.6838 8.8H86.7558V20H85.7158L85.6838 18.416C85.3744 18.9707 84.9371 19.3973 84.3718 19.696C83.8171 19.9947 83.2198 20.144 82.5798 20.144C81.4171 20.144 80.4624 19.7813 79.7158 19.056C78.9691 18.3307 78.5958 17.328 78.5958 16.048C78.5958 14.768 78.9691 13.7653 79.7158 13.04C80.4624 12.3147 81.4171 11.952 82.5798 11.952C83.2304 11.952 83.8384 12.1013 84.4038 12.4C84.9691 12.688 85.3958 13.1093 85.6838 13.664V8.8ZM95.059 20H93.987V13.104H92.419V12.176H93.987V11.52C93.987 10.6453 94.2003 9.96267 94.627 9.472C95.0537 8.97067 95.683 8.72 96.515 8.72C97.123 8.72 97.6883 8.90667 98.211 9.28L97.747 10.08C97.299 9.81333 96.8937 9.68 96.531 9.68C95.5497 9.68 95.059 10.2933 95.059 11.52V12.176H97.587V13.104H95.059V20ZM100.148 12.064H99.0761V20H100.148V12.064ZM99.2521 10.288C98.9961 10.16 98.8681 9.936 98.8681 9.616C98.8681 9.296 98.9908 9.072 99.2361 8.944C99.4921 8.816 99.7481 8.816 100.004 8.944C100.26 9.072 100.388 9.296 100.388 9.616C100.388 9.936 100.26 10.16 100.004 10.288C99.7588 10.416 99.5081 10.416 99.2521 10.288ZM102.751 8.8H103.823V20H102.751V8.8ZM113.908 16.496H107.028C107.102 17.3067 107.417 17.9467 107.972 18.416C108.537 18.8853 109.22 19.12 110.02 19.12C110.521 19.12 111.022 19.024 111.524 18.832C112.036 18.64 112.425 18.3733 112.692 18.032L113.411 18.672C113.038 19.1413 112.542 19.504 111.924 19.76C111.305 20.016 110.67 20.144 110.02 20.144C108.825 20.144 107.844 19.7707 107.076 19.024C106.308 18.2773 105.924 17.28 105.924 16.032C105.924 14.848 106.302 13.872 107.06 13.104C107.828 12.336 108.798 11.952 109.972 11.952C111.23 11.952 112.238 12.3413 112.996 13.12C113.753 13.888 114.057 15.0133 113.908 16.496ZM107.028 15.584H112.9C112.889 14.752 112.606 14.1013 112.052 13.632C111.497 13.152 110.809 12.912 109.988 12.912C109.188 12.912 108.521 13.1467 107.988 13.616C107.454 14.0853 107.134 14.7413 107.028 15.584ZM121.587 13.008L120.963 13.712C120.376 13.1787 119.597 12.912 118.627 12.912C118.008 12.9013 117.491 13.008 117.075 13.232C116.669 13.456 116.472 13.776 116.483 14.192C116.483 14.48 116.605 14.72 116.851 14.912C117.096 15.104 117.347 15.232 117.603 15.296C117.869 15.36 118.216 15.424 118.643 15.488C118.984 15.5413 119.235 15.584 119.395 15.616C119.555 15.6373 119.789 15.6853 120.099 15.76C120.419 15.8347 120.659 15.9253 120.819 16.032C120.989 16.1387 121.171 16.272 121.363 16.432C121.555 16.592 121.693 16.7947 121.779 17.04C121.864 17.2747 121.907 17.5467 121.907 17.856C121.896 18.3787 121.725 18.8213 121.395 19.184C121.075 19.5467 120.68 19.8027 120.211 19.952C119.741 20.0907 119.224 20.16 118.659 20.16C117.08 20.16 115.912 19.648 115.155 18.624L115.827 17.888C116.445 18.72 117.395 19.1467 118.674 19.168C119.24 19.168 119.741 19.0667 120.179 18.864C120.616 18.6613 120.835 18.32 120.835 17.84C120.835 17.5947 120.781 17.3867 120.675 17.216C120.568 17.0453 120.392 16.912 120.147 16.816C119.901 16.7093 119.667 16.6347 119.443 16.592C119.229 16.5387 118.931 16.4853 118.547 16.432C118.184 16.3787 117.875 16.3253 117.619 16.272C117.373 16.2187 117.101 16.1387 116.803 16.032C116.504 15.9147 116.264 15.7867 116.083 15.648C115.901 15.4987 115.747 15.3013 115.618 15.056C115.491 14.8107 115.427 14.5333 115.427 14.224C115.427 13.4667 115.741 12.896 116.371 12.512C117 12.1173 117.747 11.9253 118.611 11.936C119.816 11.936 120.808 12.2933 121.587 13.008Z" fill="#4247E5"/>
<g clip-path="url(#clip0_869_14706)">
<path d="M19.2528 20.7315H15.3737H14.3292H14.1036V15.5284H15.8053C16.2368 15.5284 16.4918 15.038 16.2368 14.6849L12.9266 10.1046C12.7158 9.81038 12.2793 9.81038 12.0685 10.1046L8.75828 14.6849C8.50327 15.038 8.75337 15.5284 9.18982 15.5284H10.8915V20.7315H10.6659H9.62137H5.12444C2.54986 20.5893 0.5 18.1814 0.5 15.5725C0.5 13.7728 1.47589 12.2035 2.92256 11.3551C2.79015 10.9971 2.7215 10.6146 2.7215 10.2125C2.7215 8.37352 4.2074 6.88762 6.04638 6.88762C6.4436 6.88762 6.82611 6.95627 7.1841 7.08868C8.24826 4.83286 10.5433 3.26849 13.2111 3.26849C16.6635 3.2734 19.5078 5.91663 19.8314 9.28566C22.4845 9.74173 24.5 12.1986 24.5 14.9792C24.5 17.951 22.1853 20.5255 19.2528 20.7315Z" fill="#4247E5" fill-opacity="0.2"/>
</g>
<defs>
<clipPath id="clip0_869_14706">
<rect width="24" height="24" fill="white" transform="translate(0.5)"/>
</clipPath>
</defs>
</svg>
