<svg width="18" height="18" viewBox="0 0 18 18" fill="none" xmlns="http://www.w3.org/2000/svg">
<g clip-path="url(#clip0_869_14728)">
<path d="M8.87453 8.67065C10.0657 8.67065 11.0972 8.24342 11.94 7.4005C12.7828 6.55771 13.21 5.52651 13.21 4.33519C13.21 3.14427 12.7828 2.11294 11.9398 1.26988C11.0969 0.427229 10.0656 0 8.87453 0C7.6832 0 6.652 0.427229 5.80921 1.27001C4.96643 2.1128 4.53906 3.14414 4.53906 4.33519C4.53906 5.52651 4.96643 6.55785 5.80935 7.40064C6.65227 8.24328 7.68361 8.67065 8.87453 8.67065Z" fill="#4247E5"/>
<path d="M16.4576 13.8411C16.4333 13.4903 16.3841 13.1077 16.3118 12.7037C16.2387 12.2967 16.1446 11.9119 16.032 11.5602C15.9157 11.1967 15.7575 10.8377 15.5619 10.4937C15.359 10.1366 15.1206 9.82572 14.8531 9.56988C14.5733 9.30222 14.2308 9.08703 13.8348 8.93006C13.4401 8.77392 13.0027 8.69482 12.5348 8.69482C12.3511 8.69482 12.1734 8.77021 11.8302 8.99365C11.619 9.13139 11.3719 9.29069 11.0962 9.46688C10.8604 9.61712 10.5409 9.75788 10.1464 9.88532C9.76146 10.0099 9.37062 10.073 8.98486 10.073C8.59911 10.073 8.20841 10.0099 7.82306 9.88532C7.42893 9.75802 7.10951 9.61726 6.87399 9.46702C6.60084 9.29247 6.35365 9.13317 6.13928 8.99351C5.79651 8.77008 5.61867 8.69468 5.43492 8.69468C4.96691 8.69468 4.52965 8.77392 4.13511 8.9302C3.73933 9.08689 3.39669 9.30209 3.11668 9.57002C2.8493 9.826 2.61076 10.1368 2.40806 10.4937C2.21264 10.8377 2.05444 11.1965 1.93799 11.5603C1.82551 11.912 1.73144 12.2967 1.65839 12.7037C1.58601 13.1072 1.53685 13.4899 1.51254 13.8415C1.48865 14.1859 1.47656 14.5434 1.47656 14.9044C1.47656 15.844 1.77525 16.6047 2.36425 17.1657C2.94598 17.7192 3.7157 18.0001 4.65174 18.0001H13.3188C14.2548 18.0001 15.0243 17.7194 15.6062 17.1657C16.1953 16.6051 16.494 15.8443 16.494 14.9043C16.4939 14.5416 16.4816 14.1838 16.4576 13.8411Z" fill="#4247E5"/>
</g>
<defs>
<clipPath id="clip0_869_14728">
<rect width="17.9999" height="18" fill="white"/>
</clipPath>
</defs>
</svg>
