<svg width="24" height="24" viewBox="0 0 24 24" fill="none" xmlns="http://www.w3.org/2000/svg">
<g clip-path="url(#clip0_415_13433)">
<path d="M12.0008 0.75C5.79232 0.75 0.750843 5.79158 0.750843 12.0007C0.754593 13.9877 1.29448 15.9323 2.29479 17.6462L0.769885 22.2209C0.672145 22.5142 0.951314 22.7932 1.24449 22.6956L5.61998 21.2373C7.49534 22.5356 9.71559 23.2466 12.0001 23.25C18.209 23.2499 23.2501 18.2087 23.2501 12C23.2501 5.79113 18.2094 0.750142 12.0008 0.75V0.75ZM8.24132 10.875C8.85818 10.875 9.36633 11.3832 9.36632 12C9.36631 12.617 8.85817 13.125 8.24132 13.125C7.62447 13.125 7.11706 12.617 7.11705 12C7.11705 11.3832 7.62446 10.875 8.24132 10.875V10.875ZM12.0008 10.875C12.6177 10.875 13.1258 11.3832 13.1258 12C13.1258 12.617 12.6177 13.125 12.0008 13.125C11.384 13.125 10.8759 12.617 10.8758 12C10.8758 11.3832 11.384 10.875 12.0008 10.875V10.875ZM15.7413 10.875C16.3582 10.875 16.8663 11.3832 16.8663 12C16.8663 12.617 16.3582 13.125 15.7413 13.125C15.1245 13.125 14.6163 12.617 14.6163 12C14.6163 11.3832 15.1245 10.875 15.7413 10.875V10.875Z" fill="white"/>
</g>
<defs>
<clipPath id="clip0_415_13433">
<rect width="24" height="24" fill="white"/>
</clipPath>
</defs>
</svg>
