<svg width="40" height="40" viewBox="0 0 40 40" fill="none" xmlns="http://www.w3.org/2000/svg">
<circle cx="20" cy="20" r="20" fill="#ECEDFC"/>
<g clip-path="url(#clip0_565_250)">
<path d="M19.8717 19.6707C21.0629 19.6707 22.0944 19.2434 22.9372 18.4005C23.78 17.5577 24.2072 16.5265 24.2072 15.3352C24.2072 14.1443 23.78 13.1129 22.937 12.2699C22.0941 11.4272 21.0628 11 19.8717 11C18.6804 11 17.6492 11.4272 16.8064 12.27C15.9636 13.1128 15.5363 14.1441 15.5363 15.3352C15.5363 16.5265 15.9636 17.5579 16.8065 18.4006C17.6495 19.2433 18.6808 19.6707 19.8717 19.6707V19.6707Z" fill="#4247E5"/>
<path d="M27.4576 24.8411C27.4333 24.4903 27.3841 24.1077 27.3118 23.7037C27.2387 23.2967 27.1446 22.9119 27.032 22.5602C26.9157 22.1967 26.7575 21.8377 26.5619 21.4937C26.359 21.1366 26.1206 20.8257 25.8531 20.5699C25.5733 20.3022 25.2308 20.087 24.8348 19.9301C24.4401 19.7739 24.0027 19.6948 23.5348 19.6948C23.3511 19.6948 23.1734 19.7702 22.8302 19.9937C22.619 20.1314 22.3719 20.2907 22.0962 20.4669C21.8604 20.6171 21.5409 20.7579 21.1464 20.8853C20.7615 21.0099 20.3706 21.0731 19.9849 21.0731C19.5991 21.0731 19.2084 21.0099 18.8231 20.8853C18.4289 20.758 18.1095 20.6173 17.874 20.467C17.6008 20.2925 17.3536 20.1332 17.1393 19.9935C16.7965 19.7701 16.6187 19.6947 16.4349 19.6947C15.9669 19.6947 15.5297 19.7739 15.1351 19.9302C14.7393 20.0869 14.3967 20.3021 14.1167 20.57C13.8493 20.826 13.6108 21.1368 13.4081 21.4937C13.2126 21.8377 13.0544 22.1965 12.938 22.5603C12.8255 22.912 12.7314 23.2967 12.6584 23.7037C12.586 24.1072 12.5368 24.4899 12.5125 24.8415C12.4886 25.1859 12.4766 25.5434 12.4766 25.9044C12.4766 26.844 12.7753 27.6047 13.3643 28.1657C13.946 28.7192 14.7157 29.0001 15.6517 29.0001H24.3188C25.2548 29.0001 26.0243 28.7194 26.6062 28.1657C27.1953 27.6051 27.494 26.8443 27.494 25.9043C27.4939 25.5416 27.4816 25.1838 27.4576 24.8411V24.8411Z" fill="#4247E5"/>
</g>
<defs>
<clipPath id="clip0_565_250">
<rect width="17.9999" height="18" fill="white" transform="translate(11 11)"/>
</clipPath>
</defs>
</svg>
