<svg width="18" height="18" viewBox="0 0 18 18" fill="none" xmlns="http://www.w3.org/2000/svg">
<path d="M14.0646 15.5486H11.1553H10.3719H10.2027V11.6463H11.479C11.8026 11.6463 11.9939 11.2785 11.8026 11.0137L9.31998 7.57846C9.16183 7.35779 8.83449 7.35779 8.67634 7.57846L6.19371 11.0137C6.00245 11.2785 6.19003 11.6463 6.51737 11.6463H7.79362V15.5486H7.62444H6.84103H3.46833C1.53739 15.442 0 13.6361 0 11.6794C0 10.3296 0.731917 9.15264 1.81692 8.51635C1.71761 8.24786 1.66612 7.96097 1.66612 7.65938C1.66612 6.28014 2.78055 5.16571 4.15979 5.16571C4.4577 5.16571 4.74459 5.21721 5.01308 5.31651C5.8112 3.62464 7.53249 2.45137 9.53331 2.45137C12.1226 2.45505 14.2558 4.43748 14.4986 6.96424C16.4884 7.30629 18 9.14896 18 11.2344C18 13.4632 16.264 15.3942 14.0646 15.5486Z" fill="#4247E5"/>
</svg>
