<svg width="685" height="500" viewBox="0 0 685 500" fill="none" xmlns="http://www.w3.org/2000/svg">
<path style="mix-blend-mode:multiply" d="M676.555 260.667L623.26 233.368L538.438 312.736H586.488L676.555 260.667Z" fill="url(#paint0_linear_61_15078)"/>
<path d="M540.652 308.894L390.17 221.903L483.072 168.195L633.559 255.187L540.652 308.894Z" fill="#5652CC"/>
<path d="M622.491 239.604V255.504L535.394 305.855V289.951L622.491 239.604Z" fill="#CED3F8"/>
<path d="M538.438 285.735L387.951 198.744L483.072 143.758L633.554 230.749L538.438 285.735Z" fill="#5652CC"/>
<path d="M538.438 312.736L633.554 257.75L633.559 255.187L540.652 308.894L540.657 287.014L633.559 233.312L633.554 230.749L538.438 285.735V312.736Z" fill="#20196F"/>
<path d="M538.438 312.731L387.956 225.74L387.951 198.744L538.438 285.735V312.731Z" fill="#362E94"/>
<path d="M511.037 275.871L521.667 282.015V297.06L511.037 290.917V275.871Z" fill="#20196F"/>
<path d="M404.727 214.415L415.357 220.558V235.604L404.727 229.461V214.415Z" fill="#20196F"/>
<path style="mix-blend-mode:multiply" d="M618.338 221.954L541.134 266.582C535.068 270.083 539.987 272.926 552.109 272.926C555.117 272.926 558.292 272.749 561.448 272.436L633.556 230.754L618.338 221.959V221.954Z" fill="url(#paint1_linear_61_15078)"/>
<path d="M539.861 265.205L534.747 268.141L528.947 264.789C528.653 263.814 528.49 262.693 528.49 261.438C528.49 254.431 533.404 245.911 539.465 242.41L421.815 174.395L485.811 137.4L623.387 216.931L539.871 265.209L539.861 265.205Z" fill="#807DFB"/>
<path d="M534.653 262.661C534.653 262.661 609.74 219.256 613.596 217.025C613.596 213.556 613.596 199.794 613.596 196.331C609.74 198.562 534.653 241.962 534.653 241.962C529.72 244.819 525.701 251.779 525.701 257.484C525.701 263.188 529.716 265.508 534.653 262.656V262.661Z" fill="#CED3F8"/>
<path d="M401.884 162.874L539.465 242.405L623.378 193.894L485.801 114.367L401.884 162.874Z" fill="#807DFB"/>
<path d="M528.485 261.438C528.485 268.444 533.399 271.287 539.461 267.782L623.383 219.27V216.931L539.465 265.443C534.532 268.295 530.518 265.97 530.518 260.271C530.518 254.566 534.532 247.601 539.47 244.749L623.387 196.242V193.903L539.465 242.415C533.404 245.916 528.495 254.44 528.49 261.442L528.485 261.438Z" fill="#20196F"/>
<path d="M528.485 261.438C528.485 254.431 533.399 245.911 539.46 242.41L401.883 162.878C395.827 166.384 390.913 174.908 390.908 181.911C390.908 185.412 392.139 187.876 394.125 189.025L531.702 268.552C529.716 267.403 528.489 264.939 528.489 261.438H528.485Z" fill="url(#paint2_linear_61_15078)"/>
<path d="M602.233 233.443C602.098 234.955 601.408 239.119 601.086 240.884C595.72 232.56 591.412 228.779 586.031 225.586C587.449 224.764 591.454 222.449 594.535 220.67C599.902 223.765 605.865 230.464 609.59 235.968C607.198 234.894 604.751 233.97 602.228 233.443H602.233Z" fill="#FCBA06"/>
<g style="mix-blend-mode:multiply">
<path d="M598.4 223.406C597.104 222.337 595.804 221.399 594.535 220.67C591.454 222.454 587.449 224.764 586.031 225.586C587.421 226.412 588.74 227.276 590.022 228.247L598.4 223.401V223.406Z" fill="#DAE0F5"/>
</g>
<path d="M556.632 168.541L495.602 203.818L468.63 188.231L529.665 152.949L556.632 168.541Z" fill="#6B67E9"/>
<path d="M512.619 186.966L508.153 185.939L502.092 189.445L503.873 192.026L500.437 194.01L492.222 182.037L495.345 180.23L516.056 184.978L512.619 186.962V186.966ZM498.096 183.619L500.474 187.102L504.097 185.01L498.096 183.624V183.619Z" fill="#F6F6FB"/>
<path d="M512.251 181.584L509.5 179.992L516.867 175.735L519.617 177.326L512.251 181.584Z" fill="#F6F6FB"/>
<path d="M526.484 178.951L524.269 177.672L522.386 167.827L515.061 172.061L512.269 170.446L523.999 163.663L526.232 164.956L528.093 174.764L535.771 170.324L538.587 171.949L526.484 178.946V178.951Z" fill="#F6F6FB"/>
<path d="M492.244 467.874L498.105 471.258L469.888 487.569L432.268 465.82L459.733 449.943L465.594 453.327L445.117 465.166L454.899 470.819L473.063 460.316L478.812 463.64L460.647 474.143L471.021 480.142L492.253 467.869L492.244 467.874Z" fill="#FFD03E"/>
<path style="mix-blend-mode:multiply" d="M328.642 244.123H116.155V324.108H328.642V244.123Z" fill="url(#paint3_linear_61_15078)"/>
<path d="M109.48 139.561L104.058 142.721V149.859C104.799 150.652 105.741 151.395 106.897 152.067C113.345 155.792 123.803 155.792 130.251 152.067V296.808L209.222 251.158V81.9089L109.48 139.566V139.561Z" fill="#DC8B00"/>
<path d="M109.05 145.718C109.05 145.718 199.821 93.2479 203.919 90.8765C207.113 92.7204 219.776 100.045 222.965 101.884C218.862 104.255 128.095 156.726 128.095 156.726C122.841 159.76 114.295 159.76 109.05 156.726C103.8 153.687 103.8 148.752 109.05 145.714V145.718Z" fill="#F1F1F6"/>
<path style="mix-blend-mode:multiply" d="M115.358 149.364C115.358 149.364 206.124 96.8938 210.227 94.5223C207.481 92.9351 205.075 91.544 203.919 90.8765C199.816 93.2479 109.05 145.718 109.05 145.718C103.8 148.752 103.8 153.691 109.05 156.73C110.159 157.37 111.418 157.869 112.756 158.238C110.36 155.344 111.218 151.763 115.358 149.369V149.364Z" fill="url(#paint4_linear_61_15078)"/>
<path d="M130.249 321.312V152.058L230.415 94.1582V263.408L130.249 321.312Z" fill="#DC8B00"/>
<path d="M106.896 152.062C100.448 148.332 100.444 142.287 106.896 138.562L207.062 80.6579L209.216 81.9042L109.05 139.808C103.801 142.843 103.801 147.782 109.05 150.816C114.3 153.85 122.846 153.85 128.096 150.816L228.257 92.9118L230.411 94.1582L130.245 152.062C123.797 155.787 113.34 155.787 106.892 152.062H106.896Z" fill="#FFD03E"/>
<path d="M106.895 152.062C113.343 155.787 123.801 155.787 130.249 152.062V321.312C123.801 325.037 113.339 325.037 106.895 321.312C103.674 319.449 102.061 317.003 102.061 314.561V145.312C102.061 147.754 103.674 150.2 106.9 152.062H106.895Z" fill="url(#paint5_linear_61_15078)"/>
<g style="mix-blend-mode:color-burn">
<path d="M230.41 263.408V184.641L130.249 242.541C123.801 246.271 113.343 246.271 106.9 242.541C103.678 240.678 102.061 238.232 102.061 235.791V314.557C102.061 316.998 103.674 319.444 106.895 321.307C113.343 325.032 123.801 325.032 130.249 321.307L230.41 263.403V263.408Z" fill="#D1D7F3"/>
</g>
<path d="M155.463 216.567L218.241 180.277V203.071L155.463 239.362V216.567Z" fill="#423EAF"/>
<path d="M170.07 222.995V224.624L163.277 228.55V218.08L169.889 214.256V215.886L164.96 218.738V221.459L169.334 218.929V220.53L164.96 223.06V225.945L170.07 222.99V222.995Z" fill="#CED3F8"/>
<path d="M177.805 212.959C178.332 213.243 178.593 213.962 178.593 215.12V219.699L176.975 220.633V216.296C176.975 215.601 176.831 215.157 176.546 214.966C176.262 214.775 175.856 214.835 175.329 215.139C174.733 215.484 174.262 215.965 173.917 216.576C173.572 217.188 173.399 217.884 173.399 218.663V222.701L171.781 223.635V215.647L173.32 214.756V215.787C173.586 215.265 173.926 214.789 174.332 214.368C174.737 213.944 175.194 213.584 175.702 213.29C176.574 212.786 177.274 212.678 177.8 212.963L177.805 212.959Z" fill="#CED3F8"/>
<path d="M187.578 206.516V213.295C187.578 216.11 186.338 218.234 183.853 219.667C183.191 220.05 182.562 220.316 181.965 220.47C181.368 220.619 180.879 220.619 180.492 220.474L181.214 218.649C181.517 218.766 181.895 218.775 182.361 218.682C182.823 218.588 183.289 218.406 183.765 218.131C184.525 217.692 185.079 217.169 185.434 216.567C185.788 215.965 185.965 215.255 185.965 214.434V214.014C185.69 214.522 185.355 214.98 184.954 215.391C184.557 215.801 184.119 216.142 183.648 216.413C182.991 216.791 182.399 216.973 181.867 216.955C181.336 216.936 180.916 216.726 180.613 216.31C180.305 215.9 180.151 215.316 180.151 214.555C180.151 213.794 180.305 213.038 180.613 212.277C180.921 211.516 181.336 210.825 181.867 210.2C182.399 209.574 182.991 209.07 183.648 208.692C184.147 208.402 184.604 208.234 185.014 208.188C185.424 208.141 185.765 208.23 186.045 208.458V207.399L187.583 206.507L187.578 206.516ZM185.397 213.183C185.788 212.534 185.984 211.866 185.984 211.189C185.984 210.512 185.788 210.092 185.397 209.896C185.005 209.705 184.501 209.789 183.891 210.139C183.27 210.498 182.762 211.003 182.371 211.647C181.979 212.291 181.783 212.949 181.783 213.617C181.783 214.284 181.979 214.732 182.371 214.929C182.762 215.125 183.27 215.045 183.891 214.686C184.501 214.331 185.005 213.827 185.397 213.178V213.183Z" fill="#CED3F8"/>
<path d="M189.698 202.18L191.316 201.246V212.347L189.698 213.281V202.18Z" fill="#CED3F8"/>
<path d="M193.517 201.447C193.317 201.349 193.219 201.139 193.219 200.817C193.219 200.495 193.317 200.172 193.517 199.846C193.713 199.519 193.96 199.267 194.254 199.099C194.548 198.931 194.795 198.889 194.99 198.977C195.186 199.066 195.289 199.267 195.289 199.575C195.289 199.902 195.191 200.238 195 200.574C194.804 200.91 194.557 201.167 194.254 201.339C193.96 201.508 193.713 201.545 193.517 201.442V201.447ZM193.438 203.132L195.056 202.198V210.186L193.438 211.119V203.132Z" fill="#CED3F8"/>
<path d="M197.671 208.524C197.135 208.664 196.71 208.697 196.389 208.622L197.009 206.843C197.321 206.904 197.694 206.881 198.128 206.773C198.561 206.666 198.995 206.488 199.415 206.246C200.38 205.686 200.865 205.116 200.865 204.528C200.865 204.248 200.743 204.126 200.496 204.159C200.254 204.192 199.857 204.313 199.312 204.528C198.743 204.757 198.277 204.911 197.923 204.99C197.564 205.069 197.256 205.018 196.99 204.85C196.729 204.677 196.594 204.304 196.594 203.725C196.594 202.969 196.869 202.203 197.414 201.433C197.96 200.663 198.701 200.009 199.634 199.472C200.109 199.197 200.585 198.987 201.056 198.837C201.531 198.688 201.918 198.632 202.221 198.665L201.601 200.443C201.014 200.382 200.356 200.565 199.624 200.989C199.149 201.265 198.79 201.554 198.543 201.862C198.296 202.17 198.174 202.455 198.174 202.726C198.174 203.025 198.305 203.16 198.571 203.137C198.832 203.109 199.242 202.992 199.792 202.782C200.342 202.563 200.795 202.413 201.149 202.343C201.503 202.268 201.806 202.31 202.063 202.474C202.319 202.637 202.445 203.001 202.445 203.571C202.445 204.318 202.165 205.079 201.601 205.854C201.042 206.629 200.277 207.291 199.312 207.852C198.752 208.174 198.202 208.407 197.671 208.547V208.524Z" fill="#CED3F8"/>
<path d="M209.859 194.431C210.386 194.715 210.647 195.434 210.647 196.592V201.171L209.029 202.105V197.768C209.029 197.073 208.889 196.629 208.605 196.438C208.32 196.247 207.915 196.307 207.388 196.611C206.791 196.956 206.32 197.437 205.975 198.048C205.63 198.66 205.458 199.356 205.458 200.135V204.173L203.84 205.107V194.006L205.458 193.072V197.11C205.723 196.625 206.055 196.181 206.446 195.784C206.838 195.383 207.276 195.042 207.761 194.762C208.633 194.258 209.332 194.15 209.859 194.435V194.431Z" fill="#CED3F8"/>
<path style="mix-blend-mode:multiply" d="M102.383 465.577C107.409 466.795 125.34 470.642 129.256 467.626C133.177 464.61 139.131 453.608 146.596 446.829C131.723 446.61 120.267 444.323 115.083 447.548C109.898 450.774 102.378 465.577 102.378 465.577H102.383Z" fill="url(#paint6_linear_61_15078)"/>
<path style="mix-blend-mode:multiply" d="M307.415 357.102C313.984 356.3 330.615 348.2 330.405 343.826C330.195 339.452 310.977 338.999 306.454 341.203C301.932 343.406 297.517 358.311 307.415 357.102Z" fill="url(#paint7_linear_61_15078)"/>
<path d="M310.65 349.143C310.752 350.67 308.808 351.986 306.188 352.163C258.851 355.319 234.21 363.586 205.835 380.275C202.768 382.082 199.644 383.921 196.431 385.774L101.394 440.714L98.0978 438.809L95.9951 440.023L101.394 443.142L196.431 388.202C199.644 386.344 202.768 384.509 205.835 382.703C234.21 366.009 259.713 359.637 306.29 357.238C308.934 357.102 311.2 355.725 311.074 354.194L310.65 349.139V349.143Z" fill="#423EAF"/>
<path d="M310.654 349.12C310.785 350.651 308.827 351.986 306.188 352.163C258.851 355.319 234.21 363.586 205.835 380.275C202.768 382.082 199.644 383.921 196.431 385.774L101.394 440.714L95.9951 437.591L191.032 382.651C194.231 380.803 197.336 378.977 200.394 377.176C228.522 360.636 252.92 345.035 304.239 340.031C307.223 339.741 309.978 341.035 310.127 342.776L310.664 349.11L310.654 349.12Z" fill="#6B67E9"/>
<path d="M177.825 394.929C174.613 396.787 171.433 398.588 168.309 400.362C139.435 416.766 125.136 431.014 119.676 458.374C119.373 459.9 117.065 461.03 114.413 460.955L103.451 460.647C100.43 460.563 98.2016 458.971 98.7004 457.244C98.2016 459.023 98.127 461.646 98.7518 463.345C98.7797 463.42 98.7937 463.495 98.831 463.569C98.831 463.579 98.8357 463.588 98.8403 463.602H98.845C99.4418 464.741 101.223 465.619 103.447 465.684L116.128 465.992C118.781 466.067 121.094 464.937 121.392 463.411C127.355 433.082 139.431 419.198 168.305 402.794C171.433 401.021 174.608 399.214 177.821 397.356L272.858 342.416L270.755 341.203L177.821 394.929H177.825Z" fill="url(#paint8_linear_61_15078)"/>
<path d="M114.408 460.955C117.061 461.03 119.369 459.9 119.672 458.374C125.132 431.014 139.431 416.766 168.305 400.362C171.433 398.589 174.608 396.782 177.821 394.929L272.858 339.989L267.459 336.866L172.422 391.806C169.223 393.654 166.062 395.451 162.953 397.216C134.344 413.475 107.349 427.578 98.6961 457.244C98.1925 458.967 100.426 460.563 103.447 460.647L114.408 460.955Z" fill="#807DFB"/>
<g style="mix-blend-mode:multiply">
<path d="M234.709 341.637C214.101 348.56 174.313 372.694 194.067 384.117C202.571 389.033 221.044 393.281 240.369 392.455C224.769 391.82 210.814 388.197 203.751 384.117C183.992 372.699 223.78 348.56 244.388 341.637C249.339 339.975 253.68 338.981 257.592 338.523C251.368 337.711 244.136 338.467 234.704 341.637H234.709Z" fill="url(#paint9_linear_61_15078)"/>
<path d="M116.765 441.634C105.963 435.392 100.2 429.566 111.185 418.638C120.132 409.736 145.709 394.649 166.307 392.352C144.903 389.509 111.921 408.27 101.501 418.638C90.5163 429.566 96.279 435.392 107.082 441.634C114.299 445.807 130.361 451.997 148.012 450.723C134.352 449.756 122.635 445.027 116.765 441.634Z" fill="url(#paint10_linear_61_15078)"/>
<path d="M188.412 394.891C188.039 392.557 189.456 390.251 192.37 388.566C193.34 388.006 194.431 387.553 195.596 387.193C194.906 386.895 194.239 386.591 193.624 386.283C189.591 386.068 185.6 386.885 182.686 388.571C179.772 390.256 178.355 392.562 178.728 394.896C192.221 403.92 202.758 426.971 176.84 443.356C176.182 443.772 175.515 444.169 174.858 444.556C166.102 449.616 156.885 451.936 148.003 452.529C159.673 453.299 172.546 451.493 184.537 444.556C185.199 444.169 185.861 443.772 186.519 443.356C212.441 426.971 201.904 403.92 188.412 394.896V394.891Z" fill="url(#paint11_linear_61_15078)"/>
<path d="M286.335 343.611C277.5 338.504 269.024 335.498 257.573 336.712C264.511 337.515 270.493 340.054 276.652 343.611C289.245 350.894 306.053 368.708 279.533 384.038C278.871 384.421 278.176 384.803 277.454 385.181C266.18 391.143 253.084 393.762 240.416 394.27C255.886 394.901 272.955 392.679 287.137 385.181C287.86 384.799 288.55 384.416 289.217 384.038C315.736 368.708 298.928 350.889 286.335 343.611Z" fill="url(#paint12_linear_61_15078)"/>
<path d="M172.951 392.002C173.319 390.877 173.977 389.794 174.905 388.781C164.363 386.209 151.122 389.462 138.417 394.901C150.791 390.573 163.356 388.687 172.951 392.002Z" fill="url(#paint13_linear_61_15078)"/>
</g>
<path opacity="0.5" d="M194.072 378.338C207.891 386.33 248.03 392.571 275.393 378.109C303.95 363.012 285.291 345.334 274.493 339.088C263.69 332.847 253.615 329.514 234.714 335.862C214.106 342.785 174.318 366.92 194.072 378.343V378.338Z" fill="white"/>
<path opacity="0.5" d="M174.99 389.374C188.809 397.361 199.607 420.566 174.589 436.382C148.475 452.889 117.885 442.105 107.087 435.864C96.2848 429.623 90.5268 423.792 101.507 412.864C113.475 400.951 155.231 377.951 174.99 389.374Z" fill="white"/>
<path d="M269.052 336.665C269.052 337.613 269.387 338.271 269.919 338.584L277.15 342.757C276.614 342.449 276.283 341.786 276.283 340.843C276.283 338.967 277.593 336.693 279.211 335.764C280.013 335.302 280.745 335.26 281.272 335.564L274.041 331.385C273.514 331.082 272.782 331.124 271.98 331.586C270.362 332.515 269.052 334.789 269.052 336.665Z" fill="url(#paint14_linear_61_15078)"/>
<path d="M276.283 340.843C276.283 342.715 277.593 343.485 279.211 342.556C280.829 341.628 282.139 339.354 282.139 337.478C282.139 335.601 280.829 334.831 279.211 335.764C277.593 336.693 276.283 338.962 276.283 340.843Z" fill="#BBC0E6"/>
<path d="M277.883 339.924C277.883 340.773 278.48 341.128 279.212 340.703C279.948 340.283 280.54 339.247 280.54 338.397C280.54 337.547 279.944 337.197 279.212 337.617C278.48 338.038 277.883 339.069 277.883 339.924Z" fill="#6B67E9"/>
<path d="M234.711 341.637C253.612 335.288 263.692 338.621 274.49 344.862C280.346 348.252 288.487 355.002 290.184 362.877C292.506 352.626 281.74 343.28 274.49 339.088C263.688 332.847 253.612 329.514 234.711 335.862C216.719 341.903 184.125 361.066 189.272 373.432C193.319 361.537 219.339 346.8 234.711 341.637Z" fill="url(#paint15_linear_61_15078)"/>
<path d="M101.502 412.864C95.9725 418.363 94.6904 422.569 96.1544 426.191C96.9563 423.951 98.6627 421.467 101.502 418.643C113.47 406.73 155.226 383.73 174.985 395.153C182.025 399.219 188.264 407.243 189.401 416.22C190.87 405.021 183.508 394.298 174.985 389.374C155.226 377.951 113.47 400.951 101.502 412.864Z" fill="url(#paint16_linear_61_15078)"/>
<path d="M185.718 370.869H185.709V376.597H185.718C185.718 376.937 185.779 377.269 185.821 377.605C186.739 377.423 187.681 377.274 188.642 377.171C186.651 375.252 185.746 373.124 185.718 370.869Z" fill="#CED3F8"/>
<path d="M293.59 360.202C293.511 366.098 289.734 372.363 279.528 378.263C278.866 378.646 278.172 379.029 277.449 379.407C249.102 394.392 209.22 388.3 193.615 380.499V386.274C209.22 394.074 249.102 400.171 277.449 385.182C278.172 384.799 278.862 384.416 279.528 384.038C289.758 378.123 293.525 371.84 293.59 365.93H293.609V360.197H293.59V360.202Z" fill="url(#paint17_linear_61_15078)"/>
<path d="M182.688 382.787C179.774 384.472 178.357 386.783 178.73 389.112C179.294 389.486 179.849 389.896 180.399 390.321C181.009 389.686 181.769 389.093 182.688 388.561C185.597 386.881 189.593 386.059 193.626 386.274V380.499C189.593 380.285 185.602 381.101 182.688 382.787Z" fill="url(#paint18_linear_61_15078)"/>
<path d="M176.841 437.572C176.183 437.988 175.517 438.389 174.859 438.772C148.34 454.102 117.517 444.388 104.924 437.106C97.4224 432.769 92.5455 428.582 92.5269 423.362H92.5176V429.095H92.5409C92.5315 434.333 97.4037 438.534 104.924 442.885C117.517 450.162 148.335 459.882 174.859 444.551C175.521 444.164 176.183 443.767 176.841 443.352C188.441 436.018 192.721 427.358 192.721 419.208H192.735V413.475H192.725C192.707 421.607 188.417 430.253 176.841 437.572Z" fill="url(#paint19_linear_61_15078)"/>
<path d="M276.652 337.837C264.423 330.769 252.884 327.716 233.176 334.331C226.616 336.539 218.629 340.246 211.258 344.503C193.583 354.722 179.349 368.199 188.646 377.171C184.818 377.596 181.228 378.641 178.375 380.294C175.512 381.946 173.684 384.019 172.957 386.232C157.431 380.868 134.129 389.093 116.459 399.312C109.088 403.565 102.681 408.186 98.8677 411.981C87.4169 423.372 92.6994 430.043 104.929 437.115C117.522 444.397 148.34 454.112 174.864 438.781C175.526 438.399 176.188 438.002 176.845 437.582C202.768 421.196 192.227 398.145 178.734 389.121C178.361 386.787 179.778 384.481 182.692 382.796C185.601 381.116 189.597 380.294 193.63 380.509C209.235 388.309 249.116 394.401 277.464 379.416C278.186 379.034 278.876 378.655 279.543 378.273C306.062 362.942 289.255 345.124 276.662 337.846L276.652 337.837ZM174.584 436.382C148.47 452.889 117.881 442.105 107.083 435.864C96.2801 429.623 90.5174 423.792 101.502 412.864C113.47 400.951 155.226 377.95 174.985 389.373C188.804 397.361 199.602 420.566 174.584 436.382ZM275.389 378.109C248.026 392.576 207.887 386.33 194.068 378.338C174.309 366.92 214.098 342.781 234.71 335.858C253.611 329.514 263.691 332.842 274.489 339.088C285.292 345.329 303.946 363.012 275.389 378.109Z" fill="#F6F6FB"/>
<path style="mix-blend-mode:multiply" d="M194.073 378.338C207.892 386.33 248.031 392.571 275.394 378.109C303.951 363.012 285.292 345.334 274.494 339.088C263.691 332.847 253.616 329.514 234.715 335.862C214.107 342.785 174.319 366.92 194.073 378.343V378.338Z" fill="url(#paint20_linear_61_15078)"/>
<path style="mix-blend-mode:multiply" d="M290.504 360.678C290.215 366.355 286.163 372.414 275.393 378.109C248.03 392.576 207.891 386.33 194.072 378.338C191.279 376.723 189.708 374.851 189.074 372.816C230.984 375.864 255.037 372.227 290.504 360.678Z" fill="url(#paint21_linear_61_15078)"/>
<g style="mix-blend-mode:screen">
<path d="M200.493 362.644C198.161 361.294 198.161 359.11 200.493 357.765C202.819 356.416 206.6 356.416 208.927 357.765C211.253 359.11 211.253 361.294 208.927 362.644C206.6 363.993 202.824 363.993 200.493 362.644Z" fill="#A5ABCC"/>
</g>
<g style="mix-blend-mode:screen">
<path d="M101.469 421.906C99.1379 420.557 99.1379 418.372 101.469 417.023C103.8 415.674 107.577 415.679 109.903 417.023C112.23 418.368 112.23 420.552 109.903 421.901C107.572 423.251 103.8 423.246 101.469 421.901V421.906Z" fill="#A5ABCC"/>
</g>
<path style="mix-blend-mode:multiply" d="M174.99 389.374C188.809 397.361 199.607 420.566 174.589 436.382C148.475 452.889 117.885 442.105 107.087 435.864C96.2848 429.623 90.5268 423.792 101.507 412.864C113.475 400.951 155.231 377.951 174.99 389.374Z" fill="url(#paint22_linear_61_15078)"/>
<path style="mix-blend-mode:multiply" d="M189.532 415.048C188.968 422.373 184.711 429.977 174.585 436.382C148.471 452.889 117.881 442.105 107.083 435.864C100.957 432.321 96.453 428.913 95.707 424.632C122.93 430.678 159.805 427.074 189.537 415.048H189.532Z" fill="url(#paint23_linear_61_15078)"/>
<path d="M276.652 337.837C264.423 330.769 252.884 327.716 233.176 334.331C226.616 336.539 218.629 340.246 211.258 344.503C193.583 354.722 179.349 368.199 188.646 377.171C184.818 377.596 181.228 378.641 178.375 380.294C175.512 381.946 173.684 384.019 172.957 386.232C157.431 380.868 134.129 389.093 116.459 399.312C109.088 403.565 102.681 408.186 98.8677 411.981C87.4169 423.372 92.6994 430.043 104.929 437.115C117.522 444.397 148.34 454.112 174.864 438.781C175.526 438.399 176.188 438.002 176.845 437.582C202.768 421.196 192.227 398.145 178.734 389.121C178.361 386.787 179.778 384.481 182.692 382.796C185.601 381.116 189.597 380.294 193.63 380.509C209.235 388.309 249.116 394.401 277.464 379.416C278.186 379.034 278.876 378.655 279.543 378.273C306.062 362.942 289.255 345.124 276.662 337.846L276.652 337.837ZM174.584 436.382C148.47 452.889 117.881 442.105 107.083 435.864C96.2801 429.623 90.5174 423.792 101.502 412.864C113.47 400.951 155.226 377.95 174.985 389.373C188.804 397.361 199.602 420.566 174.584 436.382ZM275.389 378.109C248.026 392.576 207.887 386.33 194.068 378.338C174.309 366.92 214.098 342.781 234.71 335.858C253.611 329.514 263.691 332.842 274.489 339.088C285.292 345.329 303.946 363.012 275.389 378.109Z" fill="#F6F6FB"/>
<path d="M90.8906 439.566C90.8906 440.509 91.2217 441.172 91.7579 441.48L98.9891 445.653C98.453 445.345 98.1219 444.682 98.1219 443.734C98.1219 441.858 99.4321 439.589 101.05 438.655C101.852 438.193 102.584 438.151 103.111 438.459L95.8794 434.281C95.3525 433.978 94.6252 434.02 93.8186 434.482C92.2008 435.411 90.8906 437.684 90.8906 439.561V439.566Z" fill="url(#paint24_linear_61_15078)"/>
<path d="M98.1221 443.739C98.1221 445.616 99.4322 446.381 101.05 445.457C102.668 444.528 103.978 442.255 103.978 440.378C103.978 438.501 102.668 437.731 101.05 438.66C99.4369 439.589 98.1221 441.862 98.1221 443.739Z" fill="#BBC0E6"/>
<path d="M99.7217 442.824C99.7217 443.678 100.318 444.024 101.05 443.604C101.787 443.184 102.384 442.147 102.384 441.298C102.384 440.448 101.787 440.098 101.05 440.518C100.318 440.938 99.7217 441.97 99.7217 442.824Z" fill="#6B67E9"/>
<path style="mix-blend-mode:multiply" d="M443.377 240.505H351.785C340.768 240.505 327.247 243.11 321.741 246.294L233.334 297.396C227.827 300.58 232.331 303.185 243.344 303.185H443.372V240.501L443.377 240.505Z" fill="url(#paint25_linear_61_15078)"/>
<path d="M337.826 232.486C337.826 238.853 333.318 246.667 327.807 249.856L239.399 300.963C233.889 304.147 229.385 301.542 229.385 295.174V87.5341C229.385 81.1667 233.893 73.3522 239.399 70.1685L327.807 19.066C333.318 15.8823 337.826 18.4871 337.826 24.8498V232.49V232.486Z" fill="#E8ECF7"/>
<path d="M327.909 13.8049V13.8189C326.072 12.6192 323.48 12.6892 320.608 14.3511L232.205 65.4536C226.694 68.6373 222.19 76.4518 222.19 82.8192V290.464C222.19 293.667 223.333 295.917 225.17 296.958L232.28 301.607C230.503 300.543 229.398 298.321 229.398 295.174V87.5341C229.398 81.1667 233.907 73.3522 239.413 70.1685L327.821 19.066C330.688 17.4088 333.276 17.3294 335.108 18.5245V18.5151L327.919 13.8096L327.909 13.8049ZM232.354 301.663C232.354 301.663 232.345 301.663 232.345 301.659H232.354V301.663Z" fill="url(#paint26_linear_61_15078)"/>
<path d="M331.541 31.3059V223.821L235.674 279.237V87.6975L331.541 31.3059Z" fill="white"/>
<path d="M302.202 113.76C302.407 113.643 302.599 113.531 302.78 113.424V85.2653C302.599 85.3727 302.403 85.4847 302.202 85.6014L264.433 107.434V135.593L302.202 113.76Z" fill="#5652CC"/>
<path d="M293.129 109.022L302.785 103.439V95.2506L293.129 100.834L302.785 89.6254V85.3774L286.863 103.863V94.471L279.776 98.565V107.957L264.433 107.887V112.131L273.51 112.173L264.433 117.42V125.612L273.51 120.365L264.433 130.897V135.145L279.776 117.336V126.723L286.863 122.629V113.242L302.785 113.312V109.068L293.129 109.022Z" fill="white"/>
<path d="M302.785 96.4269L285.842 106.225V95.0638L280.797 97.9767V109.138L264.433 118.601V124.431L280.797 114.974V126.135L285.842 123.218V112.056L302.785 102.262V96.4269Z" fill="#ED5743"/>
<path d="M302.785 87.1606L288.9 103.275L292.211 101.361L302.785 89.0886V87.1606Z" fill="#ED5743"/>
<path d="M302.785 109.601L292.211 109.554L288.9 111.468L302.785 111.528V109.601Z" fill="#ED5743"/>
<path d="M264.433 111.598L274.424 111.645L277.739 109.731L264.433 109.671V111.598Z" fill="#ED5743"/>
<path d="M264.433 133.362L277.739 117.919L274.424 119.833L264.433 131.434V133.362Z" fill="#ED5743"/>
<path d="M277.217 176.304L264.433 183.694V155.54L277.217 148.15V176.304Z" fill="#807DFB"/>
<path d="M290.001 168.914L277.217 176.304V148.15L290.001 140.756V168.914Z" fill="#F6F6FB"/>
<path d="M302.786 161.525L290.002 168.914V140.756L302.786 133.366V161.525Z" fill="#ED5743"/>
<path d="M264.433 231.907V203.753L302.785 181.579V209.738L264.433 231.907Z" fill="#ED5743"/>
<path d="M270.816 209.541L268.508 212.739L269.324 209.149L267.081 208.482L269.892 206.787L270.816 203.179L271.743 205.718L274.555 204.159L272.312 207.422L273.128 210.064L270.816 209.541Z" fill="#FCBA06"/>
<path d="M280.378 201.223L279.935 202.38L279.795 201.438L278.919 201.741L279.716 200.807L279.614 199.836L280.248 200.205L281.064 199.3L280.658 200.462L281.264 200.873L280.378 201.223Z" fill="#FCBA06"/>
<path d="M280.135 206.026L279.436 207.081L279.636 205.952L278.886 205.816L279.781 205.205L280.019 204.07L280.368 204.822L281.268 204.252L280.592 205.326L280.909 206.115L280.135 206.026Z" fill="#FCBA06"/>
<path d="M277.292 210.662L276.425 211.432L276.956 210.288L276.467 209.705L277.32 209.541L277.879 208.407L277.875 209.448L278.714 209.331L277.856 210.139L277.814 211.203L277.292 210.662Z" fill="#FCBA06"/>
<path d="M277.786 199.486L277.739 200.551L277.217 200L276.35 200.77L276.886 199.626L276.401 199.038L277.249 198.879L277.818 197.745L277.804 198.791L278.644 198.683L277.786 199.486Z" fill="#FCBA06"/>
<path d="M253.246 97.0386C256 92.2627 255.999 87.1005 253.245 85.5085C250.491 83.9165 246.026 86.4975 243.273 91.2734C240.519 96.0493 240.519 101.211 243.273 102.803C246.027 104.395 250.492 101.814 253.246 97.0386Z" fill="#DAE0F5"/>
<path d="M247.224 94.7371C246.636 94.6297 246.24 94.0462 246.24 93.1125C246.24 91.6934 247.144 90.0222 248.263 89.3733C249.382 88.7291 250.287 89.3547 250.287 90.7691C250.287 91.7027 249.891 92.7391 249.303 93.528C251.014 93.2059 252.105 94.2796 252.101 95.6707C251.811 95.8387 248.259 97.8881 248.259 97.8881C248.259 97.8881 244.711 99.9421 244.417 100.11C244.417 98.719 245.508 96.3849 247.219 94.7324L247.224 94.7371Z" fill="white"/>
<path d="M326.147 43.0884L317.163 48.2794V46.9723L326.147 41.7766V43.0884Z" fill="#CED3F8"/>
<path d="M326.147 46.3374L317.163 51.5331V50.2214L326.147 45.0303V46.3374Z" fill="#CED3F8"/>
<path d="M326.147 49.5911L317.163 54.7868V53.4751L326.147 48.2794V49.5911Z" fill="#CED3F8"/>
<path style="mix-blend-mode:multiply" d="M395.981 320.807H352.08V328.888H395.981V320.807Z" fill="url(#paint27_linear_61_15078)"/>
<path style="mix-blend-mode:multiply" d="M415.781 309.142H371.876V317.222H415.781V309.142Z" fill="url(#paint28_linear_61_15078)"/>
<path d="M376.734 314.734C376.734 308.385 372.715 308.203 372.715 308.203C372.715 308.203 370.538 308.203 367.009 306.733C363.521 305.281 358.607 305.841 361.353 310.915C361.376 310.976 361.409 311.037 361.446 311.102C361.614 311.373 361.903 311.634 362.337 311.886L371.116 317.04C372.454 317.806 376.702 316.036 376.734 314.729V314.734Z" fill="url(#paint29_linear_61_15078)"/>
<path d="M376.706 314.165C376.631 315.467 372.44 317.203 371.111 316.443L362.332 311.289C362.043 311.121 361.539 310.785 361.092 310.388C361.171 310.565 361.241 310.729 361.344 310.92C361.367 310.981 361.4 311.042 361.437 311.107C361.605 311.378 361.894 311.639 362.327 311.891L371.107 317.045C372.361 317.764 376.165 316.256 376.669 314.986C376.692 314.888 376.706 314.799 376.706 314.729C376.725 314.533 376.706 314.356 376.701 314.165H376.706Z" fill="#20196F"/>
<path d="M375.098 307.368C374.063 307.368 370.422 308.297 370.422 308.297C370.422 308.297 370.398 308.801 370.095 309.24C370.058 309.282 370.025 309.319 369.993 309.361C369.275 309.86 368.547 310.654 370.249 311.723C371.643 312.601 372.781 312.045 373.317 311.504C373.536 311.098 373.858 310.64 374.305 310.379C374.767 310.113 375.051 309.991 375.256 309.977C375.256 309.949 375.266 309.888 375.266 309.888C375.266 309.888 375.527 307.363 375.093 307.363L375.098 307.368Z" fill="white"/>
<path d="M375.163 245.309C371.196 245.379 361.274 245.556 357.307 245.626C358.785 257.572 361.755 268.421 363.741 279.989C365.871 291.23 368.272 299.133 370.366 308.488C371.131 310.229 374.641 309.571 375.355 307.895C375.909 299.278 376.548 288.779 373.998 278.84C374.427 268.122 375.411 256.125 375.163 245.309Z" fill="#20196F"/>
<path d="M356.723 326.395C356.723 320.047 352.704 319.864 352.704 319.864C352.704 319.864 350.527 319.864 346.993 318.394C343.506 316.942 338.591 317.502 341.338 322.577C341.361 322.637 341.393 322.698 341.431 322.763C341.599 323.034 341.888 323.296 342.321 323.548L351.101 328.701C352.439 329.467 356.686 327.698 356.719 326.391L356.723 326.395Z" fill="url(#paint30_linear_61_15078)"/>
<path d="M356.699 325.826C356.625 327.128 352.433 328.865 351.104 328.104L342.325 322.95C342.036 322.782 341.533 322.446 341.085 322.049C341.169 322.227 341.239 322.39 341.337 322.581C341.36 322.642 341.393 322.703 341.43 322.768C341.598 323.039 341.887 323.3 342.32 323.552L351.1 328.706C352.349 329.425 356.158 327.917 356.662 326.647C356.681 326.549 356.699 326.461 356.699 326.391C356.718 326.194 356.699 326.017 356.69 325.826H356.699Z" fill="#20196F"/>
<path d="M355.088 319.029C354.057 319.029 350.411 319.958 350.411 319.958C350.411 319.958 350.388 320.462 350.09 320.901C350.052 320.943 350.02 320.98 349.987 321.022C349.274 321.522 348.542 322.315 350.244 323.384C351.638 324.262 352.775 323.706 353.311 323.165C353.531 322.759 353.852 322.301 354.3 322.04C354.761 321.774 355.046 321.652 355.246 321.638C355.246 321.61 355.256 321.55 355.256 321.55C355.256 321.55 355.517 319.024 355.083 319.024L355.088 319.029Z" fill="white"/>
<path d="M362.571 273.715C363.657 268.58 376.171 267.94 375.35 247.75C371.424 247.172 351.614 256.475 347.688 255.896C347.199 267.922 348.36 279.111 348.43 290.852C348.695 302.293 349.777 310.477 350.318 320.051C350.789 321.895 354.36 321.82 355.335 320.285C357.288 311.872 359.629 301.621 358.734 291.393C359.904 285.731 361.293 279.727 362.566 273.715H362.571Z" fill="url(#paint31_linear_61_15078)"/>
<path d="M366.295 208.542C380.268 217.893 381.937 236.458 374.379 248.241C374.379 248.241 376.002 222.132 366.295 208.542Z" fill="url(#paint32_linear_61_15078)"/>
<path d="M366.934 259.197C358.43 263.977 349.529 263.986 346.494 258.109C347.627 247.172 348.69 238.269 346.503 227.78C347.151 221.987 348.457 218.472 347.716 215.092C352.397 214.452 356.425 207.254 359.138 206.703C370.771 204.327 376.422 225.077 375.447 247.2C374.547 253.081 371.121 256.839 366.934 259.192V259.197Z" fill="url(#paint33_linear_61_15078)"/>
<path d="M365.586 208.024C363.064 206.199 363.437 205.004 363.814 202.521C364.295 201.218 364.574 199.771 364.574 198.23C364.574 192.699 361.054 187.918 356.742 188.213C348.051 188.81 349.599 193.39 349.599 198.921C349.599 204.047 351.921 207.576 355.805 208.169C355.805 209.009 354.196 210.811 353.138 211.871C357.385 215.185 361.507 211.451 363.143 210.713C364.887 209.924 366.77 209.247 365.586 208.02V208.024Z" fill="#FCD1A9"/>
<path d="M350.588 215.713C337.17 213.201 328.442 203.295 323.006 193.646L318.46 195.658C321.225 208.057 330.838 225.175 348.434 228.368C357.335 228.368 356.635 216.842 350.588 215.713Z" fill="url(#paint34_linear_61_15078)"/>
<path d="M322.469 192.026L322.488 192.078C322.488 189.828 322.017 188.516 321.15 188.133L321.159 188.157C320.964 187.596 320.768 187.032 320.577 186.499C319.458 183.358 315.947 180.669 315.201 181.416C314.753 181.869 316.539 183.246 317.476 184.744C318.096 185.729 318.101 186.275 318.259 187.097C318.259 187.097 314.059 187.489 314.059 190.985C314.059 193.828 315.588 192.703 315.588 192.143C316.67 195.019 317.956 193.32 318.455 195.668L323.001 193.656C323.001 193.656 322.787 193.007 322.465 192.031L322.469 192.026Z" fill="#FCD1A9"/>
<path d="M360.56 186.817C359.441 186.238 358.429 186.537 357.805 186.135C356.317 185.225 354.914 184.646 354.126 185.076C353.744 185.286 353.021 185.958 353.021 185.958C352.247 186.733 350.662 185.085 350.284 187.083C350.172 187.671 350.149 188.157 350.154 188.637C346.443 189.114 348.27 192.498 351.249 199.019C351.249 197.96 353.497 195.514 353.497 200.219C353.497 200.723 353.119 200.821 353.45 201.494C353.781 202.161 355.916 203.851 357.324 205.256C359.287 207.221 360.439 205.457 363.689 205.812C363.689 204.42 364.048 203.72 364.542 202.847C364.854 202.296 366.635 200.546 366.635 197.493C364.118 197.806 368.593 190.962 360.555 186.817H360.56Z" fill="#20196F"/>
<g style="mix-blend-mode:multiply">
<path d="M314.994 418.494L293.962 430.65L302.527 430.538L323.367 418.494L314.994 413.653L311.245 416.328L314.994 418.494Z" fill="url(#paint35_linear_61_15078)"/>
<path d="M322.23 429.548L304.914 430.509L315.283 430.374L322.23 434.389L302.303 434.641L297.291 449.644H305.665L310.681 434.641L330.603 434.389L322.23 429.548Z" fill="url(#paint36_linear_61_15078)"/>
<path d="M294.344 434.944L286.484 434.972L279.196 439.183H287.57L294.214 435.346L294.344 434.944Z" fill="url(#paint37_linear_61_15078)"/>
</g>
<path d="M279.197 439.183L273.793 436.06V430.089L279.197 433.212V439.183Z" fill="#5652CC"/>
<path d="M314.995 418.494L279.197 439.183V433.212L314.995 412.518V418.494Z" fill="#423EAF"/>
<path d="M302.303 434.641L297.291 449.644V443.669L302.303 428.666V434.641Z" fill="#423EAF"/>
<path d="M294.344 434.944L286.483 434.972V429.002L294.344 428.974V434.944Z" fill="#5652CC"/>
<path d="M297.291 449.644L290.727 445.849V439.879L297.291 443.669V449.644Z" fill="#5652CC"/>
<path d="M322.23 434.389L302.303 434.641V428.666L322.23 428.418V434.389Z" fill="#5652CC"/>
<path d="M279.197 433.212L273.793 430.089L309.586 409.395L314.989 412.518L293.958 424.679L315.279 424.399L322.225 428.413L302.303 428.666L297.287 443.669L290.727 439.874L294.345 428.969L286.484 428.997L279.201 433.208L279.197 433.212Z" fill="#807DFB"/>
<path style="mix-blend-mode:multiply" d="M474.573 406.062L453.284 393.757L439.325 364.105H422.834L434.7 389.966L419.044 400.708L440.332 413.013H462.544L474.573 406.062Z" fill="url(#paint38_linear_61_15078)"/>
<path d="M412.488 389.966V373.376L404.082 355.048V371.639L412.488 389.966Z" fill="#CED3F8"/>
<path d="M419.044 400.708V384.122L440.332 396.427V413.013L419.044 400.708Z" fill="#CED3F8"/>
<path d="M367.754 392.641L367.759 376.051L419.044 384.122V400.708L367.754 392.641Z" fill="#BBC0E6"/>
<path d="M440.332 413.013V396.427L452.361 389.472V406.062L440.332 413.013Z" fill="#BBC0E6"/>
<path d="M452.361 389.472L440.328 396.427L419.04 384.122L367.749 376.051L380.785 368.516L412.484 373.376L404.078 355.053L417.114 347.519L431.073 377.166L452.361 389.472Z" fill="#F6F6FB"/>
<path style="mix-blend-mode:multiply" d="M591.057 380.177L553.571 358.61C549.837 356.449 543.72 356.449 539.985 358.61L502.495 380.173C498.761 382.334 498.761 385.863 502.495 388.024L537.598 408.219V411.211H546.774C549.235 411.211 551.697 410.67 553.567 409.591L591.052 388.024C594.787 385.863 594.787 382.329 591.052 380.173L591.057 380.177Z" fill="url(#paint39_linear_61_15078)"/>
<path d="M544.401 404.33C540.666 406.492 534.549 406.492 530.814 404.33L493.329 382.763C489.595 380.602 489.595 377.073 493.329 374.912L530.819 353.345C534.554 351.183 540.666 351.183 544.401 353.345L581.886 374.912C585.62 377.073 585.62 380.607 581.886 382.763L544.401 404.33Z" fill="#F6F6FB"/>
<path d="M493.329 382.763L530.814 404.33C534.548 406.492 540.661 406.492 544.4 404.33L581.89 382.763C583.596 381.778 584.51 380.504 584.659 379.206V383.758C584.687 383.991 584.687 384.22 584.659 384.453V384.481C584.51 385.774 583.592 387.049 581.89 388.034L544.4 409.601C540.665 411.762 534.548 411.762 530.814 409.601L493.329 388.034C491.426 386.937 490.498 385.48 490.531 384.033V378.837C490.526 380.261 491.459 381.685 493.329 382.763Z" fill="url(#paint40_linear_61_15078)"/>
<g style="mix-blend-mode:multiply">
<path d="M512.076 377.666L523.709 370.939C526.627 369.254 529.793 368.091 533.215 367.452C536.633 366.812 540.013 366.738 543.351 367.223C546.689 367.709 549.715 368.736 552.419 370.299C555.128 371.863 556.9 373.614 557.744 375.542C558.583 377.47 558.453 379.426 557.348 381.4C556.243 383.375 554.233 385.205 551.315 386.895L539.682 393.617L512.081 377.661L512.076 377.666ZM547.645 385.051C549.879 383.758 551.412 382.371 552.238 380.892C553.068 379.412 553.156 377.951 552.513 376.513C551.869 375.08 550.522 373.768 548.47 372.582C546.419 371.396 544.153 370.617 541.668 370.248C539.183 369.875 536.661 369.931 534.096 370.407C531.532 370.883 529.136 371.77 526.898 373.063L519.447 377.372L540.19 389.364L547.641 385.055L547.645 385.051Z" fill="#DAE0F5"/>
</g>
<path style="mix-blend-mode:multiply" d="M262.166 325.083L243.069 320.392L239.367 322.535L179.656 313.026L167.301 320.168L184.944 322.964L163.133 335.573L135.816 338.369L137.602 353.685L195.881 347.701L201.737 344.288L267.779 338.588L275.374 334.196L262.166 325.083Z" fill="url(#paint41_linear_61_15078)"/>
<path d="M165.735 295.17L151.594 286.991L167.301 320.168L181.442 328.342L165.735 295.17Z" fill="#A3A9D0"/>
<path d="M160.079 280.54L145.938 272.361L157.175 265.868L171.32 274.042L160.079 280.54Z" fill="#F6F6FB"/>
<path d="M159.184 316.424L145.043 308.25L158.07 300.72L172.21 308.894L159.184 316.424Z" fill="#F6F6FB"/>
<path d="M181.443 328.342L176.604 318.147L154.793 330.755L149.954 346.548L137.599 353.69L160.076 280.544L171.317 274.046L193.794 321.204L181.439 328.346L181.443 328.342ZM165.741 295.17L159.19 316.424L172.217 308.894L165.741 295.17Z" fill="#BBC0E6"/>
<path d="M137.603 353.685L123.457 345.511L145.939 272.361L160.08 280.54L137.603 353.685Z" fill="#CED3F8"/>
<path d="M349.697 89.8401L390.367 113.354C393.336 115.072 395.766 119.278 395.77 122.699V157.043C395.77 160.465 393.336 161.861 390.367 160.143L371.666 149.331L367.586 151.689L363.507 144.612L349.697 136.629C346.727 134.911 344.298 130.705 344.298 127.284V92.9398C344.298 89.518 346.727 88.1223 349.702 89.8401H349.697Z" fill="#FFD03E"/>
<path d="M392.614 112.056L351.944 88.5424C350.382 87.6368 348.974 87.6041 347.986 88.267L345.967 89.4293C346.937 88.9112 348.256 89.0045 349.706 89.8448L390.376 113.358C393.346 115.076 395.775 119.282 395.779 122.704V157.048C395.779 158.696 395.211 159.872 394.287 160.456L396.339 159.27C397.374 158.733 398.027 157.51 398.027 155.745V121.402C398.027 117.98 395.597 113.774 392.623 112.056H392.614Z" fill="url(#paint42_linear_61_15078)"/>
<path d="M384.303 127.41C384.303 126.392 383.59 125.155 382.709 124.646C381.828 124.137 381.114 124.548 381.114 125.566C381.114 126.583 381.828 127.82 382.709 128.329C383.59 128.838 384.303 128.427 384.303 127.41Z" fill="white"/>
<path d="M378.775 124.231C378.775 123.213 378.062 121.976 377.18 121.467C376.299 120.958 375.586 121.369 375.586 122.387C375.586 123.404 376.299 124.641 377.18 125.15C378.062 125.659 378.775 125.248 378.775 124.231Z" fill="white"/>
<path d="M373.25 121.047C373.25 120.029 372.536 118.792 371.655 118.283C370.774 117.774 370.061 118.185 370.061 119.203C370.061 120.221 370.774 121.458 371.655 121.967C372.536 122.475 373.25 122.065 373.25 121.047Z" fill="white"/>
<path d="M367.721 117.868C367.721 116.85 367.008 115.613 366.127 115.104C365.246 114.595 364.532 115.006 364.532 116.024C364.532 117.042 365.246 118.279 366.127 118.787C367.008 119.296 367.721 118.886 367.721 117.868Z" fill="white"/>
<path d="M362.195 114.684C362.195 113.667 361.482 112.429 360.6 111.921C359.719 111.412 359.006 111.823 359.006 112.84C359.006 113.858 359.719 115.095 360.6 115.604C361.482 116.113 362.195 115.702 362.195 114.684Z" fill="white"/>
<g style="mix-blend-mode:multiply">
<path d="M358.773 126.336C359.864 126.966 360.885 127.069 361.659 126.621C362.634 126.06 364.214 126.975 365.184 128.656C366.774 131.415 369.366 132.909 370.956 131.994C371.427 131.723 372.052 131.784 372.719 132.171C373.385 132.559 374.01 133.217 374.481 134.034C375.25 135.369 376.276 136.452 377.367 137.082C378.458 137.712 379.479 137.815 380.253 137.367C381.223 136.807 382.808 137.722 383.778 139.402C385.367 142.161 387.96 143.655 389.55 142.74C389.857 142.562 389.857 141.979 389.55 141.442C389.242 140.905 388.738 140.616 388.426 140.793C387.456 141.353 385.871 140.438 384.901 138.753C383.311 135.999 380.724 134.501 379.134 135.42C378.663 135.691 378.038 135.63 377.372 135.247C376.705 134.865 376.08 134.202 375.609 133.385C374.84 132.05 373.814 130.967 372.723 130.337C371.632 129.706 370.611 129.604 369.837 130.052C368.867 130.612 367.282 129.697 366.312 128.012C364.723 125.258 362.135 123.759 360.545 124.679C360.074 124.949 359.449 124.889 358.783 124.506C358.116 124.123 357.491 123.46 357.02 122.643C356.251 121.308 355.225 120.225 354.134 119.595C353.043 118.965 352.018 118.862 351.248 119.31C350.941 119.488 350.941 120.071 351.248 120.608C351.556 121.145 352.06 121.434 352.372 121.257C352.843 120.986 353.468 121.047 354.134 121.434C354.801 121.822 355.426 122.48 355.897 123.297C356.666 124.632 357.692 125.715 358.783 126.345L358.773 126.336Z" fill="#D1D7F3"/>
</g>
<defs>
<linearGradient id="paint0_linear_61_15078" x1="538.438" y1="273.052" x2="676.555" y2="273.052" gradientUnits="userSpaceOnUse">
<stop stop-color="#DAE0F5"/>
<stop offset="0.45" stop-color="#E8EBF8"/>
<stop offset="1" stop-color="white"/>
</linearGradient>
<linearGradient id="paint1_linear_61_15078" x1="538.537" y1="247.442" x2="633.556" y2="247.442" gradientUnits="userSpaceOnUse">
<stop stop-color="#D1D7F3"/>
<stop offset="1" stop-color="#E8ECF7"/>
</linearGradient>
<linearGradient id="paint2_linear_61_15078" x1="472.28" y1="203.581" x2="459.007" y2="226.542" gradientUnits="userSpaceOnUse">
<stop stop-color="#807DFB"/>
<stop offset="0.29" stop-color="#5B56C8"/>
<stop offset="0.55" stop-color="#4039A2"/>
<stop offset="0.68" stop-color="#362E94"/>
</linearGradient>
<linearGradient id="paint3_linear_61_15078" x1="116.155" y1="284.115" x2="328.642" y2="284.115" gradientUnits="userSpaceOnUse">
<stop stop-color="#DAE0F5"/>
<stop offset="0.32" stop-color="#DFE4F6"/>
<stop offset="0.73" stop-color="#F0F2FB"/>
<stop offset="1" stop-color="white"/>
</linearGradient>
<linearGradient id="paint4_linear_61_15078" x1="105.115" y1="124.557" x2="210.232" y2="124.557" gradientUnits="userSpaceOnUse">
<stop stop-color="#DAE0F5"/>
<stop offset="0.32" stop-color="#DFE4F6"/>
<stop offset="0.73" stop-color="#F0F2FB"/>
<stop offset="1" stop-color="white"/>
</linearGradient>
<linearGradient id="paint5_linear_61_15078" x1="130.249" y1="234.708" x2="102.056" y2="234.708" gradientUnits="userSpaceOnUse">
<stop stop-color="#DC8B00"/>
<stop offset="0.43" stop-color="#F2AB04"/>
<stop offset="0.68" stop-color="#FCBA06"/>
</linearGradient>
<linearGradient id="paint6_linear_61_15078" x1="102.383" y1="457.3" x2="146.596" y2="457.3" gradientUnits="userSpaceOnUse">
<stop stop-color="#DAE0F5"/>
<stop offset="0.33" stop-color="#DEE3F6"/>
<stop offset="0.66" stop-color="#EAEDF9"/>
<stop offset="1" stop-color="white"/>
</linearGradient>
<linearGradient id="paint7_linear_61_15078" x1="301.452" y1="348.541" x2="330.405" y2="348.541" gradientUnits="userSpaceOnUse">
<stop stop-color="#DAE0F5"/>
<stop offset="0.57" stop-color="#F1F4FB"/>
<stop offset="1" stop-color="white"/>
</linearGradient>
<linearGradient id="paint8_linear_61_15078" x1="98.3042" y1="403.597" x2="272.862" y2="403.597" gradientUnits="userSpaceOnUse">
<stop offset="0.08" stop-color="#5652CC"/>
<stop offset="0.11" stop-color="#514DC5"/>
<stop offset="0.14" stop-color="#4440B3"/>
<stop offset="0.15" stop-color="#423EAF"/>
</linearGradient>
<linearGradient id="paint9_linear_61_15078" x1="188.715" y1="365.388" x2="257.596" y2="365.388" gradientUnits="userSpaceOnUse">
<stop stop-color="#D1D7F3"/>
<stop offset="0.5" stop-color="#E5E9F8"/>
<stop offset="1" stop-color="white"/>
</linearGradient>
<linearGradient id="paint10_linear_61_15078" x1="95.5936" y1="421.477" x2="166.307" y2="421.477" gradientUnits="userSpaceOnUse">
<stop stop-color="#D1D7F3"/>
<stop offset="0.5" stop-color="#E5E9F8"/>
<stop offset="1" stop-color="white"/>
</linearGradient>
<linearGradient id="paint11_linear_61_15078" x1="147.998" y1="419.465" x2="202.417" y2="419.465" gradientUnits="userSpaceOnUse">
<stop stop-color="#D1D7F3"/>
<stop offset="0.5" stop-color="#E5E9F8"/>
<stop offset="1" stop-color="white"/>
</linearGradient>
<linearGradient id="paint12_linear_61_15078" x1="240.416" y1="365.412" x2="303.292" y2="365.412" gradientUnits="userSpaceOnUse">
<stop stop-color="#D1D7F3"/>
<stop offset="0.5" stop-color="#E5E9F8"/>
<stop offset="1" stop-color="white"/>
</linearGradient>
<linearGradient id="paint13_linear_61_15078" x1="138.417" y1="391.395" x2="174.905" y2="391.395" gradientUnits="userSpaceOnUse">
<stop stop-color="#D1D7F3"/>
<stop offset="0.5" stop-color="#E5E9F8"/>
<stop offset="1" stop-color="white"/>
</linearGradient>
<linearGradient id="paint14_linear_61_15078" x1="276.626" y1="332.777" x2="272.43" y2="340.411" gradientUnits="userSpaceOnUse">
<stop stop-color="#F6F6FB"/>
<stop offset="1" stop-color="#CED3F8"/>
</linearGradient>
<linearGradient id="paint15_linear_61_15078" x1="188.726" y1="352.938" x2="290.506" y2="352.938" gradientUnits="userSpaceOnUse">
<stop offset="0.53" stop-color="#BBC0E6"/>
<stop offset="0.7" stop-color="#C7CCF1"/>
<stop offset="0.87" stop-color="#CED3F8"/>
</linearGradient>
<linearGradient id="paint16_linear_61_15078" x1="95.5949" y1="406.23" x2="189.592" y2="406.23" gradientUnits="userSpaceOnUse">
<stop offset="0.53" stop-color="#BBC0E6"/>
<stop offset="0.7" stop-color="#C7CCF1"/>
<stop offset="0.87" stop-color="#CED3F8"/>
</linearGradient>
<linearGradient id="paint17_linear_61_15078" x1="193.62" y1="377.288" x2="293.609" y2="377.288" gradientUnits="userSpaceOnUse">
<stop stop-color="#CED3F8"/>
<stop offset="0.5" stop-color="#C7CCF1"/>
<stop offset="1" stop-color="#BBC0E6"/>
</linearGradient>
<linearGradient id="paint18_linear_61_15078" x1="178.669" y1="385.396" x2="193.621" y2="385.396" gradientUnits="userSpaceOnUse">
<stop stop-color="#CED3F8"/>
<stop offset="0.5" stop-color="#C7CCF1"/>
<stop offset="1" stop-color="#BBC0E6"/>
</linearGradient>
<linearGradient id="paint19_linear_61_15078" x1="92.5176" y1="433.082" x2="192.735" y2="433.082" gradientUnits="userSpaceOnUse">
<stop stop-color="#CED3F8"/>
<stop offset="0.5" stop-color="#C7CCF1"/>
<stop offset="1" stop-color="#BBC0E6"/>
</linearGradient>
<linearGradient id="paint20_linear_61_15078" x1="201.337" y1="442.424" x2="185.929" y2="386.818" gradientUnits="userSpaceOnUse">
<stop stop-color="#E8ECF7"/>
<stop offset="0.44" stop-color="#EEF1F9"/>
<stop offset="1" stop-color="white"/>
</linearGradient>
<linearGradient id="paint21_linear_61_15078" x1="222.494" y1="393.121" x2="182.641" y2="443.684" gradientUnits="userSpaceOnUse">
<stop stop-color="#CED3F8"/>
<stop offset="0.12" stop-color="#D8DCF9"/>
<stop offset="0.43" stop-color="#EDEFFC"/>
<stop offset="0.72" stop-color="#FAFBFE"/>
<stop offset="1" stop-color="white"/>
</linearGradient>
<linearGradient id="paint22_linear_61_15078" x1="107.75" y1="495.781" x2="91.6971" y2="437.861" gradientUnits="userSpaceOnUse">
<stop stop-color="#E8ECF7"/>
<stop offset="0.44" stop-color="#EEF1F9"/>
<stop offset="1" stop-color="white"/>
</linearGradient>
<linearGradient id="paint23_linear_61_15078" x1="127.567" y1="444.198" x2="90.3913" y2="491.364" gradientUnits="userSpaceOnUse">
<stop stop-color="#CED3F8"/>
<stop offset="0.12" stop-color="#D8DCF9"/>
<stop offset="0.43" stop-color="#EDEFFC"/>
<stop offset="0.72" stop-color="#FAFBFE"/>
<stop offset="1" stop-color="white"/>
</linearGradient>
<linearGradient id="paint24_linear_61_15078" x1="98.4599" y1="435.679" x2="94.2643" y2="443.313" gradientUnits="userSpaceOnUse">
<stop stop-color="#F6F6FB"/>
<stop offset="1" stop-color="#CED3F8"/>
</linearGradient>
<linearGradient id="paint25_linear_61_15078" x1="230.984" y1="271.848" x2="443.377" y2="271.848" gradientUnits="userSpaceOnUse">
<stop stop-color="#D1D7F3"/>
<stop offset="0.31" stop-color="#DBDFF5"/>
<stop offset="0.83" stop-color="#F5F7FC"/>
<stop offset="0.98" stop-color="white"/>
</linearGradient>
<linearGradient id="paint26_linear_61_15078" x1="328.567" y1="14.1831" x2="179.909" y2="271.346" gradientUnits="userSpaceOnUse">
<stop offset="0.3" stop-color="#807DFB"/>
<stop offset="0.31" stop-color="#7B78F5"/>
<stop offset="0.41" stop-color="#5652CC"/>
</linearGradient>
<linearGradient id="paint27_linear_61_15078" x1="352.08" y1="324.845" x2="395.981" y2="324.845" gradientUnits="userSpaceOnUse">
<stop stop-color="#D1D7F3"/>
<stop offset="0.33" stop-color="#E8EBF9"/>
<stop offset="0.65" stop-color="#F9F9FD"/>
<stop offset="0.9" stop-color="white"/>
</linearGradient>
<linearGradient id="paint28_linear_61_15078" x1="371.876" y1="313.18" x2="415.777" y2="313.18" gradientUnits="userSpaceOnUse">
<stop stop-color="#D1D7F3"/>
<stop offset="0.33" stop-color="#E8EBF9"/>
<stop offset="0.65" stop-color="#F9F9FD"/>
<stop offset="0.9" stop-color="white"/>
</linearGradient>
<linearGradient id="paint29_linear_61_15078" x1="360.551" y1="311.634" x2="376.734" y2="311.634" gradientUnits="userSpaceOnUse">
<stop stop-color="#5551CB"/>
<stop offset="0.66" stop-color="#3E37A3"/>
<stop offset="1" stop-color="#362E94"/>
</linearGradient>
<linearGradient id="paint30_linear_61_15078" x1="340.54" y1="323.296" x2="356.723" y2="323.296" gradientUnits="userSpaceOnUse">
<stop stop-color="#5551CB"/>
<stop offset="0.66" stop-color="#3E37A3"/>
<stop offset="1" stop-color="#362E94"/>
</linearGradient>
<linearGradient id="paint31_linear_61_15078" x1="347.567" y1="284.578" x2="375.387" y2="284.578" gradientUnits="userSpaceOnUse">
<stop stop-color="#423EAF"/>
<stop offset="0.3" stop-color="#353097"/>
<stop offset="0.75" stop-color="#251F7A"/>
<stop offset="1" stop-color="#20196F"/>
</linearGradient>
<linearGradient id="paint32_linear_61_15078" x1="370.239" y1="211.217" x2="378.17" y2="245.3" gradientUnits="userSpaceOnUse">
<stop stop-color="#362E94"/>
<stop offset="1" stop-color="#5652CC"/>
</linearGradient>
<linearGradient id="paint33_linear_61_15078" x1="346.494" y1="234.591" x2="375.555" y2="234.591" gradientUnits="userSpaceOnUse">
<stop stop-color="#807DFB"/>
<stop offset="0.37" stop-color="#6966E2"/>
<stop offset="0.73" stop-color="#5B57D1"/>
<stop offset="1" stop-color="#5652CC"/>
</linearGradient>
<linearGradient id="paint34_linear_61_15078" x1="354.761" y1="222.542" x2="312.197" y2="198.948" gradientUnits="userSpaceOnUse">
<stop stop-color="#5652CC"/>
<stop offset="0.18" stop-color="#6662DE"/>
<stop offset="0.4" stop-color="#7471EE"/>
<stop offset="0.66" stop-color="#7D7AF8"/>
<stop offset="1" stop-color="#807DFB"/>
</linearGradient>
<linearGradient id="paint35_linear_61_15078" x1="293.962" y1="422.153" x2="323.367" y2="422.153" gradientUnits="userSpaceOnUse">
<stop stop-color="#DAE0F5"/>
<stop offset="0.33" stop-color="#DEE3F6"/>
<stop offset="0.66" stop-color="#EAEDF9"/>
<stop offset="1" stop-color="white"/>
</linearGradient>
<linearGradient id="paint36_linear_61_15078" x1="297.291" y1="439.594" x2="330.603" y2="439.594" gradientUnits="userSpaceOnUse">
<stop stop-color="#DAE0F5"/>
<stop offset="0.33" stop-color="#DEE3F6"/>
<stop offset="0.66" stop-color="#EAEDF9"/>
<stop offset="1" stop-color="white"/>
</linearGradient>
<linearGradient id="paint37_linear_61_15078" x1="279.196" y1="437.064" x2="294.344" y2="437.064" gradientUnits="userSpaceOnUse">
<stop stop-color="#DAE0F5"/>
<stop offset="0.33" stop-color="#DEE3F6"/>
<stop offset="0.66" stop-color="#EAEDF9"/>
<stop offset="1" stop-color="white"/>
</linearGradient>
<linearGradient id="paint38_linear_61_15078" x1="419.044" y1="388.561" x2="474.573" y2="388.561" gradientUnits="userSpaceOnUse">
<stop stop-color="#DAE0F5"/>
<stop offset="0.45" stop-color="#E8EBF8"/>
<stop offset="1" stop-color="white"/>
</linearGradient>
<linearGradient id="paint39_linear_61_15078" x1="499.698" y1="384.108" x2="593.859" y2="384.108" gradientUnits="userSpaceOnUse">
<stop offset="0.37" stop-color="#C4CAE8"/>
<stop offset="0.52" stop-color="#CCD2EB"/>
<stop offset="0.78" stop-color="#E5E7F4"/>
<stop offset="1" stop-color="white"/>
</linearGradient>
<linearGradient id="paint40_linear_61_15078" x1="490.526" y1="395.027" x2="584.678" y2="395.027" gradientUnits="userSpaceOnUse">
<stop offset="0.43" stop-color="#CED3F8"/>
<stop offset="0.54" stop-color="#B4BADC"/>
<stop offset="0.63" stop-color="#A5ABCC"/>
</linearGradient>
<linearGradient id="paint41_linear_61_15078" x1="135.812" y1="333.355" x2="275.374" y2="333.355" gradientUnits="userSpaceOnUse">
<stop stop-color="#C4CAE9"/>
<stop offset="0.44" stop-color="#E4E7F5"/>
<stop offset="0.85" stop-color="white"/>
</linearGradient>
<linearGradient id="paint42_linear_61_15078" x1="359.119" y1="81.8202" x2="402" y2="155.993" gradientUnits="userSpaceOnUse">
<stop offset="0.57" stop-color="#FCBA06"/>
<stop offset="0.64" stop-color="#ECA102"/>
<stop offset="0.7" stop-color="#E19100"/>
</linearGradient>
</defs>
</svg>
