<svg width="222" height="30" viewBox="0 0 222 30" fill="none" xmlns="http://www.w3.org/2000/svg">
<path d="M48.0746 8.7937L49.5385 7.00446L51.5717 8.57682L49.9723 10.4474C51.0567 11.7125 51.5989 13.0951 51.5989 14.5952C51.5989 15.8061 51.3006 16.8634 50.7042 17.767C50.1078 18.6707 49.2222 19.3484 48.0475 19.8002C50.397 20.5955 51.5717 22.0503 51.5717 24.1649C51.5717 25.8818 50.8579 27.2193 49.4301 28.1771C48.0204 29.135 46.3486 29.6139 44.4148 29.6139C42.2099 29.6139 40.4658 29.0808 39.1826 28.0145C37.9175 26.9662 37.312 25.5204 37.3663 23.6769H40.1586C40.1224 24.6709 40.52 25.4481 41.3514 26.0084C42.2008 26.5867 43.222 26.8849 44.4148 26.903C45.5534 26.903 46.5474 26.668 47.3969 26.1981C48.2463 25.7282 48.671 25.0505 48.671 24.1649C48.671 23.2432 48.2824 22.5293 47.5053 22.0232C46.7462 21.5172 45.7341 21.2642 44.469 21.2642C42.2822 21.2642 40.5291 20.6677 39.2097 19.4749C37.8904 18.2821 37.2307 16.6555 37.2307 14.5952C37.2307 12.4806 37.9446 10.836 39.3724 9.66121C40.8002 8.46838 42.499 7.87197 44.469 7.87197C45.9691 7.87197 47.1709 8.17921 48.0746 8.7937ZM44.469 10.4745C43.24 10.4745 42.1918 10.836 41.3243 11.5589C40.4748 12.2637 40.0501 13.2758 40.0501 14.5952C40.0501 15.8784 40.4658 16.8814 41.2972 17.6044C42.1466 18.3273 43.2039 18.6887 44.469 18.6887C45.716 18.6887 46.7462 18.3092 47.5595 17.5501C48.3909 16.773 48.8066 15.788 48.8066 14.5952C48.8066 13.3301 48.3818 12.327 47.5324 11.586C46.701 10.845 45.6799 10.4745 44.469 10.4745Z" fill="#161616"/>
<path d="M67.6277 16.0049H56.7838C56.9103 17.017 57.3621 17.8303 58.1393 18.4448C58.9345 19.0592 59.9376 19.3665 61.1485 19.3665C61.8714 19.3665 62.5943 19.24 63.3172 18.9869C64.0582 18.7158 64.6275 18.3634 65.0251 17.9297L66.8415 19.6918C66.1728 20.4147 65.3143 20.975 64.2661 21.3726C63.2359 21.7702 62.1786 21.969 61.0942 21.969C58.9074 21.969 57.1543 21.3274 55.835 20.0442C54.5337 18.761 53.8831 17.0441 53.8831 14.8934C53.8831 12.8511 54.5337 11.1794 55.835 9.87809C57.1362 8.57682 58.8261 7.92619 60.9045 7.92619C63.1455 7.92619 64.8896 8.61297 66.1366 9.98653C67.3837 11.3601 67.8807 13.3662 67.6277 16.0049ZM56.838 13.6463H64.9438C64.8715 12.6162 64.4739 11.8209 63.751 11.2607C63.0461 10.7004 62.1244 10.4203 60.9858 10.4203C59.9376 10.4203 59.0339 10.7004 58.2748 11.2607C57.5338 11.8209 57.0549 12.6162 56.838 13.6463Z" fill="#161616"/>
<path d="M71.9661 4.72724L74.7855 4.42904V8.30572H78.6893V10.7185H74.7584V17.0893C74.7584 18.5532 75.4 19.2852 76.6832 19.2852C77.2073 19.2852 77.7766 19.1315 78.3911 18.8243L79.2044 21.2099C78.3007 21.6076 77.4061 21.8064 76.5205 21.8064C75.0566 21.8425 73.927 21.463 73.1318 20.6677C72.3546 19.8545 71.9661 18.6616 71.9661 17.0893V10.7185H69.3906V8.30572H71.9661V4.72724Z" fill="#161616"/>
<path d="M83.0059 4.72724L85.8253 4.42904V8.30572H89.7291V10.7185H85.7982V17.0893C85.7982 18.5532 86.4398 19.2852 87.723 19.2852C88.2471 19.2852 88.8164 19.1315 89.4309 18.8243L90.2442 21.2099C89.3405 21.6076 88.4459 21.8064 87.5603 21.8064C86.0964 21.8425 84.9668 21.463 84.1716 20.6677C83.3944 19.8545 83.0059 18.6616 83.0059 17.0893V10.7185H80.4304V8.30572H83.0059V4.72724Z" fill="#161616"/>
<path d="M92.5546 8.27861H95.1571L95.3469 10.0407C96.1241 8.66719 97.4344 7.98041 99.2778 7.98041C100.633 7.98041 101.736 8.35994 102.585 9.11901L101.311 11.5589C100.642 11.0167 99.8562 10.7456 98.9525 10.7456C97.9223 10.7456 97.0639 11.0619 96.3771 11.6944C95.6903 12.327 95.3469 13.2307 95.3469 14.4054V21.6437H92.5546V8.27861Z" fill="#161616"/>
<path d="M114.778 10.3932L114.859 8.27861H117.57V21.6437H114.914L114.778 19.4749C114.362 20.2882 113.712 20.9117 112.826 21.3455C111.959 21.7792 111.073 21.9961 110.169 21.9961C108.163 22.0142 106.519 21.3997 105.235 20.1527C103.952 18.9056 103.311 17.1706 103.311 14.9476C103.311 12.7788 103.961 11.0799 105.262 9.85098C106.582 8.60393 108.236 7.98041 110.224 7.98041C111.181 7.98041 112.076 8.19728 112.907 8.63104C113.739 9.06479 114.362 9.65217 114.778 10.3932ZM110.44 10.5287C109.211 10.5287 108.181 10.9354 107.35 11.7487C106.519 12.5439 106.103 13.6102 106.103 14.9476C106.103 16.285 106.519 17.3604 107.35 18.1737C108.181 18.9869 109.211 19.3936 110.44 19.3936C111.236 19.3936 111.941 19.2309 112.555 18.9056C113.188 18.5803 113.657 18.1556 113.965 17.6315C114.29 17.1073 114.525 16.538 114.67 15.9235C114.832 15.291 114.832 14.6584 114.67 14.0259C114.525 13.3933 114.29 12.815 113.965 12.2908C113.657 11.7667 113.188 11.342 112.555 11.0167C111.941 10.6914 111.236 10.5287 110.44 10.5287Z" fill="#161616"/>
<path d="M134.317 21.6437H131.498V14.4867C131.498 13.312 131.181 12.3812 130.549 11.6944C129.916 10.9896 129.031 10.6372 127.892 10.6372C126.808 10.6372 125.913 11.0257 125.208 11.8029C124.503 12.58 124.151 13.5289 124.151 14.6494V21.6437H121.359V8.2515H123.907L124.07 10.2034C125.335 8.77562 126.835 8.06174 128.57 8.06174C130.251 8.06174 131.624 8.63104 132.691 9.76965C133.775 10.9083 134.317 12.4716 134.317 14.4596V21.6437Z" fill="#161616"/>
<path d="M148.017 9.71543L146.445 11.5589C145.541 10.7275 144.366 10.3118 142.92 10.3118C142.053 10.2938 141.357 10.4293 140.833 10.7185C140.327 10.9896 140.074 11.3872 140.074 11.9113C140.092 12.8692 141.059 13.4385 142.975 13.6192C143.734 13.6915 144.384 13.7909 144.927 13.9174C145.487 14.0259 146.074 14.2247 146.689 14.5138C147.321 14.7849 147.8 15.2006 148.125 15.7609C148.469 16.3212 148.641 17.0079 148.641 17.8212C148.622 19.0863 148.098 20.1075 147.068 20.8846C146.038 21.6618 144.664 22.0503 142.948 22.0503C140.345 22.0503 138.312 21.228 136.848 19.5834L138.312 17.6044C139.468 18.8875 141.032 19.5472 143.002 19.5834C143.761 19.5834 144.42 19.4388 144.981 19.1496C145.541 18.8604 145.83 18.4267 145.848 17.8483C145.866 17.27 145.613 16.8453 145.089 16.5742C144.583 16.3031 143.806 16.1133 142.758 16.0049C139.143 15.6615 137.327 14.3241 137.309 11.9926C137.309 10.6372 137.869 9.62506 138.99 8.95636C140.128 8.26958 141.42 7.92619 142.866 7.92619C144.963 7.92619 146.68 8.5226 148.017 9.71543Z" fill="#161616"/>
<path d="M151.542 2.69401H154.334V21.6437H151.542V2.69401Z" fill="#161616"/>
<path d="M168.892 10.3932L168.973 8.27861H171.684V21.6437H169.027L168.892 19.4749C168.476 20.2882 167.825 20.9117 166.94 21.3455C166.072 21.7792 165.187 21.9961 164.283 21.9961C162.277 22.0142 160.632 21.3997 159.349 20.1527C158.066 18.9056 157.424 17.1706 157.424 14.9476C157.424 12.7788 158.075 11.0799 159.376 9.85098C160.695 8.60393 162.349 7.98041 164.337 7.98041C165.295 7.98041 166.19 8.19728 167.021 8.63104C167.852 9.06479 168.476 9.65217 168.892 10.3932ZM164.554 10.5287C163.325 10.5287 162.295 10.9354 161.463 11.7487C160.632 12.5439 160.216 13.6102 160.216 14.9476C160.216 16.285 160.632 17.3604 161.463 18.1737C162.295 18.9869 163.325 19.3936 164.554 19.3936C165.349 19.3936 166.054 19.2309 166.669 18.9056C167.301 18.5803 167.771 18.1556 168.078 17.6315C168.404 17.1073 168.638 16.538 168.783 15.9235C168.946 15.291 168.946 14.6584 168.783 14.0259C168.638 13.3933 168.404 12.815 168.078 12.2908C167.771 11.7667 167.301 11.342 166.669 11.0167C166.054 10.6914 165.349 10.5287 164.554 10.5287Z" fill="#161616"/>
<path d="M176.963 4.72724L179.783 4.42904V8.30572H183.686V10.7185H179.756V17.0893C179.756 18.5532 180.397 19.2852 181.68 19.2852C182.204 19.2852 182.774 19.1315 183.388 18.8243L184.201 21.2099C183.298 21.6076 182.403 21.8064 181.518 21.8064C180.054 21.8425 178.924 21.463 178.129 20.6677C177.352 19.8545 176.963 18.6616 176.963 17.0893V10.7185H174.388V8.30572H176.963V4.72724Z" fill="#161616"/>
<path d="M189.304 8.22439H186.512V21.6437H189.304V8.22439ZM187.054 5.89296C186.476 5.58572 186.187 5.07063 186.187 4.34771C186.187 3.62478 186.476 3.11873 187.054 2.82956C187.632 2.54039 188.211 2.54039 188.789 2.82956C189.368 3.11873 189.657 3.62478 189.657 4.34771C189.657 5.07063 189.368 5.58572 188.789 5.89296C188.211 6.18213 187.632 6.18213 187.054 5.89296Z" fill="#161616"/>
<path d="M194.161 9.98653C195.445 8.66719 197.107 8.00752 199.15 8.00752C201.192 8.00752 202.855 8.67622 204.138 10.0136C205.439 11.333 206.09 12.9867 206.09 14.9747C206.09 16.9808 205.448 18.6436 204.165 19.9629C202.9 21.2642 201.228 21.9148 199.15 21.9148C197.089 21.9148 195.426 21.2642 194.161 19.9629C192.896 18.6436 192.264 16.9808 192.264 14.9747C192.264 12.9686 192.896 11.3059 194.161 9.98653ZM199.15 10.5829C197.921 10.5829 196.927 11.0077 196.167 11.8571C195.426 12.7065 195.056 13.7457 195.056 14.9747C195.056 16.2037 195.426 17.2339 196.167 18.0652C196.908 18.8966 197.902 19.3123 199.15 19.3123C200.397 19.3123 201.391 18.8966 202.132 18.0652C202.891 17.2339 203.27 16.2037 203.27 14.9747C203.27 13.7638 202.882 12.7336 202.104 11.8842C201.327 11.0167 200.342 10.5829 199.15 10.5829Z" fill="#161616"/>
<path d="M222 21.6437H219.181V14.4867C219.181 13.312 218.864 12.3812 218.232 11.6944C217.599 10.9896 216.714 10.6372 215.575 10.6372C214.491 10.6372 213.596 11.0257 212.891 11.8029C212.186 12.58 211.834 13.5289 211.834 14.6494V21.6437H209.042V8.2515H211.59L211.753 10.2034C213.018 8.77562 214.518 8.06174 216.253 8.06174C217.934 8.06174 219.307 8.63104 220.373 9.76965C221.458 10.9083 222 12.4716 222 14.4596V21.6437Z" fill="#161616"/>
<path d="M8.60786 8.44088V11.1068H6.698V13.3109H8.60786V17.782C8.60786 20.3639 10.061 21.6444 12.2823 21.5604C13.0504 21.5394 13.6524 21.4135 14.379 21.1196L13.6731 18.9365C13.2995 19.1254 12.8428 19.2514 12.4483 19.2514C11.6595 19.2514 11.1197 18.7686 11.1197 17.782V13.3109H13.9638V11.1068H11.1405V8.16799L8.60786 8.44088Z" fill="#161616"/>
<path d="M16.8994 8.44088V11.1068H14.9896V13.3109H16.8994V17.782C16.8994 20.3639 18.3526 21.6444 20.5738 21.5604C21.3419 21.5394 21.9439 21.4135 22.6705 21.1196L21.9647 18.9365C21.591 19.1254 21.1343 19.2514 20.7399 19.2514C19.9511 19.2514 19.4113 18.7686 19.4113 17.782V13.3109H22.2553V11.1068H19.4321V8.16799L16.8994 8.44088Z" fill="#161616"/>
<path fill-rule="evenodd" clip-rule="evenodd" d="M14.6844 27.2915C21.5467 27.2915 27.1097 21.7286 27.1097 14.8663C27.1097 8.00397 21.5467 2.44099 14.6844 2.44099C7.82213 2.44099 2.25914 8.00397 2.25914 14.8663C2.25914 21.7286 7.82213 27.2915 14.6844 27.2915ZM14.6844 29.5507C22.7944 29.5507 29.3688 22.9762 29.3688 14.8663C29.3688 6.75629 22.7944 0.181847 14.6844 0.181847C6.57444 0.181847 0 6.75629 0 14.8663C0 22.9762 6.57444 29.5507 14.6844 29.5507Z" fill="#161616"/>
</svg>
