<svg width="40" height="40" viewBox="0 0 40 40" fill="none" xmlns="http://www.w3.org/2000/svg">
<path d="M11.7238 11.2486V14.8795H9.12256V17.8815H11.7238V23.9711C11.7238 27.4877 13.7029 29.2316 16.7283 29.1173C17.7744 29.0887 18.5943 28.9172 19.5839 28.5169L18.6226 25.5436C18.1137 25.8009 17.4917 25.9724 16.9544 25.9724C15.88 25.9724 15.1449 25.3148 15.1449 23.9711V17.8815H19.0184V14.8795H15.1732V10.877L11.7238 11.2486Z" fill="#161616"/>
<path d="M23.0168 11.2486V14.8795H20.4156V17.8815H23.0168V23.9711C23.0168 27.4877 24.996 29.2316 28.0213 29.1173C29.0674 29.0887 29.8874 28.9172 30.8769 28.5169L29.9156 25.5436C29.4067 25.8009 28.7847 25.9724 28.2475 25.9724C27.1731 25.9724 26.4379 25.3148 26.4379 23.9711V17.8815H30.3115V14.8795H26.4662V10.877L23.0168 11.2486Z" fill="#161616"/>
<path fill-rule="evenodd" clip-rule="evenodd" d="M20 36.9231C29.3464 36.9231 36.9231 29.3464 36.9231 20C36.9231 10.6536 29.3464 3.07692 20 3.07692C10.6536 3.07692 3.07692 10.6536 3.07692 20C3.07692 29.3464 10.6536 36.9231 20 36.9231ZM20 40C31.0457 40 40 31.0457 40 20C40 8.95431 31.0457 0 20 0C8.95431 0 0 8.95431 0 20C0 31.0457 8.95431 40 20 40Z" fill="#161616"/>
</svg>
