<svg width="72" height="72" viewBox="0 0 72 72" fill="none" xmlns="http://www.w3.org/2000/svg">
<circle cx="36" cy="36" r="36" fill="#4247E5" fill-opacity="0.1"/>
<g clip-path="url(#clip0_510_6316)">
<path d="M53.9483 31.8697C53.8243 31.4878 53.4943 31.2095 53.097 31.1518L41.9369 29.5301L36.9458 19.4173C36.7682 19.0573 36.4015 18.8294 36.0001 18.8294C35.5986 18.8294 35.232 19.0573 35.0543 19.4173L30.063 29.5301L18.903 31.1518C18.5058 31.2095 18.1757 31.4878 18.0517 31.8696C17.9276 32.2514 18.0311 32.6706 18.3186 32.9508L26.3938 40.8225L24.4878 51.9377C24.4198 52.3334 24.5826 52.7332 24.9073 52.9692C25.091 53.1027 25.3087 53.1706 25.5273 53.1706C25.6952 53.1706 25.8637 53.1306 26.018 53.0495L36 47.8015L45.9816 53.0494C46.337 53.2362 46.7675 53.2051 47.0923 52.9692C47.4171 52.7332 47.5799 52.3333 47.512 51.9375L45.6053 40.8225L53.6815 32.9507C53.9689 32.6706 54.0725 32.2514 53.9483 31.8697Z" fill="#4247E5"/>
<g clip-path="url(#clip1_510_6316)">
<path d="M33.103 34.4373V35.7081H32.1926V36.7588H33.103V38.8901C33.103 40.121 33.7958 40.7313 34.8546 40.6913C35.2208 40.6813 35.5077 40.6213 35.8541 40.4812L35.5176 39.4405C35.3395 39.5306 35.1218 39.5906 34.9338 39.5906C34.5577 39.5906 34.3004 39.3605 34.3004 38.8901V36.7588H35.6562V35.7081H34.3103V34.3072L33.103 34.4373Z" fill="white"/>
<path d="M37.0557 34.4373V35.7081H36.1453V36.7588H37.0557V38.8901C37.0557 40.121 37.7484 40.7313 38.8073 40.6913C39.1734 40.6813 39.4604 40.6213 39.8067 40.4812L39.4703 39.4405C39.2922 39.5306 39.0745 39.5906 38.8864 39.5906C38.5104 39.5906 38.2531 39.3605 38.2531 38.8901V36.7588H39.6088V35.7081H38.263V34.3072L37.0557 34.4373Z" fill="white"/>
<path fill-rule="evenodd" clip-rule="evenodd" d="M36 31.6667C32.7783 31.6667 30.1667 34.2783 30.1667 37.5C30.1667 40.7217 32.7783 43.3333 36 43.3333C39.2217 43.3333 41.8333 40.7217 41.8333 37.5C41.8333 34.2783 39.2217 31.6667 36 31.6667ZM29 37.5C29 33.634 32.134 30.5 36 30.5C39.866 30.5 43 33.634 43 37.5C43 41.366 39.866 44.5 36 44.5C32.134 44.5 29 41.366 29 37.5Z" fill="white"/>
</g>
</g>
<defs>
<clipPath id="clip0_510_6316">
<rect width="36" height="36" fill="white" transform="translate(18 18)"/>
</clipPath>
<clipPath id="clip1_510_6316">
<rect width="14" height="14" fill="white" transform="translate(29 30.5)"/>
</clipPath>
</defs>
</svg>
