<svg width="222" height="30" viewBox="0 0 222 30" fill="none" xmlns="http://www.w3.org/2000/svg">
<path d="M48.0745 8.7937L49.5385 7.00446L51.5717 8.57682L49.9722 10.4474C51.0566 11.7125 51.5988 13.0951 51.5988 14.5952C51.5988 15.8061 51.3006 16.8634 50.7042 17.767C50.1078 18.6707 49.2222 19.3484 48.0474 19.8002C50.3969 20.5955 51.5717 22.0503 51.5717 24.1649C51.5717 25.8818 50.8578 27.2193 49.43 28.1771C48.0203 29.135 46.3485 29.6139 44.4147 29.6139C42.2098 29.6139 40.4657 29.0808 39.1826 28.0145C37.9174 26.9662 37.312 25.5204 37.3662 23.6769H40.1585C40.1224 24.6709 40.52 25.4481 41.3513 26.0084C42.2008 26.5867 43.2219 26.8849 44.4147 26.903C45.5533 26.903 46.5474 26.668 47.3968 26.1981C48.2462 25.7282 48.6709 25.0505 48.6709 24.1649C48.6709 23.2432 48.2824 22.5293 47.5052 22.0232C46.7462 21.5172 45.7341 21.2642 44.4689 21.2642C42.2821 21.2642 40.529 20.6677 39.2097 19.4749C37.8903 18.2821 37.2307 16.6555 37.2307 14.5952C37.2307 12.4806 37.9445 10.836 39.3723 9.66121C40.8001 8.46838 42.499 7.87197 44.4689 7.87197C45.969 7.87197 47.1709 8.17921 48.0745 8.7937ZM44.4689 10.4745C43.24 10.4745 42.1917 10.836 41.3242 11.5589C40.4748 12.2637 40.0501 13.2758 40.0501 14.5952C40.0501 15.8784 40.4657 16.8814 41.2971 17.6044C42.1465 18.3273 43.2038 18.6887 44.4689 18.6887C45.716 18.6887 46.7462 18.3092 47.5594 17.5501C48.3908 16.773 48.8065 15.788 48.8065 14.5952C48.8065 13.3301 48.3818 12.327 47.5323 11.586C46.701 10.845 45.6798 10.4745 44.4689 10.4745Z" fill="#161616"/>
<path d="M67.6276 16.0049H56.7837C56.9102 17.017 57.3621 17.8303 58.1392 18.4448C58.9344 19.0592 59.9375 19.3665 61.1484 19.3665C61.8713 19.3665 62.5942 19.24 63.3172 18.9869C64.0582 18.7158 64.6275 18.3634 65.0251 17.9297L66.8414 19.6918C66.1727 20.4147 65.3143 20.975 64.266 21.3726C63.2358 21.7702 62.1786 21.969 61.0942 21.969C58.9073 21.969 57.1542 21.3274 55.8349 20.0442C54.5336 18.761 53.883 17.0441 53.883 14.8934C53.883 12.8511 54.5336 11.1794 55.8349 9.87809C57.1362 8.57682 58.826 7.92619 60.9044 7.92619C63.1455 7.92619 64.8895 8.61297 66.1366 9.98653C67.3836 11.3601 67.8806 13.3662 67.6276 16.0049ZM56.838 13.6463H64.9438C64.8715 12.6162 64.4739 11.8209 63.7509 11.2607C63.0461 10.7004 62.1243 10.4203 60.9857 10.4203C59.9375 10.4203 59.0338 10.7004 58.2748 11.2607C57.5338 11.8209 57.0548 12.6162 56.838 13.6463Z" fill="#161616"/>
<path d="M71.966 4.72724L74.7854 4.42904V8.30572H78.6892V10.7185H74.7583V17.0893C74.7583 18.5532 75.3999 19.2852 76.6831 19.2852C77.2072 19.2852 77.7765 19.1315 78.391 18.8243L79.2043 21.2099C78.3006 21.6076 77.406 21.8064 76.5204 21.8064C75.0565 21.8425 73.9269 21.463 73.1317 20.6677C72.3546 19.8545 71.966 18.6616 71.966 17.0893V10.7185H69.3906V8.30572H71.966V4.72724Z" fill="#161616"/>
<path d="M83.0058 4.72724L85.8252 4.42904V8.30572H89.729V10.7185H85.7981V17.0893C85.7981 18.5532 86.4397 19.2852 87.7229 19.2852C88.247 19.2852 88.8163 19.1315 89.4308 18.8243L90.2441 21.2099C89.3404 21.6076 88.4458 21.8064 87.5602 21.8064C86.0963 21.8425 84.9667 21.463 84.1715 20.6677C83.3944 19.8545 83.0058 18.6616 83.0058 17.0893V10.7185H80.4304V8.30572H83.0058V4.72724Z" fill="#161616"/>
<path d="M92.5546 8.27861H95.1571L95.3469 10.0407C96.124 8.66719 97.4343 7.98041 99.2778 7.98041C100.633 7.98041 101.736 8.35994 102.585 9.11901L101.311 11.5589C100.642 11.0167 99.8561 10.7456 98.9524 10.7456C97.9223 10.7456 97.0638 11.0619 96.377 11.6944C95.6902 12.327 95.3469 13.2307 95.3469 14.4054V21.6437H92.5546V8.27861Z" fill="#161616"/>
<path d="M114.778 10.3932L114.859 8.27861H117.57V21.6437H114.913L114.778 19.4749C114.362 20.2882 113.712 20.9117 112.826 21.3455C111.959 21.7792 111.073 21.9961 110.169 21.9961C108.163 22.0142 106.519 21.3997 105.235 20.1527C103.952 18.9056 103.311 17.1706 103.311 14.9476C103.311 12.7788 103.961 11.0799 105.262 9.85098C106.582 8.60393 108.235 7.98041 110.224 7.98041C111.181 7.98041 112.076 8.19728 112.907 8.63104C113.739 9.06479 114.362 9.65217 114.778 10.3932ZM110.44 10.5287C109.211 10.5287 108.181 10.9354 107.35 11.7487C106.519 12.5439 106.103 13.6102 106.103 14.9476C106.103 16.285 106.519 17.3604 107.35 18.1737C108.181 18.9869 109.211 19.3936 110.44 19.3936C111.236 19.3936 111.94 19.2309 112.555 18.9056C113.188 18.5803 113.657 18.1556 113.965 17.6315C114.29 17.1073 114.525 16.538 114.67 15.9235C114.832 15.291 114.832 14.6584 114.67 14.0259C114.525 13.3933 114.29 12.815 113.965 12.2908C113.657 11.7667 113.188 11.342 112.555 11.0167C111.94 10.6914 111.236 10.5287 110.44 10.5287Z" fill="#161616"/>
<path d="M134.317 21.6437H131.498V14.4867C131.498 13.312 131.181 12.3812 130.549 11.6944C129.916 10.9896 129.031 10.6372 127.892 10.6372C126.808 10.6372 125.913 11.0257 125.208 11.8029C124.503 12.58 124.151 13.5289 124.151 14.6494V21.6437H121.359V8.2515H123.907L124.07 10.2034C125.335 8.77562 126.835 8.06174 128.57 8.06174C130.251 8.06174 131.624 8.63104 132.69 9.76965C133.775 10.9083 134.317 12.4716 134.317 14.4596V21.6437Z" fill="#161616"/>
<path d="M148.017 9.71543L146.445 11.5589C145.541 10.7275 144.366 10.3118 142.92 10.3118C142.053 10.2938 141.357 10.4293 140.833 10.7185C140.327 10.9896 140.074 11.3872 140.074 11.9113C140.092 12.8692 141.059 13.4385 142.975 13.6192C143.734 13.6915 144.384 13.7909 144.926 13.9174C145.487 14.0259 146.074 14.2247 146.689 14.5138C147.321 14.7849 147.8 15.2006 148.125 15.7609C148.469 16.3212 148.64 17.0079 148.64 17.8212C148.622 19.0863 148.098 20.1075 147.068 20.8846C146.038 21.6618 144.664 22.0503 142.947 22.0503C140.345 22.0503 138.312 21.228 136.848 19.5834L138.312 17.6044C139.468 18.8875 141.032 19.5472 143.002 19.5834C143.761 19.5834 144.42 19.4388 144.981 19.1496C145.541 18.8604 145.83 18.4267 145.848 17.8483C145.866 17.27 145.613 16.8453 145.089 16.5742C144.583 16.3031 143.806 16.1133 142.758 16.0049C139.143 15.6615 137.327 14.3241 137.309 11.9926C137.309 10.6372 137.869 9.62506 138.989 8.95636C140.128 8.26958 141.42 7.92619 142.866 7.92619C144.963 7.92619 146.68 8.5226 148.017 9.71543Z" fill="#161616"/>
<path d="M151.542 2.69401H154.334V21.6437H151.542V2.69401Z" fill="#161616"/>
<path d="M168.891 10.3932L168.973 8.27861H171.684V21.6437H169.027L168.891 19.4749C168.476 20.2882 167.825 20.9117 166.94 21.3455C166.072 21.7792 165.186 21.9961 164.283 21.9961C162.277 22.0142 160.632 21.3997 159.349 20.1527C158.066 18.9056 157.424 17.1706 157.424 14.9476C157.424 12.7788 158.075 11.0799 159.376 9.85098C160.695 8.60393 162.349 7.98041 164.337 7.98041C165.295 7.98041 166.19 8.19728 167.021 8.63104C167.852 9.06479 168.476 9.65217 168.891 10.3932ZM164.554 10.5287C163.325 10.5287 162.295 10.9354 161.463 11.7487C160.632 12.5439 160.216 13.6102 160.216 14.9476C160.216 16.285 160.632 17.3604 161.463 18.1737C162.295 18.9869 163.325 19.3936 164.554 19.3936C165.349 19.3936 166.054 19.2309 166.668 18.9056C167.301 18.5803 167.771 18.1556 168.078 17.6315C168.403 17.1073 168.638 16.538 168.783 15.9235C168.946 15.291 168.946 14.6584 168.783 14.0259C168.638 13.3933 168.403 12.815 168.078 12.2908C167.771 11.7667 167.301 11.342 166.668 11.0167C166.054 10.6914 165.349 10.5287 164.554 10.5287Z" fill="#161616"/>
<path d="M176.963 4.72724L179.783 4.42904V8.30572H183.686V10.7185H179.755V17.0893C179.755 18.5532 180.397 19.2852 181.68 19.2852C182.204 19.2852 182.774 19.1315 183.388 18.8243L184.201 21.2099C183.298 21.6076 182.403 21.8064 181.518 21.8064C180.054 21.8425 178.924 21.463 178.129 20.6677C177.352 19.8545 176.963 18.6616 176.963 17.0893V10.7185H174.388V8.30572H176.963V4.72724Z" fill="#161616"/>
<path d="M189.304 8.22439H186.512V21.6437H189.304V8.22439ZM187.054 5.89296C186.476 5.58572 186.187 5.07063 186.187 4.34771C186.187 3.62478 186.476 3.11873 187.054 2.82956C187.632 2.54039 188.211 2.54039 188.789 2.82956C189.367 3.11873 189.657 3.62478 189.657 4.34771C189.657 5.07063 189.367 5.58572 188.789 5.89296C188.211 6.18213 187.632 6.18213 187.054 5.89296Z" fill="#161616"/>
<path d="M194.161 9.98653C195.444 8.66719 197.107 8.00752 199.149 8.00752C201.192 8.00752 202.854 8.67622 204.138 10.0136C205.439 11.333 206.09 12.9867 206.09 14.9747C206.09 16.9808 205.448 18.6436 204.165 19.9629C202.9 21.2642 201.228 21.9148 199.149 21.9148C197.089 21.9148 195.426 21.2642 194.161 19.9629C192.896 18.6436 192.264 16.9808 192.264 14.9747C192.264 12.9686 192.896 11.3059 194.161 9.98653ZM199.149 10.5829C197.92 10.5829 196.926 11.0077 196.167 11.8571C195.426 12.7065 195.056 13.7457 195.056 14.9747C195.056 16.2037 195.426 17.2339 196.167 18.0652C196.908 18.8966 197.902 19.3123 199.149 19.3123C200.396 19.3123 201.391 18.8966 202.132 18.0652C202.891 17.2339 203.27 16.2037 203.27 14.9747C203.27 13.7638 202.882 12.7336 202.104 11.8842C201.327 11.0167 200.342 10.5829 199.149 10.5829Z" fill="#161616"/>
<path d="M222 21.6437H219.181V14.4867C219.181 13.312 218.864 12.3812 218.232 11.6944C217.599 10.9896 216.714 10.6372 215.575 10.6372C214.491 10.6372 213.596 11.0257 212.891 11.8029C212.186 12.58 211.834 13.5289 211.834 14.6494V21.6437H209.042V8.2515H211.59L211.752 10.2034C213.018 8.77562 214.518 8.06174 216.253 8.06174C217.934 8.06174 219.307 8.63104 220.373 9.76965C221.458 10.9083 222 12.4716 222 14.4596V21.6437Z" fill="#161616"/>
<path d="M8.60786 8.44088V11.1068H6.698V13.3109H8.60786V17.782C8.60786 20.3639 10.061 21.6444 12.2823 21.5604C13.0504 21.5394 13.6524 21.4135 14.379 21.1196L13.6731 18.9365C13.2995 19.1254 12.8428 19.2514 12.4483 19.2514C11.6595 19.2514 11.1197 18.7686 11.1197 17.782V13.3109H13.9638V11.1068H11.1405V8.16799L8.60786 8.44088Z" fill="#161616"/>
<path d="M16.8994 8.44088V11.1068H14.9896V13.3109H16.8994V17.782C16.8994 20.3639 18.3526 21.6444 20.5738 21.5604C21.3419 21.5394 21.9439 21.4135 22.6705 21.1196L21.9647 18.9365C21.591 19.1254 21.1343 19.2514 20.7399 19.2514C19.9511 19.2514 19.4113 18.7686 19.4113 17.782V13.3109H22.2553V11.1068H19.4321V8.16799L16.8994 8.44088Z" fill="#161616"/>
<path fill-rule="evenodd" clip-rule="evenodd" d="M14.6844 27.2915C21.5467 27.2915 27.1097 21.7286 27.1097 14.8663C27.1097 8.00397 21.5467 2.44099 14.6844 2.44099C7.82213 2.44099 2.25914 8.00397 2.25914 14.8663C2.25914 21.7286 7.82213 27.2915 14.6844 27.2915ZM14.6844 29.5507C22.7944 29.5507 29.3688 22.9762 29.3688 14.8663C29.3688 6.75629 22.7944 0.181847 14.6844 0.181847C6.57444 0.181847 0 6.75629 0 14.8663C0 22.9762 6.57444 29.5507 14.6844 29.5507Z" fill="#161616"/>
</svg>
