<svg width="72" height="72" viewBox="0 0 72 72" fill="none" xmlns="http://www.w3.org/2000/svg">
<circle cx="36" cy="36" r="36" fill="#E33C5C" fill-opacity="0.1"/>
<path d="M26.625 52H45.375C46.9259 52 48.1875 50.7384 48.1875 49.1875V29.375H41.625C40.0741 29.375 38.8125 28.1134 38.8125 26.5625V20H26.625C25.0741 20 23.8125 21.2616 23.8125 22.8125V49.1875C23.8125 50.7384 25.0741 52 26.625 52ZM30.375 33.1875H41.625C42.1432 33.1875 42.5625 33.6068 42.5625 34.125C42.5625 34.6432 42.1432 35.0625 41.625 35.0625H30.375C29.8568 35.0625 29.4375 34.6432 29.4375 34.125C29.4375 33.6068 29.8568 33.1875 30.375 33.1875ZM30.375 36.9375H41.625C42.1432 36.9375 42.5625 37.3568 42.5625 37.875C42.5625 38.3932 42.1432 38.8125 41.625 38.8125H30.375C29.8568 38.8125 29.4375 38.3932 29.4375 37.875C29.4375 37.3568 29.8568 36.9375 30.375 36.9375ZM30.375 40.6875H41.625C42.1432 40.6875 42.5625 41.1068 42.5625 41.625C42.5625 42.1432 42.1432 42.5625 41.625 42.5625H30.375C29.8568 42.5625 29.4375 42.1432 29.4375 41.625C29.4375 41.1068 29.8568 40.6875 30.375 40.6875ZM30.375 44.4375H37.875C38.3932 44.4375 38.8125 44.8568 38.8125 45.375C38.8125 45.8932 38.3932 46.3125 37.875 46.3125H30.375C29.8568 46.3125 29.4375 45.8932 29.4375 45.375C29.4375 44.8568 29.8568 44.4375 30.375 44.4375Z" fill="#E33C5C"/>
<path d="M41.625 27.5H47.6382L40.6875 20.5493V26.5625C40.6875 27.0798 41.1077 27.5 41.625 27.5Z" fill="#E33C5C"/>
<rect x="28" y="32" width="16" height="16" fill="#E33C5C"/>
<g clip-path="url(#clip0_300_31652)">
<path d="M32.6889 36.4997V37.9521H31.6484V39.1529H32.6889V41.5887C32.6889 42.9954 33.4806 43.693 34.6907 43.6472C35.1092 43.6358 35.4371 43.5672 35.833 43.4071L35.4485 42.2177C35.2449 42.3206 34.9961 42.3893 34.7812 42.3893C34.3514 42.3893 34.0574 42.1262 34.0574 41.5887V39.1529H35.6068V37.9521H34.0687V36.3511L32.6889 36.4997Z" fill="white"/>
<path d="M37.2045 36.4997V37.9521H36.1641V39.1529H37.2045V41.5887C37.2045 42.9954 37.9962 43.693 39.2063 43.6472C39.6248 43.6358 39.9528 43.5672 40.3486 43.4071L39.9641 42.2177C39.7605 42.3206 39.5117 42.3893 39.2968 42.3893C38.8671 42.3893 38.573 42.1262 38.573 41.5887V39.1529H40.1224V37.9521H38.5843V36.3511L37.2045 36.4997Z" fill="white"/>
<path fill-rule="evenodd" clip-rule="evenodd" d="M36 33.3333C32.3181 33.3333 29.3333 36.3181 29.3333 40C29.3333 43.6819 32.3181 46.6667 36 46.6667C39.6819 46.6667 42.6667 43.6819 42.6667 40C42.6667 36.3181 39.6819 33.3333 36 33.3333ZM28 40C28 35.5817 31.5817 32 36 32C40.4183 32 44 35.5817 44 40C44 44.4183 40.4183 48 36 48C31.5817 48 28 44.4183 28 40Z" fill="white"/>
</g>
<defs>
<clipPath id="clip0_300_31652">
<rect width="16" height="16" fill="white" transform="translate(28 32)"/>
</clipPath>
</defs>
</svg>
