<svg width="64" height="64" viewBox="0 0 64 64" fill="none" xmlns="http://www.w3.org/2000/svg">
<circle cx="32" cy="32" r="32" fill="#4247E5" fill-opacity="0.1"/>
<path d="M42.5526 34.3903H42.4982V32.4122C42.4982 26.6287 37.7835 21.9231 31.9996 21.9231C26.2161 21.9231 21.5012 26.6287 21.5012 32.4122V34.3903H21.4471C20.6492 34.3903 20 34.987 20 35.7853L20.003 39.4841C20.003 40.2824 20.6522 40.9518 21.4501 40.9518H21.5488C21.6973 41.7016 22.2722 42.0763 22.958 42.0763H23.7524C24.5503 42.0763 25.2511 41.3315 25.2511 40.5328V34.6563C25.2511 33.8465 24.5367 33.2653 23.7524 33.2653H23.5635V32.2614C23.5635 27.5968 27.3352 23.8015 32 23.8015C36.6644 23.8015 40.4363 27.5968 40.4363 32.2614V33.2653H40.2476C39.4633 33.2653 38.7489 33.8465 38.7489 34.6563V40.5332C38.7489 41.3317 39.4495 42.0767 40.2476 42.0767H41.042C41.7278 42.0767 42.3025 41.7018 42.4512 40.9522H42.5499C43.3481 40.9522 43.997 40.2565 43.997 39.4582L44 35.8085C43.9996 35.0105 43.3508 34.3903 42.5526 34.3903Z" fill="#4247E5"/>
</svg>
