<svg width="64" height="64" viewBox="0 0 64 64" fill="none" xmlns="http://www.w3.org/2000/svg">
<circle cx="32" cy="32" r="32" fill="#4247E5" fill-opacity="0.1"/>
<g clip-path="url(#clip0_415_13334)">
<path d="M45.3889 31.1667H44.2812C44.0836 28.1924 42.8315 25.4233 40.7042 23.2959C38.5767 21.1685 35.8076 19.9164 32.8333 19.7189V18.6112C32.8333 18.1509 32.4602 17.7778 32 17.7778C31.5398 17.7778 31.1667 18.1509 31.1667 18.6112V19.7189C28.1924 19.9164 25.4233 21.1685 23.2958 23.2959C21.1684 25.4233 19.9163 28.1924 19.7188 31.1667H18.6111C18.1509 31.1667 17.7778 31.5398 17.7778 32.0001C17.7778 32.4603 18.1509 32.8334 18.6111 32.8334H19.7188C19.9164 35.8077 21.1685 38.5768 23.2958 40.7042C25.4233 42.8316 28.1924 44.0837 31.1667 44.2812V45.3889C31.1667 45.8492 31.5398 46.2223 32 46.2223C32.4602 46.2223 32.8333 45.8492 32.8333 45.3889V44.2812C35.8076 44.0837 38.5767 42.8316 40.7042 40.7042C42.8315 38.5768 44.0837 35.8076 44.2812 32.8334H45.3889C45.8491 32.8334 46.2222 32.4603 46.2222 32.0001C46.2222 31.5398 45.8491 31.1667 45.3889 31.1667ZM32.8333 42.6104V41.5635C32.8333 41.1033 32.4602 40.7302 32 40.7302C31.5398 40.7302 31.1667 41.1033 31.1667 41.5635V42.6104C25.9612 42.2053 21.7947 38.0388 21.3897 32.8334H22.4365C22.8968 32.8334 23.2699 32.4603 23.2699 32.0001C23.2699 31.5398 22.8968 31.1667 22.4365 31.1667H21.3897C21.7947 25.9613 25.9612 21.7948 31.1667 21.3897V22.4366C31.1667 22.8968 31.5398 23.2699 32 23.2699C32.4602 23.2699 32.8333 22.8968 32.8333 22.4366V21.3897C38.0388 21.7948 42.2053 25.9613 42.6103 31.1667H41.5634C41.1032 31.1667 40.7301 31.5398 40.7301 32.0001C40.7301 32.4603 41.1032 32.8334 41.5634 32.8334H42.6103C42.2053 38.0388 38.0388 42.2053 32.8333 42.6104Z" fill="#4247E5"/>
</g>
<defs>
<clipPath id="clip0_415_13334">
<rect width="28.4444" height="28.4444" fill="white" transform="translate(17.7778 17.7778)"/>
</clipPath>
</defs>
</svg>
