<svg width="64" height="64" viewBox="0 0 64 64" fill="none" xmlns="http://www.w3.org/2000/svg">
<circle cx="32" cy="32" r="32" fill="#4247E5" fill-opacity="0.1"/>
<g clip-path="url(#clip0_415_13326)">
<path d="M32 17.7778C25.8168 17.7778 20.7864 22.8082 20.7864 28.9915C20.7864 32.845 22.7404 36.2505 25.7094 38.2699V45.4017C25.7094 45.6802 25.8506 45.9396 26.0844 46.0907C26.3182 46.2419 26.6127 46.2641 26.8667 46.1499L32 43.84L37.1334 46.15C37.2409 46.1983 37.3557 46.2223 37.47 46.2223C37.6258 46.2223 37.7808 46.1779 37.9157 46.0908C38.1494 45.9396 38.2907 45.6802 38.2907 45.4018V38.2699C41.2597 36.2506 43.2137 32.8451 43.2137 28.9916C43.2137 22.8082 38.1833 17.7778 32 17.7778ZM36.6496 44.1328L32.3367 42.1921C32.2297 42.1438 32.1148 42.1197 32 42.1197C31.8853 42.1197 31.7704 42.1438 31.6634 42.192L27.3505 44.1328V39.1975C27.7629 39.3855 28.1862 39.5471 28.6174 39.6833C28.6419 39.6911 28.6663 39.6991 28.6908 39.7066C28.7459 39.7236 28.8011 39.7399 28.8564 39.7559C28.8973 39.7679 28.9383 39.7798 28.9793 39.7914C29.0239 39.8038 29.0687 39.8159 29.1135 39.8278C29.1657 39.8417 29.218 39.8553 29.2705 39.8686C29.3077 39.8778 29.3448 39.8869 29.382 39.8958C29.4424 39.9103 29.503 39.9243 29.5638 39.9378C29.5953 39.9448 29.6268 39.9517 29.6584 39.9584C29.7249 39.9727 29.7917 39.9861 29.8588 39.9992C29.886 40.0044 29.9133 40.0098 29.9407 40.0149C30.0117 40.0282 30.0829 40.0406 30.1544 40.0524C30.1789 40.0566 30.2034 40.0608 30.2279 40.0647C30.3017 40.0764 30.3757 40.0873 30.45 40.0976C30.473 40.1007 30.4959 40.1042 30.5189 40.1072C30.5941 40.1172 30.6696 40.1261 30.7452 40.1346C30.7677 40.1371 30.7902 40.1399 30.8127 40.1423C30.8881 40.1503 30.9638 40.1572 31.0396 40.1636C31.0626 40.1656 31.0855 40.1679 31.1085 40.1697C31.1833 40.1756 31.2583 40.1803 31.3335 40.1848C31.3576 40.1862 31.3816 40.1881 31.4058 40.1894C31.4818 40.1934 31.558 40.1961 31.6343 40.1986C31.6573 40.1993 31.6802 40.2006 31.7032 40.2012C31.8018 40.2037 31.9008 40.2052 32.0002 40.2052C32.0994 40.2052 32.1984 40.2037 32.2971 40.2012C32.3201 40.2006 32.3429 40.1993 32.3659 40.1986C32.4423 40.1961 32.5185 40.1933 32.5944 40.1894C32.6185 40.1881 32.6426 40.1862 32.6668 40.1848C32.7419 40.1803 32.817 40.1757 32.8917 40.1697C32.9148 40.1679 32.9377 40.1656 32.9607 40.1636C33.0365 40.1572 33.1122 40.1503 33.1875 40.1423C33.2101 40.1399 33.2325 40.1371 33.2551 40.1346C33.3307 40.1261 33.4062 40.1172 33.4813 40.1072C33.5044 40.1042 33.5273 40.1008 33.5503 40.0976C33.6245 40.0873 33.6985 40.0764 33.7723 40.0647C33.7969 40.0607 33.8213 40.0565 33.8459 40.0524C33.9173 40.0406 33.9886 40.0282 34.0596 40.0149C34.0869 40.0098 34.1142 40.0045 34.1415 39.9992C34.2085 39.9862 34.2753 39.9726 34.3419 39.9584C34.3735 39.9517 34.405 39.9448 34.4365 39.9378C34.4973 39.9243 34.5578 39.9103 34.6182 39.8958C34.6554 39.8869 34.6925 39.8778 34.7297 39.8686C34.7822 39.8554 34.8345 39.8418 34.8868 39.8278C34.9315 39.8158 34.9763 39.8039 35.0209 39.7914C35.062 39.7798 35.103 39.7679 35.1439 39.7559C35.1992 39.7398 35.2544 39.7236 35.3094 39.7066C35.334 39.699 35.3584 39.6911 35.3828 39.6833C35.8141 39.5471 36.2374 39.3856 36.6498 39.1976V44.1328H36.6496ZM35.1239 38.0403C35.0912 38.0516 35.0584 38.0629 35.0256 38.0738C34.9757 38.0905 34.9256 38.1069 34.8753 38.1227C34.8168 38.1411 34.7582 38.1588 34.6993 38.1761C34.6578 38.1883 34.6163 38.2004 34.5745 38.2121C34.4967 38.2338 34.4186 38.2546 34.3402 38.2743C34.311 38.2817 34.2817 38.2887 34.2524 38.2958C34.1757 38.3144 34.0986 38.3321 34.0214 38.3487C34.0019 38.3529 33.9827 38.3574 33.9632 38.3614C33.8635 38.3822 33.7635 38.4016 33.6632 38.4192C33.6529 38.421 33.6427 38.4226 33.6324 38.4244C33.5419 38.44 33.4512 38.4542 33.3603 38.4671C33.3398 38.4701 33.3193 38.4729 33.2987 38.4758C33.2018 38.4889 33.1047 38.5011 33.0072 38.5113C33.0035 38.5117 32.9999 38.5122 32.9962 38.5126C32.8942 38.5232 32.7918 38.5319 32.6893 38.5392C32.6671 38.5408 32.6448 38.5419 32.6225 38.5434C32.5428 38.5486 32.463 38.5527 32.3831 38.5559C32.3559 38.557 32.3288 38.5581 32.3016 38.559C32.2012 38.5621 32.1007 38.5642 32 38.5642C31.8994 38.5642 31.7989 38.5621 31.6985 38.5589C31.6713 38.5581 31.6441 38.5569 31.617 38.5558C31.537 38.5526 31.4573 38.5485 31.3776 38.5433C31.3553 38.5419 31.333 38.5407 31.3108 38.5391C31.2083 38.5317 31.1059 38.523 31.0039 38.5124C31.0002 38.5121 30.9965 38.5116 30.9929 38.5112C30.8954 38.5009 30.7983 38.4888 30.7014 38.4757C30.6809 38.4729 30.6604 38.47 30.6398 38.467C30.5489 38.454 30.4582 38.4399 30.3677 38.4243C30.3575 38.4226 30.3472 38.4209 30.3369 38.4191C30.2365 38.4015 30.1365 38.3821 30.0369 38.3613C30.0175 38.3572 29.9982 38.3527 29.9787 38.3486C29.9015 38.332 29.8244 38.3143 29.7477 38.2957C29.7184 38.2886 29.689 38.2816 29.6599 38.2742C29.5815 38.2546 29.5034 38.2337 29.4255 38.212C29.3838 38.2003 29.3423 38.1882 29.3008 38.1759C29.242 38.1587 29.1833 38.141 29.1247 38.1226C29.0744 38.1067 29.0244 38.0904 28.9744 38.0737C28.9415 38.0628 28.9088 38.0514 28.8762 38.0402C25.127 36.7423 22.4274 33.1764 22.4274 28.9915C22.4274 23.7132 26.7217 19.4188 32 19.4188C37.2784 19.4188 41.5727 23.7131 41.5727 28.9915C41.5727 33.1764 38.873 36.7423 35.1239 38.0403Z" fill="#4247E5"/>
</g>
<defs>
<clipPath id="clip0_415_13326">
<rect width="28.4444" height="28.4444" fill="white" transform="translate(17.7778 17.7778)"/>
</clipPath>
</defs>
</svg>
