<svg width="64" height="64" viewBox="0 0 64 64" fill="none" xmlns="http://www.w3.org/2000/svg">
<circle cx="32" cy="32" r="32" fill="#4247E5" fill-opacity="0.1"/>
<g clip-path="url(#clip0_415_13348)">
<path d="M36.4341 34.1978L32.9639 31.5952V26.2935C32.9639 25.7605 32.533 25.3296 32 25.3296C31.4669 25.3296 31.036 25.7605 31.036 26.2935V32.0772C31.036 32.3808 31.1787 32.6671 31.4216 32.8484L35.2773 35.7402C35.4508 35.8703 35.6533 35.933 35.8547 35.933C36.1487 35.933 36.4379 35.8009 36.6269 35.5464C36.947 35.1213 36.8602 34.5169 36.4341 34.1978Z" fill="#4247E5"/>
<path d="M32 19.5557C25.1377 19.5557 19.5555 25.1378 19.5555 32.0001C19.5555 38.8624 25.1377 44.4446 32 44.4446C38.8623 44.4446 44.4444 38.8624 44.4444 32.0001C44.4444 25.1378 38.8623 19.5557 32 19.5557ZM32 42.5167C26.2019 42.5167 21.4834 37.7982 21.4834 32.0001C21.4834 26.202 26.2019 21.4835 32 21.4835C37.799 21.4835 42.5166 26.202 42.5166 32.0001C42.5166 37.7982 37.7981 42.5167 32 42.5167Z" fill="#4247E5"/>
</g>
<defs>
<clipPath id="clip0_415_13348">
<rect width="24.8889" height="24.8889" fill="white" transform="translate(19.5555 19.5557)"/>
</clipPath>
</defs>
</svg>
