<svg width="64" height="64" viewBox="0 0 64 64" fill="none" xmlns="http://www.w3.org/2000/svg">
<circle cx="32" cy="32" r="32" fill="#4247E5" fill-opacity="0.1"/>
<path d="M42.839 28.4787V26.1968C42.839 25.0067 41.8709 24.0386 40.6808 24.0386H39.54L35.4348 19.9334C35.434 19.9325 35.433 19.9317 35.4321 19.9308C35.3046 19.8043 35.1274 19.7257 34.9368 19.7227C34.933 19.7226 34.9294 19.7222 34.9257 19.7222H24.7581C24.3608 19.7222 24.0387 20.0443 24.0387 20.4416V24.0386H23.3193C22.1293 24.0386 21.1611 25.0067 21.1611 26.1968V28.4787C20.3238 28.7757 19.7223 29.5753 19.7223 30.5132V39.2419C19.7223 40.4319 20.6905 41.4001 21.8805 41.4001H24.0387V43.5583C24.0387 43.9556 24.3608 44.2777 24.7581 44.2777H39.242C39.6393 44.2777 39.9614 43.9556 39.9614 43.5583V41.4001H42.1196C43.3097 41.4001 44.2778 40.4319 44.2778 39.2419V30.5132C44.2778 29.5753 43.6764 28.7757 42.839 28.4787ZM39.9614 25.4774H40.6808C41.0775 25.4774 41.4002 25.8001 41.4002 26.1968V28.355H39.9614V25.4774ZM35.645 22.1783L37.5053 24.0386H35.645V22.1783ZM25.4775 21.161H34.2062V24.758C34.2062 25.1553 34.5283 25.4774 34.9256 25.4774H38.5226V28.355H25.4775V21.161ZM22.5999 26.1968C22.5999 25.8001 22.9226 25.4774 23.3193 25.4774H24.0387V28.355H22.5999V26.1968ZM38.5226 42.8389H25.4775V35.6449H38.5226V42.8389ZM42.839 39.2419C42.839 39.6386 42.5163 39.9613 42.1196 39.9613H39.9614V35.6449H40.6808C41.0781 35.6449 41.4002 35.3228 41.4002 34.9255C41.4002 34.5282 41.0781 34.2061 40.6808 34.2061C40.0935 34.2061 24.1456 34.2061 23.3193 34.2061C22.922 34.2061 22.5999 34.5282 22.5999 34.9255C22.5999 35.3228 22.922 35.6449 23.3193 35.6449H24.0387V39.9613H21.8805C21.4838 39.9613 21.1611 39.6386 21.1611 39.2419V30.5132C21.1611 30.1165 21.4838 29.7938 21.8805 29.7938C22.7506 29.7938 41.1284 29.7938 42.1196 29.7938C42.5163 29.7938 42.839 30.1165 42.839 30.5132V39.2419Z" fill="#4247E5"/>
</svg>
