<svg width="64" height="64" viewBox="0 0 64 64" fill="none" xmlns="http://www.w3.org/2000/svg">
<circle cx="32" cy="32" r="32" fill="#4247E5" fill-opacity="0.1"/>
<g clip-path="url(#clip0_415_12649)">
<path d="M44.6735 36.8206L36.2865 22.2938C34.3957 19.0188 29.5959 19.0333 27.7134 22.2938L19.3264 36.8206C17.4405 40.087 19.8299 44.157 23.5529 44.157C25.2253 44.157 26.8777 43.2994 27.7953 41.7101L31.9999 34.4275L36.2045 41.7101C37.1206 43.2969 38.7719 44.157 40.4469 44.157C44.1674 44.157 46.5604 40.0888 44.6735 36.8206ZM26.311 40.8532C25.5708 42.1355 24.0658 42.716 22.6801 42.3175C20.6902 41.7393 19.786 39.4521 20.8105 37.6775C21.688 36.1576 23.6283 35.6373 25.1486 36.515C26.6687 37.3926 27.1888 39.333 26.311 40.8532ZM28.1693 37.6347C27.371 35.3673 25.0343 34.0161 22.6688 34.459L27.4041 26.2574C27.615 26.9025 27.4668 26.5759 31.0105 32.7137L28.1693 37.6347ZM42.0268 42.0156C40.507 42.8932 38.5664 42.3734 37.6888 40.8532L29.3018 26.3264C27.7014 23.5544 30.7866 20.4009 33.5357 21.9883C34.5645 22.5823 34.2814 22.2487 43.1893 37.6775C44.0648 39.194 43.5433 41.14 42.0268 42.0156Z" fill="#4247E5"/>
</g>
<defs>
<clipPath id="clip0_415_12649">
<rect width="26.6667" height="26.6667" fill="white" transform="translate(18.6666 18.6667)"/>
</clipPath>
</defs>
</svg>
