<svg width="12" height="12" viewBox="0 0 12 12" fill="none" xmlns="http://www.w3.org/2000/svg">
<path d="M11.3828 4.36785L5.28426 10.3987C4.27377 11.3981 2.63528 11.3981 1.62479 10.3987C0.614297 9.39936 0.614297 7.77931 1.62479 6.77994L7.11379 1.35222C7.7876 0.686111 8.87949 0.686111 9.55332 1.35222C10.2271 2.01831 10.2271 3.09865 9.55332 3.76474L4.0643 9.19247C3.72761 9.52575 3.18145 9.52575 2.84433 9.19247C2.50764 8.85964 2.50764 8.3195 2.84433 7.98622L7.72336 3.1616L7.11336 2.55848L2.23478 7.38351C1.56098 8.04962 1.56098 9.12993 2.23478 9.79602C2.90859 10.4621 4.00048 10.4621 4.67429 9.79602L10.1633 4.36829C11.1738 3.36894 11.1738 1.74888 10.1633 0.749512C9.1528 -0.249837 7.51433 -0.249837 6.50384 0.749512L0.709819 6.4788L0.730815 6.49978C-0.321671 7.83797 -0.229146 9.77246 1.01482 11.0023C2.25878 12.2321 4.21423 12.3242 5.56783 11.2828L5.58883 11.3038L11.9924 4.9714L11.3828 4.36785Z" fill="#D4D6F3"/>
</svg>
