<svg width="93" height="22" viewBox="0 0 93 22" fill="none" xmlns="http://www.w3.org/2000/svg">
<path d="M29.012 5.2C29.824 5.2 30.5473 5.33533 31.182 5.606C31.8167 5.87667 32.3253 6.24533 32.708 6.712C33.1 7.16933 33.394 7.678 33.59 8.238C33.7953 8.798 33.9027 9.39067 33.912 10.016C33.9213 10.6507 33.828 11.262 33.632 11.85C33.4453 12.4287 33.156 12.956 32.764 13.432C32.3813 13.908 31.8633 14.2907 31.21 14.58C30.566 14.86 29.8333 15 29.012 15H25.162V5.2H29.012ZM26.996 6.95V13.222H29.012C30.048 13.222 30.8227 12.9093 31.336 12.284C31.8493 11.6493 32.0967 10.8887 32.078 10.002C32.0593 9.15267 31.7887 8.434 31.266 7.846C30.7527 7.24867 30.0013 6.95 29.012 6.95H26.996ZM35.9156 8.994C36.569 8.30333 37.4323 7.958 38.5056 7.958C39.579 7.958 40.447 8.30333 41.1096 8.994C41.7816 9.68467 42.1176 10.5387 42.1176 11.556C42.1176 12.5827 41.791 13.4413 41.1376 14.132C40.4843 14.8133 39.6116 15.154 38.5196 15.154C37.4276 15.154 36.555 14.8133 35.9016 14.132C35.2576 13.4413 34.9356 12.5827 34.9356 11.556C34.9356 10.5387 35.2623 9.68467 35.9156 8.994ZM38.5196 9.512C37.9316 9.512 37.4696 9.71267 37.1336 10.114C36.807 10.5153 36.6436 10.996 36.6436 11.556C36.6436 12.116 36.807 12.5967 37.1336 12.998C37.4696 13.39 37.9316 13.586 38.5196 13.586C39.1076 13.586 39.565 13.39 39.8916 12.998C40.2276 12.5967 40.3956 12.116 40.3956 11.556C40.3956 11.0147 40.2183 10.5387 39.8636 10.128C39.5183 9.71733 39.0703 9.512 38.5196 9.512ZM47.6657 8.084H49.1637L50.6757 13.278L52.2577 8.084H54.1477L51.7397 15.028H49.7517L49.0377 12.984L48.4217 10.674L47.8057 12.984L47.0917 15.028H45.1037L42.6817 8.084H44.5857L46.1677 13.278L47.6657 8.084ZM62.1623 15H60.4543V11.388C60.4543 10.8467 60.3096 10.4033 60.0203 10.058C59.7309 9.71267 59.3203 9.54 58.7883 9.54C58.2749 9.54 57.8503 9.72667 57.5143 10.1C57.1876 10.4733 57.0243 10.9307 57.0243 11.472V15H55.3302V8.084H56.8563L56.9683 9.022C57.6776 8.33133 58.4336 7.986 59.2363 7.986C60.0763 7.986 60.7716 8.28933 61.3223 8.896C61.8823 9.49333 62.1623 10.3193 62.1623 11.374V15ZM63.9582 5.214H65.6522V15H63.9582V5.214ZM68.0992 8.994C68.7526 8.30333 69.6159 7.958 70.6892 7.958C71.7626 7.958 72.6306 8.30333 73.2932 8.994C73.9652 9.68467 74.3012 10.5387 74.3012 11.556C74.3012 12.5827 73.9746 13.4413 73.3212 14.132C72.6679 14.8133 71.7952 15.154 70.7032 15.154C69.6112 15.154 68.7386 14.8133 68.0852 14.132C67.4412 13.4413 67.1192 12.5827 67.1192 11.556C67.1192 10.5387 67.4459 9.68467 68.0992 8.994ZM70.7032 9.512C70.1152 9.512 69.6532 9.71267 69.3172 10.114C68.9906 10.5153 68.8272 10.996 68.8272 11.556C68.8272 12.116 68.9906 12.5967 69.3172 12.998C69.6532 13.39 70.1152 13.586 70.7032 13.586C71.2912 13.586 71.7486 13.39 72.0752 12.998C72.4112 12.5967 72.5792 12.116 72.5792 11.556C72.5792 11.0147 72.4019 10.5387 72.0472 10.128C71.7019 9.71733 71.2539 9.512 70.7032 9.512ZM81.1187 9.05L81.1747 8.098H82.8127V15H81.2027L81.1187 13.992C80.932 14.3653 80.6194 14.6593 80.1807 14.874C79.742 15.0887 79.308 15.2007 78.8787 15.21C77.824 15.2193 76.9654 14.9067 76.3027 14.272C75.6494 13.628 75.3227 12.718 75.3227 11.542C75.3227 10.394 75.6587 9.50267 76.3307 8.868C77.012 8.23333 77.8754 7.92067 78.9207 7.93C79.3874 7.93 79.8214 8.03267 80.2227 8.238C80.624 8.44333 80.9227 8.714 81.1187 9.05ZM79.0747 9.456C78.4867 9.456 77.9967 9.64267 77.6047 10.016C77.222 10.3893 77.0307 10.898 77.0307 11.542C77.0307 12.186 77.222 12.6993 77.6047 13.082C77.9967 13.4553 78.4867 13.642 79.0747 13.642C79.588 13.642 80.0174 13.4973 80.3627 13.208C80.7174 12.9187 80.932 12.5733 81.0067 12.172C81.0907 11.7613 81.0907 11.3507 81.0067 10.94C80.932 10.5293 80.7174 10.1793 80.3627 9.89C80.0174 9.60067 79.588 9.456 79.0747 9.456ZM87.9184 9.526C87.3584 9.526 86.8918 9.71267 86.5184 10.086C86.1451 10.45 85.9584 10.9353 85.9584 11.542C85.9584 12.1393 86.1451 12.6293 86.5184 13.012C86.9011 13.3853 87.3678 13.572 87.9184 13.572C88.4784 13.572 88.9498 13.3853 89.3324 13.012C89.7244 12.6387 89.9204 12.1487 89.9204 11.542C89.9204 10.954 89.7244 10.4733 89.3324 10.1C88.9404 9.71733 88.4691 9.526 87.9184 9.526ZM90.0324 5.214H91.7404V15H90.1444L90.0324 14.048C89.5564 14.7853 88.8144 15.154 87.8064 15.154C86.7704 15.154 85.9164 14.832 85.2444 14.188C84.5818 13.5347 84.2504 12.6527 84.2504 11.542C84.2504 10.3847 84.5724 9.49333 85.2164 8.868C85.8698 8.24267 86.7191 7.93 87.7644 7.93C88.1658 7.93 88.5951 8.03267 89.0524 8.238C89.5191 8.434 89.8458 8.7 90.0324 9.036V5.214Z" fill="#4247E5"/>
<path d="M14.0646 15.5486H11.1553H10.3719H10.2027V11.6463H11.479C11.8026 11.6463 11.9939 11.2785 11.8026 11.0137L9.31998 7.57846C9.16183 7.35779 8.83449 7.35779 8.67634 7.57846L6.19371 11.0137C6.00245 11.2785 6.19003 11.6463 6.51737 11.6463H7.79362V15.5486H7.62444H6.84103H3.46833C1.53739 15.442 0 13.6361 0 11.6794C0 10.3296 0.731917 9.15264 1.81692 8.51635C1.71761 8.24786 1.66612 7.96097 1.66612 7.65938C1.66612 6.28014 2.78055 5.16571 4.15979 5.16571C4.4577 5.16571 4.74459 5.21721 5.01308 5.31651C5.8112 3.62464 7.53249 2.45137 9.53331 2.45137C12.1226 2.45505 14.2558 4.43748 14.4986 6.96424C16.4884 7.30629 18 9.14896 18 11.2344C18 13.4632 16.264 15.3942 14.0646 15.5486Z" fill="#4247E5"/>
</svg>
