<svg width="12" height="12" viewBox="0 0 12 12" fill="none" xmlns="http://www.w3.org/2000/svg">
<g clip-path="url(#clip0_310_46117)">
<path d="M11.5477 0H8.27635C8.02655 0 7.8241 0.202453 7.8241 0.452273C7.8241 0.70207 8.02655 0.904523 8.27635 0.904523H11.0954V3.72361C11.0954 3.97341 11.2979 4.17586 11.5477 4.17586C11.7975 4.17586 12 3.97341 12 3.72361V0.452273C12 0.202453 11.7975 0 11.5477 0Z" fill="#4247E5"/>
<path d="M11.8675 0.132521C11.6908 -0.0441738 11.4047 -0.0441738 11.228 0.132521L4.77571 6.58477C4.59901 6.7613 4.59901 7.04773 4.77571 7.22426C4.86391 7.3126 4.97969 7.35678 5.09547 7.35678C5.21108 7.35678 5.32687 7.3126 5.41523 7.22426L11.8675 0.772014C12.0442 0.595482 12.0442 0.309053 11.8675 0.132521Z" fill="#4247E5"/>
<path d="M10.0101 5.62316C9.76027 5.62316 9.55779 5.82561 9.55779 6.07541V11.0955H0.904523V2.44224H5.92462C6.17442 2.44224 6.37687 2.23979 6.37687 1.98999C6.37687 1.7402 6.17442 1.53772 5.92462 1.53772H0.452273C0.202453 1.53772 0 1.74017 0 1.98999V11.5478C0 11.7976 0.202453 12 0.452273 12H10.0101C10.26 12 10.4623 11.7976 10.4623 11.5478V6.07541C10.4623 5.82561 10.2599 5.62316 10.0101 5.62316Z" fill="#4247E5"/>
</g>
<defs>
<clipPath id="clip0_310_46117">
<rect width="12" height="12" fill="white"/>
</clipPath>
</defs>
</svg>
