<svg width="184" height="27" viewBox="0 0 184 27" fill="none" xmlns="http://www.w3.org/2000/svg">
<path d="M11.6407 6.4848L13.0915 4.72183L15.1064 6.27111L13.5213 8.11421C14.5959 9.36076 15.1332 10.7231 15.1332 12.2011C15.1332 13.3942 14.8377 14.436 14.2467 15.3264C13.6556 16.2168 12.778 16.8846 11.6139 17.3298C13.9422 18.1133 15.1064 19.5468 15.1064 21.6303C15.1064 23.3221 14.3989 24.6399 12.984 25.5837C11.587 26.5275 9.93029 26.9994 8.01389 26.9994C5.82883 26.9994 4.10048 26.4741 2.82885 25.4234C1.57512 24.3905 0.975128 22.9659 1.02886 21.1495H3.796C3.76018 22.129 4.15421 22.8947 4.97809 23.4467C5.81987 24.0166 6.83181 24.3104 8.01389 24.3282C9.14224 24.3282 10.1273 24.0967 10.9691 23.6337C11.8109 23.1707 12.2318 22.5029 12.2318 21.6303C12.2318 20.7221 11.8467 20.0187 11.0766 19.5201C10.3243 19.0215 9.32134 18.7722 8.06762 18.7722C5.90047 18.7722 4.16317 18.1845 2.85571 17.0092C1.54826 15.8339 0.894531 14.2312 0.894531 12.2011C0.894531 10.1176 1.60199 8.49708 3.01691 7.33958C4.43182 6.16426 6.11539 5.5766 8.06762 5.5766C9.55417 5.5766 10.7452 5.87934 11.6407 6.4848ZM8.06762 8.14093C6.84972 8.14093 5.81092 8.49708 4.95122 9.2094C4.10944 9.9039 3.68854 10.9011 3.68854 12.2011C3.68854 13.4655 4.10048 14.4538 4.92436 15.1661C5.76614 15.8784 6.81389 16.2346 8.06762 16.2346C9.30343 16.2346 10.3243 15.8606 11.1303 15.1127C11.9542 14.3469 12.3661 13.3764 12.3661 12.2011C12.3661 10.9546 11.9452 9.96623 11.1034 9.23611C10.2795 8.50599 9.26761 8.14093 8.06762 8.14093Z" fill="#161616"/>
<path d="M31.0177 13.5901H20.2715C20.3969 14.5874 20.8446 15.3887 21.6148 15.9942C22.4028 16.5996 23.3968 16.9024 24.5968 16.9024C25.3132 16.9024 26.0296 16.7777 26.7461 16.5284C27.4804 16.2613 28.0446 15.914 28.4386 15.4866L30.2386 17.2229C29.5759 17.9352 28.7252 18.4873 27.6864 18.879C26.6655 19.2708 25.6177 19.4667 24.5431 19.4667C22.3759 19.4667 20.6386 18.8345 19.3312 17.5702C18.0416 16.3058 17.3969 14.6141 17.3969 12.4949C17.3969 10.4827 18.0416 8.83543 19.3312 7.55327C20.6207 6.27111 22.2953 5.63003 24.355 5.63003C26.5759 5.63003 28.3043 6.30672 29.5401 7.66012C30.7759 9.01351 31.2684 10.9902 31.0177 13.5901ZM20.3252 11.2662H28.358C28.2863 10.2512 27.8923 9.46761 27.1759 8.91557C26.4774 8.36352 25.564 8.0875 24.4356 8.0875C23.3968 8.0875 22.5013 8.36352 21.7491 8.91557C21.0148 9.46761 20.5401 10.2512 20.3252 11.2662Z" fill="#161616"/>
<path d="M35.317 2.47804L38.111 2.18421V6.00399H41.9796V8.38133H38.0841V14.6586C38.0841 16.101 38.72 16.8222 39.9916 16.8222C40.511 16.8222 41.0752 16.6709 41.6841 16.3681L42.4901 18.7188C41.5946 19.1105 40.708 19.3064 39.8304 19.3064C38.3797 19.342 37.2603 18.9681 36.4722 18.1845C35.7021 17.3832 35.317 16.2079 35.317 14.6586V8.38133H32.7648V6.00399H35.317V2.47804Z" fill="#161616"/>
<path d="M46.2573 2.47804L49.0513 2.18421V6.00399H52.92V8.38133H49.0245V14.6586C49.0245 16.101 49.6603 16.8222 50.9319 16.8222C51.4513 16.8222 52.0155 16.6709 52.6245 16.3681L53.4304 18.7188C52.5349 19.1105 51.6483 19.3064 50.7707 19.3064C49.32 19.342 48.2006 18.9681 47.4126 18.1845C46.6424 17.3832 46.2573 16.2079 46.2573 14.6586V8.38133H43.7051V6.00399H46.2573V2.47804Z" fill="#161616"/>
<path d="M55.7201 5.97728H58.2992L58.4872 7.71354C59.2574 6.36015 60.5559 5.68345 62.3827 5.68345C63.726 5.68345 64.8185 6.05741 65.6603 6.80534L64.3976 9.2094C63.7349 8.67516 62.9558 8.40804 62.0603 8.40804C61.0394 8.40804 60.1887 8.71968 59.5081 9.34295C58.8275 9.96623 58.4872 10.8566 58.4872 12.0141V19.1462H55.7201V5.97728Z" fill="#161616"/>
<path d="M77.7433 8.06079L77.8239 5.97728H80.5104V19.1462H77.8776L77.7433 17.0092C77.3313 17.8106 76.6866 18.4249 75.809 18.8523C74.9493 19.2797 74.0717 19.4934 73.1761 19.4934C71.1881 19.5112 69.5583 18.9057 68.2866 17.677C67.015 16.4483 66.3792 14.7387 66.3792 12.5484C66.3792 10.4114 67.0239 8.73749 68.3135 7.52656C69.6209 6.29782 71.2597 5.68345 73.2299 5.68345C74.1791 5.68345 75.0657 5.89714 75.8896 6.32453C76.7134 6.75192 77.3313 7.33067 77.7433 8.06079ZM73.4448 8.19435C72.2269 8.19435 71.206 8.59503 70.3821 9.39638C69.5583 10.1799 69.1463 11.2306 69.1463 12.5484C69.1463 13.8661 69.5583 14.9257 70.3821 15.7271C71.206 16.5284 72.2269 16.9291 73.4448 16.9291C74.2328 16.9291 74.9314 16.7688 75.5403 16.4483C76.1672 16.1277 76.6328 15.7092 76.9373 15.1928C77.2597 14.6764 77.4925 14.1154 77.6358 13.51C77.797 12.8867 77.797 12.2634 77.6358 11.6402C77.4925 11.0169 77.2597 10.447 76.9373 9.93061C76.6328 9.41419 76.1672 8.9957 75.5403 8.67516C74.9314 8.35462 74.2328 8.19435 73.4448 8.19435Z" fill="#161616"/>
<path d="M97.1064 19.1462H94.3124V12.0943C94.3124 10.9368 93.9989 10.0197 93.3721 9.34295C92.7452 8.64845 91.8676 8.3012 90.7392 8.3012C89.6646 8.3012 88.7781 8.68407 88.0796 9.4498C87.3811 10.2155 87.0318 11.1504 87.0318 12.2545V19.1462H84.2647V5.95057H86.79L86.9512 7.87381C88.2049 6.46699 89.6915 5.76358 91.4109 5.76358C93.0765 5.76358 94.4377 6.32453 95.4944 7.44642C96.5691 8.56831 97.1064 10.1087 97.1064 12.0675V19.1462Z" fill="#161616"/>
<path d="M110.683 7.393L109.125 9.2094C108.229 8.39024 107.065 7.98066 105.632 7.98066C104.772 7.96285 104.083 8.09641 103.564 8.38133C103.062 8.64845 102.811 9.04022 102.811 9.55665C102.829 10.5005 103.787 11.0614 105.686 11.2395C106.438 11.3107 107.083 11.4087 107.62 11.5333C108.175 11.6402 108.758 11.836 109.366 12.121C109.993 12.3881 110.468 12.7977 110.79 13.3497C111.131 13.9018 111.301 14.5784 111.301 15.3798C111.283 16.6263 110.763 17.6325 109.743 18.3982C108.722 19.164 107.361 19.5468 105.659 19.5468C103.08 19.5468 101.065 18.7366 99.6143 17.1161L101.065 15.1661C102.211 16.4305 103.761 17.0804 105.713 17.1161C106.465 17.1161 107.119 16.9736 107.674 16.6887C108.229 16.4037 108.516 15.9764 108.534 15.4065C108.552 14.8367 108.301 14.4182 107.781 14.1511C107.28 13.8839 106.51 13.697 105.471 13.5901C101.889 13.2518 100.089 11.934 100.071 9.63678C100.071 8.3012 100.626 7.30396 101.737 6.64507C102.865 5.96837 104.146 5.63003 105.578 5.63003C107.656 5.63003 109.358 6.21768 110.683 7.393Z" fill="#161616"/>
<path d="M114.176 0.474665H116.943V19.1462H114.176V0.474665Z" fill="#161616"/>
<path d="M131.369 8.06079L131.45 5.97728H134.136V19.1462H131.504L131.369 17.0092C130.957 17.8106 130.313 18.4249 129.435 18.8523C128.575 19.2797 127.698 19.4934 126.802 19.4934C124.814 19.5112 123.184 18.9057 121.913 17.677C120.641 16.4483 120.005 14.7387 120.005 12.5484C120.005 10.4114 120.65 8.73749 121.94 7.52656C123.247 6.29782 124.886 5.68345 126.856 5.68345C127.805 5.68345 128.692 5.89714 129.516 6.32453C130.339 6.75192 130.957 7.33067 131.369 8.06079ZM127.071 8.19435C125.853 8.19435 124.832 8.59503 124.008 9.39638C123.184 10.1799 122.772 11.2306 122.772 12.5484C122.772 13.8661 123.184 14.9257 124.008 15.7271C124.832 16.5284 125.853 16.9291 127.071 16.9291C127.859 16.9291 128.557 16.7688 129.166 16.4483C129.793 16.1277 130.259 15.7092 130.563 15.1928C130.886 14.6764 131.119 14.1154 131.262 13.51C131.423 12.8867 131.423 12.2634 131.262 11.6402C131.119 11.0169 130.886 10.447 130.563 9.93061C130.259 9.41419 129.793 8.9957 129.166 8.67516C128.557 8.35462 127.859 8.19435 127.071 8.19435Z" fill="#161616"/>
<path d="M139.368 2.47804L142.162 2.18421V6.00399H146.031V8.38133H142.135V14.6586C142.135 16.101 142.771 16.8222 144.043 16.8222C144.562 16.8222 145.126 16.6709 145.735 16.3681L146.541 18.7188C145.646 19.1105 144.759 19.3064 143.882 19.3064C142.431 19.342 141.312 18.9681 140.524 18.1845C139.753 17.3832 139.368 16.2079 139.368 14.6586V8.38133H136.816V6.00399H139.368V2.47804Z" fill="#161616"/>
<path d="M151.598 5.92385H148.831V19.1462H151.598V5.92385ZM149.368 3.62665C148.795 3.32391 148.509 2.81639 148.509 2.10408C148.509 1.39177 148.795 0.89315 149.368 0.608225C149.941 0.3233 150.515 0.3233 151.088 0.608225C151.661 0.89315 151.947 1.39177 151.947 2.10408C151.947 2.81639 151.661 3.32391 151.088 3.62665C150.515 3.91157 149.941 3.91157 149.368 3.62665Z" fill="#161616"/>
<path d="M156.412 7.66012C157.683 6.36015 159.331 5.71016 161.355 5.71016C163.379 5.71016 165.026 6.36905 166.298 7.68683C167.588 8.9868 168.232 10.6162 168.232 12.5751C168.232 14.5517 167.597 16.1901 166.325 17.49C165.071 18.7722 163.414 19.4133 161.355 19.4133C159.313 19.4133 157.665 18.7722 156.412 17.49C155.158 16.1901 154.531 14.5517 154.531 12.5751C154.531 10.5984 155.158 8.96009 156.412 7.66012ZM161.355 8.24777C160.137 8.24777 159.152 8.66626 158.4 9.50322C157.665 10.3402 157.298 11.3641 157.298 12.5751C157.298 13.786 157.665 14.801 158.4 15.6202C159.134 16.4394 160.119 16.8489 161.355 16.8489C162.591 16.8489 163.576 16.4394 164.31 15.6202C165.062 14.801 165.438 13.786 165.438 12.5751C165.438 11.3819 165.053 10.3669 164.283 9.52994C163.513 8.67516 162.537 8.24777 161.355 8.24777Z" fill="#161616"/>
<path d="M183.999 19.1462H181.205V12.0943C181.205 10.9368 180.892 10.0197 180.265 9.34295C179.638 8.64845 178.761 8.3012 177.632 8.3012C176.558 8.3012 175.671 8.68407 174.973 9.4498C174.274 10.2155 173.925 11.1504 173.925 12.2545V19.1462H171.158V5.95057H173.683L173.844 7.87381C175.098 6.46699 176.585 5.76358 178.304 5.76358C179.97 5.76358 181.331 6.32453 182.388 7.44642C183.462 8.56831 183.999 10.1087 183.999 12.0675V19.1462Z" fill="#161616"/>
</svg>
