<svg width="30" height="30" viewBox="0 0 30 30" fill="none" xmlns="http://www.w3.org/2000/svg">
<path fill-rule="evenodd" clip-rule="evenodd" d="M14.6844 27.1097C21.5467 27.1097 27.1097 21.5467 27.1097 14.6844C27.1097 7.82213 21.5467 2.25914 14.6844 2.25914C7.82213 2.25914 2.25914 7.82213 2.25914 14.6844C2.25914 21.5467 7.82213 27.1097 14.6844 27.1097ZM14.6844 29.3688C22.7944 29.3688 29.3688 22.7944 29.3688 14.6844C29.3688 6.57444 22.7944 0 14.6844 0C6.57444 0 0 6.57444 0 14.6844C0 22.7944 6.57444 29.3688 14.6844 29.3688Z" fill="#161616"/>
<path d="M8.60712 8.25921V10.9251H6.69727V13.1292H8.60712V17.6003C8.60712 20.1823 10.0603 21.4627 12.2815 21.3788C13.0496 21.3578 13.6516 21.2318 14.3782 20.9379L13.6724 18.7549C13.2987 18.9438 12.842 19.0697 12.4476 19.0697C11.6587 19.0697 11.119 18.5869 11.119 17.6003V13.1292H13.963V10.9251H11.1398V7.98633L8.60712 8.25921Z" fill="#161616"/>
<path d="M16.8987 8.25921V10.9251H14.9888V13.1292H16.8987V17.6003C16.8987 20.1823 18.3518 21.4627 20.5731 21.3788C21.3412 21.3578 21.9432 21.2318 22.6698 20.9379L21.964 18.7549C21.5903 18.9438 21.1336 19.0697 20.7392 19.0697C19.9503 19.0697 19.4106 18.5869 19.4106 17.6003V13.1292H22.2546V10.9251H19.4313V7.98633L16.8987 8.25921Z" fill="#161616"/>
</svg>
