<svg width="680" height="144" viewBox="0 0 680 144" fill="none" xmlns="http://www.w3.org/2000/svg">
<rect x="0.5" y="0.5" width="679" height="143" rx="5.5" stroke="#4247E5" stroke-opacity="0.25" stroke-dasharray="10 10"/>
<path opacity="0.6" d="M231.552 66.8H235.504C236.421 66.8 237.243 66.9547 237.968 67.264C238.704 67.5733 239.296 67.9893 239.744 68.512C240.192 69.0347 240.533 69.6213 240.768 70.272C241.003 70.912 241.12 71.584 241.12 72.288C241.12 73.024 241.008 73.7227 240.784 74.384C240.56 75.0453 240.229 75.6533 239.792 76.208C239.355 76.752 238.763 77.1893 238.016 77.52C237.28 77.84 236.443 78 235.504 78H231.552V66.8ZM232.672 67.856V76.96H235.504C236.112 76.96 236.667 76.8693 237.168 76.688C237.68 76.5067 238.107 76.2667 238.448 75.968C238.789 75.6587 239.077 75.3013 239.312 74.896C239.557 74.4907 239.733 74.0693 239.84 73.632C239.947 73.184 239.995 72.7307 239.984 72.272C239.963 71.5147 239.797 70.8107 239.488 70.16C239.179 69.5093 238.677 68.9653 237.984 68.528C237.291 68.08 236.464 67.856 235.504 67.856H232.672ZM243.107 70.096H244.115L244.179 71.392C244.414 70.9013 244.761 70.544 245.219 70.32C245.678 70.0853 246.169 69.968 246.691 69.968C247.353 69.968 247.95 70.1547 248.483 70.528L247.987 71.424C247.582 71.1467 247.129 71.008 246.627 71.008C245.934 71.0187 245.353 71.2587 244.883 71.728C244.414 72.1973 244.179 72.7893 244.179 73.504V78H243.107V70.096ZM256.154 71.664V70.096H257.162V78H256.17V76.432C255.839 76.9973 255.386 77.4293 254.81 77.728C254.244 78.016 253.652 78.16 253.034 78.16C251.882 78.16 250.922 77.7813 250.154 77.024C249.386 76.2667 249.002 75.2747 249.002 74.048C249.002 72.832 249.386 71.8507 250.154 71.104C250.932 70.3573 251.898 69.984 253.05 69.984C253.69 69.984 254.292 70.1333 254.858 70.432C255.434 70.72 255.866 71.1307 256.154 71.664ZM253.082 70.96C252.228 70.96 251.514 71.248 250.938 71.824C250.362 72.4 250.074 73.1413 250.074 74.048C250.074 74.9653 250.362 75.712 250.938 76.288C251.514 76.864 252.228 77.152 253.082 77.152C253.636 77.152 254.132 77.04 254.57 76.816C255.018 76.5813 255.354 76.2827 255.578 75.92C255.802 75.5573 255.967 75.1573 256.074 74.72C256.18 74.2827 256.18 73.8453 256.074 73.408C255.967 72.96 255.802 72.5547 255.578 72.192C255.354 71.8293 255.018 71.536 254.57 71.312C254.132 71.0773 253.636 70.96 253.082 70.96ZM265.638 70.544L266.47 69.552L267.206 70.16L266.358 71.168C266.7 71.552 266.961 71.9413 267.142 72.336C267.324 72.7307 267.414 73.216 267.414 73.792C267.414 74.5387 267.206 75.2213 266.79 75.84C266.385 76.4587 265.798 76.88 265.03 77.104C266.588 77.52 267.366 78.384 267.366 79.696C267.366 80.6347 266.966 81.3707 266.166 81.904C265.377 82.4373 264.422 82.704 263.302 82.704C262.14 82.704 261.18 82.4107 260.422 81.824C259.665 81.2373 259.292 80.4427 259.302 79.44H260.374C260.364 80.144 260.646 80.688 261.222 81.072C261.798 81.4667 262.492 81.664 263.302 81.664C264.113 81.664 264.812 81.4987 265.398 81.168C265.985 80.8373 266.278 80.3467 266.278 79.696C266.278 79.0453 265.985 78.544 265.398 78.192C264.812 77.8507 264.113 77.68 263.302 77.68C262.065 77.68 261.062 77.3333 260.294 76.64C259.537 75.9467 259.158 74.9973 259.158 73.792C259.158 72.5867 259.574 71.6373 260.406 70.944C261.249 70.2507 262.214 69.904 263.302 69.904C264.252 69.904 265.03 70.1173 265.638 70.544ZM263.302 70.912C262.492 70.912 261.777 71.1627 261.158 71.664C260.55 72.1547 260.246 72.864 260.246 73.792C260.246 74.7307 260.529 75.4507 261.094 75.952C261.67 76.4427 262.406 76.688 263.302 76.688C264.198 76.688 264.929 76.4053 265.494 75.84C266.06 75.2747 266.342 74.592 266.342 73.792C266.342 72.864 266.044 72.1547 265.446 71.664C264.86 71.1627 264.145 70.912 263.302 70.912ZM277.527 72.72C276.471 72.72 275.693 72.9387 275.191 73.376C274.69 73.8133 274.439 74.3307 274.439 74.928C274.439 75.6213 274.706 76.1707 275.239 76.576C275.783 76.9707 276.546 77.168 277.527 77.168C277.943 77.168 278.365 77.0933 278.791 76.944C279.229 76.7947 279.613 76.5493 279.943 76.208C280.285 75.856 280.455 75.4507 280.455 74.992V72.72H277.527ZM281.431 72.72V74.992C281.431 76.3467 281.874 77.024 282.759 77.024V78.016C281.725 78.1227 281.069 77.664 280.791 76.64C280.525 77.088 280.055 77.4507 279.383 77.728C278.711 78.0053 278.103 78.144 277.559 78.144C276.215 78.144 275.175 77.872 274.439 77.328C273.703 76.7733 273.335 75.968 273.335 74.912C273.335 74.2933 273.538 73.7493 273.943 73.28C274.349 72.8107 274.855 72.48 275.463 72.288C274.887 72.1067 274.418 71.7867 274.055 71.328C273.703 70.8693 273.527 70.352 273.527 69.776C273.538 68.8373 273.901 68.0907 274.615 67.536C275.341 66.9813 276.311 66.704 277.527 66.704C280.045 66.704 281.309 67.6427 281.319 69.52H280.327C280.327 68.2507 279.383 67.616 277.495 67.616C276.546 67.616 275.826 67.824 275.335 68.24C274.845 68.6453 274.605 69.152 274.615 69.76C274.615 70.464 274.925 70.9867 275.543 71.328C276.173 71.6693 276.855 71.84 277.591 71.84H282.455V72.72H281.431ZM292.456 70.976C291.592 70.976 290.878 71.248 290.312 71.792C289.758 72.3253 289.48 73.0773 289.48 74.048C289.48 75.008 289.763 75.76 290.328 76.304C290.894 76.848 291.603 77.12 292.456 77.12C293.31 77.12 294.019 76.832 294.584 76.256C295.16 75.68 295.448 74.9387 295.448 74.032C295.448 73.136 295.16 72.4053 294.584 71.84C294.019 71.264 293.31 70.976 292.456 70.976ZM295.496 66.8H296.568V78H295.528L295.496 76.416C295.187 76.9707 294.75 77.3973 294.184 77.696C293.63 77.9947 293.032 78.144 292.392 78.144C291.23 78.144 290.275 77.7813 289.528 77.056C288.782 76.3307 288.408 75.328 288.408 74.048C288.408 72.768 288.782 71.7653 289.528 71.04C290.275 70.3147 291.23 69.952 292.392 69.952C293.043 69.952 293.651 70.1013 294.216 70.4C294.782 70.688 295.208 71.1093 295.496 71.664V66.8ZM299.061 70.096H300.069L300.133 71.392C300.367 70.9013 300.714 70.544 301.173 70.32C301.631 70.0853 302.122 69.968 302.645 69.968C303.306 69.968 303.903 70.1547 304.437 70.528L303.941 71.424C303.535 71.1467 303.082 71.008 302.581 71.008C301.887 71.0187 301.306 71.2587 300.837 71.728C300.367 72.1973 300.133 72.7893 300.133 73.504V78H299.061V70.096ZM309.019 69.952C310.181 69.952 311.147 70.336 311.915 71.104C312.693 71.872 313.083 72.8587 313.083 74.064C313.083 75.28 312.699 76.2613 311.931 77.008C311.173 77.7547 310.203 78.128 309.019 78.128C307.845 78.128 306.875 77.7547 306.107 77.008C305.339 76.2507 304.955 75.2693 304.955 74.064C304.955 72.848 305.333 71.8613 306.091 71.104C306.848 70.336 307.824 69.952 309.019 69.952ZM311.163 71.808C310.608 71.2213 309.893 70.928 309.019 70.928C308.144 70.928 307.424 71.2213 306.859 71.808C306.304 72.3947 306.027 73.1467 306.027 74.064C306.027 74.9813 306.304 75.7227 306.859 76.288C307.424 76.8427 308.144 77.12 309.019 77.12C309.915 77.12 310.635 76.8427 311.179 76.288C311.733 75.7227 312.011 74.9813 312.011 74.064C312.011 73.1467 311.728 72.3947 311.163 71.808ZM319.173 77.12C320.037 77.12 320.746 76.848 321.301 76.304C321.866 75.76 322.149 75.008 322.149 74.048C322.149 73.088 321.871 72.3413 321.317 71.808C320.762 71.2747 320.047 71.008 319.173 71.008C318.309 71.008 317.599 71.296 317.045 71.872C316.49 72.448 316.213 73.1787 316.213 74.064C316.213 74.9387 316.49 75.6693 317.045 76.256C317.61 76.832 318.319 77.12 319.173 77.12ZM316.117 81.776H315.061V70.096H316.101L316.133 71.776C316.442 71.2107 316.879 70.768 317.445 70.448C318.021 70.128 318.65 69.968 319.333 69.968C320.474 70 321.407 70.384 322.133 71.12C322.858 71.856 323.22 72.832 323.22 74.048C323.22 75.3067 322.847 76.3093 322.101 77.056C321.354 77.792 320.394 78.16 319.221 78.16C318.581 78.16 317.978 78.0107 317.413 77.712C316.858 77.4133 316.426 76.976 316.117 76.4V81.776ZM331.028 78H329.956V71.104H328.388V70.176H329.956V69.52C329.956 68.6453 330.169 67.9627 330.596 67.472C331.022 66.9707 331.652 66.72 332.484 66.72C333.092 66.72 333.657 66.9067 334.18 67.28L333.716 68.08C333.268 67.8133 332.862 67.68 332.5 67.68C331.518 67.68 331.028 68.2933 331.028 69.52V70.176H333.556V71.104H331.028V78ZM336.117 70.064H335.045V78H336.117V70.064ZM335.221 68.288C334.965 68.16 334.837 67.936 334.837 67.616C334.837 67.296 334.96 67.072 335.205 66.944C335.461 66.816 335.717 66.816 335.973 66.944C336.229 67.072 336.357 67.296 336.357 67.616C336.357 67.936 336.229 68.16 335.973 68.288C335.728 68.416 335.477 68.416 335.221 68.288ZM338.719 66.8H339.791V78H338.719V66.8ZM349.876 74.496H342.996C343.071 75.3067 343.386 75.9467 343.94 76.416C344.506 76.8853 345.188 77.12 345.988 77.12C346.49 77.12 346.991 77.024 347.492 76.832C348.004 76.64 348.394 76.3733 348.66 76.032L349.38 76.672C349.007 77.1413 348.511 77.504 347.892 77.76C347.274 78.016 346.639 78.144 345.988 78.144C344.794 78.144 343.812 77.7707 343.044 77.024C342.276 76.2773 341.892 75.28 341.892 74.032C341.892 72.848 342.271 71.872 343.028 71.104C343.796 70.336 344.767 69.952 345.94 69.952C347.199 69.952 348.207 70.3413 348.964 71.12C349.722 71.888 350.026 73.0133 349.876 74.496ZM342.996 73.584H348.868C348.858 72.752 348.575 72.1013 348.02 71.632C347.466 71.152 346.778 70.912 345.956 70.912C345.156 70.912 344.49 71.1467 343.956 71.616C343.423 72.0853 343.103 72.7413 342.996 73.584ZM357.555 71.008L356.931 71.712C356.345 71.1787 355.566 70.912 354.595 70.912C353.977 70.9013 353.459 71.008 353.043 71.232C352.638 71.456 352.441 71.776 352.451 72.192C352.451 72.48 352.574 72.72 352.819 72.912C353.065 73.104 353.315 73.232 353.571 73.296C353.838 73.36 354.185 73.424 354.611 73.488C354.953 73.5413 355.203 73.584 355.363 73.616C355.523 73.6373 355.758 73.6853 356.067 73.76C356.387 73.8347 356.627 73.9253 356.787 74.032C356.958 74.1387 357.139 74.272 357.331 74.432C357.523 74.592 357.662 74.7947 357.747 75.04C357.833 75.2747 357.875 75.5467 357.875 75.856C357.865 76.3787 357.694 76.8213 357.363 77.184C357.043 77.5467 356.649 77.8027 356.179 77.952C355.71 78.0907 355.193 78.16 354.627 78.16C353.049 78.16 351.881 77.648 351.123 76.624L351.795 75.888C352.414 76.72 353.363 77.1467 354.643 77.168C355.209 77.168 355.71 77.0667 356.147 76.864C356.585 76.6613 356.803 76.32 356.803 75.84C356.803 75.5947 356.75 75.3867 356.643 75.216C356.537 75.0453 356.361 74.912 356.115 74.816C355.87 74.7093 355.635 74.6347 355.411 74.592C355.198 74.5387 354.899 74.4853 354.515 74.432C354.153 74.3787 353.843 74.3253 353.587 74.272C353.342 74.2187 353.07 74.1387 352.771 74.032C352.473 73.9147 352.233 73.7867 352.051 73.648C351.87 73.4987 351.715 73.3013 351.587 73.056C351.459 72.8107 351.395 72.5333 351.395 72.224C351.395 71.4667 351.71 70.896 352.339 70.512C352.969 70.1173 353.715 69.9253 354.579 69.936C355.785 69.936 356.777 70.2933 357.555 71.008ZM363.936 66.8H364.992V71.472C365.589 70.5013 366.506 70.0053 367.744 69.984C368.821 69.984 369.637 70.3093 370.192 70.96C370.757 71.6 371.04 72.4693 371.04 73.568V78H369.968V73.568C369.968 72.7573 369.77 72.128 369.376 71.68C368.981 71.232 368.394 71.008 367.616 71.008C366.858 71.008 366.234 71.2693 365.744 71.792C365.253 72.3147 365.008 72.9653 365.008 73.744V78H363.936V66.8ZM380.908 74.496H374.028C374.102 75.3067 374.417 75.9467 374.972 76.416C375.537 76.8853 376.22 77.12 377.02 77.12C377.521 77.12 378.022 77.024 378.524 76.832C379.036 76.64 379.425 76.3733 379.692 76.032L380.411 76.672C380.038 77.1413 379.542 77.504 378.924 77.76C378.305 78.016 377.67 78.144 377.02 78.144C375.825 78.144 374.844 77.7707 374.076 77.024C373.308 76.2773 372.924 75.28 372.924 74.032C372.924 72.848 373.302 71.872 374.06 71.104C374.828 70.336 375.798 69.952 376.972 69.952C378.23 69.952 379.238 70.3413 379.996 71.12C380.753 71.888 381.057 73.0133 380.908 74.496ZM374.028 73.584H379.9C379.889 72.752 379.606 72.1013 379.052 71.632C378.497 71.152 377.809 70.912 376.988 70.912C376.188 70.912 375.521 71.1467 374.988 71.616C374.454 72.0853 374.134 72.7413 374.028 73.584ZM382.811 70.096H383.819L383.883 71.392C384.117 70.9013 384.464 70.544 384.923 70.32C385.381 70.0853 385.872 69.968 386.395 69.968C387.056 69.968 387.653 70.1547 388.187 70.528L387.691 71.424C387.285 71.1467 386.832 71.008 386.331 71.008C385.637 71.0187 385.056 71.2587 384.587 71.728C384.117 72.1973 383.883 72.7893 383.883 73.504V78H382.811V70.096ZM396.689 74.496H389.809C389.883 75.3067 390.198 75.9467 390.753 76.416C391.318 76.8853 392.001 77.12 392.801 77.12C393.302 77.12 393.803 77.024 394.305 76.832C394.817 76.64 395.206 76.3733 395.473 76.032L396.193 76.672C395.819 77.1413 395.323 77.504 394.705 77.76C394.086 78.016 393.451 78.144 392.801 78.144C391.606 78.144 390.625 77.7707 389.857 77.024C389.089 76.2773 388.705 75.28 388.705 74.032C388.705 72.848 389.083 71.872 389.841 71.104C390.609 70.336 391.579 69.952 392.753 69.952C394.011 69.952 395.019 70.3413 395.777 71.12C396.534 71.888 396.838 73.0133 396.689 74.496ZM389.809 73.584H395.681C395.67 72.752 395.387 72.1013 394.833 71.632C394.278 71.152 393.59 70.912 392.769 70.912C391.969 70.912 391.302 71.1467 390.769 71.616C390.235 72.0853 389.915 72.7413 389.809 73.584ZM406.316 69.952C407.478 69.952 408.444 70.336 409.212 71.104C409.99 71.872 410.38 72.8587 410.38 74.064C410.38 75.28 409.996 76.2613 409.228 77.008C408.47 77.7547 407.5 78.128 406.316 78.128C405.142 78.128 404.172 77.7547 403.404 77.008C402.636 76.2507 402.252 75.2693 402.252 74.064C402.252 72.848 402.63 71.8613 403.388 71.104C404.145 70.336 405.121 69.952 406.316 69.952ZM408.46 71.808C407.905 71.2213 407.19 70.928 406.316 70.928C405.441 70.928 404.721 71.2213 404.156 71.808C403.601 72.3947 403.324 73.1467 403.324 74.064C403.324 74.9813 403.601 75.7227 404.156 76.288C404.721 76.8427 405.441 77.12 406.316 77.12C407.212 77.12 407.932 76.8427 408.476 76.288C409.03 75.7227 409.308 74.9813 409.308 74.064C409.308 73.1467 409.025 72.3947 408.46 71.808ZM412.357 70.096H413.365L413.429 71.392C413.664 70.9013 414.011 70.544 414.469 70.32C414.928 70.0853 415.419 69.968 415.941 69.968C416.603 69.968 417.2 70.1547 417.733 70.528L417.237 71.424C416.832 71.1467 416.379 71.008 415.877 71.008C415.184 71.0187 414.603 71.2587 414.133 71.728C413.664 72.1973 413.429 72.7893 413.429 73.504V78H412.357V70.096Z" fill="#4247E5"/>
<path d="M429.424 71.744C428.795 71.744 428.256 71.9627 427.808 72.4C427.36 72.8267 427.136 73.376 427.136 74.048C427.136 74.7413 427.355 75.3013 427.792 75.728C428.24 76.1547 428.784 76.368 429.424 76.368C430.053 76.368 430.581 76.1547 431.008 75.728C431.445 75.2907 431.664 74.7307 431.664 74.048C431.664 73.3547 431.451 72.8 431.024 72.384C430.597 71.9573 430.064 71.744 429.424 71.744ZM425.056 66.816H427.008V71.184C427.221 70.8 427.589 70.496 428.112 70.272C428.645 70.0373 429.141 69.92 429.6 69.92C430.795 69.92 431.76 70.2773 432.496 70.992C433.243 71.7067 433.616 72.7253 433.616 74.048C433.616 75.3173 433.232 76.3253 432.464 77.072C431.707 77.808 430.736 78.176 429.552 78.176C428.4 78.176 427.552 77.7547 427.008 76.912L426.88 78H425.056V66.816ZM435.259 70.112H437.067L437.211 71.024C437.488 70.576 437.808 70.2773 438.171 70.128C438.534 69.9787 438.955 69.904 439.435 69.904C440.288 69.904 440.966 70.1547 441.467 70.656L440.587 72.352C440.182 72.0107 439.712 71.84 439.179 71.84C438.614 71.84 438.144 72.0053 437.771 72.336C437.398 72.656 437.211 73.1573 437.211 73.84V78H435.259V70.112ZM442.946 71.136C443.693 70.3467 444.679 69.952 445.906 69.952C447.133 69.952 448.125 70.3467 448.882 71.136C449.65 71.9253 450.034 72.9013 450.034 74.064C450.034 75.2373 449.661 76.2187 448.914 77.008C448.167 77.7867 447.17 78.176 445.922 78.176C444.674 78.176 443.677 77.7867 442.93 77.008C442.194 76.2187 441.826 75.2373 441.826 74.064C441.826 72.9013 442.199 71.9253 442.946 71.136ZM445.922 71.728C445.25 71.728 444.722 71.9573 444.338 72.416C443.965 72.8747 443.778 73.424 443.778 74.064C443.778 74.704 443.965 75.2533 444.338 75.712C444.722 76.16 445.25 76.384 445.922 76.384C446.594 76.384 447.117 76.16 447.49 75.712C447.874 75.2533 448.066 74.704 448.066 74.064C448.066 73.4453 447.863 72.9013 447.458 72.432C447.063 71.9627 446.551 71.728 445.922 71.728ZM456.375 70.096H458.087L459.815 76.032L461.623 70.096H463.783L461.031 78.032H458.759L457.943 75.696L457.239 73.056L456.535 75.696L455.719 78.032H453.447L450.679 70.096H452.855L454.663 76.032L456.375 70.096ZM471.042 70.928L469.954 72.208C469.452 71.7387 468.802 71.504 468.002 71.504C467.042 71.504 466.562 71.7653 466.562 72.288C466.562 72.8 467.052 73.088 468.034 73.152C468.386 73.1733 468.695 73.2053 468.962 73.248C469.239 73.2907 469.538 73.3707 469.858 73.488C470.178 73.5947 470.444 73.7387 470.658 73.92C470.871 74.0907 471.047 74.3253 471.186 74.624C471.335 74.9227 471.41 75.2747 471.41 75.68C471.41 76.416 471.111 77.0347 470.514 77.536C469.927 78.0267 469.095 78.272 468.018 78.272C467.292 78.272 466.636 78.176 466.049 77.984C465.463 77.792 464.903 77.4187 464.37 76.864L465.33 75.472C466.012 76.1867 466.919 76.5547 468.049 76.576C468.444 76.5867 468.78 76.5173 469.058 76.368C469.335 76.208 469.474 75.9893 469.474 75.712C469.474 75.168 468.951 74.864 467.906 74.8C467.49 74.768 467.106 74.7093 466.754 74.624C466.402 74.528 466.055 74.3947 465.714 74.224C465.383 74.0427 465.122 73.792 464.93 73.472C464.738 73.152 464.642 72.7787 464.642 72.352C464.642 71.9147 464.743 71.5307 464.946 71.2C465.159 70.8693 465.431 70.6133 465.762 70.432C466.103 70.2507 466.46 70.1173 466.834 70.032C467.207 69.936 467.586 69.888 467.97 69.888C469.228 69.888 470.252 70.2347 471.042 70.928ZM480.659 74.752H474.499C474.563 75.2533 474.803 75.6587 475.219 75.968C475.635 76.2773 476.179 76.432 476.851 76.432C477.235 76.432 477.629 76.368 478.035 76.24C478.44 76.1013 478.749 75.92 478.963 75.696L480.211 76.928C479.816 77.344 479.309 77.664 478.691 77.888C478.072 78.1013 477.448 78.208 476.819 78.208C475.475 78.208 474.413 77.8293 473.635 77.072C472.867 76.304 472.483 75.28 472.483 74C472.483 72.784 472.861 71.792 473.619 71.024C474.387 70.256 475.405 69.872 476.675 69.872C478.029 69.872 479.069 70.2933 479.795 71.136C480.52 71.968 480.808 73.1733 480.659 74.752ZM474.531 73.136H478.787C478.723 72.6347 478.509 72.256 478.147 72C477.784 71.7333 477.315 71.6 476.739 71.6C476.195 71.6 475.725 71.7333 475.331 72C474.936 72.256 474.669 72.6347 474.531 73.136Z" fill="#4247E5"/>
<path d="M216.753 78.7316H212.874H211.829H211.604V73.5285H213.305C213.737 73.5285 213.992 73.0381 213.737 72.685L210.427 68.1047C210.216 67.8104 209.779 67.8104 209.568 68.1047L206.258 72.685C206.003 73.0381 206.253 73.5285 206.69 73.5285H208.391V78.7316H208.166H207.121H202.624C200.05 78.5894 198 76.1815 198 73.5726C198 71.7728 198.976 70.2036 200.423 69.3552C200.29 68.9972 200.221 68.6147 200.221 68.2126C200.221 66.3736 201.707 64.8877 203.546 64.8877C203.944 64.8877 204.326 64.9563 204.684 65.0887C205.748 62.8329 208.043 61.2686 210.711 61.2686C214.163 61.2735 217.008 63.9167 217.331 67.2857C219.984 67.7418 222 70.1987 222 72.9792C222 75.951 219.685 78.5256 216.753 78.7316Z" fill="#4247E5" fill-opacity="0.8"/>
</svg>
