<svg width="72" height="72" viewBox="0 0 72 72" fill="none" xmlns="http://www.w3.org/2000/svg">
<circle cx="36" cy="36" r="36" fill="#4247E5" fill-opacity="0.1"/>
<g clip-path="url(#clip0_689_9862)">
<path d="M53.9483 31.8696C53.8243 31.4877 53.4943 31.2094 53.097 31.1518L41.9369 29.53L36.9458 19.4172C36.7682 19.0572 36.4015 18.8293 36.0001 18.8293C35.5986 18.8293 35.232 19.0572 35.0543 19.4172L30.063 29.53L18.903 31.1518C18.5058 31.2094 18.1757 31.4877 18.0517 31.8695C17.9276 32.2514 18.0311 32.6705 18.3186 32.9507L26.3938 40.8224L24.4878 51.9376C24.4198 52.3333 24.5826 52.7331 24.9073 52.9692C25.091 53.1026 25.3087 53.1705 25.5273 53.1705C25.6952 53.1705 25.8637 53.1305 26.018 53.0494L36 47.8014L45.9816 53.0493C46.337 53.2361 46.7675 53.2051 47.0923 52.9691C47.4171 52.7331 47.5799 52.3332 47.512 51.9375L45.6053 40.8224L53.6815 32.9506C53.9689 32.6705 54.0725 32.2514 53.9483 31.8696Z" fill="#4247E5"/>
<g clip-path="url(#clip1_689_9862)">
<path d="M33.1018 34.4372V35.708H32.1914V36.7587H33.1018V38.8901C33.1018 40.1209 33.7945 40.7313 34.8534 40.6912C35.2195 40.6812 35.5065 40.6212 35.8529 40.4811L35.5164 39.4404C35.3383 39.5305 35.1206 39.5905 34.9326 39.5905C34.5565 39.5905 34.2992 39.3604 34.2992 38.8901V36.7587H35.655V35.708H34.3091V34.3071L33.1018 34.4372Z" fill="white"/>
<path d="M37.055 34.4372V35.708H36.1445V36.7587H37.055V38.8901C37.055 40.1209 37.7477 40.7313 38.8065 40.6912C39.1727 40.6812 39.4597 40.6212 39.806 40.4811L39.4696 39.4404C39.2914 39.5305 39.0737 39.5905 38.8857 39.5905C38.5097 39.5905 38.2524 39.3604 38.2524 38.8901V36.7587H39.6081V35.708H38.2623V34.3071L37.055 34.4372Z" fill="white"/>
<path fill-rule="evenodd" clip-rule="evenodd" d="M36 31.6667C32.7783 31.6667 30.1667 34.2783 30.1667 37.5C30.1667 40.7217 32.7783 43.3333 36 43.3333C39.2217 43.3333 41.8333 40.7217 41.8333 37.5C41.8333 34.2783 39.2217 31.6667 36 31.6667ZM29 37.5C29 33.634 32.134 30.5 36 30.5C39.866 30.5 43 33.634 43 37.5C43 41.366 39.866 44.5 36 44.5C32.134 44.5 29 41.366 29 37.5Z" fill="white"/>
</g>
</g>
<defs>
<clipPath id="clip0_689_9862">
<rect width="36" height="36" fill="white" transform="translate(18 18)"/>
</clipPath>
<clipPath id="clip1_689_9862">
<rect width="14" height="14" fill="white" transform="translate(29 30.5)"/>
</clipPath>
</defs>
</svg>
