<svg width="564" height="420" viewBox="0 0 564 420" fill="none" xmlns="http://www.w3.org/2000/svg">
<path style="mix-blend-mode:multiply" d="M537.669 103.519L509.39 87.1521C507.834 86.2506 505.8 85.8018 503.766 85.8018H465.197V127.744H503.766C505.8 127.744 507.834 127.296 509.39 126.398L537.669 110.031C539.22 109.129 540 107.953 540 106.777C540 105.601 539.224 104.417 537.669 103.519V103.519Z" fill="url(#paint0_linear_112_20384)"/>
<path d="M459.198 105.349L429.097 87.9262C427.441 86.9666 426.612 85.713 426.612 84.4594C426.612 83.2057 427.438 81.9521 429.097 80.9925L459.198 63.5732C460.854 62.6136 463.019 62.1377 465.193 62.1377C467.366 62.1377 469.524 62.6136 471.18 63.5732L501.284 80.9925C502.936 81.9482 503.766 83.2019 503.766 84.4632C503.766 85.7246 502.94 86.9705 501.284 87.9262L471.18 105.349C469.524 106.305 467.358 106.785 465.193 106.785C463.027 106.785 460.854 106.305 459.198 105.349Z" fill="#F6F6FB"/>
<path d="M501.284 87.9263L471.18 105.35C469.524 106.305 467.358 106.785 465.193 106.785C463.027 106.785 460.854 106.305 459.198 105.35L429.097 87.9263C427.441 86.9668 426.612 85.7131 426.612 84.4595V105.419C426.612 106.677 427.438 107.93 429.097 108.886L459.198 126.305C460.854 127.265 463.019 127.745 465.193 127.745C467.366 127.745 469.524 127.265 471.18 126.305L501.284 108.886C502.936 107.93 503.766 106.677 503.766 105.419V84.4595C503.766 85.7131 502.94 86.9668 501.284 87.9263Z" fill="url(#paint1_linear_112_20384)"/>
<path d="M459.198 77.3907L429.097 59.9675C427.441 59.0079 426.612 57.7543 426.612 56.5006C426.612 55.247 427.438 53.9934 429.097 53.0338L459.198 35.6144C460.854 34.6549 463.019 34.179 465.193 34.179C467.366 34.179 469.524 34.6549 471.18 35.6144L501.284 53.0338C502.936 53.9895 503.766 55.2431 503.766 56.5045C503.766 57.7659 502.94 59.0118 501.284 59.9675L471.18 77.3907C469.524 78.3464 467.358 78.8262 465.193 78.8262C463.027 78.8262 460.854 78.3464 459.198 77.3907V77.3907Z" fill="#F6F6FB"/>
<path d="M501.284 59.9712L471.18 77.3944C469.524 78.3502 467.358 78.8299 465.193 78.8299C463.027 78.8299 460.854 78.3502 459.198 77.3944L429.097 59.9712C427.441 59.0117 426.612 57.758 426.612 56.5044V77.4641C426.612 78.7216 427.438 79.9752 429.097 80.9309L459.198 98.3503C460.854 99.3099 463.019 99.7896 465.193 99.7896C467.366 99.7896 469.524 99.3099 471.18 98.3503L501.284 80.9309C502.936 79.9752 503.766 78.7216 503.766 77.4641V56.5044C503.766 57.758 502.94 59.0117 501.284 59.9712V59.9712Z" fill="url(#paint2_linear_112_20384)"/>
<g style="mix-blend-mode:multiply">
<path d="M485.184 78.8493L498.921 70.8979V73.8734L485.184 81.8247V78.8493Z" fill="#D1D7F3"/>
</g>
<g style="mix-blend-mode:multiply">
<path d="M480.856 81.3529L482.736 80.2695V83.2411L480.856 84.3284V81.3529Z" fill="#D1D7F3"/>
</g>
<g style="mix-blend-mode:multiply">
<path d="M477.101 83.5272L478.977 82.4399V85.4154L477.101 86.5026V83.5272Z" fill="#D1D7F3"/>
</g>
<g style="mix-blend-mode:multiply">
<path d="M473.345 85.702L475.221 84.6147V87.5902L473.345 88.6775V85.702Z" fill="#D1D7F3"/>
</g>
<g style="mix-blend-mode:multiply">
<path d="M445.194 79.1393L431.456 71.188V74.1596L445.194 82.1147V79.1393Z" fill="url(#paint3_linear_112_20384)"/>
</g>
<g style="mix-blend-mode:multiply">
<path d="M446.904 81.6155C446.904 80.8068 447.471 80.4779 448.17 80.8842C448.868 81.2904 449.436 82.2732 449.436 83.0819C449.436 83.8906 448.868 84.2195 448.17 83.8132C447.471 83.4069 446.904 82.4241 446.904 81.6155Z" fill="#FCBA06"/>
</g>
<g style="mix-blend-mode:multiply">
<path d="M451.347 84.1848C451.347 83.3761 451.914 83.0472 452.613 83.4535C453.311 83.8598 453.879 84.8426 453.879 85.6512C453.879 86.4599 453.311 86.7888 452.613 86.3825C451.914 85.9763 451.347 84.9935 451.347 84.1848Z" fill="#D1D7F3"/>
</g>
<g style="mix-blend-mode:multiply">
<path d="M455.793 86.758C455.793 85.9493 456.361 85.6205 457.059 86.0267C457.758 86.433 458.325 87.4158 458.325 88.2245C458.325 89.0331 457.758 89.362 457.059 88.9557C456.361 88.5533 455.793 87.5667 455.793 86.758Z" fill="url(#paint4_linear_112_20384)"/>
</g>
<g style="mix-blend-mode:multiply">
<path d="M485.184 106.638L498.921 98.687V101.662L485.184 109.614V106.638Z" fill="#D1D7F3"/>
</g>
<g style="mix-blend-mode:multiply">
<path d="M480.856 109.142L482.736 108.055V111.03L480.856 112.117V109.142Z" fill="#D1D7F3"/>
</g>
<g style="mix-blend-mode:multiply">
<path d="M477.101 111.316L478.977 110.229V113.204L477.101 114.292V111.316Z" fill="#D1D7F3"/>
</g>
<g style="mix-blend-mode:multiply">
<path d="M473.345 113.491L475.221 112.403V115.379L473.345 116.466V113.491Z" fill="#D1D7F3"/>
</g>
<g style="mix-blend-mode:multiply">
<path d="M449.227 109.262L435.485 101.307V104.282L449.227 112.237V109.262Z" fill="url(#paint5_linear_112_20384)"/>
</g>
<g style="mix-blend-mode:multiply">
<path d="M431.687 100.575C431.687 99.7663 432.255 99.4374 432.953 99.8436C433.652 100.25 434.219 101.233 434.219 102.041C434.219 102.85 433.652 103.179 432.953 102.773C432.255 102.366 431.687 101.384 431.687 100.575Z" fill="#FCBA06"/>
</g>
<g style="mix-blend-mode:multiply">
<path d="M451.347 111.974C451.347 111.165 451.914 110.836 452.613 111.243C453.311 111.649 453.879 112.632 453.879 113.44C453.879 114.249 453.311 114.578 452.613 114.172C451.914 113.765 451.347 112.783 451.347 111.974Z" fill="#D1D7F3"/>
</g>
<g style="mix-blend-mode:multiply">
<path d="M455.793 114.547C455.793 113.738 456.361 113.409 457.059 113.815C457.758 114.222 458.325 115.204 458.325 116.013C458.325 116.822 457.758 117.151 457.059 116.744C456.361 116.338 455.793 115.355 455.793 114.547Z" fill="url(#paint6_linear_112_20384)"/>
</g>
<path d="M459.198 50.2283L429.097 32.8051C427.441 31.8456 426.612 30.5919 426.612 29.3383C426.612 28.0846 427.438 26.831 429.097 25.8714L459.198 8.45209C460.854 7.49252 463.019 7.0166 465.193 7.0166C467.366 7.0166 469.524 7.49252 471.18 8.45209L501.284 25.8714C502.936 26.8271 503.766 28.0808 503.766 29.3421C503.766 30.6035 502.94 31.8494 501.284 32.8051L471.18 50.2283C469.524 51.184 467.358 51.6638 465.193 51.6638C463.027 51.6638 460.854 51.184 459.198 50.2283V50.2283Z" fill="#F6F6FB"/>
<path d="M501.284 32.8091L471.18 50.2324C469.524 51.1881 467.358 51.6678 465.193 51.6678C463.027 51.6678 460.854 51.1881 459.198 50.2324L429.097 32.8091C427.441 31.8496 426.612 30.5959 426.612 29.3423V50.302C426.612 51.5595 427.438 52.8131 429.097 53.7688L459.198 71.1882C460.854 72.1478 463.019 72.6275 465.193 72.6275C467.366 72.6275 469.524 72.1478 471.18 71.1882L501.284 53.7688C502.936 52.8131 503.766 51.5595 503.766 50.302V29.3423C503.766 30.5959 502.94 31.8496 501.284 32.8091Z" fill="url(#paint7_linear_112_20384)"/>
<g style="mix-blend-mode:multiply">
<path d="M485.184 51.6871L498.921 43.7358V46.7113L485.184 54.6626V51.6871Z" fill="#D1D7F3"/>
</g>
<g style="mix-blend-mode:multiply">
<path d="M480.856 54.1903L482.736 53.103V56.0785L480.856 57.1657V54.1903Z" fill="#D1D7F3"/>
</g>
<g style="mix-blend-mode:multiply">
<path d="M477.101 56.3651L478.977 55.2778V58.2533L477.101 59.3405V56.3651Z" fill="#D1D7F3"/>
</g>
<g style="mix-blend-mode:multiply">
<path d="M473.345 58.5394L475.221 57.4521V60.4276L473.345 61.511V58.5394Z" fill="#D1D7F3"/>
</g>
<g style="mix-blend-mode:multiply">
<path d="M445.194 51.9771L431.456 44.022V46.9974L445.194 54.9487V51.9771Z" fill="url(#paint8_linear_112_20384)"/>
</g>
<g style="mix-blend-mode:multiply">
<path d="M446.904 54.4499C446.904 53.6413 447.471 53.3124 448.17 53.7186C448.868 54.1249 449.436 55.1077 449.436 55.9164C449.436 56.725 448.868 57.0539 448.17 56.6477C447.471 56.2414 446.904 55.2586 446.904 54.4499Z" fill="#FCBA06"/>
</g>
<g style="mix-blend-mode:multiply">
<path d="M451.347 57.0227C451.347 56.214 451.914 55.8851 452.613 56.2914C453.311 56.6977 453.879 57.6805 453.879 58.4891C453.879 59.2978 453.311 59.6267 452.613 59.2204C451.914 58.8141 451.347 57.8314 451.347 57.0227Z" fill="#FCBA06"/>
</g>
<g style="mix-blend-mode:multiply">
<path d="M455.793 59.5959C455.793 58.7872 456.361 58.4584 457.059 58.8646C457.758 59.2709 458.325 60.2537 458.325 61.0624C458.325 61.871 457.758 62.1999 457.059 61.7936C456.361 61.3912 455.793 60.4046 455.793 59.5959Z" fill="#FCBA06"/>
</g>
<path d="M529.5 165.702L400.116 90.8244C392.056 86.1581 378.863 86.1581 370.799 90.8244L107.884 242.983C99.8247 247.649 99.8247 255.283 107.884 259.949L215.224 322.07V338.328H251.582V338.317C257.013 338.371 262.471 337.21 266.59 334.827L529.508 182.669C537.572 178.006 537.572 170.368 529.508 165.702H529.5Z" fill="url(#paint9_linear_112_20384)"/>
<path d="M64.4556 227.672V227.85C64.4556 227.788 64.4671 227.734 64.4556 227.672ZM498.161 161.906C498.161 161.933 498.169 161.968 498.169 161.995C498.169 161.995 498.169 161.906 498.161 161.906ZM492.12 159.085L229.206 311.243C221.146 315.91 207.952 315.91 199.889 311.243L70.5043 236.366C66.486 234.04 64.4749 230.98 64.4594 227.915V251.348C64.417 254.462 66.4203 257.585 70.5043 259.949L199.889 334.827C207.952 339.493 221.146 339.493 229.206 334.827L492.12 182.668C496.154 180.335 498.169 177.259 498.169 174.179V150.6C498.169 153.676 496.154 156.752 492.12 159.082V159.085Z" fill="url(#paint10_linear_112_20384)"/>
<path d="M229.202 311.248C221.142 315.914 207.948 315.914 199.885 311.248L70.5001 236.37C62.4404 231.704 62.4404 224.07 70.5001 219.403L333.415 67.2453C341.478 62.579 354.672 62.579 362.732 67.2453L492.116 142.123C500.18 146.789 500.18 154.427 492.116 159.09L229.202 311.248Z" fill="#F6F6FB"/>
<path d="M233.463 300.298L89.4221 216.935L336.835 73.7495L480.88 157.112L233.463 300.298Z" fill="white"/>
<path d="M401.209 99.5728L436.258 119.855L434.003 121.159L398.954 100.877L401.209 99.5728Z" fill="#BBC0E6"/>
<path d="M192.358 346.446L62.9732 271.569C54.9135 266.902 41.7199 266.902 33.6562 271.569L41.8357 281.203C33.7759 285.869 35.3701 292.579 43.4337 297.245L150.774 359.366V375.624H162.303V375.613C167.735 375.667 173.193 374.506 177.311 372.123L192.362 363.409C200.425 358.747 200.425 351.109 192.362 346.442L192.358 346.446Z" fill="url(#paint11_linear_112_20384)"/>
<path d="M0.000660904 281.609V281.787C0.000660904 281.725 0.012241 281.671 0.000660904 281.609ZM187.436 341.729C187.436 341.756 187.444 341.791 187.444 341.818C187.444 341.818 187.444 341.729 187.436 341.729ZM181.395 355.546L164.747 365.181C156.687 369.847 143.494 369.847 135.43 365.181L6.04546 290.303C2.02717 287.978 0.016101 284.917 0.000660904 281.853V288.647C-0.0417995 291.762 1.96155 294.884 6.04546 297.248L135.43 372.126C143.494 376.792 156.687 376.792 164.747 372.126L181.395 362.492C185.429 360.158 187.444 357.082 187.444 354.002V347.061C187.444 350.137 185.429 353.213 181.395 355.542V355.546Z" fill="url(#paint12_linear_112_20384)"/>
<path d="M164.751 365.185C156.691 369.851 143.497 369.851 135.434 365.185L6.04921 290.307C-2.01054 285.641 -2.01054 278.007 6.04921 273.341L22.6976 263.706C30.7612 259.04 43.9547 259.04 52.0145 263.706L181.399 338.584C189.463 343.25 189.463 350.888 181.399 355.551L164.751 365.185Z" fill="#F6F6FB"/>
<path d="M88.2333 309.777L91.3947 311.607L88.82 313.097L85.6587 311.267L88.2333 309.777Z" fill="#CED3F8"/>
<path d="M89.9548 303.942L93.1162 305.773L78.7414 314.091L75.5801 312.261L89.9548 303.942Z" fill="#CED3F8"/>
<path d="M84.4583 302.287L87.6196 304.117L75.8774 310.911L72.7161 309.081L84.4583 302.287Z" fill="#CED3F8"/>
<path d="M87.0021 295.976L90.1635 297.802L64.9729 312.385L61.8115 310.555L87.0021 295.976Z" fill="#CED3F8"/>
<path d="M79.0273 295.751L82.1887 297.582L64.5869 307.769L61.4255 305.939L79.0273 295.751Z" fill="#CED3F8"/>
<path d="M73.8738 293.894L77.0352 295.724L61.3789 304.786L58.2175 302.956L73.8738 293.894Z" fill="#CED3F8"/>
<path d="M64.5829 294.432L67.7443 296.262L62.3093 299.408L59.1479 297.582L64.5829 294.432Z" fill="#CED3F8"/>
<path d="M69.5392 286.728L72.7005 288.558L48.9922 302.275L45.8308 300.445L69.5392 286.728Z" fill="#CED3F8"/>
<path d="M58.5766 288.233L61.7379 290.064L51.5938 295.933L48.4324 294.103L58.5766 288.233Z" fill="#CED3F8"/>
<path d="M52.0416 287.173L55.203 289.003L49.768 292.153L46.6067 290.323L52.0416 287.173Z" fill="#CED3F8"/>
<path d="M46.016 285.822L49.1774 287.652L47.4326 288.662L44.2712 286.832L46.016 285.822Z" fill="#CED3F8"/>
<path d="M43.6844 282.336L46.8458 284.167L41.407 287.312L38.2456 285.482L43.6844 282.336Z" fill="#CED3F8"/>
<path d="M37.6551 280.986L40.8165 282.816L39.0717 283.822L35.9104 281.996L37.6551 280.986Z" fill="#CED3F8"/>
<path d="M33.475 278.568L36.6364 280.398L34.8916 281.404L31.7302 279.574L33.475 278.568Z" fill="#CED3F8"/>
<path d="M29.2943 276.146L32.4557 277.976L30.7109 278.986L27.5535 277.156L29.2943 276.146Z" fill="#CED3F8"/>
<path d="M98.0455 312.594L94.8841 310.764L87.3687 315.117L90.53 316.947L98.0455 312.594Z" fill="#CED3F8"/>
<path d="M105.657 313.031L102.496 311.201L88.1213 319.52L91.2827 321.35L105.657 313.031Z" fill="#CED3F8"/>
<path d="M107.112 317.028L103.951 315.198L95.0266 320.36L98.188 322.19L107.112 317.028Z" fill="#CED3F8"/>
<path d="M114.018 317.868L110.857 316.038L96.4822 324.356L99.6436 326.187L114.018 317.868Z" fill="#CED3F8"/>
<path d="M116.883 321.048L113.721 319.218L101.979 326.016L105.14 327.846L116.883 321.048Z" fill="#CED3F8"/>
<path d="M123.016 322.336L119.854 320.506L104.202 329.568L107.363 331.394L123.016 322.336Z" fill="#CED3F8"/>
<path d="M120.658 328.539L117.496 326.713L114.922 328.203L118.083 330.033L120.658 328.539Z" fill="#CED3F8"/>
<path d="M126.749 329.855L123.587 328.024L117.191 331.727L120.353 333.557L126.749 329.855Z" fill="#CED3F8"/>
<path d="M138.024 328.168L134.862 326.337L114.277 338.251L117.438 340.081L138.024 328.168Z" fill="#CED3F8"/>
<path d="M136.981 333.608L133.82 331.778L123.68 337.647L126.841 339.478L136.981 333.608Z" fill="#CED3F8"/>
<path d="M139.29 337.109L136.129 335.283L129.732 338.986L132.894 340.812L139.29 337.109Z" fill="#CED3F8"/>
<path d="M145.717 344.534C151.287 341.311 160.323 341.311 165.893 344.534C171.463 347.758 171.463 352.989 165.893 356.212C160.323 359.435 151.287 359.435 145.717 356.212C140.147 352.989 140.147 347.758 145.717 344.534Z" stroke="#CED3F8" stroke-width="4" stroke-miterlimit="10"/>
<path d="M156.429 347.29L150.48 350.733L159.401 352.455L156.429 347.29Z" fill="#CED3F8"/>
<path style="mix-blend-mode:multiply" d="M486.311 292.982L475.646 286.81C476.595 287.704 477.07 288.721 477.055 289.739V296.897C477.035 298.286 476.121 299.668 474.302 300.72L415.634 334.673C413.812 335.729 411.415 336.259 409.014 336.267H421.235C423.566 336.22 425.874 335.698 427.646 334.673L486.315 300.72C489.993 298.592 489.993 295.11 486.315 292.982H486.311Z" fill="url(#paint13_linear_112_20384)"/>
<path d="M474.302 293.558L415.634 327.511C411.955 329.639 405.937 329.639 402.263 327.511L368.163 307.778C366.341 306.721 365.422 305.336 365.407 303.943V311.101C365.419 312.494 366.337 313.887 368.163 314.944L402.263 334.677C405.941 336.805 411.959 336.805 415.634 334.677L474.302 300.724C476.12 299.672 477.035 298.286 477.055 296.901V289.743C477.031 291.128 476.117 292.51 474.302 293.562V293.558Z" fill="url(#paint14_linear_112_20384)"/>
<path d="M474.302 285.819C477.981 287.948 477.981 291.43 474.302 293.558L415.634 327.511C411.955 329.639 405.937 329.639 402.263 327.511L368.163 307.777C364.484 305.649 364.484 302.167 368.163 300.039L426.832 266.086C430.51 263.958 436.528 263.958 440.203 266.086L474.302 285.819V285.819Z" fill="#F6F6FB"/>
<path style="mix-blend-mode:multiply" d="M474.302 285.819L461.877 278.626H451.065L457.253 282.209L396.226 317.644H432.684L474.302 293.558C477.981 291.43 477.981 287.947 474.302 285.819Z" fill="url(#paint15_linear_112_20384)"/>
<path d="M390.038 258.894L396.225 262.476V317.644L390.038 314.061V258.894Z" fill="#BBBFE2"/>
<path d="M396.225 249.391L457.253 213.956V282.21L396.225 317.644V249.391Z" fill="#949CCA"/>
<path d="M449.895 177.918C448.367 175.875 445.313 175.244 443.105 176.521L371.861 217.751C369.653 219.028 369.097 221.745 370.626 223.791L410.507 277.171C412.036 279.214 415.089 279.845 417.297 278.568L488.542 237.338C490.75 236.061 491.306 233.344 489.777 231.298L449.895 177.918Z" fill="#F6F6FB"/>
<path d="M417.297 278.569C415.089 279.846 412.036 279.219 410.507 277.172L370.625 223.792C369.402 222.155 369.518 220.085 370.749 218.669L365.704 224.647C364.411 226.063 364.268 228.18 365.515 229.847L405.397 283.227C406.925 285.27 409.979 285.901 412.186 284.624L483.431 243.393C483.971 243.08 484.412 242.681 484.744 242.229L489.549 236.537C489.264 236.843 488.932 237.114 488.542 237.338L417.297 278.569V278.569Z" fill="url(#paint16_linear_112_20384)"/>
<path d="M414.321 275.925C400.85 257.895 387.382 239.864 373.911 221.833C397.951 207.587 421.987 193.34 446.024 179.09C459.611 197.275 473.198 215.461 486.786 233.646C462.634 247.738 438.477 261.83 414.325 275.925H414.321Z" fill="url(#paint17_linear_112_20384)"/>
<path d="M396.727 228.33C395.5 229.046 393.77 228.632 392.875 227.413C391.979 226.194 392.249 224.623 393.477 223.907C394.704 223.192 396.434 223.606 397.329 224.824C398.225 226.043 397.955 227.614 396.727 228.33ZM396.422 218.421L386.641 224.101L393.778 233.809L403.559 228.129L396.422 218.421Z" fill="#4247E5"/>
<path d="M414.942 210.497L400.614 218.819L401.876 220.533L416.205 212.211L414.942 210.497Z" fill="#4247E5"/>
<path d="M413.75 216.946L403.579 222.851L404.841 224.569L415.012 218.66L413.75 216.946Z" fill="#4247E5"/>
<g style="mix-blend-mode:screen">
<path d="M392.736 222.901C390.945 223.942 390.551 226.229 391.856 228.009C393.16 229.785 395.677 230.384 397.472 229.344C399.263 228.303 399.657 226.016 398.352 224.236C397.047 222.46 394.531 221.86 392.736 222.901Z" fill="white"/>
</g>
<path d="M427.993 200.088L418.212 205.768L425.349 215.476L435.13 209.796L427.993 200.088Z" fill="#4247E5"/>
<path d="M427.345 203.86L422.358 206.755L425.998 211.703L430.985 208.809L427.345 203.86Z" fill="white"/>
<path d="M446.514 192.16L432.185 200.483L433.444 202.201L447.776 193.878L446.514 192.16Z" fill="#4247E5"/>
<path d="M445.325 198.61L435.15 204.518L436.412 206.232L446.587 200.324L445.325 198.61Z" fill="#4247E5"/>
<path d="M406.62 232.292L396.839 237.972L403.976 247.68L413.758 242L406.62 232.292V232.292Z" fill="white"/>
<path d="M406.288 234.219L398.958 238.475L404.308 245.749L411.638 241.493L406.288 234.219V234.219Z" fill="#4247E5"/>
<path d="M425.137 224.36L410.805 232.683L412.067 234.397L426.395 226.074L425.137 224.36Z" fill="#4247E5"/>
<path d="M423.941 230.81L413.773 236.715L415.032 238.432L425.203 232.524L423.941 230.81Z" fill="#4247E5"/>
<path d="M438.489 223.861C437.261 224.577 435.532 224.163 434.637 222.944C433.741 221.725 434.011 220.154 435.239 219.438C436.466 218.723 438.196 219.137 439.091 220.355C439.987 221.574 439.716 223.145 438.489 223.861ZM438.188 213.959L428.406 219.64L435.544 229.347L445.325 223.667L438.188 213.959Z" fill="#4247E5"/>
<path d="M456.705 206.024L442.376 214.347L443.638 216.061L457.967 207.742L456.705 206.024Z" fill="#4247E5"/>
<path d="M455.52 212.474L445.341 218.382L446.603 220.097L456.778 214.188L455.52 212.474Z" fill="#4247E5"/>
<g style="mix-blend-mode:screen">
<path d="M435.239 219.438C434.008 220.154 433.738 221.725 434.637 222.944C435.532 224.163 437.262 224.573 438.489 223.861C439.717 223.145 439.991 221.574 439.091 220.355C438.196 219.137 436.467 218.726 435.239 219.438Z" fill="white"/>
</g>
<path d="M435.331 238.228L420.999 246.55L422.261 248.264L436.593 239.942L435.331 238.228Z" fill="#4247E5"/>
<path d="M434.139 244.678L423.968 250.586L425.23 252.3L435.397 246.396L434.139 244.678Z" fill="#4247E5"/>
<g style="mix-blend-mode:screen">
<path d="M411.847 248.899C409.091 250.501 408.485 254.022 410.496 256.754C412.507 259.489 416.378 260.41 419.134 258.808C421.89 257.206 422.496 253.685 420.485 250.954C418.474 248.218 414.603 247.297 411.847 248.899Z" fill="#4247E5"/>
</g>
<path d="M416.124 250.184L411.457 252.892L414.862 257.524L419.528 254.815L416.124 250.184Z" fill="white"/>
<path style="mix-blend-mode:multiply" d="M146.091 111.792C139.877 108.194 131.612 106.537 123.495 106.781H110.772V108.871C108.356 109.637 106.078 110.608 104.04 111.792C92.4677 118.536 92.5372 129.467 104.179 136.211C106.186 137.372 108.413 138.319 110.772 139.074V141.256H126.035C133.376 141.132 140.649 139.465 146.234 136.211C157.806 129.463 157.749 118.532 146.095 111.788L146.091 111.792Z" fill="url(#paint18_linear_112_20384)"/>
<path d="M91.0744 136.211C85.211 132.817 82.2813 128.364 82.2967 123.918L82.3237 118.223C82.3122 122.672 85.2381 127.126 91.1015 130.519C102.755 137.259 121.58 137.259 133.153 130.519C138.904 127.164 141.784 122.784 141.795 118.393L141.768 124.085C141.757 128.476 138.877 132.856 133.129 136.211C121.553 142.955 102.728 142.955 91.0744 136.211Z" fill="url(#paint19_linear_112_20384)"/>
<path d="M91.0975 130.519C79.4479 123.779 79.3861 112.844 90.9585 106.104C102.535 99.3599 121.368 99.3599 133.014 106.104C144.667 112.844 144.721 123.779 133.149 130.523C121.576 137.259 102.751 137.259 91.0975 130.523V130.519Z" fill="#F0F2F6"/>
<path d="M117.28 114.562C121.484 116.996 121.368 120.343 117.018 122.858L115.643 123.651L105.102 117.549C103.26 118.784 103.145 120.44 105.248 121.655C107.294 122.839 109.51 122.804 111.031 122.498L112.285 125.253C109.772 125.559 106.036 125.76 102.153 123.512C97.8332 121.012 97.976 117.309 102.473 114.709C106.854 112.175 113.015 112.09 117.276 114.558L117.28 114.562ZM121.075 112.57L120.723 112.368L117.6 112.724L114.011 110.647L120.55 110.039L125.104 112.674L124.054 116.458L120.465 114.38L121.078 112.573L121.075 112.57ZM114.358 120.072C116.053 118.857 115.995 117.468 114.096 116.373C112.023 115.174 109.656 115.224 107.584 116.152L114.358 120.072Z" fill="#CED3F8"/>
<path style="mix-blend-mode:multiply" d="M498.458 384.403C493.846 381.734 487.712 380.503 481.686 380.685H472.241V382.237C470.45 382.805 468.755 383.525 467.246 384.407C458.658 389.414 458.708 397.528 467.35 402.531C468.84 403.394 470.492 404.094 472.241 404.655V406.276H483.57C489.017 406.187 494.417 404.945 498.563 402.535C507.151 397.528 507.109 389.414 498.458 384.407V384.403Z" fill="url(#paint20_linear_112_20384)"/>
<path d="M457.623 402.531C453.273 400.013 451.096 396.708 451.107 393.408L451.127 389.179C451.119 392.483 453.288 395.787 457.642 398.306C466.293 403.309 480.262 403.309 488.855 398.306C493.124 395.818 495.258 392.564 495.27 389.306L495.251 393.532C495.243 396.79 493.104 400.04 488.839 402.531C480.25 407.538 466.273 407.538 457.627 402.531H457.623Z" fill="url(#paint21_linear_112_20384)"/>
<path d="M457.638 398.306C448.992 393.303 448.945 385.185 457.534 380.182C466.126 375.176 480.104 375.176 488.746 380.182C497.396 385.185 497.435 393.299 488.846 398.306C480.258 403.305 466.285 403.305 457.634 398.306H457.638Z" fill="#F0F2F6"/>
<path d="M482.285 392.839L479.293 394.572L473.997 391.508L461.24 389.499L464.482 387.623L472.364 388.834L470.272 384.272L473.515 382.396L476.985 389.778L482.281 392.842L482.285 392.839Z" fill="#CED3F8"/>
<path style="mix-blend-mode:multiply" d="M509.772 333.589H467.277V341.416H509.772V333.589Z" fill="url(#paint22_linear_112_20384)"/>
<path style="mix-blend-mode:multiply" d="M528.933 322.283H486.438V330.11H528.933V322.283Z" fill="url(#paint23_linear_112_20384)"/>
<path d="M491.14 327.703C491.14 321.551 487.253 321.373 487.253 321.373C487.253 321.373 485.149 321.373 481.725 319.949C478.351 318.545 473.592 319.087 476.252 324.004C476.275 324.062 476.306 324.124 476.344 324.186C476.506 324.449 476.784 324.701 477.205 324.945L485.701 329.94C486.998 330.683 491.109 328.969 491.14 327.703V327.703Z" fill="url(#paint24_linear_112_20384)"/>
<path d="M491.117 327.154C491.043 328.419 486.986 330.098 485.701 329.363L477.205 324.368C476.923 324.206 476.441 323.881 476.005 323.494C476.086 323.664 476.151 323.826 476.248 324.008C476.271 324.066 476.302 324.128 476.341 324.19C476.503 324.453 476.781 324.705 477.201 324.948L485.697 329.944C486.909 330.636 490.596 329.178 491.082 327.951C491.101 327.858 491.121 327.773 491.121 327.703C491.136 327.514 491.121 327.34 491.113 327.158L491.117 327.154Z" fill="url(#paint25_linear_112_20384)"/>
<path d="M489.557 320.568C488.557 320.568 485.033 321.466 485.033 321.466C485.033 321.466 485.01 321.957 484.721 322.379C484.686 322.418 484.655 322.457 484.624 322.499C483.929 322.983 483.219 323.749 484.871 324.79C486.222 325.641 487.318 325.099 487.843 324.577C488.056 324.182 488.368 323.737 488.801 323.486C489.248 323.227 489.522 323.11 489.719 323.099C489.719 323.072 489.727 323.014 489.727 323.014C489.727 323.014 489.982 320.568 489.561 320.568H489.557Z" fill="white"/>
<path d="M489.619 260.433C485.778 260.502 476.174 260.673 472.333 260.742C473.762 272.319 476.637 282.832 478.56 294.041C480.621 304.937 482.945 312.594 484.975 321.66C485.716 323.347 489.113 322.708 489.804 321.087C490.341 312.737 490.958 302.565 488.488 292.93C488.901 282.545 489.858 270.918 489.615 260.436L489.619 260.433Z" fill="url(#paint26_linear_112_20384)"/>
<path d="M471.77 339.006C471.77 332.857 467.879 332.676 467.879 332.676C467.879 332.676 465.776 332.676 462.352 331.252C458.978 329.847 454.219 330.389 456.878 335.307C456.901 335.365 456.932 335.427 456.971 335.489C457.133 335.752 457.411 336.003 457.832 336.247L466.328 341.242C467.621 341.985 471.735 340.267 471.766 339.002L471.77 339.006Z" fill="url(#paint27_linear_112_20384)"/>
<path d="M471.747 338.452C471.674 339.718 467.617 341.397 466.331 340.662L457.836 335.666C457.554 335.504 457.071 335.179 456.635 334.792C456.716 334.962 456.782 335.125 456.882 335.307C456.905 335.365 456.936 335.427 456.975 335.488C457.137 335.752 457.415 336.003 457.836 336.247L466.331 341.242C467.544 341.935 471.23 340.476 471.716 339.249C471.735 339.157 471.755 339.071 471.755 339.002C471.77 338.812 471.755 338.638 471.747 338.456V338.452Z" fill="url(#paint28_linear_112_20384)"/>
<path d="M470.187 331.867C469.188 331.867 465.663 332.765 465.663 332.765C465.663 332.765 465.64 333.256 465.351 333.682C465.316 333.721 465.285 333.759 465.25 333.802C464.556 334.285 463.845 335.052 465.497 336.092C466.849 336.944 467.945 336.402 468.47 335.88C468.682 335.485 468.995 335.04 469.427 334.788C469.875 334.529 470.149 334.413 470.346 334.398C470.346 334.371 470.357 334.316 470.357 334.316C470.357 334.316 470.612 331.867 470.191 331.867H470.187Z" fill="white"/>
<path d="M477.429 287.955C478.483 282.979 490.596 282.36 489.8 262.797C485.998 262.236 466.826 271.251 463.023 270.69C462.549 282.345 463.672 293.186 463.745 304.562C464.004 315.647 465.05 323.579 465.575 332.861C466.03 334.649 469.489 334.576 470.431 333.086C472.322 324.937 474.588 314.997 473.723 305.092C474.858 299.605 476.202 293.786 477.433 287.959L477.429 287.955Z" fill="url(#paint29_linear_112_20384)"/>
<path d="M481.034 224.801C494.56 233.859 496.173 251.851 488.862 263.273C488.862 263.273 490.433 237.972 481.034 224.801Z" fill="url(#paint30_linear_112_20384)"/>
<path d="M481.652 273.886C473.418 278.518 464.803 278.526 461.869 272.834C462.969 262.232 463.996 253.604 461.877 243.447C462.502 237.837 462.942 236.993 462.224 233.72C462.479 232.621 465.845 230.28 468.3 228.036C470.952 225.61 472.743 223.304 474.105 223.025C485.365 220.723 490.835 240.831 489.893 262.271C489.024 267.97 485.705 271.611 481.652 273.894V273.886Z" fill="url(#paint31_linear_112_20384)"/>
<path d="M480.351 224.302C477.908 222.533 478.27 221.376 478.637 218.966C479.104 217.705 479.374 216.3 479.374 214.81C479.374 209.448 475.97 204.816 471.793 205.102C463.378 205.683 464.876 210.121 464.876 215.48C464.876 220.448 467.123 223.864 470.882 224.441C470.882 225.257 470.666 225.726 469.643 226.751C472.392 228.403 476.402 227.625 477.989 226.906C479.676 226.14 481.497 225.486 480.355 224.298L480.351 224.302Z" fill="#FCD1A9"/>
<path d="M449.687 237.163L449.702 237.209C449.702 235.093 449.262 233.863 448.448 233.499C448.274 232.992 448.089 232.466 447.907 231.959C446.858 229.007 443.557 226.476 442.859 227.18C442.438 227.602 444.113 228.902 445.001 230.307C445.584 231.235 445.588 231.75 445.738 232.524C445.738 232.524 441.793 232.891 441.793 236.18C441.793 238.854 443.229 237.798 443.229 237.271C444.248 239.98 445.456 238.378 445.923 240.583L450.193 238.691C450.193 238.691 449.992 238.08 449.687 237.163Z" fill="#FCD1A9"/>
<path d="M475.487 203.748C474.403 203.187 473.426 203.478 472.82 203.091C471.384 202.208 470.022 201.647 469.261 202.065C468.891 202.267 468.192 202.917 468.192 202.917C467.443 203.667 465.911 202.069 465.54 204.008C465.432 204.58 465.409 205.049 465.413 205.513C461.819 205.977 463.591 209.254 466.474 215.573C466.474 214.548 468.651 212.176 468.651 216.734C468.651 217.225 468.285 217.318 468.605 217.968C468.929 218.618 470.99 220.251 472.353 221.617C474.252 223.524 475.368 221.814 478.51 222.154C478.51 220.808 478.857 220.127 479.336 219.283C479.637 218.749 481.362 217.055 481.362 214.095C478.923 214.397 483.258 207.769 475.476 203.748H475.487Z" fill="#161616"/>
<path d="M462.224 233.716C461.167 237.918 460.287 244.62 459.951 248.462C456.508 244.871 453.342 243.3 450.362 238.529L445.495 240.565C446.414 243.9 455.438 257.616 461.869 258.626C468.157 256.262 469.35 244.685 470.284 239.721C471.647 232.455 463.784 229.529 462.228 233.716H462.224Z" fill="url(#paint32_linear_112_20384)"/>
<path style="mix-blend-mode:multiply" d="M396.221 387.603H396.225L387.077 382.306L392.948 375.636H384.715L381.827 378.913L381.418 379.033L372.27 373.74L374.293 381.138L362.763 384.535L375.543 385.707L375.617 385.97L369.332 393.105H377.566L383.445 386.431L396.225 387.603H396.221Z" fill="url(#paint33_linear_112_20384)"/>
<path d="M364.033 368.648V373.74L366.059 381.138V376.046L364.033 368.648Z" fill="#FCBA06"/>
<path d="M384.715 370.544V375.636L378.84 382.306V377.218L384.715 370.544Z" fill="#DC8B00"/>
<path d="M375.211 381.343V386.431L387.992 387.603V382.515L375.211 381.343Z" fill="#FCBA06"/>
<path d="M354.529 379.447V384.535L367.31 385.708V380.62L354.529 379.447Z" fill="#DC8B00"/>
<path d="M375.212 381.343V386.431L369.333 393.105V388.013L375.212 381.343Z" fill="#DC8B00"/>
<path d="M369.333 388.013V393.105L367.31 385.707V380.619L369.333 388.013Z" fill="#FCBA06"/>
<path d="M384.715 370.544L378.84 377.218L387.992 382.515L375.211 381.343L369.333 388.014L367.31 380.619L354.529 379.447L366.059 376.046L364.033 368.648L373.185 373.945L384.715 370.544Z" fill="#FFD03E"/>
<path d="M282.821 191.343L307.668 176.961L305.183 175.522L280.332 189.9L275.495 187.103L269.987 197.329L287.658 194.141L282.821 191.343Z" fill="#CED3F8"/>
<path style="mix-blend-mode:multiply" d="M360.211 187.633H350.048L317.492 162.913L360.196 138.196L402.915 162.916L360.211 187.633Z" fill="url(#paint34_linear_112_20384)"/>
<path style="mix-blend-mode:multiply" d="M261.105 244.987H250.945L218.386 220.267L261.093 195.554L303.808 220.274L261.105 244.987Z" fill="url(#paint35_linear_112_20384)"/>
<path d="M184.692 200.61C184.333 200.405 183.997 200.208 183.673 200.022L226.392 175.302C226.712 175.487 227.052 175.685 227.411 175.89L293.665 214.23L250.946 238.951L184.692 200.61Z" fill="#807DFB"/>
<path d="M215.757 201.055L198.819 191.255L211.245 184.066L228.183 193.866L219.779 179.125L226.222 175.398L240.079 199.709L254.323 191.464L266.748 198.653L252.505 206.898L292.977 214.625L286.539 218.351L262.599 213.781L278.514 222.994L266.088 230.187L250.169 220.974L258.067 234.83L251.625 238.556L238.277 215.132L224.029 223.377L211.604 216.184L225.851 207.943L183.843 199.922L190.285 196.196L215.757 201.055Z" fill="white"/>
<path d="M209.458 185.099L239.176 202.297L256.11 192.497L264.961 197.62L248.027 207.42L276.726 224.031L267.875 229.15L239.176 212.539L222.242 222.34L213.391 217.221L230.325 207.42L200.606 190.222L209.458 185.099Z" fill="#E33C5C"/>
<path d="M223.52 176.961L235.598 198.157L229.788 194.795L220.59 178.656L223.52 176.961Z" fill="#E33C5C"/>
<path d="M189.474 196.664L217.363 201.988L223.172 205.351L186.548 198.359L189.474 196.664Z" fill="#E33C5C"/>
<path d="M287.345 217.883L260.989 212.853L255.18 209.49L290.275 216.188L287.345 217.883Z" fill="#E33C5C"/>
<path d="M254.33 236.993L242.754 216.679L248.563 220.042L257.256 235.298L254.33 236.993Z" fill="#E33C5C"/>
<path d="M327.625 168.619L350.048 181.597L392.767 156.872L370.344 143.895L327.625 168.619Z" fill="#4E35E1"/>
<path d="M305.202 155.642L327.625 168.62L370.344 143.895L347.921 130.918L305.202 155.642Z" fill="#F6F6FB"/>
<path d="M282.779 142.664L305.202 155.642L347.921 130.917L325.498 117.944L282.779 142.664Z" fill="#E33C5C"/>
<path d="M327.625 174.656L350.048 187.633V181.597L327.625 168.62V174.656Z" fill="#442EC8"/>
<path d="M305.202 161.678L327.625 174.656V168.62L305.202 155.642V161.678Z" fill="#CED3F8"/>
<path d="M282.779 148.701L305.202 161.678V155.642L282.779 142.665V148.701Z" fill="#CE3459"/>
<path d="M350.048 187.633L392.767 162.909V156.873L350.048 181.597V187.633Z" fill="#4830D5"/>
<path d="M224.029 229.413L250.945 244.987V238.951L224.029 223.377V229.413Z" fill="#5652CC"/>
<path d="M183.673 206.058L211.604 222.224V216.184L183.673 200.022V206.058Z" fill="#5652CC"/>
<path d="M222.242 228.38L224.029 229.413V223.377L222.242 222.34V228.38Z" fill="#CED3F8"/>
<path d="M211.604 222.22L213.391 223.257V217.221L211.604 216.184V222.22Z" fill="#CED3F8"/>
<path d="M213.391 223.257L222.242 228.38V222.34L213.391 217.221V223.257Z" fill="#CE3459"/>
<path d="M250.945 244.987L251.625 244.592V238.556L250.945 238.951V244.987Z" fill="#423EAF"/>
<path d="M292.977 220.661L293.66 220.266V214.23L292.977 214.625V220.661Z" fill="#423EAF"/>
<path d="M251.625 244.592L254.331 243.029V236.993L251.625 238.556V244.592Z" fill="#BBC0E6"/>
<path d="M290.275 222.224L292.977 220.661V214.625L290.275 216.188V222.224Z" fill="#BBC0E6"/>
<path d="M266.088 236.223L267.875 235.19V229.15L266.088 230.187V236.223Z" fill="#BBC0E6"/>
<path d="M276.726 230.067L278.514 229.03V222.994L276.726 224.031V230.067Z" fill="#BBC0E6"/>
<path d="M258.067 240.866L266.088 236.223V230.187L258.067 234.83V240.866Z" fill="#423EAF"/>
<path d="M278.513 229.03L286.535 224.391V218.351L278.513 222.994V229.03Z" fill="#423EAF"/>
<path d="M267.875 235.19L276.727 230.067V224.031L267.875 229.15V235.19Z" fill="#AA2141"/>
<path d="M257.256 241.334L258.067 240.866V234.83L257.256 235.298V241.334Z" fill="#BBC0E6"/>
<path d="M286.535 224.391L287.346 223.919V217.883L286.535 218.351V224.391Z" fill="#BBC0E6"/>
<path d="M254.331 243.029L257.257 241.334V235.298L254.331 236.993V243.029Z" fill="#AA2141"/>
<path d="M287.345 223.919L290.275 222.224V216.188L287.345 217.883V223.919Z" fill="#AA2141"/>
<g style="mix-blend-mode:multiply">
<path d="M309.321 100.091L292.719 90.7974L243.272 119.414L259.874 128.708C263.491 130.802 269.408 130.802 273.025 128.708L309.321 107.702C312.938 105.609 312.938 102.185 309.321 100.091V100.091Z" fill="#DFE4F4"/>
</g>
<g style="mix-blend-mode:multiply">
<path d="M230.398 81.0582C226.782 78.965 220.864 78.965 217.247 81.0582L180.951 102.064C177.335 104.158 177.335 107.582 180.951 109.675L220.351 132.674L269.798 104.057L230.398 81.0582V81.0582Z" fill="#DFE4F4"/>
</g>
<path opacity="0.8" d="M273.025 118.014C269.408 120.107 263.491 120.107 259.874 118.014L180.956 72.3409C177.339 70.2477 177.339 66.8234 180.956 64.7301L217.251 43.724C220.868 41.6307 226.786 41.6307 230.403 43.724L309.321 89.3966C312.938 91.4898 312.938 94.9141 309.321 97.0074L273.025 118.014V118.014Z" fill="#FFD03E"/>
<g style="mix-blend-mode:screen">
<path d="M223.682 48.5835L300.921 93.2849L299.427 94.1477L222.192 49.4502L223.682 48.5835Z" fill="#FFE950"/>
</g>
<g style="mix-blend-mode:screen">
<path d="M255.612 106.266C256.427 105.794 257.743 105.794 258.557 106.266C259.372 106.738 259.372 107.5 258.557 107.972C257.743 108.445 256.427 108.445 255.612 107.972C254.798 107.5 254.798 106.738 255.612 106.266Z" fill="#FFE950"/>
</g>
<g style="mix-blend-mode:screen">
<path d="M247.811 101.751C248.625 101.279 249.942 101.279 250.756 101.751C251.57 102.223 251.57 102.985 250.756 103.457C249.942 103.929 248.625 103.929 247.811 103.457C246.996 102.985 246.996 102.223 247.811 101.751Z" fill="#FFE950"/>
</g>
<g style="mix-blend-mode:screen">
<path d="M240.01 97.2354C240.824 96.7633 242.141 96.7633 242.955 97.2354C243.77 97.7074 243.77 98.4697 242.955 98.9379C242.141 99.4099 240.824 99.4099 240.01 98.9379C239.196 98.4658 239.196 97.7036 240.01 97.2354Z" fill="#FFE950"/>
</g>
<path d="M180.951 72.3405L259.87 118.013C263.487 120.106 269.404 120.106 273.021 118.013L309.317 97.007C310.969 96.0513 311.857 94.817 312 93.5595V95.9429C312.023 96.1674 312.023 96.3918 312 96.6162V96.6433C311.857 97.9008 310.965 99.1312 309.317 100.087L273.021 121.093C269.404 123.186 263.487 123.186 259.87 121.093L180.951 75.4205C179.11 74.3564 178.215 72.948 178.246 71.5435H178.238V68.5332C178.238 69.9145 179.141 71.292 180.951 72.3405Z" fill="url(#paint36_linear_112_20384)"/>
<path d="M227.183 62.3778C229.271 63.5888 229.58 65.1249 227.511 66.3244C226.059 67.164 224.299 67.1834 222.798 66.6958L222.593 66.8158C223.438 67.6864 223.404 68.704 221.937 69.5552C219.937 70.7121 217.174 70.5728 215.101 69.3733L209.593 66.1851L221.678 59.1934L227.187 62.3778H227.183ZM213.939 66.305L216.942 68.0423C217.911 68.6034 219.05 68.704 220.034 68.1352C221.018 67.5664 220.864 66.897 219.895 66.336L216.892 64.5987L213.939 66.3089V66.305ZM218.961 63.3954L221.964 65.1327C222.933 65.6937 224.072 65.7943 225.056 65.2217C226.04 64.6529 225.847 64.0028 224.882 63.4457L221.879 61.7045L218.961 63.3915V63.3954Z" fill="#DC8B00"/>
<path d="M232.938 69.5084C235.459 70.9671 235.602 73.1649 232.907 74.7242C230.213 76.2835 226.415 76.2022 223.894 74.7435C221.374 73.2848 221.235 71.0871 223.929 69.5278C226.623 67.9685 230.422 68.0497 232.938 69.5084ZM225.828 73.6214C227.21 74.4224 229.179 74.3643 230.734 73.4628C232.286 72.5651 232.39 71.4276 231.008 70.6266C229.63 69.8296 227.662 69.8876 226.11 70.7891C224.554 71.6907 224.45 72.8282 225.832 73.6253L225.828 73.6214Z" fill="#DC8B00"/>
<path d="M240.747 74.306L239.365 75.107L239.608 75.2463C240.747 74.987 242.268 75.0257 243.839 75.935C245.738 77.0338 245.807 78.6512 243.58 79.9435L238.469 82.8996L236.296 81.6421L241.199 78.806C242.387 78.1172 242.407 77.3047 241.164 76.585C239.766 75.7763 238.161 75.846 236.64 76.7243L232.22 79.2819L230.047 78.0244L238.612 73.0679L240.755 74.306H240.747Z" fill="#DC8B00"/>
<path d="M240.751 86.2968C239.786 86.8578 238.369 86.8385 237.404 86.2774L234.953 84.8574L236.783 83.8011L238.269 84.6601C238.578 84.8381 238.925 84.8381 239.269 84.6407L248.938 79.0419L251.111 80.2994L240.751 86.2929V86.2968ZM253.867 76.5501C254.798 76.8635 254.875 77.3317 253.925 77.6529C252.976 77.974 251.598 77.9469 250.667 77.6335C249.737 77.3162 249.664 76.8519 250.613 76.5308C251.563 76.2096 252.937 76.2329 253.871 76.5501H253.867Z" fill="#DC8B00"/>
<path d="M257.256 83.5807C259.777 85.0394 259.916 87.2371 257.226 88.7964C254.531 90.3557 250.733 90.2745 248.212 88.8158C245.692 87.3571 245.553 85.1593 248.247 83.6C250.941 82.0407 254.74 82.122 257.26 83.5807H257.256ZM250.146 87.6937C251.528 88.4908 253.493 88.4327 255.048 87.5351C256.6 86.6335 256.704 85.496 255.322 84.6989C253.941 83.9018 251.976 83.9599 250.42 84.8614C248.865 85.7591 248.76 86.8966 250.142 87.6976L250.146 87.6937Z" fill="#DC8B00"/>
<path d="M260.541 95.6722L261.923 94.8713L261.684 94.732C260.545 94.9912 259.024 94.9525 257.453 94.0394C255.554 92.9405 255.485 91.3232 257.712 90.0347L262.823 87.0786L264.996 88.3361L260.094 91.1723C258.901 91.861 258.885 92.6735 260.128 93.3932C261.526 94.2019 263.131 94.1323 264.648 93.2539L269.068 90.6963L271.241 91.9539L262.676 96.9104L260.534 95.6722H260.541Z" fill="#DC8B00"/>
<path d="M274.083 95.0379L274.326 95.1772C275.603 94.8173 276.657 95.0456 277.742 95.6763L278.572 96.1561L276.673 97.255L275.395 96.5159C274.291 95.8736 272.909 95.7537 271.701 96.454L266.799 99.2902L264.625 98.0327L273.191 93.0762L275.333 94.3143L274.09 95.034L274.083 95.0379Z" fill="#DC8B00"/>
<path style="mix-blend-mode:multiply" d="M389.304 333.229L329.327 298.518L279.88 327.135L339.857 361.846C343.474 363.939 349.391 363.939 353.008 361.846L389.304 340.84C392.921 338.747 392.921 335.322 389.304 333.229Z" fill="url(#paint37_linear_112_20384)"/>
<path d="M322.005 273.372L263.95 306.972V298.088L322.005 264.488V273.372Z" fill="#20196F"/>
<path opacity="0.8" d="M389.304 311.731L314.84 268.636L265.393 297.253L339.857 340.348C343.474 342.442 349.391 342.442 353.008 340.348L389.304 319.342C392.921 317.249 392.921 313.825 389.304 311.731Z" fill="#4247E5"/>
<path d="M307.279 273.012L380.901 315.62L379.411 316.483L305.789 273.875L307.279 273.012Z" fill="#423EAF"/>
<path d="M335.596 328.602C336.41 328.13 337.727 328.13 338.541 328.602C339.356 329.074 339.356 329.836 338.541 330.304C337.727 330.776 336.41 330.776 335.596 330.304C334.781 329.832 334.781 329.07 335.596 328.602Z" fill="#423EAF"/>
<path d="M327.795 324.086C328.609 323.614 329.925 323.614 330.74 324.086C331.554 324.558 331.554 325.32 330.74 325.792C329.925 326.264 328.609 326.264 327.795 325.792C326.98 325.32 326.98 324.558 327.795 324.086Z" fill="#423EAF"/>
<path d="M319.993 319.571C320.808 319.099 322.124 319.099 322.939 319.571C323.753 320.043 323.753 320.805 322.939 321.277C322.124 321.749 320.808 321.749 319.993 321.277C319.179 320.805 319.179 320.043 319.993 319.571Z" fill="#423EAF"/>
<path d="M391.987 315.899C391.844 317.156 390.956 318.391 389.304 319.346L353.008 340.352C349.392 342.446 343.474 342.446 339.857 340.352L265.393 297.257L263.954 298.089V299.505L339.857 343.432C343.474 345.526 349.392 345.526 353.008 343.432L389.304 322.426C390.956 321.471 391.844 320.24 391.987 318.983V318.956C392.01 318.731 392.01 318.507 391.987 318.282V315.899V315.899Z" fill="url(#paint38_linear_112_20384)"/>
<g style="mix-blend-mode:screen">
<path d="M310.71 286.071L304.086 289.905L310.139 293.407L316.763 289.572L319.789 291.325L303.743 300.611L300.717 298.858L307.387 294.997L301.334 291.495L294.664 295.357L291.638 293.604L307.684 284.318L310.71 286.071Z" fill="white"/>
<path d="M323.066 298.263C326.366 300.174 326.274 302.801 322.861 304.775L321.784 305.398L313.508 300.607C312.065 301.575 311.972 302.875 313.624 303.831C315.23 304.759 316.971 304.732 318.164 304.492L319.148 306.655C317.176 306.895 314.242 307.054 311.192 305.289C307.799 303.328 307.915 300.422 311.443 298.379C314.883 296.39 319.719 296.324 323.066 298.259V298.263ZM320.773 302.588C322.101 301.633 322.058 300.546 320.568 299.683C318.94 298.742 317.083 298.781 315.458 299.509L320.777 302.588H320.773Z" fill="white"/>
<path d="M321.576 310.93L318.689 309.259L334.735 299.973L337.622 301.644L321.576 310.93Z" fill="white"/>
<path d="M327.034 314.088L324.147 312.416L340.193 303.13L343.08 304.801L327.034 314.088Z" fill="white"/>
<path d="M346.562 311.859C349.909 313.797 350.09 316.715 346.516 318.785C342.941 320.855 337.896 320.747 334.55 318.812C331.203 316.874 331.018 313.956 334.596 311.886C338.17 309.816 343.216 309.924 346.562 311.859ZM337.117 317.326C338.95 318.386 341.563 318.309 343.629 317.113C345.69 315.922 345.829 314.409 343.995 313.345C342.162 312.285 339.549 312.362 337.483 313.558C335.422 314.753 335.283 316.262 337.117 317.326Z" fill="white"/>
</g>
<path style="mix-blend-mode:multiply" d="M365.075 391.709L332.43 372.815C330.635 371.774 328.288 371.26 325.938 371.26H272.635V419.68H325.938C328.288 419.68 330.635 419.161 332.43 418.124L365.075 399.231C366.866 398.19 367.765 396.832 367.765 395.474C367.765 394.115 366.866 392.75 365.075 391.713V391.709Z" fill="url(#paint39_linear_112_20384)"/>
<path d="M265.71 367.507L230.962 347.394C229.047 346.288 228.094 344.841 228.094 343.39C228.094 341.939 229.051 340.492 230.962 339.389L265.71 319.277C267.621 318.17 270.122 317.621 272.627 317.621C275.132 317.621 277.63 318.17 279.54 319.277L314.292 339.389C316.199 340.492 317.157 341.939 317.157 343.394C317.157 344.849 316.199 346.288 314.292 347.394L279.54 367.507C277.63 368.61 275.128 369.163 272.627 369.163C270.126 369.163 267.621 368.61 265.71 367.507Z" fill="white"/>
<path d="M314.292 347.398L279.54 367.511C277.63 368.613 275.128 369.167 272.627 369.167C270.126 369.167 267.62 368.613 265.71 367.511L230.962 347.398C229.047 346.292 228.094 344.845 228.094 343.394V393.907C228.094 395.357 229.051 396.805 230.962 397.911L265.71 418.02C267.62 419.126 270.122 419.68 272.627 419.68C275.132 419.68 277.63 419.126 279.54 418.02L314.292 397.911C316.199 396.808 317.156 395.361 317.156 393.907V343.394C317.156 344.841 316.199 346.292 314.292 347.398Z" fill="url(#paint40_linear_112_20384)"/>
<g style="mix-blend-mode:multiply">
<path d="M314.292 347.398L279.54 367.511C277.63 368.613 275.128 369.167 272.627 369.167C270.126 369.167 267.62 368.613 265.71 367.511L230.962 347.398C229.047 346.292 228.094 344.845 228.094 343.394V345.44C228.094 346.887 229.051 348.338 230.962 349.445L265.71 369.557C267.62 370.66 270.122 371.213 272.627 371.213C275.132 371.213 277.63 370.66 279.54 369.557L314.292 349.445C316.199 348.338 317.156 346.891 317.156 345.44V343.394C317.156 344.841 316.199 346.292 314.292 347.398Z" fill="#DAE0F5"/>
</g>
<g style="mix-blend-mode:multiply">
<path d="M314.292 363.746L279.54 383.858C277.63 384.961 275.128 385.514 272.627 385.514C270.126 385.514 267.62 384.961 265.71 383.858L230.962 363.746C229.047 362.639 228.094 361.192 228.094 359.741V361.788C228.094 363.235 229.051 364.686 230.962 365.793L265.71 385.905C267.62 387.008 270.122 387.561 272.627 387.561C275.132 387.561 277.63 387.008 279.54 385.905L314.292 365.793C316.199 364.686 317.156 363.239 317.156 361.788V359.741C317.156 361.188 316.199 362.639 314.292 363.746Z" fill="#DAE0F5"/>
</g>
<g style="mix-blend-mode:multiply">
<path d="M314.292 380.094L279.54 400.206C277.63 401.309 275.128 401.862 272.627 401.862C270.126 401.862 267.62 401.309 265.71 400.206L230.962 380.094C229.047 378.987 228.094 377.54 228.094 376.089V378.136C228.094 379.583 229.051 381.034 230.962 382.14L265.71 402.253C267.62 403.355 270.122 403.909 272.627 403.909C275.132 403.909 277.63 403.355 279.54 402.253L314.292 382.14C316.199 381.034 317.156 379.587 317.156 378.136V376.089C317.156 377.536 316.199 378.987 314.292 380.094Z" fill="#DAE0F5"/>
</g>
<g style="mix-blend-mode:multiply">
<path d="M314.292 395.857L279.54 415.969C277.63 417.072 275.128 417.625 272.627 417.625C270.126 417.625 267.62 417.072 265.71 415.969L230.962 395.857C229.047 394.75 228.094 393.303 228.094 391.852V393.899C228.094 395.346 229.051 396.797 230.962 397.904L265.71 418.016C267.62 419.119 270.122 419.672 272.627 419.672C275.132 419.672 277.63 419.119 279.54 418.016L314.292 397.904C316.199 396.797 317.156 395.35 317.156 393.899V391.852C317.156 393.299 316.199 394.75 314.292 395.857Z" fill="#DAE0F5"/>
</g>
<g style="mix-blend-mode:multiply">
<path d="M249.274 365.692L233.224 356.402V359.876L249.274 369.166V365.692Z" fill="url(#paint41_linear_112_20384)"/>
</g>
<g style="mix-blend-mode:multiply">
<path d="M295.98 365.692L312.03 356.402V359.876L295.98 369.166V365.692Z" fill="#D1D7F3"/>
</g>
<g style="mix-blend-mode:multiply">
<path d="M290.927 368.613L293.12 367.344V370.819L290.927 372.088V368.613Z" fill="#D1D7F3"/>
</g>
<g style="mix-blend-mode:multiply">
<path d="M286.538 371.155L288.731 369.886V373.357L286.538 374.63V371.155Z" fill="#D1D7F3"/>
</g>
<g style="mix-blend-mode:multiply">
<path d="M282.154 373.693L284.346 372.424V375.899L282.154 377.168V373.693Z" fill="#D1D7F3"/>
</g>
<g style="mix-blend-mode:multiply">
<path d="M295.98 381.73L312.03 372.444V375.918L295.98 385.205V381.73Z" fill="#D1D7F3"/>
</g>
<g style="mix-blend-mode:multiply">
<path d="M290.927 384.655L293.12 383.386V386.86L290.927 388.129V384.655Z" fill="#D1D7F3"/>
</g>
<g style="mix-blend-mode:multiply">
<path d="M286.538 387.193L288.731 385.924V389.399L286.538 390.668V387.193Z" fill="#D1D7F3"/>
</g>
<g style="mix-blend-mode:multiply">
<path d="M282.154 389.731L284.346 388.462V391.937L282.154 393.206V389.731Z" fill="#D1D7F3"/>
</g>
<g style="mix-blend-mode:multiply">
<path d="M295.98 397.772L312.03 388.482V391.957L295.98 401.247V397.772Z" fill="#D1D7F3"/>
</g>
<g style="mix-blend-mode:multiply">
<path d="M290.927 400.697L293.12 399.424V402.899L290.927 404.168V400.697Z" fill="#D1D7F3"/>
</g>
<g style="mix-blend-mode:multiply">
<path d="M286.538 403.235L288.731 401.966V405.441L286.538 406.71V403.235Z" fill="#D1D7F3"/>
</g>
<g style="mix-blend-mode:multiply">
<path d="M282.154 405.774L284.346 404.504V407.979L282.154 409.248V405.774Z" fill="#D1D7F3"/>
</g>
<g style="mix-blend-mode:multiply">
<path d="M251.269 368.582C251.269 367.638 251.933 367.255 252.748 367.727C253.566 368.199 254.226 369.348 254.226 370.296C254.226 371.24 253.562 371.623 252.748 371.151C251.929 370.679 251.269 369.53 251.269 368.582Z" fill="#FCBA06"/>
</g>
<g style="mix-blend-mode:multiply">
<path d="M256.461 371.588C256.461 370.644 257.125 370.261 257.94 370.733C258.758 371.205 259.418 372.355 259.418 373.303C259.418 374.251 258.754 374.63 257.94 374.158C257.121 373.686 256.461 372.536 256.461 371.592V371.588Z" fill="#D1D7F3"/>
</g>
<g style="mix-blend-mode:multiply">
<path d="M261.653 374.591C261.653 373.647 262.313 373.264 263.131 373.736C263.949 374.208 264.609 375.357 264.609 376.305C264.609 377.253 263.945 377.632 263.131 377.16C262.313 376.688 261.653 375.539 261.653 374.595V374.591Z" fill="url(#paint42_linear_112_20384)"/>
</g>
<g style="mix-blend-mode:multiply">
<path d="M249.274 382.067L233.224 372.781V376.255L249.274 385.542V382.067Z" fill="url(#paint43_linear_112_20384)"/>
</g>
<g style="mix-blend-mode:multiply">
<path d="M251.269 384.957C251.269 384.013 251.933 383.63 252.748 384.102C253.566 384.574 254.226 385.723 254.226 386.671C254.226 387.615 253.562 387.998 252.748 387.526C251.929 387.054 251.269 385.905 251.269 384.957Z" fill="#FCBA06"/>
</g>
<g style="mix-blend-mode:multiply">
<path d="M256.461 387.963C256.461 387.019 257.125 386.636 257.94 387.108C258.758 387.58 259.418 388.73 259.418 389.678C259.418 390.626 258.754 391.005 257.94 390.533C257.121 390.061 256.461 388.911 256.461 387.967V387.963Z" fill="#D1D7F3"/>
</g>
<g style="mix-blend-mode:multiply">
<path d="M261.653 390.97C261.653 390.026 262.313 389.643 263.131 390.115C263.949 390.587 264.609 391.736 264.609 392.684C264.609 393.632 263.945 394.012 263.131 393.539C262.313 393.067 261.653 391.918 261.653 390.974V390.97Z" fill="url(#paint44_linear_112_20384)"/>
</g>
<g style="mix-blend-mode:multiply">
<path d="M253.952 400.813L237.902 391.527V395.001L253.952 404.288V400.813Z" fill="#D1D7F3"/>
</g>
<g style="mix-blend-mode:multiply">
<path d="M233.243 390.54C233.243 389.596 233.907 389.213 234.722 389.685C235.54 390.157 236.2 391.306 236.2 392.254C236.2 393.198 235.536 393.581 234.722 393.109C233.903 392.637 233.243 391.488 233.243 390.54Z" fill="#FCBA06"/>
</g>
<g style="mix-blend-mode:multiply">
<path d="M256.461 404.005C256.461 403.061 257.125 402.678 257.94 403.15C258.758 403.622 259.418 404.771 259.418 405.719C259.418 406.667 258.754 407.046 257.94 406.574C257.121 406.102 256.461 404.953 256.461 404.009V404.005Z" fill="#D1D7F3"/>
</g>
<g style="mix-blend-mode:multiply">
<path d="M261.653 407.008C261.653 406.064 262.313 405.681 263.131 406.153C263.95 406.625 264.61 407.774 264.61 408.722C264.61 409.67 263.946 410.049 263.131 409.577C262.313 409.105 261.653 407.956 261.653 407.012V407.008Z" fill="url(#paint45_linear_112_20384)"/>
</g>
<defs>
<linearGradient id="paint0_linear_112_20384" x1="539.996" y1="106.773" x2="465.193" y2="106.773" gradientUnits="userSpaceOnUse">
<stop stop-color="white"/>
<stop offset="0.33" stop-color="#F3F5FC"/>
<stop offset="0.91" stop-color="#D6DBF4"/>
<stop offset="1" stop-color="#D1D7F3"/>
</linearGradient>
<linearGradient id="paint1_linear_112_20384" x1="426.615" y1="106.104" x2="503.762" y2="106.104" gradientUnits="userSpaceOnUse">
<stop offset="0.4" stop-color="#CED3F8"/>
<stop offset="0.55" stop-color="#BDC2E8"/>
<stop offset="0.57" stop-color="#BBC0E6"/>
</linearGradient>
<linearGradient id="paint2_linear_112_20384" x1="-383.884" y1="78.1451" x2="-383.498" y2="78.1451" gradientUnits="userSpaceOnUse">
<stop offset="0.4" stop-color="#CED3F8"/>
<stop offset="0.55" stop-color="#BDC2E8"/>
<stop offset="0.57" stop-color="#BBC0E6"/>
</linearGradient>
<linearGradient id="paint3_linear_112_20384" x1="445.196" y1="76.651" x2="431.46" y2="76.651" gradientUnits="userSpaceOnUse">
<stop stop-color="#2A2EB1"/>
<stop offset="0.61" stop-color="#363ACC"/>
<stop offset="1" stop-color="#4247E5"/>
</linearGradient>
<linearGradient id="paint4_linear_112_20384" x1="458.326" y1="87.4911" x2="455.794" y2="87.4911" gradientUnits="userSpaceOnUse">
<stop stop-color="#2A2EB1"/>
<stop offset="0.61" stop-color="#363ACC"/>
<stop offset="1" stop-color="#4247E5"/>
</linearGradient>
<linearGradient id="paint5_linear_112_20384" x1="449.229" y1="106.772" x2="435.49" y2="106.772" gradientUnits="userSpaceOnUse">
<stop stop-color="#2A2EB1"/>
<stop offset="0.61" stop-color="#363ACC"/>
<stop offset="1" stop-color="#4247E5"/>
</linearGradient>
<linearGradient id="paint6_linear_112_20384" x1="458.326" y1="115.28" x2="455.794" y2="115.28" gradientUnits="userSpaceOnUse">
<stop stop-color="#2A2EB1"/>
<stop offset="0.61" stop-color="#363ACC"/>
<stop offset="1" stop-color="#4247E5"/>
</linearGradient>
<linearGradient id="paint7_linear_112_20384" x1="-383.884" y1="50.983" x2="-383.498" y2="50.983" gradientUnits="userSpaceOnUse">
<stop offset="0.4" stop-color="#CED3F8"/>
<stop offset="0.55" stop-color="#BDC2E8"/>
<stop offset="0.57" stop-color="#BBC0E6"/>
</linearGradient>
<linearGradient id="paint8_linear_112_20384" x1="445.196" y1="49.485" x2="431.46" y2="49.485" gradientUnits="userSpaceOnUse">
<stop stop-color="#2A2EB1"/>
<stop offset="0.61" stop-color="#363ACC"/>
<stop offset="1" stop-color="#4247E5"/>
</linearGradient>
<linearGradient id="paint9_linear_112_20384" x1="217.092" y1="212.826" x2="539.347" y2="212.826" gradientUnits="userSpaceOnUse">
<stop stop-color="#D1D7F3"/>
<stop offset="1" stop-color="white"/>
</linearGradient>
<linearGradient id="paint10_linear_112_20384" x1="64.4662" y1="244.464" x2="498.169" y2="244.464" gradientUnits="userSpaceOnUse">
<stop stop-color="#353AD6"/>
<stop offset="0.11" stop-color="#2A2FC0"/>
<stop offset="0.7" stop-color="#373BC8"/>
<stop offset="1" stop-color="#4247E5"/>
</linearGradient>
<linearGradient id="paint11_linear_112_20384" x1="77.4368" y1="321.849" x2="199.846" y2="321.849" gradientUnits="userSpaceOnUse">
<stop stop-color="#D1D7F3"/>
<stop offset="0.38" stop-color="#D3D9F3"/>
<stop offset="0.62" stop-color="#DCE0F5"/>
<stop offset="0.82" stop-color="#EAEDF9"/>
<stop offset="1" stop-color="white"/>
</linearGradient>
<linearGradient id="paint12_linear_112_20384" x1="0.000660901" y1="328.62" x2="187.444" y2="328.62" gradientUnits="userSpaceOnUse">
<stop offset="0.73" stop-color="#FCBA06"/>
<stop offset="0.77" stop-color="#F4AE04"/>
<stop offset="0.9" stop-color="#DC8B00"/>
</linearGradient>
<linearGradient id="paint13_linear_112_20384" x1="409.014" y1="311.542" x2="489.067" y2="311.542" gradientUnits="userSpaceOnUse">
<stop stop-color="#C4CAE9"/>
<stop offset="1" stop-color="white"/>
</linearGradient>
<linearGradient id="paint14_linear_112_20384" x1="365.407" y1="313.005" x2="477.058" y2="313.005" gradientUnits="userSpaceOnUse">
<stop offset="0.31" stop-color="#CED3F8"/>
<stop offset="0.47" stop-color="#BBC0E6"/>
</linearGradient>
<linearGradient id="paint15_linear_112_20384" x1="396.226" y1="298.135" x2="477.059" y2="298.135" gradientUnits="userSpaceOnUse">
<stop stop-color="#D1D6F0"/>
<stop offset="0.73" stop-color="#F1F3FA"/>
<stop offset="1" stop-color="white"/>
</linearGradient>
<linearGradient id="paint16_linear_112_20384" x1="395.527" y1="197.829" x2="454.437" y2="267.867" gradientUnits="userSpaceOnUse">
<stop offset="0.76" stop-color="#CED3F8"/>
<stop offset="0.84" stop-color="#BBC0E6"/>
</linearGradient>
<linearGradient id="paint17_linear_112_20384" x1="373.913" y1="227.508" x2="486.786" y2="227.508" gradientUnits="userSpaceOnUse">
<stop stop-color="#353AD6"/>
<stop offset="0.11" stop-color="#2A2FC0"/>
<stop offset="0.7" stop-color="#373BC8"/>
<stop offset="1" stop-color="#4247E5"/>
</linearGradient>
<linearGradient id="paint18_linear_112_20384" x1="95.4052" y1="124.007" x2="154.873" y2="124.007" gradientUnits="userSpaceOnUse">
<stop offset="0.43" stop-color="#C4C9E4"/>
<stop offset="0.58" stop-color="#D7DAEC"/>
<stop offset="0.85" stop-color="#F4F5FA"/>
<stop offset="1" stop-color="white"/>
</linearGradient>
<linearGradient id="paint19_linear_112_20384" x1="82.2981" y1="129.746" x2="141.795" y2="129.746" gradientUnits="userSpaceOnUse">
<stop stop-color="#353AD6"/>
<stop offset="0.11" stop-color="#2A2FC0"/>
<stop offset="0.7" stop-color="#373BC8"/>
<stop offset="1" stop-color="#4247E5"/>
</linearGradient>
<linearGradient id="paint20_linear_112_20384" x1="460.835" y1="393.473" x2="504.974" y2="393.473" gradientUnits="userSpaceOnUse">
<stop offset="0.43" stop-color="#C4C9E4"/>
<stop offset="0.58" stop-color="#D7DAEC"/>
<stop offset="0.85" stop-color="#F4F5FA"/>
<stop offset="1" stop-color="white"/>
</linearGradient>
<linearGradient id="paint21_linear_112_20384" x1="451.108" y1="397.733" x2="495.27" y2="397.733" gradientUnits="userSpaceOnUse">
<stop stop-color="#353AD6"/>
<stop offset="0.11" stop-color="#2A2FC0"/>
<stop offset="0.7" stop-color="#373BC8"/>
<stop offset="1" stop-color="#4247E5"/>
</linearGradient>
<linearGradient id="paint22_linear_112_20384" x1="467.277" y1="337.505" x2="509.772" y2="337.505" gradientUnits="userSpaceOnUse">
<stop stop-color="#C4C9E4"/>
<stop offset="0.09" stop-color="#CDD1E8"/>
<stop offset="0.41" stop-color="#E8EAF4"/>
<stop offset="0.69" stop-color="#F9F9FC"/>
<stop offset="0.9" stop-color="white"/>
</linearGradient>
<linearGradient id="paint23_linear_112_20384" x1="486.438" y1="326.198" x2="528.933" y2="326.198" gradientUnits="userSpaceOnUse">
<stop stop-color="#C4C9E4"/>
<stop offset="0.09" stop-color="#CDD1E8"/>
<stop offset="0.41" stop-color="#E8EAF4"/>
<stop offset="0.69" stop-color="#F9F9FC"/>
<stop offset="0.9" stop-color="white"/>
</linearGradient>
<linearGradient id="paint24_linear_112_20384" x1="475.476" y1="324.698" x2="491.14" y2="324.698" gradientUnits="userSpaceOnUse">
<stop stop-color="#353AD6"/>
<stop offset="0.11" stop-color="#2A2FC0"/>
<stop offset="0.7" stop-color="#373BC8"/>
<stop offset="1" stop-color="#4247E5"/>
</linearGradient>
<linearGradient id="paint25_linear_112_20384" x1="476.002" y1="326.808" x2="491.126" y2="326.808" gradientUnits="userSpaceOnUse">
<stop stop-color="#4247E5"/>
<stop offset="0.25" stop-color="#2D32D5"/>
<stop offset="0.7" stop-color="#2328C8"/>
<stop offset="1" stop-color="#1E23BE"/>
</linearGradient>
<linearGradient id="paint26_linear_112_20384" x1="490.292" y1="291.541" x2="472.339" y2="291.541" gradientUnits="userSpaceOnUse">
<stop stop-color="#2A2EB1"/>
<stop offset="0.61" stop-color="#363ACC"/>
<stop offset="1" stop-color="#4247E5"/>
</linearGradient>
<linearGradient id="paint27_linear_112_20384" x1="456.102" y1="336" x2="471.77" y2="336" gradientUnits="userSpaceOnUse">
<stop stop-color="#353AD6"/>
<stop offset="0.11" stop-color="#2A2FC0"/>
<stop offset="0.7" stop-color="#373BC8"/>
<stop offset="1" stop-color="#4247E5"/>
</linearGradient>
<linearGradient id="paint28_linear_112_20384" x1="456.632" y1="338.107" x2="471.76" y2="338.107" gradientUnits="userSpaceOnUse">
<stop stop-color="#4247E5"/>
<stop offset="0.25" stop-color="#2D32D5"/>
<stop offset="0.7" stop-color="#2328C8"/>
<stop offset="1" stop-color="#1E23BE"/>
</linearGradient>
<linearGradient id="paint29_linear_112_20384" x1="462.901" y1="298.491" x2="489.836" y2="298.491" gradientUnits="userSpaceOnUse">
<stop stop-color="#4247E5"/>
<stop offset="0.25" stop-color="#2D32D5"/>
<stop offset="0.7" stop-color="#2328C8"/>
<stop offset="1" stop-color="#1E23BE"/>
</linearGradient>
<linearGradient id="paint30_linear_112_20384" x1="481.93" y1="225.211" x2="494.339" y2="263.442" gradientUnits="userSpaceOnUse">
<stop stop-color="#CED2F4"/>
<stop offset="0.43" stop-color="#C3C7EA"/>
<stop offset="1" stop-color="#BBBFE2"/>
</linearGradient>
<linearGradient id="paint31_linear_112_20384" x1="461.869" y1="250.04" x2="489.997" y2="250.04" gradientUnits="userSpaceOnUse">
<stop stop-color="#F0F0F4"/>
<stop offset="0.23" stop-color="#E4E5F4"/>
<stop offset="0.67" stop-color="#D3D7F4"/>
<stop offset="1" stop-color="#CED2F4"/>
</linearGradient>
<linearGradient id="paint32_linear_112_20384" x1="445.495" y1="245.208" x2="470.438" y2="245.208" gradientUnits="userSpaceOnUse">
<stop stop-color="white"/>
<stop offset="0.37" stop-color="#F0F1FB"/>
<stop offset="1" stop-color="#CED2F4"/>
</linearGradient>
<linearGradient id="paint33_linear_112_20384" x1="362.763" y1="383.421" x2="396.225" y2="383.421" gradientUnits="userSpaceOnUse">
<stop stop-color="#C4CAE9"/>
<stop offset="0.19" stop-color="#D1D6EE"/>
<stop offset="0.71" stop-color="#F2F3FA"/>
<stop offset="1" stop-color="white"/>
</linearGradient>
<linearGradient id="paint34_linear_112_20384" x1="317.492" y1="162.913" x2="402.915" y2="162.913" gradientUnits="userSpaceOnUse">
<stop stop-color="#C6CBE7"/>
<stop offset="0.6" stop-color="#EBEDF6"/>
<stop offset="1" stop-color="white"/>
</linearGradient>
<linearGradient id="paint35_linear_112_20384" x1="218.386" y1="220.27" x2="303.808" y2="220.27" gradientUnits="userSpaceOnUse">
<stop stop-color="#C6CBE7"/>
<stop offset="0.6" stop-color="#EBEDF6"/>
<stop offset="1" stop-color="white"/>
</linearGradient>
<linearGradient id="paint36_linear_112_20384" x1="178.242" y1="95.5986" x2="312.023" y2="95.5986" gradientUnits="userSpaceOnUse">
<stop offset="0.6" stop-color="#FCBA06"/>
<stop offset="0.68" stop-color="#E79B02"/>
<stop offset="0.73" stop-color="#DC8B00"/>
</linearGradient>
<linearGradient id="paint37_linear_112_20384" x1="217.093" y1="330.966" x2="539.348" y2="330.966" gradientUnits="userSpaceOnUse">
<stop stop-color="#D1D7F3"/>
<stop offset="1" stop-color="white"/>
</linearGradient>
<linearGradient id="paint38_linear_112_20384" x1="263.957" y1="321.13" x2="392.004" y2="321.13" gradientUnits="userSpaceOnUse">
<stop stop-color="#353AD6"/>
<stop offset="0.11" stop-color="#2A2FC0"/>
<stop offset="0.7" stop-color="#373BC8"/>
<stop offset="1" stop-color="#4247E5"/>
</linearGradient>
<linearGradient id="paint39_linear_112_20384" x1="367.765" y1="395.47" x2="272.631" y2="395.47" gradientUnits="userSpaceOnUse">
<stop offset="0.22" stop-color="white"/>
<stop offset="0.48" stop-color="#F3F5FC"/>
<stop offset="0.93" stop-color="#D6DBF4"/>
<stop offset="1" stop-color="#D1D7F3"/>
</linearGradient>
<linearGradient id="paint40_linear_112_20384" x1="228.094" y1="381.537" x2="317.156" y2="381.537" gradientUnits="userSpaceOnUse">
<stop offset="0.4" stop-color="#CED3F8"/>
<stop offset="0.55" stop-color="#BDC2E8"/>
<stop offset="0.57" stop-color="#BBC0E6"/>
</linearGradient>
<linearGradient id="paint41_linear_112_20384" x1="233.224" y1="362.784" x2="249.274" y2="362.784" gradientUnits="userSpaceOnUse">
<stop stop-color="#353AD6"/>
<stop offset="0.11" stop-color="#2A2FC0"/>
<stop offset="0.7" stop-color="#373BC8"/>
<stop offset="1" stop-color="#4247E5"/>
</linearGradient>
<linearGradient id="paint42_linear_112_20384" x1="261.653" y1="375.448" x2="264.609" y2="375.448" gradientUnits="userSpaceOnUse">
<stop stop-color="#353AD6"/>
<stop offset="0.11" stop-color="#2A2FC0"/>
<stop offset="0.7" stop-color="#373BC8"/>
<stop offset="1" stop-color="#4247E5"/>
</linearGradient>
<linearGradient id="paint43_linear_112_20384" x1="233.224" y1="379.161" x2="249.274" y2="379.161" gradientUnits="userSpaceOnUse">
<stop stop-color="#353AD6"/>
<stop offset="0.11" stop-color="#2A2FC0"/>
<stop offset="0.7" stop-color="#373BC8"/>
<stop offset="1" stop-color="#4247E5"/>
</linearGradient>
<linearGradient id="paint44_linear_112_20384" x1="261.653" y1="391.828" x2="264.609" y2="391.828" gradientUnits="userSpaceOnUse">
<stop stop-color="#353AD6"/>
<stop offset="0.11" stop-color="#2A2FC0"/>
<stop offset="0.7" stop-color="#373BC8"/>
<stop offset="1" stop-color="#4247E5"/>
</linearGradient>
<linearGradient id="paint45_linear_112_20384" x1="261.653" y1="407.865" x2="264.61" y2="407.865" gradientUnits="userSpaceOnUse">
<stop stop-color="#353AD6"/>
<stop offset="0.11" stop-color="#2A2FC0"/>
<stop offset="0.7" stop-color="#373BC8"/>
<stop offset="1" stop-color="#4247E5"/>
</linearGradient>
</defs>
</svg>
