<svg width="158" height="18" viewBox="0 0 158 18" fill="none" xmlns="http://www.w3.org/2000/svg">
<g opacity="0.3">
<path d="M86.6009 6.5112L87.1978 5.78169L88.0268 6.42277L87.3747 7.18544C87.8168 7.70125 88.0378 8.26496 88.0378 8.87657C88.0378 9.37027 87.9163 9.80134 87.6731 10.1698C87.4299 10.5382 87.0688 10.8145 86.5899 10.9988C87.5478 11.323 88.0268 11.9162 88.0268 12.7783C88.0268 13.4783 87.7357 14.0236 87.1536 14.4142C86.5788 14.8047 85.8972 15 85.1088 15C84.2098 15 83.4987 14.7826 82.9755 14.3479C82.4597 13.9205 82.2128 13.331 82.235 12.5794H83.3734C83.3587 12.9846 83.5208 13.3015 83.8598 13.5299C84.2061 13.7657 84.6224 13.8873 85.1088 13.8947C85.573 13.8947 85.9783 13.7989 86.3246 13.6073C86.6709 13.4157 86.8441 13.1394 86.8441 12.7783C86.8441 12.4025 86.6857 12.1114 86.3688 11.9051C86.0593 11.6988 85.6467 11.5956 85.1309 11.5956C84.2393 11.5956 83.5245 11.3525 82.9866 10.8661C82.4486 10.3798 82.1797 9.7166 82.1797 8.87657C82.1797 8.01442 82.4708 7.34387 83.0529 6.8649C83.635 6.37856 84.3277 6.13539 85.1309 6.13539C85.7425 6.13539 86.2325 6.26066 86.6009 6.5112ZM85.1309 7.19649C84.6298 7.19649 84.2024 7.34387 83.8487 7.63862C83.5024 7.926 83.3292 8.33865 83.3292 8.87657C83.3292 9.39975 83.4987 9.80871 83.8377 10.1035C84.184 10.3982 84.6151 10.5456 85.1309 10.5456C85.6393 10.5456 86.0593 10.3908 86.3909 10.0814C86.7299 9.7645 86.8994 9.3629 86.8994 8.87657C86.8994 8.36075 86.7262 7.95179 86.3799 7.64967C86.0409 7.34755 85.6246 7.19649 85.1309 7.19649Z" fill="#161616"/>
<path d="M94.5731 9.45133H90.1518C90.2034 9.86398 90.3876 10.1956 90.7045 10.4461C91.0287 10.6966 91.4377 10.8219 91.9314 10.8219C92.2261 10.8219 92.5209 10.7703 92.8156 10.6672C93.1178 10.5566 93.3499 10.413 93.512 10.2361L94.2525 10.9546C93.9799 11.2493 93.6299 11.4777 93.2025 11.6398C92.7825 11.802 92.3514 11.883 91.9093 11.883C91.0177 11.883 90.3029 11.6214 89.765 11.0982C89.2344 10.5751 88.9692 9.87503 88.9692 8.99815C88.9692 8.16548 89.2344 7.48387 89.765 6.95332C90.2955 6.42277 90.9845 6.1575 91.8319 6.1575C92.7456 6.1575 93.4567 6.43751 93.9652 6.99754C94.4736 7.55756 94.6762 8.37549 94.5731 9.45133ZM90.1739 8.48971H93.4788C93.4493 8.06969 93.2872 7.74546 92.9925 7.51703C92.7051 7.2886 92.3293 7.17439 91.8651 7.17439C91.4377 7.17439 91.0692 7.2886 90.7598 7.51703C90.4576 7.74546 90.2624 8.06969 90.1739 8.48971Z" fill="#161616"/>
<path d="M96.3419 4.85323L97.4914 4.73165V6.31224H99.0831V7.29597H97.4804V9.89345C97.4804 10.4903 97.742 10.7888 98.2652 10.7888C98.4789 10.7888 98.711 10.7261 98.9615 10.6009L99.2931 11.5735C98.9247 11.7356 98.5599 11.8167 98.1988 11.8167C97.602 11.8314 97.1414 11.6767 96.8172 11.3525C96.5004 11.0209 96.3419 10.5345 96.3419 9.89345V7.29597H95.2919V6.31224H96.3419V4.85323Z" fill="#161616"/>
<path d="M100.843 4.85323L101.993 4.73165V6.31224H103.584V7.29597H101.982V9.89345C101.982 10.4903 102.243 10.7888 102.766 10.7888C102.98 10.7888 103.212 10.7261 103.463 10.6009L103.794 11.5735C103.426 11.7356 103.061 11.8167 102.7 11.8167C102.103 11.8314 101.643 11.6767 101.318 11.3525C101.001 11.0209 100.843 10.5345 100.843 9.89345V7.29597H99.793V6.31224H100.843V4.85323Z" fill="#161616"/>
<path d="M104.736 6.30119H105.797L105.875 7.01964C106.192 6.45962 106.726 6.17961 107.477 6.17961C108.03 6.17961 108.48 6.33435 108.826 6.64384L108.306 7.63862C108.034 7.41756 107.713 7.30702 107.345 7.30702C106.925 7.30702 106.575 7.43598 106.295 7.69388C106.015 7.95179 105.875 8.32023 105.875 8.79919V11.7504H104.736V6.30119Z" fill="#161616"/>
<path d="M113.797 7.16333L113.83 6.30119H114.936V11.7504H113.852L113.797 10.8661C113.628 11.1977 113.362 11.4519 113.001 11.6288C112.648 11.8056 112.287 11.8941 111.918 11.8941C111.1 11.9014 110.43 11.6509 109.906 11.1425C109.383 10.634 109.122 9.92661 109.122 9.02026C109.122 8.13601 109.387 7.44335 109.917 6.94227C110.455 6.43383 111.13 6.17961 111.94 6.17961C112.331 6.17961 112.695 6.26803 113.034 6.44488C113.373 6.62173 113.628 6.86121 113.797 7.16333ZM112.029 7.2186C111.528 7.2186 111.108 7.3844 110.769 7.71599C110.43 8.04021 110.26 8.47497 110.26 9.02026C110.26 9.56554 110.43 10.004 110.769 10.3356C111.108 10.6672 111.528 10.833 112.029 10.833C112.353 10.833 112.64 10.7667 112.891 10.634C113.149 10.5014 113.34 10.3282 113.466 10.1145C113.598 9.90082 113.694 9.66871 113.753 9.41817C113.819 9.16026 113.819 8.90236 113.753 8.64445C113.694 8.38655 113.598 8.15075 113.466 7.93705C113.34 7.72336 113.149 7.55019 112.891 7.41756C112.64 7.28492 112.353 7.2186 112.029 7.2186Z" fill="#161616"/>
<path d="M121.764 11.7504H120.614V8.83235C120.614 8.35339 120.485 7.9739 120.227 7.69388C119.969 7.4065 119.608 7.26281 119.144 7.26281C118.702 7.26281 118.337 7.42124 118.05 7.7381C117.762 8.05495 117.619 8.44181 117.619 8.89867V11.7504H116.48V6.29014H117.519L117.585 7.08596C118.101 6.50383 118.713 6.21277 119.42 6.21277C120.106 6.21277 120.666 6.44488 121.1 6.90911C121.543 7.37334 121.764 8.01074 121.764 8.8213V11.7504Z" fill="#161616"/>
<path d="M127.349 6.88701L126.708 7.63862C126.34 7.29966 125.861 7.13017 125.271 7.13017C124.918 7.12281 124.634 7.17807 124.42 7.29597C124.214 7.4065 124.111 7.56861 124.111 7.78231C124.118 8.17285 124.512 8.40497 125.293 8.47865C125.603 8.50813 125.868 8.54866 126.089 8.60024C126.318 8.64445 126.557 8.72551 126.808 8.84341C127.066 8.95394 127.261 9.12342 127.393 9.35185C127.534 9.58028 127.604 9.86029 127.604 10.1919C127.596 10.7077 127.382 11.124 126.962 11.4409C126.542 11.7577 125.982 11.9162 125.282 11.9162C124.221 11.9162 123.392 11.5809 122.795 10.9103L123.392 10.1035C123.864 10.6266 124.501 10.8956 125.304 10.9103C125.614 10.9103 125.883 10.8514 126.111 10.7335C126.34 10.6156 126.458 10.4387 126.465 10.2029C126.472 9.96714 126.369 9.79398 126.156 9.68344C125.949 9.57291 125.632 9.49554 125.205 9.45133C123.731 9.31132 122.991 8.76604 122.983 7.81547C122.983 7.26281 123.212 6.85016 123.669 6.57752C124.133 6.29751 124.66 6.1575 125.249 6.1575C126.104 6.1575 126.804 6.40067 127.349 6.88701Z" fill="#161616"/>
<path d="M128.786 4.02425H129.925V11.7504H128.786V4.02425Z" fill="#161616"/>
<path d="M135.86 7.16333L135.893 6.30119H136.999V11.7504H135.915L135.86 10.8661C135.691 11.1977 135.425 11.4519 135.064 11.6288C134.711 11.8056 134.35 11.8941 133.981 11.8941C133.163 11.9014 132.493 11.6509 131.969 11.1425C131.446 10.634 131.185 9.92661 131.185 9.02026C131.185 8.13601 131.45 7.44335 131.981 6.94227C132.518 6.43383 133.193 6.17961 134.003 6.17961C134.394 6.17961 134.759 6.26803 135.098 6.44488C135.436 6.62173 135.691 6.86121 135.86 7.16333ZM134.092 7.2186C133.591 7.2186 133.171 7.3844 132.832 7.71599C132.493 8.04021 132.323 8.47497 132.323 9.02026C132.323 9.56554 132.493 10.004 132.832 10.3356C133.171 10.6672 133.591 10.833 134.092 10.833C134.416 10.833 134.703 10.7667 134.954 10.634C135.212 10.5014 135.403 10.3282 135.529 10.1145C135.661 9.90082 135.757 9.66871 135.816 9.41817C135.882 9.16026 135.882 8.90236 135.816 8.64445C135.757 8.38655 135.661 8.15075 135.529 7.93705C135.403 7.72336 135.212 7.55019 134.954 7.41756C134.703 7.28492 134.416 7.2186 134.092 7.2186Z" fill="#161616"/>
<path d="M139.151 4.85323L140.301 4.73165V6.31224H141.892V7.29597H140.29V9.89345C140.29 10.4903 140.551 10.7888 141.074 10.7888C141.288 10.7888 141.52 10.7261 141.771 10.6009L142.102 11.5735C141.734 11.7356 141.369 11.8167 141.008 11.8167C140.411 11.8314 139.951 11.6767 139.626 11.3525C139.31 11.0209 139.151 10.5345 139.151 9.89345V7.29597H138.101V6.31224H139.151V4.85323Z" fill="#161616"/>
<path d="M144.183 6.27908H143.044V11.7504H144.183V6.27908ZM143.265 5.32852C143.03 5.20325 142.912 4.99324 142.912 4.69849C142.912 4.40374 143.03 4.19741 143.265 4.07951C143.501 3.96161 143.737 3.96161 143.973 4.07951C144.209 4.19741 144.327 4.40374 144.327 4.69849C144.327 4.99324 144.209 5.20325 143.973 5.32852C143.737 5.44642 143.501 5.44642 143.265 5.32852Z" fill="#161616"/>
<path d="M146.163 6.99754C146.686 6.45962 147.364 6.19066 148.197 6.19066C149.03 6.19066 149.708 6.4633 150.231 7.00859C150.761 7.54651 151.027 8.22075 151.027 9.03131C151.027 9.84924 150.765 10.5272 150.242 11.0651C149.726 11.5956 149.044 11.8609 148.197 11.8609C147.357 11.8609 146.679 11.5956 146.163 11.0651C145.647 10.5272 145.389 9.84924 145.389 9.03131C145.389 8.21338 145.647 7.53546 146.163 6.99754ZM148.197 7.24071C147.696 7.24071 147.291 7.41387 146.981 7.7602C146.679 8.10653 146.528 8.53024 146.528 9.03131C146.528 9.53239 146.679 9.9524 146.981 10.2914C147.283 10.6303 147.688 10.7998 148.197 10.7998C148.705 10.7998 149.111 10.6303 149.413 10.2914C149.722 9.9524 149.877 9.53239 149.877 9.03131C149.877 8.5376 149.719 8.11759 149.402 7.77126C149.085 7.41756 148.683 7.24071 148.197 7.24071Z" fill="#161616"/>
<path d="M157.513 11.7504H156.364V8.83235C156.364 8.35339 156.235 7.9739 155.977 7.69388C155.719 7.4065 155.358 7.26281 154.894 7.26281C154.452 7.26281 154.087 7.42124 153.8 7.7381C153.512 8.05495 153.369 8.44181 153.369 8.89867V11.7504H152.23V6.29014H153.269L153.335 7.08596C153.851 6.50383 154.463 6.21277 155.17 6.21277C155.856 6.21277 156.416 6.44488 156.85 6.90911C157.292 7.37334 157.513 8.01074 157.513 8.8213V11.7504Z" fill="#161616"/>
<path d="M70.5092 6.36736V7.4543H69.7305V8.35294H70.5092V10.1759C70.5092 11.2286 71.1016 11.7507 72.0073 11.7164C72.3204 11.7079 72.5659 11.6565 72.8621 11.5367L72.5744 10.6466C72.422 10.7237 72.2358 10.775 72.075 10.775C71.7534 10.775 71.5333 10.5782 71.5333 10.1759V8.35294H72.6929V7.4543H71.5418V6.2561L70.5092 6.36736Z" fill="#161616"/>
<path d="M73.8898 6.36736V7.4543H73.1111V8.35294H73.8898V10.1759C73.8898 11.2286 74.4823 11.7507 75.3879 11.7164C75.7011 11.7079 75.9465 11.6565 76.2428 11.5367L75.955 10.6466C75.8026 10.7237 75.6164 10.775 75.4556 10.775C75.134 10.775 74.9139 10.5782 74.9139 10.1759V8.35294H76.0735V7.4543H74.9224V6.2561L73.8898 6.36736Z" fill="#161616"/>
<path fill-rule="evenodd" clip-rule="evenodd" d="M72.9871 14.0531C75.785 14.0531 78.0531 11.785 78.0531 8.9871C78.0531 6.18922 75.785 3.92109 72.9871 3.92109C70.1892 3.92109 67.9211 6.18922 67.9211 8.9871C67.9211 11.785 70.1892 14.0531 72.9871 14.0531ZM72.9871 14.9742C76.2937 14.9742 78.9742 12.2937 78.9742 8.9871C78.9742 5.68052 76.2937 3 72.9871 3C69.6805 3 67 5.68052 67 8.9871C67 12.2937 69.6805 14.9742 72.9871 14.9742Z" fill="#161616"/>
</g>
<path opacity="0.3" d="M1.837 5.026V8.711H4.51C4.84 8.711 5.13333 8.645 5.39 8.513C5.654 8.37367 5.852 8.19767 5.984 7.985C6.116 7.765 6.21133 7.52667 6.27 7.27C6.336 7.006 6.336 6.742 6.27 6.478C6.21133 6.214 6.116 5.97567 5.984 5.763C5.852 5.543 5.654 5.367 5.39 5.235C5.13333 5.09567 4.84 5.026 4.51 5.026H1.837ZM4.51 9.437H1.837V12H1.067V4.3H4.51C4.87667 4.3 5.214 4.35867 5.522 4.476C5.83733 4.59333 6.094 4.751 6.292 4.949C6.49733 5.147 6.66967 5.37433 6.809 5.631C6.94833 5.88767 7.03267 6.159 7.062 6.445C7.09133 6.72367 7.09133 7.006 7.062 7.292C7.03267 7.57067 6.94833 7.842 6.809 8.106C6.66967 8.36267 6.49733 8.59 6.292 8.788C6.094 8.986 5.83733 9.14367 5.522 9.261C5.214 9.37833 4.87667 9.437 4.51 9.437ZM10.6262 6.467C11.4255 6.467 12.0892 6.731 12.6172 7.259C13.1525 7.787 13.4202 8.46533 13.4202 9.294C13.4202 10.13 13.1562 10.8047 12.6282 11.318C12.1075 11.8313 11.4402 12.088 10.6262 12.088C9.81951 12.088 9.15217 11.8313 8.62417 11.318C8.09617 10.7973 7.83217 10.1227 7.83217 9.294C7.83217 8.458 8.09251 7.77967 8.61317 7.259C9.13384 6.731 9.80484 6.467 10.6262 6.467ZM12.1002 7.743C11.7188 7.33967 11.2275 7.138 10.6262 7.138C10.0248 7.138 9.52984 7.33967 9.14117 7.743C8.75984 8.14633 8.56917 8.66333 8.56917 9.294C8.56917 9.92467 8.75984 10.4343 9.14117 10.823C9.52984 11.2043 10.0248 11.395 10.6262 11.395C11.2422 11.395 11.7372 11.2043 12.1112 10.823C12.4925 10.4343 12.6832 9.92467 12.6832 9.294C12.6832 8.66333 12.4888 8.14633 12.1002 7.743ZM18.0185 6.566H18.6015L20.1415 11.197L21.6705 6.566H22.4845L20.5705 12.011H19.7345L18.9315 9.822L18.3155 7.765L17.6885 9.833L16.8855 12.011H16.0495L14.1245 6.566H14.9385L16.4785 11.197L18.0185 6.566ZM28.704 9.591H23.974C24.0253 10.1483 24.2417 10.5883 24.623 10.911C25.0117 11.2337 25.481 11.395 26.031 11.395C26.3757 11.395 26.7203 11.329 27.065 11.197C27.417 11.065 27.6847 10.8817 27.868 10.647L28.363 11.087C28.1063 11.4097 27.7653 11.659 27.34 11.835C26.9147 12.011 26.4783 12.099 26.031 12.099C25.2097 12.099 24.535 11.8423 24.007 11.329C23.479 10.8157 23.215 10.13 23.215 9.272C23.215 8.458 23.4753 7.787 23.996 7.259C24.524 6.731 25.1913 6.467 25.998 6.467C26.8633 6.467 27.5563 6.73467 28.077 7.27C28.5977 7.798 28.8067 8.57167 28.704 9.591ZM23.974 8.964H28.011C28.0037 8.392 27.8093 7.94467 27.428 7.622C27.0467 7.292 26.5737 7.127 26.009 7.127C25.459 7.127 25.0007 7.28833 24.634 7.611C24.2673 7.93367 24.0473 8.38467 23.974 8.964ZM30.0123 6.566H30.7053L30.7493 7.457C30.9106 7.11967 31.149 6.874 31.4643 6.72C31.7796 6.55867 32.117 6.478 32.4763 6.478C32.931 6.478 33.3416 6.60633 33.7083 6.863L33.3673 7.479C33.0886 7.28833 32.777 7.193 32.4323 7.193C31.9556 7.20033 31.556 7.36533 31.2333 7.688C30.9106 8.01067 30.7493 8.41767 30.7493 8.909V12H30.0123V6.566ZM39.5536 9.591H34.8236C34.8749 10.1483 35.0913 10.5883 35.4726 10.911C35.8613 11.2337 36.3306 11.395 36.8806 11.395C37.2253 11.395 37.5699 11.329 37.9146 11.197C38.2666 11.065 38.5343 10.8817 38.7176 10.647L39.2126 11.087C38.9559 11.4097 38.6149 11.659 38.1896 11.835C37.7643 12.011 37.3279 12.099 36.8806 12.099C36.0593 12.099 35.3846 11.8423 34.8566 11.329C34.3286 10.8157 34.0646 10.13 34.0646 9.272C34.0646 8.458 34.3249 7.787 34.8456 7.259C35.3736 6.731 36.0409 6.467 36.8476 6.467C37.7129 6.467 38.4059 6.73467 38.9266 7.27C39.4473 7.798 39.6563 8.57167 39.5536 9.591ZM34.8236 8.964H38.8606C38.8533 8.392 38.6589 7.94467 38.2776 7.622C37.8963 7.292 37.4233 7.127 36.8586 7.127C36.3086 7.127 35.8503 7.28833 35.4836 7.611C35.1169 7.93367 34.8969 8.38467 34.8236 8.964ZM43.3039 7.171C42.7099 7.171 42.2186 7.358 41.8299 7.732C41.4486 8.09867 41.2579 8.61567 41.2579 9.283C41.2579 9.943 41.4522 10.46 41.8409 10.834C42.2296 11.208 42.7172 11.395 43.3039 11.395C43.8906 11.395 44.3782 11.197 44.7669 10.801C45.1629 10.405 45.3609 9.89533 45.3609 9.272C45.3609 8.656 45.1629 8.15367 44.7669 7.765C44.3782 7.369 43.8906 7.171 43.3039 7.171ZM45.3939 4.3H46.1309V12H45.4159L45.3939 10.911C45.1812 11.2923 44.8806 11.5857 44.4919 11.791C44.1106 11.9963 43.6999 12.099 43.2599 12.099C42.4606 12.099 41.8042 11.8497 41.2909 11.351C40.7776 10.8523 40.5209 10.163 40.5209 9.283C40.5209 8.403 40.7776 7.71367 41.2909 7.215C41.8042 6.71633 42.4606 6.467 43.2599 6.467C43.7072 6.467 44.1252 6.56967 44.5139 6.775C44.9026 6.973 45.1959 7.26267 45.3939 7.644V4.3ZM55.0025 7.732C54.6138 7.358 54.1262 7.171 53.5395 7.171C52.9528 7.171 52.4615 7.369 52.0655 7.765C51.6695 8.15367 51.4715 8.656 51.4715 9.272C51.4715 9.89533 51.6658 10.405 52.0545 10.801C52.4505 11.197 52.9455 11.395 53.5395 11.395C54.1262 11.395 54.6138 11.208 55.0025 10.834C55.3912 10.46 55.5855 9.943 55.5855 9.283C55.5855 8.61567 55.3912 8.09867 55.0025 7.732ZM50.7125 4.3H51.4495V7.644C51.6475 7.26267 51.9408 6.973 52.3295 6.775C52.7182 6.56967 53.1362 6.467 53.5835 6.467C54.3755 6.467 55.0282 6.71633 55.5415 7.215C56.0622 7.71367 56.3225 8.403 56.3225 9.283C56.3225 10.163 56.0658 10.8523 55.5525 11.351C55.0392 11.8497 54.3828 12.099 53.5835 12.099C52.6082 12.099 51.8968 11.7177 51.4495 10.955L51.4055 12H50.7125V4.3ZM61.4301 6.566H62.2441L58.8011 14.596H57.9981L59.1421 11.934L56.9641 6.566H57.7891L58.9441 9.569L59.5491 11.131L60.1651 9.569L61.4301 6.566Z" fill="#161616"/>
</svg>
