<svg width="20" height="20" viewBox="0 0 20 20" fill="none" xmlns="http://www.w3.org/2000/svg">
<g clip-path="url(#clip0_310_46127)">
<path d="M16.0477 4H12.7763C12.5266 4 12.3241 4.20245 12.3241 4.45227C12.3241 4.70207 12.5266 4.90452 12.7763 4.90452H15.5954V7.72361C15.5954 7.97341 15.7979 8.17586 16.0477 8.17586C16.2975 8.17586 16.5 7.97341 16.5 7.72361V4.45227C16.5 4.20245 16.2975 4 16.0477 4Z" fill="#4247E5"/>
<path d="M16.3675 4.13252C16.1908 3.95583 15.9047 3.95583 15.728 4.13252L9.27571 10.5848C9.09901 10.7613 9.09901 11.0477 9.27571 11.2243C9.36391 11.3126 9.47969 11.3568 9.59547 11.3568C9.71108 11.3568 9.82687 11.3126 9.91523 11.2243L16.3675 4.77201C16.5442 4.59548 16.5442 4.30905 16.3675 4.13252Z" fill="#4247E5"/>
<path d="M14.5101 9.62316C14.2603 9.62316 14.0578 9.82561 14.0578 10.0754V15.0955H5.40452V6.44224H10.4246C10.6744 6.44224 10.8769 6.23979 10.8769 5.98999C10.8769 5.7402 10.6744 5.53772 10.4246 5.53772H4.95227C4.70245 5.53772 4.5 5.74017 4.5 5.98999V15.5478C4.5 15.7976 4.70245 16 4.95227 16H14.5101C14.76 16 14.9623 15.7976 14.9623 15.5478V10.0754C14.9623 9.82561 14.7599 9.62316 14.5101 9.62316Z" fill="#4247E5"/>
</g>
<defs>
<clipPath id="clip0_310_46127">
<rect width="12" height="12" fill="white" transform="translate(4.5 4)"/>
</clipPath>
</defs>
</svg>
