<svg width="128" height="34" viewBox="0 0 128 34" fill="none" xmlns="http://www.w3.org/2000/svg">
<rect x="0.5" y="0.5" width="127" height="33" rx="5.5" stroke="#4247E5" stroke-dasharray="4 4"/>
<path d="M48.9 12.6H49.74V17.724C49.74 18.812 49.428 19.644 48.804 20.22C48.18 20.796 47.388 21.084 46.428 21.084C45.46 21.084 44.656 20.796 44.016 20.22C43.384 19.636 43.068 18.804 43.068 17.724V12.6H43.908V17.724C43.908 18.508 44.144 19.136 44.616 19.608C45.096 20.072 45.7 20.304 46.428 20.304C47.116 20.304 47.7 20.084 48.18 19.644C48.66 19.196 48.9 18.556 48.9 17.724V12.6ZM54.7622 20.34C55.4102 20.34 55.9422 20.136 56.3582 19.728C56.7822 19.32 56.9942 18.756 56.9942 18.036C56.9942 17.316 56.7862 16.756 56.3702 16.356C55.9542 15.956 55.4182 15.756 54.7622 15.756C54.1142 15.756 53.5822 15.972 53.1662 16.404C52.7502 16.836 52.5422 17.384 52.5422 18.048C52.5422 18.704 52.7502 19.252 53.1662 19.692C53.5902 20.124 54.1222 20.34 54.7622 20.34ZM52.4702 23.832H51.6782V15.072H52.4582L52.4822 16.332C52.7142 15.908 53.0422 15.576 53.4662 15.336C53.8982 15.096 54.3702 14.976 54.8822 14.976C55.7382 15 56.4382 15.288 56.9822 15.84C57.5262 16.392 57.7982 17.124 57.7982 18.036C57.7982 18.98 57.5182 19.732 56.9582 20.292C56.3982 20.844 55.6782 21.12 54.7982 21.12C54.3182 21.12 53.8662 21.008 53.4422 20.784C53.0262 20.56 52.7022 20.232 52.4702 19.8V23.832ZM59.3794 12.6H60.1834V21H59.3794V12.6ZM64.807 14.964C65.679 14.964 66.403 15.252 66.979 15.828C67.563 16.404 67.855 17.144 67.855 18.048C67.855 18.96 67.567 19.696 66.991 20.256C66.423 20.816 65.695 21.096 64.807 21.096C63.927 21.096 63.199 20.816 62.623 20.256C62.047 19.688 61.759 18.952 61.759 18.048C61.759 17.136 62.043 16.396 62.611 15.828C63.179 15.252 63.911 14.964 64.807 14.964ZM66.415 16.356C65.999 15.916 65.463 15.696 64.807 15.696C64.151 15.696 63.611 15.916 63.187 16.356C62.771 16.796 62.563 17.36 62.563 18.048C62.563 18.736 62.771 19.292 63.187 19.716C63.611 20.132 64.151 20.34 64.807 20.34C65.479 20.34 66.019 20.132 66.427 19.716C66.843 19.292 67.051 18.736 67.051 18.048C67.051 17.36 66.839 16.796 66.415 16.356ZM74.3183 16.248V15.072H75.0743V21H74.3303V19.824C74.0823 20.248 73.7423 20.572 73.3103 20.796C72.8863 21.012 72.4423 21.12 71.9783 21.12C71.1143 21.12 70.3943 20.836 69.8183 20.268C69.2423 19.7 68.9543 18.956 68.9543 18.036C68.9543 17.124 69.2423 16.388 69.8183 15.828C70.4023 15.268 71.1263 14.988 71.9903 14.988C72.4703 14.988 72.9223 15.1 73.3463 15.324C73.7783 15.54 74.1023 15.848 74.3183 16.248ZM72.0143 15.72C71.3743 15.72 70.8383 15.936 70.4063 16.368C69.9743 16.8 69.7583 17.356 69.7583 18.036C69.7583 18.724 69.9743 19.284 70.4063 19.716C70.8383 20.148 71.3743 20.364 72.0143 20.364C72.4303 20.364 72.8023 20.28 73.1303 20.112C73.4663 19.936 73.7183 19.712 73.8863 19.44C74.0543 19.168 74.1783 18.868 74.2583 18.54C74.3383 18.212 74.3383 17.884 74.2583 17.556C74.1783 17.22 74.0543 16.916 73.8863 16.644C73.7183 16.372 73.4663 16.152 73.1303 15.984C72.8023 15.808 72.4303 15.72 72.0143 15.72ZM79.6078 15.732C78.9598 15.732 78.4238 15.936 77.9998 16.344C77.5838 16.744 77.3758 17.308 77.3758 18.036C77.3758 18.756 77.5878 19.32 78.0118 19.728C78.4358 20.136 78.9678 20.34 79.6078 20.34C80.2478 20.34 80.7798 20.124 81.2038 19.692C81.6358 19.26 81.8518 18.704 81.8518 18.024C81.8518 17.352 81.6358 16.804 81.2038 16.38C80.7798 15.948 80.2478 15.732 79.6078 15.732ZM81.8878 12.6H82.6918V21H81.9118L81.8878 19.812C81.6558 20.228 81.3278 20.548 80.9038 20.772C80.4878 20.996 80.0398 21.108 79.5598 21.108C78.6878 21.108 77.9718 20.836 77.4118 20.292C76.8518 19.748 76.5718 18.996 76.5718 18.036C76.5718 17.076 76.8518 16.324 77.4118 15.78C77.9718 15.236 78.6878 14.964 79.5598 14.964C80.0478 14.964 80.5038 15.076 80.9278 15.3C81.3518 15.516 81.6718 15.832 81.8878 16.248V12.6ZM88.9193 21H88.1152V15.828H86.9393V15.132H88.1152V14.64C88.1152 13.984 88.2753 13.472 88.5953 13.104C88.9153 12.728 89.3873 12.54 90.0113 12.54C90.4673 12.54 90.8913 12.68 91.2833 12.96L90.9353 13.56C90.5993 13.36 90.2953 13.26 90.0233 13.26C89.2873 13.26 88.9193 13.72 88.9193 14.64V15.132H90.8153V15.828H88.9193V21ZM92.7361 15.048H91.9321V21H92.7361V15.048ZM92.0641 13.716C91.8721 13.62 91.7761 13.452 91.7761 13.212C91.7761 12.972 91.8681 12.804 92.0521 12.708C92.2441 12.612 92.4361 12.612 92.6281 12.708C92.8201 12.804 92.9161 12.972 92.9161 13.212C92.9161 13.452 92.8201 13.62 92.6281 13.716C92.4441 13.812 92.2561 13.812 92.0641 13.716ZM94.688 12.6H95.492V21H94.688V12.6ZM103.056 18.372H97.8956C97.9516 18.98 98.1876 19.46 98.6036 19.812C99.0276 20.164 99.5396 20.34 100.14 20.34C100.516 20.34 100.892 20.268 101.268 20.124C101.652 19.98 101.944 19.78 102.144 19.524L102.684 20.004C102.404 20.356 102.032 20.628 101.568 20.82C101.104 21.012 100.628 21.108 100.14 21.108C99.2436 21.108 98.5076 20.828 97.9316 20.268C97.3556 19.708 97.0676 18.96 97.0676 18.024C97.0676 17.136 97.3516 16.404 97.9196 15.828C98.4956 15.252 99.2236 14.964 100.104 14.964C101.048 14.964 101.804 15.256 102.372 15.84C102.94 16.416 103.168 17.26 103.056 18.372ZM97.8956 17.688H102.3C102.292 17.064 102.08 16.576 101.664 16.224C101.248 15.864 100.732 15.684 100.116 15.684C99.5156 15.684 99.0156 15.86 98.6156 16.212C98.2156 16.564 97.9756 17.056 97.8956 17.688ZM108.815 15.756L108.347 16.284C107.907 15.884 107.323 15.684 106.595 15.684C106.131 15.676 105.743 15.756 105.431 15.924C105.127 16.092 104.979 16.332 104.987 16.644C104.987 16.86 105.079 17.04 105.263 17.184C105.447 17.328 105.635 17.424 105.827 17.472C106.027 17.52 106.287 17.568 106.607 17.616C106.863 17.656 107.051 17.688 107.171 17.712C107.291 17.728 107.467 17.764 107.699 17.82C107.939 17.876 108.119 17.944 108.239 18.024C108.367 18.104 108.503 18.204 108.647 18.324C108.791 18.444 108.895 18.596 108.959 18.78C109.023 18.956 109.055 19.16 109.055 19.392C109.047 19.784 108.919 20.116 108.671 20.388C108.431 20.66 108.135 20.852 107.783 20.964C107.431 21.068 107.043 21.12 106.619 21.12C105.435 21.12 104.559 20.736 103.991 19.968L104.495 19.416C104.959 20.04 105.671 20.36 106.631 20.376C107.055 20.376 107.431 20.3 107.759 20.148C108.087 19.996 108.251 19.74 108.251 19.38C108.251 19.196 108.211 19.04 108.131 18.912C108.051 18.784 107.919 18.684 107.735 18.612C107.551 18.532 107.375 18.476 107.207 18.444C107.047 18.404 106.823 18.364 106.535 18.324C106.263 18.284 106.031 18.244 105.839 18.204C105.655 18.164 105.451 18.104 105.227 18.024C105.003 17.936 104.823 17.84 104.687 17.736C104.551 17.624 104.435 17.476 104.339 17.292C104.243 17.108 104.195 16.9 104.195 16.668C104.195 16.1 104.431 15.672 104.903 15.384C105.375 15.088 105.935 14.944 106.583 14.952C107.487 14.952 108.231 15.22 108.815 15.756Z" fill="#4247E5"/>
<path d="M32.0646 21.5487H29.1553H28.3719H28.2027V17.6463H29.479C29.8026 17.6463 29.9939 17.2786 29.8026 17.0137L27.32 13.5785C27.1618 13.3578 26.8345 13.3578 26.6763 13.5785L24.1937 17.0137C24.0025 17.2786 24.19 17.6463 24.5174 17.6463H25.7936V21.5487H25.6244H24.841H21.4683C19.5374 21.442 18 19.6361 18 17.6795C18 16.3296 18.7319 15.1527 19.8169 14.5164C19.7176 14.2479 19.6661 13.961 19.6661 13.6594C19.6661 12.2802 20.7805 11.1658 22.1598 11.1658C22.4577 11.1658 22.7446 11.2173 23.0131 11.3166C23.8112 9.62469 25.5325 8.45142 27.5333 8.45142C30.1226 8.45509 32.2558 10.4375 32.4986 12.9643C34.4884 13.3063 36 15.149 36 17.2344C36 19.4633 34.264 21.3942 32.0646 21.5487Z" fill="#4247E5"/>
</svg>
