<svg width="284" height="28" viewBox="0 0 284 28" fill="none" xmlns="http://www.w3.org/2000/svg">
<path opacity="0.6" d="M33.552 8.8H37.504C38.4213 8.8 39.2427 8.95467 39.968 9.264C40.704 9.57333 41.296 9.98933 41.744 10.512C42.192 11.0347 42.5333 11.6213 42.768 12.272C43.0027 12.912 43.12 13.584 43.12 14.288C43.12 15.024 43.008 15.7227 42.784 16.384C42.56 17.0453 42.2293 17.6533 41.792 18.208C41.3547 18.752 40.7627 19.1893 40.016 19.52C39.28 19.84 38.4427 20 37.504 20H33.552V8.8ZM34.672 9.856V18.96H37.504C38.112 18.96 38.6667 18.8693 39.168 18.688C39.68 18.5067 40.1067 18.2667 40.448 17.968C40.7893 17.6587 41.0773 17.3013 41.312 16.896C41.5573 16.4907 41.7333 16.0693 41.84 15.632C41.9467 15.184 41.9947 14.7307 41.984 14.272C41.9627 13.5147 41.7973 12.8107 41.488 12.16C41.1787 11.5093 40.6773 10.9653 39.984 10.528C39.2907 10.08 38.464 9.856 37.504 9.856H34.672ZM45.1074 12.096H46.1154L46.1794 13.392C46.414 12.9013 46.7607 12.544 47.2194 12.32C47.678 12.0853 48.1687 11.968 48.6914 11.968C49.3527 11.968 49.95 12.1547 50.4834 12.528L49.9874 13.424C49.582 13.1467 49.1287 13.008 48.6274 13.008C47.934 13.0187 47.3527 13.2587 46.8834 13.728C46.414 14.1973 46.1794 14.7893 46.1794 15.504V20H45.1074V12.096ZM58.1536 13.664V12.096H59.1616V20H58.1696V18.432C57.839 18.9973 57.3856 19.4293 56.8096 19.728C56.2443 20.016 55.6523 20.16 55.0336 20.16C53.8816 20.16 52.9216 19.7813 52.1536 19.024C51.3856 18.2667 51.0016 17.2747 51.0016 16.048C51.0016 14.832 51.3856 13.8507 52.1536 13.104C52.9323 12.3573 53.8976 11.984 55.0496 11.984C55.6896 11.984 56.2923 12.1333 56.8576 12.432C57.4336 12.72 57.8656 13.1307 58.1536 13.664ZM55.0816 12.96C54.2283 12.96 53.5136 13.248 52.9376 13.824C52.3616 14.4 52.0736 15.1413 52.0736 16.048C52.0736 16.9653 52.3616 17.712 52.9376 18.288C53.5136 18.864 54.2283 19.152 55.0816 19.152C55.6363 19.152 56.1323 19.04 56.5696 18.816C57.0176 18.5813 57.3536 18.2827 57.5776 17.92C57.8016 17.5573 57.967 17.1573 58.0736 16.72C58.1803 16.2827 58.1803 15.8453 58.0736 15.408C57.967 14.96 57.8016 14.5547 57.5776 14.192C57.3536 13.8293 57.0176 13.536 56.5696 13.312C56.1323 13.0773 55.6363 12.96 55.0816 12.96ZM67.6383 12.544L68.4703 11.552L69.2063 12.16L68.3583 13.168C68.6996 13.552 68.9609 13.9413 69.1423 14.336C69.3236 14.7307 69.4143 15.216 69.4143 15.792C69.4143 16.5387 69.2063 17.2213 68.7903 17.84C68.3849 18.4587 67.7983 18.88 67.0303 19.104C68.5876 19.52 69.3663 20.384 69.3663 21.696C69.3663 22.6347 68.9663 23.3707 68.1663 23.904C67.3769 24.4373 66.4223 24.704 65.3023 24.704C64.1396 24.704 63.1796 24.4107 62.4223 23.824C61.6649 23.2373 61.2916 22.4427 61.3023 21.44H62.3743C62.3636 22.144 62.6463 22.688 63.2223 23.072C63.7983 23.4667 64.4916 23.664 65.3023 23.664C66.1129 23.664 66.8116 23.4987 67.3983 23.168C67.9849 22.8373 68.2783 22.3467 68.2783 21.696C68.2783 21.0453 67.9849 20.544 67.3983 20.192C66.8116 19.8507 66.1129 19.68 65.3023 19.68C64.0649 19.68 63.0623 19.3333 62.2943 18.64C61.5369 17.9467 61.1583 16.9973 61.1583 15.792C61.1583 14.5867 61.5743 13.6373 62.4062 12.944C63.2489 12.2507 64.2143 11.904 65.3023 11.904C66.2516 11.904 67.0303 12.1173 67.6383 12.544ZM65.3023 12.912C64.4916 12.912 63.7769 13.1627 63.1583 13.664C62.5503 14.1547 62.2463 14.864 62.2463 15.792C62.2463 16.7307 62.5289 17.4507 63.0943 17.952C63.6703 18.4427 64.4063 18.688 65.3023 18.688C66.1983 18.688 66.9289 18.4053 67.4943 17.84C68.0596 17.2747 68.3423 16.592 68.3423 15.792C68.3423 14.864 68.0436 14.1547 67.4463 13.664C66.8596 13.1627 66.1449 12.912 65.3023 12.912ZM79.5274 14.72C78.4714 14.72 77.6927 14.9387 77.1914 15.376C76.69 15.8133 76.4394 16.3307 76.4394 16.928C76.4394 17.6213 76.706 18.1707 77.2394 18.576C77.7834 18.9707 78.546 19.168 79.5274 19.168C79.9434 19.168 80.3647 19.0933 80.7914 18.944C81.2287 18.7947 81.6127 18.5493 81.9434 18.208C82.2847 17.856 82.4554 17.4507 82.4554 16.992V14.72H79.5274ZM83.4314 14.72V16.992C83.4314 18.3467 83.874 19.024 84.7594 19.024V20.016C83.7247 20.1227 83.0687 19.664 82.7914 18.64C82.5247 19.088 82.0554 19.4507 81.3834 19.728C80.7114 20.0053 80.1034 20.144 79.5594 20.144C78.2154 20.144 77.1754 19.872 76.4394 19.328C75.7034 18.7733 75.3354 17.968 75.3354 16.912C75.3354 16.2933 75.538 15.7493 75.9434 15.28C76.3487 14.8107 76.8554 14.48 77.4634 14.288C76.8874 14.1067 76.418 13.7867 76.0554 13.328C75.7034 12.8693 75.5274 12.352 75.5274 11.776C75.538 10.8373 75.9007 10.0907 76.6154 9.536C77.3407 8.98133 78.3114 8.704 79.5274 8.704C82.0447 8.704 83.3087 9.64267 83.3194 11.52H82.3274C82.3274 10.2507 81.3834 9.616 79.4954 9.616C78.546 9.616 77.826 9.824 77.3354 10.24C76.8447 10.6453 76.6047 11.152 76.6154 11.76C76.6154 12.464 76.9247 12.9867 77.5434 13.328C78.1727 13.6693 78.8554 13.84 79.5914 13.84H84.4554V14.72H83.4314ZM94.4563 12.976C93.5923 12.976 92.8776 13.248 92.3123 13.792C91.7576 14.3253 91.4803 15.0773 91.4803 16.048C91.4803 17.008 91.7629 17.76 92.3283 18.304C92.8936 18.848 93.6029 19.12 94.4563 19.12C95.3096 19.12 96.0189 18.832 96.5843 18.256C97.1603 17.68 97.4483 16.9387 97.4483 16.032C97.4483 15.136 97.1603 14.4053 96.5843 13.84C96.0189 13.264 95.3096 12.976 94.4563 12.976ZM97.4963 8.8H98.5683V20H97.5283L97.4963 18.416C97.1869 18.9707 96.7496 19.3973 96.1843 19.696C95.6296 19.9947 95.0323 20.144 94.3923 20.144C93.2296 20.144 92.2749 19.7813 91.5283 19.056C90.7816 18.3307 90.4083 17.328 90.4083 16.048C90.4083 14.768 90.7816 13.7653 91.5283 13.04C92.2749 12.3147 93.2296 11.952 94.3923 11.952C95.0429 11.952 95.6509 12.1013 96.2163 12.4C96.7816 12.688 97.2083 13.1093 97.4963 13.664V8.8ZM101.061 12.096H102.069L102.133 13.392C102.367 12.9013 102.714 12.544 103.173 12.32C103.631 12.0853 104.122 11.968 104.645 11.968C105.306 11.968 105.903 12.1547 106.437 12.528L105.941 13.424C105.535 13.1467 105.082 13.008 104.581 13.008C103.887 13.0187 103.306 13.2587 102.837 13.728C102.367 14.1973 102.133 14.7893 102.133 15.504V20H101.061V12.096ZM111.019 11.952C112.181 11.952 113.147 12.336 113.915 13.104C114.693 13.872 115.083 14.8587 115.083 16.064C115.083 17.28 114.699 18.2613 113.931 19.008C113.173 19.7547 112.203 20.128 111.019 20.128C109.845 20.128 108.875 19.7547 108.107 19.008C107.339 18.2507 106.955 17.2693 106.955 16.064C106.955 14.848 107.333 13.8613 108.091 13.104C108.848 12.336 109.824 11.952 111.019 11.952ZM113.163 13.808C112.608 13.2213 111.893 12.928 111.019 12.928C110.144 12.928 109.424 13.2213 108.859 13.808C108.304 14.3947 108.027 15.1467 108.027 16.064C108.027 16.9813 108.304 17.7227 108.859 18.288C109.424 18.8427 110.144 19.12 111.019 19.12C111.915 19.12 112.635 18.8427 113.179 18.288C113.733 17.7227 114.011 16.9813 114.011 16.064C114.011 15.1467 113.728 14.3947 113.163 13.808ZM121.173 19.12C122.037 19.12 122.746 18.848 123.301 18.304C123.866 17.76 124.149 17.008 124.149 16.048C124.149 15.088 123.871 14.3413 123.317 13.808C122.762 13.2747 122.047 13.008 121.173 13.008C120.309 13.008 119.599 13.296 119.045 13.872C118.49 14.448 118.213 15.1787 118.213 16.064C118.213 16.9387 118.49 17.6693 119.045 18.256C119.61 18.832 120.319 19.12 121.173 19.12ZM118.117 23.776H117.061V12.096H118.101L118.133 13.776C118.442 13.2107 118.879 12.768 119.445 12.448C120.021 12.128 120.65 11.968 121.333 11.968C122.474 12 123.407 12.384 124.133 13.12C124.858 13.856 125.22 14.832 125.22 16.048C125.22 17.3067 124.847 18.3093 124.101 19.056C123.354 19.792 122.394 20.16 121.221 20.16C120.581 20.16 119.978 20.0107 119.413 19.712C118.858 19.4133 118.426 18.976 118.117 18.4V23.776ZM133.028 20H131.956V13.104H130.388V12.176H131.956V11.52C131.956 10.6453 132.169 9.96267 132.596 9.472C133.022 8.97067 133.652 8.72 134.484 8.72C135.092 8.72 135.657 8.90667 136.18 9.28L135.716 10.08C135.268 9.81333 134.862 9.68 134.5 9.68C133.518 9.68 133.028 10.2933 133.028 11.52V12.176H135.556V13.104H133.028V20ZM138.117 12.064H137.045V20H138.117V12.064ZM137.221 10.288C136.965 10.16 136.837 9.936 136.837 9.616C136.837 9.296 136.96 9.072 137.205 8.944C137.461 8.816 137.717 8.816 137.973 8.944C138.229 9.072 138.357 9.296 138.357 9.616C138.357 9.936 138.229 10.16 137.973 10.288C137.728 10.416 137.477 10.416 137.221 10.288ZM140.719 8.8H141.791V20H140.719V8.8ZM151.876 16.496H144.996C145.071 17.3067 145.386 17.9467 145.94 18.416C146.506 18.8853 147.188 19.12 147.988 19.12C148.49 19.12 148.991 19.024 149.492 18.832C150.004 18.64 150.394 18.3733 150.66 18.032L151.38 18.672C151.007 19.1413 150.511 19.504 149.892 19.76C149.274 20.016 148.639 20.144 147.988 20.144C146.794 20.144 145.812 19.7707 145.044 19.024C144.276 18.2773 143.892 17.28 143.892 16.032C143.892 14.848 144.271 13.872 145.028 13.104C145.796 12.336 146.767 11.952 147.94 11.952C149.199 11.952 150.207 12.3413 150.964 13.12C151.722 13.888 152.026 15.0133 151.876 16.496ZM144.996 15.584H150.868C150.858 14.752 150.575 14.1013 150.02 13.632C149.466 13.152 148.778 12.912 147.956 12.912C147.156 12.912 146.49 13.1467 145.956 13.616C145.423 14.0853 145.103 14.7413 144.996 15.584ZM159.555 13.008L158.931 13.712C158.345 13.1787 157.566 12.912 156.595 12.912C155.977 12.9013 155.459 13.008 155.043 13.232C154.638 13.456 154.441 13.776 154.451 14.192C154.451 14.48 154.574 14.72 154.819 14.912C155.065 15.104 155.315 15.232 155.571 15.296C155.838 15.36 156.185 15.424 156.611 15.488C156.953 15.5413 157.203 15.584 157.363 15.616C157.523 15.6373 157.758 15.6853 158.067 15.76C158.387 15.8347 158.627 15.9253 158.787 16.032C158.958 16.1387 159.139 16.272 159.331 16.432C159.523 16.592 159.662 16.7947 159.747 17.04C159.833 17.2747 159.875 17.5467 159.875 17.856C159.865 18.3787 159.694 18.8213 159.363 19.184C159.043 19.5467 158.649 19.8027 158.179 19.952C157.71 20.0907 157.193 20.16 156.627 20.16C155.049 20.16 153.881 19.648 153.123 18.624L153.795 17.888C154.414 18.72 155.363 19.1467 156.643 19.168C157.209 19.168 157.71 19.0667 158.147 18.864C158.585 18.6613 158.803 18.32 158.803 17.84C158.803 17.5947 158.75 17.3867 158.643 17.216C158.537 17.0453 158.361 16.912 158.115 16.816C157.87 16.7093 157.635 16.6347 157.411 16.592C157.198 16.5387 156.899 16.4853 156.515 16.432C156.153 16.3787 155.843 16.3253 155.587 16.272C155.342 16.2187 155.07 16.1387 154.771 16.032C154.473 15.9147 154.233 15.7867 154.051 15.648C153.87 15.4987 153.715 15.3013 153.587 15.056C153.459 14.8107 153.395 14.5333 153.395 14.224C153.395 13.4667 153.71 12.896 154.339 12.512C154.969 12.1173 155.715 11.9253 156.579 11.936C157.785 11.936 158.777 12.2933 159.555 13.008ZM165.936 8.8H166.992V13.472C167.589 12.5013 168.506 12.0053 169.744 11.984C170.821 11.984 171.637 12.3093 172.192 12.96C172.757 13.6 173.04 14.4693 173.04 15.568V20H171.968V15.568C171.968 14.7573 171.77 14.128 171.376 13.68C170.981 13.232 170.394 13.008 169.616 13.008C168.858 13.008 168.234 13.2693 167.744 13.792C167.253 14.3147 167.008 14.9653 167.008 15.744V20H165.936V8.8ZM182.908 16.496H176.028C176.102 17.3067 176.417 17.9467 176.972 18.416C177.537 18.8853 178.22 19.12 179.02 19.12C179.521 19.12 180.022 19.024 180.524 18.832C181.036 18.64 181.425 18.3733 181.692 18.032L182.411 18.672C182.038 19.1413 181.542 19.504 180.924 19.76C180.305 20.016 179.67 20.144 179.02 20.144C177.825 20.144 176.844 19.7707 176.076 19.024C175.308 18.2773 174.924 17.28 174.924 16.032C174.924 14.848 175.302 13.872 176.06 13.104C176.828 12.336 177.798 11.952 178.972 11.952C180.23 11.952 181.238 12.3413 181.996 13.12C182.753 13.888 183.057 15.0133 182.908 16.496ZM176.028 15.584H181.9C181.889 14.752 181.606 14.1013 181.052 13.632C180.497 13.152 179.809 12.912 178.988 12.912C178.188 12.912 177.521 13.1467 176.988 13.616C176.454 14.0853 176.134 14.7413 176.028 15.584ZM184.811 12.096H185.819L185.883 13.392C186.117 12.9013 186.464 12.544 186.923 12.32C187.381 12.0853 187.872 11.968 188.395 11.968C189.056 11.968 189.653 12.1547 190.187 12.528L189.691 13.424C189.285 13.1467 188.832 13.008 188.331 13.008C187.637 13.0187 187.056 13.2587 186.587 13.728C186.117 14.1973 185.883 14.7893 185.883 15.504V20H184.811V12.096ZM198.689 16.496H191.809C191.883 17.3067 192.198 17.9467 192.753 18.416C193.318 18.8853 194.001 19.12 194.801 19.12C195.302 19.12 195.803 19.024 196.305 18.832C196.817 18.64 197.206 18.3733 197.473 18.032L198.193 18.672C197.819 19.1413 197.323 19.504 196.705 19.76C196.086 20.016 195.451 20.144 194.801 20.144C193.606 20.144 192.625 19.7707 191.857 19.024C191.089 18.2773 190.705 17.28 190.705 16.032C190.705 14.848 191.083 13.872 191.841 13.104C192.609 12.336 193.579 11.952 194.753 11.952C196.011 11.952 197.019 12.3413 197.777 13.12C198.534 13.888 198.838 15.0133 198.689 16.496ZM191.809 15.584H197.681C197.67 14.752 197.387 14.1013 196.833 13.632C196.278 13.152 195.59 12.912 194.769 12.912C193.969 12.912 193.302 13.1467 192.769 13.616C192.235 14.0853 191.915 14.7413 191.809 15.584ZM208.316 11.952C209.478 11.952 210.444 12.336 211.212 13.104C211.99 13.872 212.38 14.8587 212.38 16.064C212.38 17.28 211.996 18.2613 211.228 19.008C210.47 19.7547 209.5 20.128 208.316 20.128C207.142 20.128 206.172 19.7547 205.404 19.008C204.636 18.2507 204.252 17.2693 204.252 16.064C204.252 14.848 204.63 13.8613 205.388 13.104C206.145 12.336 207.121 11.952 208.316 11.952ZM210.46 13.808C209.905 13.2213 209.19 12.928 208.316 12.928C207.441 12.928 206.721 13.2213 206.156 13.808C205.601 14.3947 205.324 15.1467 205.324 16.064C205.324 16.9813 205.601 17.7227 206.156 18.288C206.721 18.8427 207.441 19.12 208.316 19.12C209.212 19.12 209.932 18.8427 210.476 18.288C211.03 17.7227 211.308 16.9813 211.308 16.064C211.308 15.1467 211.025 14.3947 210.46 13.808ZM214.357 12.096H215.365L215.429 13.392C215.664 12.9013 216.011 12.544 216.469 12.32C216.928 12.0853 217.419 11.968 217.941 11.968C218.603 11.968 219.2 12.1547 219.733 12.528L219.237 13.424C218.832 13.1467 218.379 13.008 217.877 13.008C217.184 13.0187 216.603 13.2587 216.133 13.728C215.664 14.1973 215.429 14.7893 215.429 15.504V20H214.357V12.096Z" fill="#4247E5"/>
<path d="M231.424 13.744C230.795 13.744 230.256 13.9627 229.808 14.4C229.36 14.8267 229.136 15.376 229.136 16.048C229.136 16.7413 229.355 17.3013 229.792 17.728C230.24 18.1547 230.784 18.368 231.424 18.368C232.053 18.368 232.581 18.1547 233.008 17.728C233.445 17.2907 233.664 16.7307 233.664 16.048C233.664 15.3547 233.451 14.8 233.024 14.384C232.597 13.9573 232.064 13.744 231.424 13.744ZM227.056 8.816H229.008V13.184C229.221 12.8 229.589 12.496 230.112 12.272C230.645 12.0373 231.141 11.92 231.6 11.92C232.795 11.92 233.76 12.2773 234.496 12.992C235.243 13.7067 235.616 14.7253 235.616 16.048C235.616 17.3173 235.232 18.3253 234.464 19.072C233.707 19.808 232.736 20.176 231.552 20.176C230.4 20.176 229.552 19.7547 229.008 18.912L228.88 20H227.056V8.816ZM237.259 12.112H239.067L239.211 13.024C239.488 12.576 239.808 12.2773 240.171 12.128C240.534 11.9787 240.955 11.904 241.435 11.904C242.288 11.904 242.966 12.1547 243.467 12.656L242.587 14.352C242.182 14.0107 241.712 13.84 241.179 13.84C240.614 13.84 240.144 14.0053 239.771 14.336C239.398 14.656 239.211 15.1573 239.211 15.84V20H237.259V12.112ZM244.946 13.136C245.693 12.3467 246.679 11.952 247.906 11.952C249.133 11.952 250.125 12.3467 250.882 13.136C251.65 13.9253 252.034 14.9013 252.034 16.064C252.034 17.2373 251.661 18.2187 250.914 19.008C250.167 19.7867 249.17 20.176 247.922 20.176C246.674 20.176 245.677 19.7867 244.93 19.008C244.194 18.2187 243.826 17.2373 243.826 16.064C243.826 14.9013 244.199 13.9253 244.946 13.136ZM247.922 13.728C247.25 13.728 246.722 13.9573 246.338 14.416C245.965 14.8747 245.778 15.424 245.778 16.064C245.778 16.704 245.965 17.2533 246.338 17.712C246.722 18.16 247.25 18.384 247.922 18.384C248.594 18.384 249.117 18.16 249.49 17.712C249.874 17.2533 250.066 16.704 250.066 16.064C250.066 15.4453 249.863 14.9013 249.458 14.432C249.063 13.9627 248.551 13.728 247.922 13.728ZM258.375 12.096H260.087L261.815 18.032L263.623 12.096H265.783L263.031 20.032H260.759L259.943 17.696L259.239 15.056L258.535 17.696L257.719 20.032H255.447L252.679 12.096H254.855L256.663 18.032L258.375 12.096ZM273.042 12.928L271.954 14.208C271.452 13.7387 270.802 13.504 270.002 13.504C269.042 13.504 268.562 13.7653 268.562 14.288C268.562 14.8 269.052 15.088 270.034 15.152C270.386 15.1733 270.695 15.2053 270.962 15.248C271.239 15.2907 271.538 15.3707 271.858 15.488C272.178 15.5947 272.444 15.7387 272.658 15.92C272.871 16.0907 273.047 16.3253 273.186 16.624C273.335 16.9227 273.41 17.2747 273.41 17.68C273.41 18.416 273.111 19.0347 272.514 19.536C271.927 20.0267 271.095 20.272 270.018 20.272C269.292 20.272 268.636 20.176 268.049 19.984C267.463 19.792 266.903 19.4187 266.37 18.864L267.33 17.472C268.012 18.1867 268.919 18.5547 270.049 18.576C270.444 18.5867 270.78 18.5173 271.058 18.368C271.335 18.208 271.474 17.9893 271.474 17.712C271.474 17.168 270.951 16.864 269.906 16.8C269.49 16.768 269.106 16.7093 268.754 16.624C268.402 16.528 268.055 16.3947 267.714 16.224C267.383 16.0427 267.122 15.792 266.93 15.472C266.738 15.152 266.642 14.7787 266.642 14.352C266.642 13.9147 266.743 13.5307 266.946 13.2C267.159 12.8693 267.431 12.6133 267.762 12.432C268.103 12.2507 268.46 12.1173 268.834 12.032C269.207 11.936 269.586 11.888 269.97 11.888C271.228 11.888 272.252 12.2347 273.042 12.928ZM282.659 16.752H276.499C276.563 17.2533 276.803 17.6587 277.219 17.968C277.635 18.2773 278.179 18.432 278.851 18.432C279.235 18.432 279.629 18.368 280.035 18.24C280.44 18.1013 280.749 17.92 280.963 17.696L282.211 18.928C281.816 19.344 281.309 19.664 280.691 19.888C280.072 20.1013 279.448 20.208 278.819 20.208C277.475 20.208 276.413 19.8293 275.635 19.072C274.867 18.304 274.483 17.28 274.483 16C274.483 14.784 274.861 13.792 275.619 13.024C276.387 12.256 277.405 11.872 278.675 11.872C280.029 11.872 281.069 12.2933 281.795 13.136C282.52 13.968 282.808 15.1733 282.659 16.752ZM276.531 15.136H280.787C280.723 14.6347 280.509 14.256 280.147 14C279.784 13.7333 279.315 13.6 278.739 13.6C278.195 13.6 277.725 13.7333 277.331 14C276.936 14.256 276.669 14.6347 276.531 15.136Z" fill="#4247E5"/>
<path d="M18.7528 20.7316H14.8737H13.8292H13.6036V15.5285H15.3053C15.7368 15.5285 15.9918 15.0381 15.7368 14.685L12.4266 10.1047C12.2158 9.81044 11.7793 9.81044 11.5685 10.1047L8.25828 14.685C8.00327 15.0381 8.25337 15.5285 8.68982 15.5285H10.3915V20.7316H10.1659H9.12137H4.62444C2.04986 20.5894 0 18.1815 0 15.5726C0 13.7728 0.975889 12.2036 2.42256 11.3552C2.29015 10.9972 2.2215 10.6147 2.2215 10.2126C2.2215 8.37358 3.7074 6.88768 5.54638 6.88768C5.9436 6.88768 6.32611 6.95634 6.6841 7.08874C7.74826 4.83292 10.0433 3.26855 12.7111 3.26855C16.1635 3.27346 19.0078 5.9167 19.3314 9.28572C21.9845 9.74179 24 12.1987 24 14.9792C24 17.951 21.6853 20.5256 18.7528 20.7316Z" fill="#4247E5" fill-opacity="0.8"/>
</svg>
