<svg width="72" height="72" viewBox="0 0 72 72" fill="none" xmlns="http://www.w3.org/2000/svg">
<circle cx="36" cy="36" r="36" fill="#E33C5C" fill-opacity="0.1"/>
<path d="M38.8638 36.948H33.1311C32.6161 36.948 32.1985 37.3656 32.1985 37.8806V53.689C32.1985 53.8607 32.3377 53.9999 32.5094 53.9999H39.4856C39.6572 53.9999 39.7964 53.8607 39.7964 53.689V37.8806C39.7964 37.3656 39.3789 36.948 38.8638 36.948Z" fill="#E33C5C"/>
<path d="M48.3314 42.5593H42.5994C42.0843 42.5593 41.6667 42.9769 41.6667 43.492V53.6889C41.6667 53.8606 41.806 53.9998 41.9776 53.9998H48.9532C49.1249 53.9998 49.2641 53.8606 49.2641 53.6889V43.492C49.2641 42.9769 48.8465 42.5593 48.3314 42.5593Z" fill="#E33C5C"/>
<path d="M29.4005 46.6792H23.6685C23.1534 46.6792 22.7358 47.0968 22.7358 47.6118V53.689C22.7358 53.8606 22.8751 53.9999 23.0467 53.9999H30.0223C30.194 53.9999 30.3332 53.8606 30.3332 53.689V47.6118C30.3332 47.0968 29.9156 46.6792 29.4005 46.6792Z" fill="#E33C5C"/>
<path d="M32.6893 22.4997V23.9521H31.6488V25.1529H32.6893V27.5887C32.6893 28.9954 33.481 29.693 34.6911 29.6472C35.1095 29.6358 35.4375 29.5672 35.8334 29.4071L35.4488 28.2177C35.2453 28.3206 34.9964 28.3893 34.7816 28.3893C34.3518 28.3893 34.0577 28.1262 34.0577 27.5887V25.1529H35.6072V23.9521H34.0691V22.3511L32.6893 22.4997Z" fill="#E33C5C"/>
<path d="M37.2065 22.4997V23.9521H36.166V25.1529H37.2065V27.5887C37.2065 28.9954 37.9982 29.693 39.2083 29.6472C39.6267 29.6358 39.9547 29.5672 40.3506 29.4071L39.966 28.2177C39.7625 28.3206 39.5137 28.3893 39.2988 28.3893C38.869 28.3893 38.575 28.1262 38.575 27.5887V25.1529H40.1244V23.9521H38.5863V22.3511L37.2065 22.4997Z" fill="#E33C5C"/>
<path fill-rule="evenodd" clip-rule="evenodd" d="M36 19.3333C32.3181 19.3333 29.3333 22.3181 29.3333 26C29.3333 29.6819 32.3181 32.6667 36 32.6667C39.6819 32.6667 42.6667 29.6819 42.6667 26C42.6667 22.3181 39.6819 19.3333 36 19.3333ZM28 26C28 21.5817 31.5817 18 36 18C40.4183 18 44 21.5817 44 26C44 30.4183 40.4183 34 36 34C31.5817 34 28 30.4183 28 26Z" fill="#E33C5C"/>
</svg>
