<svg width="72" height="72" viewBox="0 0 72 72" fill="none" xmlns="http://www.w3.org/2000/svg">
<circle cx="36" cy="36" r="36" fill="#FBCB21" fill-opacity="0.1"/>
<path d="M17.4966 35.3334H18.6666C18.8434 35.3334 19.013 35.4037 19.138 35.5287C19.263 35.6537 19.3333 35.8233 19.3333 36.0001C19.3306 38.8861 20.0791 41.723 21.5052 44.232C22.9312 46.741 24.9857 48.8357 27.4666 50.3101C27.6726 49.48 28.1332 48.7352 28.7839 48.1801L28.9093 48.0714C26.8011 46.8409 25.0532 45.0781 23.8406 42.9596C22.628 40.841 21.9933 38.4411 21.9999 36.0001C21.9999 35.8233 22.0702 35.6537 22.1952 35.5287C22.3202 35.4037 22.4898 35.3334 22.6666 35.3334H23.8366C23.868 35.3349 23.899 35.3266 23.9255 35.3098C23.9519 35.293 23.9726 35.2684 23.9846 35.2394C23.9983 35.2125 24.0033 35.182 23.9989 35.1522C23.9945 35.1223 23.9809 35.0945 23.9599 35.0728L20.7906 31.3894C20.7752 31.3719 20.7561 31.3578 20.7348 31.3481C20.7135 31.3385 20.6903 31.3335 20.6669 31.3335C20.6435 31.3335 20.6204 31.3385 20.5991 31.3481C20.5778 31.3578 20.5587 31.3719 20.5433 31.3894L17.3733 35.0728C17.3524 35.0945 17.3388 35.1223 17.3343 35.1522C17.3299 35.182 17.3349 35.2125 17.3486 35.2394C17.3606 35.2684 17.3813 35.293 17.4078 35.3098C17.4343 35.3266 17.4653 35.3349 17.4966 35.3334Z" fill="#FBCB21"/>
<path d="M23.8253 28.778L23.9339 28.9047C25.163 26.7968 26.9249 25.0492 29.0427 23.8373C31.1606 22.6253 33.5599 21.9917 35.9999 22C36.1768 22 36.3463 22.0703 36.4713 22.1953C36.5964 22.3203 36.6666 22.4899 36.6666 22.6667V23.8367C36.6652 23.868 36.6734 23.899 36.6902 23.9255C36.7071 23.952 36.7316 23.9727 36.7606 23.9847C36.7875 23.9983 36.818 24.0032 36.8479 23.9988C36.8777 23.9944 36.9054 23.9808 36.9273 23.96L40.6099 20.7907C40.6276 20.7752 40.6418 20.7562 40.6515 20.7348C40.6612 20.7134 40.6663 20.6902 40.6663 20.6667C40.6663 20.6432 40.6612 20.62 40.6515 20.5986C40.6418 20.5772 40.6276 20.5581 40.6099 20.5427L36.9273 17.3733C36.9053 17.3527 36.8776 17.3393 36.8478 17.3348C36.818 17.3304 36.7876 17.3353 36.7606 17.3487C36.7316 17.3607 36.7071 17.3814 36.6902 17.4078C36.6734 17.4343 36.6652 17.4653 36.6666 17.4967V18.6667C36.6666 18.8435 36.5964 19.0131 36.4713 19.1381C36.3463 19.2631 36.1768 19.3333 35.9999 19.3333C33.114 19.3305 30.2769 20.0789 27.7679 21.505C25.2588 22.9311 23.1642 24.9856 21.6899 27.4667C22.5199 27.6734 23.2652 28.1325 23.8233 28.7807L23.8253 28.778Z" fill="#FBCB21"/>
<path d="M35.2394 48.0153C35.2184 48.0057 35.1957 48.0005 35.1727 48C35.1362 48.0009 35.1013 48.0151 35.0747 48.04L31.3907 51.2093C31.3731 51.2248 31.359 51.2439 31.3494 51.2653C31.3397 51.2867 31.3347 51.3099 31.3347 51.3333C31.3347 51.3568 31.3397 51.38 31.3494 51.4014C31.359 51.4227 31.3731 51.4418 31.3907 51.4573L35.074 54.6267C35.096 54.6473 35.1237 54.6608 35.1535 54.6652C35.1833 54.6696 35.2137 54.6648 35.2407 54.6513C35.2694 54.6391 35.2937 54.6184 35.3103 54.5919C35.3268 54.5654 35.3349 54.5345 35.3334 54.5033V53.3333C35.3334 53.1565 35.4036 52.9869 35.5286 52.8619C35.6536 52.7369 35.8232 52.6667 36 52.6667C38.8861 52.6694 41.7232 51.921 44.2323 50.4949C46.7415 49.0689 48.8362 47.0143 50.3107 44.5333C49.4808 44.3231 48.7359 43.8622 48.1774 43.2133L48.074 43.094C46.8428 45.2019 45.0794 46.9494 42.9604 48.1614C40.8414 49.3734 38.4412 50.0075 36 50C35.8232 50 35.6536 49.9298 35.5286 49.8047C35.4036 49.6797 35.3334 49.5101 35.3334 49.3333V48.1633C35.3348 48.132 35.3265 48.101 35.3097 48.0745C35.2929 48.048 35.2683 48.0273 35.2394 48.0153Z" fill="#FBCB21"/>
<path d="M50 36.0001C50 36.1769 49.9297 36.3465 49.8047 36.4715C49.6797 36.5965 49.5101 36.6668 49.3333 36.6668H48.1633C48.132 36.6654 48.101 36.6736 48.0745 36.6904C48.048 36.7072 48.0273 36.7318 48.0153 36.7608C48.0016 36.7877 47.9966 36.8182 48.001 36.8481C48.0055 36.8779 48.0191 36.9057 48.04 36.9275L51.2093 40.6101C51.2221 40.6315 51.2402 40.6493 51.2619 40.6616C51.2836 40.6739 51.3081 40.6803 51.333 40.6803C51.3579 40.6803 51.3824 40.6739 51.4041 40.6616C51.4258 40.6493 51.4439 40.6315 51.4567 40.6101L54.6267 36.9268C54.6476 36.905 54.6612 36.8773 54.6656 36.8474C54.67 36.8175 54.665 36.787 54.6513 36.7601C54.6392 36.7313 54.6185 36.7068 54.592 36.6901C54.5655 36.6735 54.5346 36.6653 54.5033 36.6668H53.3333C53.1565 36.6668 52.9869 36.5965 52.8619 36.4715C52.7369 36.3465 52.6667 36.1769 52.6667 36.0001C52.6695 33.114 51.9211 30.2769 50.4951 27.7677C49.069 25.2586 47.0144 23.1638 44.5333 21.6895C44.3234 22.5195 43.8624 23.2645 43.2133 23.8228L43.0927 23.9268C45.2007 25.1578 46.9484 26.921 48.1607 29.0399C49.3729 31.1588 50.0072 33.559 50 36.0001Z" fill="#FBCB21"/>
<path d="M32.6893 32.4997V33.9521H31.6488V35.1529H32.6893V37.5887C32.6893 38.9954 33.481 39.693 34.6911 39.6472C35.1095 39.6358 35.4375 39.5672 35.8334 39.4071L35.4488 38.2177C35.2453 38.3206 34.9964 38.3893 34.7816 38.3893C34.3518 38.3893 34.0577 38.1262 34.0577 37.5887V35.1529H35.6072V33.9521H34.0691V32.3511L32.6893 32.4997Z" fill="#FBCB21"/>
<path d="M37.2065 32.4997V33.9521H36.166V35.1529H37.2065V37.5887C37.2065 38.9954 37.9982 39.693 39.2083 39.6472C39.6267 39.6358 39.9547 39.5672 40.3506 39.4071L39.966 38.2177C39.7625 38.3206 39.5137 38.3893 39.2988 38.3893C38.869 38.3893 38.575 38.1262 38.575 37.5887V35.1529H40.1244V33.9521H38.5863V32.3511L37.2065 32.4997Z" fill="#FBCB21"/>
<path fill-rule="evenodd" clip-rule="evenodd" d="M36 29.3333C32.3181 29.3333 29.3333 32.3181 29.3333 36C29.3333 39.6819 32.3181 42.6667 36 42.6667C39.6819 42.6667 42.6667 39.6819 42.6667 36C42.6667 32.3181 39.6819 29.3333 36 29.3333ZM28 36C28 31.5817 31.5817 28 36 28C40.4183 28 44 31.5817 44 36C44 40.4183 40.4183 44 36 44C31.5817 44 28 40.4183 28 36Z" fill="#FBCB21"/>
</svg>
