<svg width="24" height="24" viewBox="0 0 24 24" fill="none" xmlns="http://www.w3.org/2000/svg">
<rect width="24" height="24" rx="12" fill="#4247E5"/>
<path d="M10.6561 12.7281C10.6141 12.7281 9.69007 12.7281 9.27007 12.7281C9.04607 12.7281 8.97607 12.6441 8.97607 12.4341C8.97607 11.8741 8.97607 11.3001 8.97607 10.7401C8.97607 10.5161 9.06007 10.4461 9.27007 10.4461H10.6561C10.6561 10.4041 10.6561 9.59206 10.6561 9.21406C10.6561 8.65406 10.7541 8.12206 11.0341 7.63206C11.3281 7.12806 11.7481 6.79206 12.2801 6.59606C12.6301 6.47006 12.9801 6.41406 13.3581 6.41406H14.7301C14.9261 6.41406 15.0101 6.49806 15.0101 6.69406V8.29006C15.0101 8.48606 14.9261 8.57006 14.7301 8.57006C14.3521 8.57006 13.9741 8.57006 13.5961 8.58406C13.2181 8.58406 13.0221 8.76606 13.0221 9.15806C13.0081 9.57806 13.0221 9.98406 13.0221 10.4181H14.6461C14.8701 10.4181 14.9541 10.5021 14.9541 10.7261V12.4201C14.9541 12.6441 14.8841 12.7141 14.6461 12.7141C14.1421 12.7141 13.0641 12.7141 13.0221 12.7141V17.2781C13.0221 17.5161 12.9521 17.6001 12.7001 17.6001C12.1121 17.6001 11.5381 17.6001 10.9501 17.6001C10.7401 17.6001 10.6561 17.5161 10.6561 17.3061C10.6561 15.8361 10.6561 12.7701 10.6561 12.7281V12.7281Z" fill="white"/>
</svg>
