<svg width="24" height="24" viewBox="0 0 24 24" fill="none" xmlns="http://www.w3.org/2000/svg">
<rect width="24" height="24" rx="12" fill="#4247E5"/>
<path d="M16.7999 16.3003V12.7843C16.7999 11.0563 16.4279 9.73633 14.4119 9.73633C13.4399 9.73633 12.7919 10.2643 12.5279 10.7683H12.5039V9.89233H10.5959V16.3003H12.5879V13.1203C12.5879 12.2803 12.7439 11.4763 13.7759 11.4763C14.7959 11.4763 14.8079 12.4243 14.8079 13.1683V16.2883H16.7999V16.3003Z" fill="white"/>
<path d="M7.35596 9.89209H9.34796V16.3001H7.35596V9.89209Z" fill="white"/>
<path d="M8.35195 6.7002C7.71595 6.7002 7.19995 7.2162 7.19995 7.8522C7.19995 8.4882 7.71595 9.0162 8.35195 9.0162C8.98795 9.0162 9.50395 8.4882 9.50395 7.8522C9.50395 7.2162 8.98795 6.7002 8.35195 6.7002V6.7002Z" fill="white"/>
</svg>
