<svg width="24" height="24" viewBox="0 0 24 24" fill="none" xmlns="http://www.w3.org/2000/svg">
<rect width="24" height="24" rx="12" fill="#4247E5"/>
<path d="M13.7756 12.498L12.7706 13.5065C12.363 13.9155 11.6459 13.9243 11.2296 13.5065L10.2245 12.498L6.61475 16.1195C6.74911 16.1816 6.89726 16.2187 7.05476 16.2187H16.9454C17.1029 16.2187 17.251 16.1817 17.3853 16.1195L13.7756 12.498Z" fill="white"/>
<path d="M16.9453 7.78125H7.05471C6.89721 7.78125 6.74907 7.81833 6.61475 7.88046L10.472 11.7505C10.4723 11.7508 10.4726 11.7508 10.4728 11.7511C10.4731 11.7514 10.4731 11.7517 10.4731 11.7517L11.7274 13.0101C11.8606 13.1433 12.1395 13.1433 12.2727 13.0101L13.5267 11.7519C13.5267 11.7519 13.527 11.7514 13.5273 11.7511C13.5273 11.7511 13.5278 11.7508 13.5281 11.7505L17.3853 7.88044C17.2509 7.81828 17.1028 7.78125 16.9453 7.78125Z" fill="white"/>
<path d="M6.11217 8.37207C6.04266 8.51265 6 8.6687 6 8.83585V15.164C6 15.3311 6.04261 15.4872 6.11215 15.6278L9.72816 12L6.11217 8.37207Z" fill="white"/>
<path d="M17.8879 8.37207L14.272 12.0001L17.8879 15.6279C17.9574 15.4873 18.0001 15.3312 18.0001 15.164V8.8359C18.0001 8.6687 17.9574 8.51265 17.8879 8.37207Z" fill="white"/>
</svg>
