<svg width="24" height="24" viewBox="0 0 24 24" fill="none" xmlns="http://www.w3.org/2000/svg">
<rect width="24" height="24" rx="12" fill="#4247E5"/>
<g clip-path="url(#clip0_686_4078)">
<path d="M17.6734 14.8068L15.9987 13.1322C15.4006 12.5341 14.3839 12.7733 14.1447 13.5508C13.9652 14.0891 13.3672 14.3882 12.8289 14.2685C11.6327 13.9695 10.0179 12.4145 9.71885 11.1585C9.53942 10.6202 9.89827 10.0221 10.4365 9.84269C11.2141 9.60346 11.4533 8.58671 10.8552 7.98863L9.18057 6.31399C8.7021 5.89534 7.9844 5.89534 7.56574 6.31399L6.42938 7.45035C5.29302 8.64652 6.549 11.8164 9.36 14.6274C12.171 17.4384 15.3408 18.7542 16.537 17.558L17.6734 16.4216C18.092 15.9432 18.092 15.2254 17.6734 14.8068Z" fill="white"/>
</g>
<defs>
<clipPath id="clip0_686_4078">
<rect width="12" height="12" fill="white" transform="translate(6 6)"/>
</clipPath>
</defs>
</svg>
