<svg width="72" height="72" viewBox="0 0 72 72" fill="none" xmlns="http://www.w3.org/2000/svg">
<circle cx="36" cy="36" r="36" fill="#FBCB21" fill-opacity="0.1"/>
<g clip-path="url(#clip0_736_10329)">
<path d="M36 50C43.73 50 50 43.73 50 36C50 28.27 43.73 22 36 22C28.27 22 22 28.27 22 36C22 43.73 28.27 50 36 50ZM35 28C35 27.45 35.45 27 36 27C36.55 27 37 27.45 37 28V35.52L41.625 39.22C42.0551 39.565 42.125 40.195 41.78 40.625C41.585 40.87 41.295 41 41 41C40.78 41 40.56 40.93 40.375 40.78L35.375 36.78C35.14 36.59 35.0001 36.305 35.0001 36V28H35Z" fill="#FBCB21"/>
</g>
<defs>
<clipPath id="clip0_736_10329">
<rect width="28" height="28" fill="white" transform="translate(22 22)"/>
</clipPath>
</defs>
</svg>
