<svg width="72" height="72" viewBox="0 0 72 72" fill="none" xmlns="http://www.w3.org/2000/svg">
<circle cx="36" cy="36" r="36" fill="#4247E5" fill-opacity="0.05"/>
<path d="M40.0458 48.5476C40.0458 48.9945 39.6831 49.3571 39.2362 49.3571H32.76C32.3132 49.3571 31.9505 48.9945 31.9505 48.5476C31.9505 48.1007 32.3132 47.738 32.76 47.738H39.2362C39.6831 47.7381 40.0458 48.1008 40.0458 48.5476ZM39.2362 49.7619H32.76C32.2274 49.7619 31.8149 50.2764 31.9922 50.8354C32.0991 51.1725 32.4403 51.381 32.7941 51.381H32.8062C33.2737 51.381 33.7012 51.6452 33.9104 52.0634L33.9189 52.0804C34.2011 52.6438 34.777 53 35.4072 53H36.5892C37.2194 53 37.7953 52.6438 38.0771 52.0804L38.0856 52.0634C38.2949 51.6453 38.7222 51.381 39.1897 51.381H39.2019C39.5556 51.381 39.8969 51.1725 40.0037 50.8354C40.1814 50.2764 39.7689 49.7619 39.2362 49.7619ZM35.9982 23.8571C36.445 23.8571 36.8077 23.4945 36.8077 23.0476V19.8095C36.8077 19.3627 36.445 19 35.9982 19C35.5513 19 35.1886 19.3627 35.1886 19.8095V23.0476C35.1886 23.4945 35.5513 23.8571 35.9982 23.8571ZM27.412 26.9394C27.5698 27.0977 27.7771 27.1766 27.9843 27.1766C28.1915 27.1766 28.3987 27.0977 28.5566 26.9394C28.8727 26.6233 28.8727 26.1108 28.5566 25.7948L26.2669 23.505C25.9512 23.1889 25.4379 23.1889 25.1222 23.505C24.8061 23.8211 24.8061 24.3335 25.1222 24.6496L27.412 26.9394ZM25.4743 34.381C25.4743 33.9341 25.1117 33.5714 24.6648 33.5714H21.4267C20.9799 33.5714 20.6172 33.9341 20.6172 34.381C20.6172 34.8278 20.9799 35.1905 21.4267 35.1905H24.6648C25.1117 35.1905 25.4743 34.8278 25.4743 34.381ZM27.412 41.8225L25.1222 44.1123C24.8061 44.4284 24.8061 44.9408 25.1222 45.2569C25.2801 45.4152 25.4873 45.494 25.6946 45.494C25.9018 45.494 26.109 45.4152 26.2669 45.2569L28.5566 42.9671C28.8727 42.651 28.8727 42.1386 28.5566 41.8225C28.2409 41.5064 27.7277 41.5064 27.412 41.8225ZM44.5844 41.8225C44.2683 41.5064 43.7558 41.5064 43.4397 41.8225C43.1237 42.1386 43.1236 42.6511 43.4397 42.9671L45.7295 45.2569C45.8877 45.4152 46.0946 45.494 46.3018 45.494C46.509 45.494 46.7159 45.4152 46.8742 45.2569C47.1903 44.9408 47.1903 44.4283 46.8742 44.1123L44.5844 41.8225ZM50.5696 33.5714H47.3315C46.8846 33.5714 46.5219 33.9341 46.5219 34.381C46.5219 34.8278 46.8846 35.1905 47.3315 35.1905H50.5696C51.0164 35.1905 51.3791 34.8278 51.3791 34.381C51.3791 33.9341 51.0164 33.5714 50.5696 33.5714ZM44.012 27.1766C44.2192 27.1766 44.4261 27.0977 44.5843 26.9394L46.8741 24.6496C47.1902 24.3335 47.1902 23.8211 46.8741 23.505C46.558 23.1889 46.0455 23.1889 45.7294 23.505L43.4397 25.7948C43.1236 26.1109 43.1236 26.6233 43.4397 26.9394C43.5976 27.0977 43.8048 27.1766 44.012 27.1766ZM40.0458 46.5238C40.0458 46.9707 39.6831 47.3333 39.2362 47.3333H32.76C32.3132 47.3333 31.9505 46.9707 31.9505 46.5238C31.9505 46.0927 32.2885 45.7435 32.7135 45.7191C32.2096 41.1639 27.4981 40.1492 27.4981 34.7857C27.4981 30.0913 31.3037 26.2857 35.9981 26.2857C40.6925 26.2857 44.4981 30.0913 44.4981 34.7857C44.4981 40.1492 39.7867 41.1639 39.2828 45.7192C39.7078 45.7435 40.0458 46.0927 40.0458 46.5238ZM34.1326 28.5564C34.0067 28.246 33.6534 28.0966 33.3417 28.2217C31.273 29.0599 29.7046 30.8518 29.1464 33.0148C29.0625 33.3398 29.2581 33.6705 29.5827 33.7543C29.6333 33.7677 29.6843 33.7738 29.7345 33.7738C30.0049 33.7738 30.2514 33.592 30.3222 33.3184C30.7845 31.5261 32.0838 30.0414 33.7975 29.3473C34.1083 29.2215 34.2581 28.8677 34.1326 28.5564Z" fill="#4247E5"/>
</svg>
