<svg width="72" height="72" viewBox="0 0 72 72" fill="none" xmlns="http://www.w3.org/2000/svg">
<circle cx="36" cy="36" r="36" fill="#E33C5C" fill-opacity="0.1"/>
<g clip-path="url(#clip0_736_10298)">
<path d="M28.5438 27.6773L39.706 24.6305L39.1149 23.4356C38.7281 22.659 37.7849 22.3383 37.0082 22.725L27.0156 27.6773H28.5438Z" fill="#E33C5C"/>
<path d="M43.1709 24.7185C43.0326 24.7185 42.8942 24.7374 42.7559 24.7751L40.1336 25.492L32.125 27.6773H41.2152H45.177L44.6865 25.8788C44.4978 25.1776 43.8627 24.7185 43.1709 24.7185Z" fill="#E33C5C"/>
<path d="M46.8148 28.7778H46.4564H45.969H45.4816H41.7619H28.0937H26.3014H24.7921H24.5123H23.5753C23.0785 28.7778 22.6351 29.0074 22.3459 29.369C22.2138 29.5356 22.1132 29.7274 22.0566 29.9381C22.022 30.0701 22 30.2085 22 30.35V30.5386V32.3309V47.8669C22 48.7347 22.7043 49.439 23.5722 49.439H46.8117C47.6795 49.439 48.3838 48.7347 48.3838 47.8669V43.4806H39.0547C37.58 43.4806 36.382 42.2826 36.382 40.8079V39.3678V38.8805V38.3931V37.3115C36.382 36.5883 36.6713 35.9311 37.1398 35.4501C37.5549 35.0224 38.1114 34.7331 38.734 34.6608C38.8377 34.6483 38.9446 34.642 39.0515 34.642H47.0758H47.5632H48.0505H48.3838V30.35C48.387 29.4822 47.6827 28.7778 46.8148 28.7778Z" fill="#E33C5C"/>
<path d="M49.4893 36.1449C49.3321 36.0003 49.1466 35.8902 48.9391 35.8179C48.7787 35.7645 48.6089 35.733 48.4297 35.733H48.3888H48.3574H47.87H46.1123H39.0565C38.1887 35.733 37.4844 36.4373 37.4844 37.3052V38.0881V38.5754V39.0628V40.8048C37.4844 41.6726 38.1887 42.3769 39.0565 42.3769H48.3888H48.4297C48.6089 42.3769 48.7787 42.3455 48.9391 42.292C49.1466 42.2228 49.3321 42.1096 49.4893 41.965C49.8037 41.6789 50.0018 41.2638 50.0018 40.8048V37.3052C50.0018 36.8461 49.8037 36.431 49.4893 36.1449ZM42.3392 39.3678C42.3392 39.8017 41.987 40.1539 41.5531 40.1539H41.0311C40.5972 40.1539 40.2451 39.8017 40.2451 39.3678V38.8459C40.2451 38.5943 40.3614 38.371 40.5469 38.2295C40.6821 38.1258 40.8488 38.0598 41.0311 38.0598H41.1632H41.5531C41.987 38.0598 42.3392 38.4119 42.3392 38.8459V39.3678Z" fill="#E33C5C"/>
</g>
<defs>
<clipPath id="clip0_736_10298">
<rect width="28" height="28" fill="white" transform="translate(22 22)"/>
</clipPath>
</defs>
</svg>
